<svg version="1.1" xmlns="http://www.w3.org/2000/svg" xmlns:xlink="http://www.w3.org/1999/xlink" width="24.94568" height="34.05019" viewBox="0,0,24.94568,34.05019"><g transform="translate(-297.47499,-151.2485)"><g fill="#000000" stroke="none" stroke-width="0.5" stroke-miterlimit="10"><path d="M308.34671,156.51921c0.82114,0.65011 1.65629,1.28239 2.49044,1.91572c0.89123,0.67667 1.78062,1.35606 2.68561,2.01421c2.75181,2.00124 10.44375,4.95708 8.62193,9.39706c-1.94029,4.72869 -9.83722,8.60121 -13.38508,11.87438c-0.4236,0.3908 -2.64245,3.29639 -3.36406,3.44072c-3.79583,0.75917 -5.84848,-1.72293 -4.4896,-5.09631c1.26373,-3.13717 5.88643,-5.88026 8.38479,-7.86c1.37351,-1.0884 3.77396,-1.5859 4.08405,-3.31072c0.28265,-1.57217 -2.62119,-1.82648 -3.92383,-2.751c-3.17079,-2.25038 -6.45094,-4.6899 -9.36441,-7.24531c-0.42888,-0.37617 -2.7197,-2.36793 -2.50068,-3.17101c-0.07238,-0.28038 -0.11088,-0.57438 -0.11088,-0.87737c0,-1.933 1.567,-3.5 3.5,-3.5c0.32669,-0.25293 0.98525,-0.00922 1.7818,0.48686c0.06831,0.04048 0.13513,0.08323 0.20036,0.12812c2.041,1.33767 4.84119,4.12049 5.38957,4.55465z"/></g></g></svg>