<svg version="1.1" xmlns="http://www.w3.org/2000/svg" xmlns:xlink="http://www.w3.org/1999/xlink" width="50.37503" height="50.37503" viewBox="0,0,50.37503,50.37503"><g transform="translate(-294.81249,-154.81249)"><g data-paper-data="{&quot;isPaintingLayer&quot;:true}" stroke-linejoin="miter" stroke-miterlimit="10" stroke-dasharray="" stroke-dashoffset="0" style="mix-blend-mode: normal"><path d="M294.81249,205.18752v-50.37503h50.37503v50.37503z" fill-opacity="0.00392" fill="#00ffff" fill-rule="nonzero" stroke="none" stroke-width="0" stroke-linecap="butt"/><g fill="none" stroke="#21b4ef" stroke-width="2.5"><path d="M328.91697,192.66292c-0.16177,0.22842 -0.37903,0.36823 -0.61791,0.36823h-22.33313c-0.49994,0 -0.9051,-0.61237 -0.9051,-1.36774v-23.32682c0,-0.75538 0.40516,-1.36775 0.9051,-1.36775h22.33313c0.49992,0 0.9052,0.61236 0.9052,1.36775v5.62967" fill-rule="evenodd" stroke-linecap="butt"/><path d="M331.17688,191.95032c-0.16482,0.67206 -0.47914,1.10401 -0.94341,1.07986l-24.67511,-0.02381c-0.36423,0.02381 -0.63872,-0.45609 -0.41917,-1.07986c0.90335,-4.16765 1.82159,-8.33498 2.72495,-12.5023c0.11491,-0.67206 0.46929,-1.03191 0.9734,-1.00777l7.44134,0.02381c0.2596,0.0721 0.63894,-0.14387 0.68884,-0.57582c0.24954,-1.19992 0.52905,-2.35156 0.77859,-3.55149c0.07486,-0.49611 0.26945,-0.68 0.71861,-0.69588h16.05089c0.36423,-0.01587 0.44413,0.59203 0.41917,0.88771c-0.54897,3.0557 -3.09312,14.35808 -3.7581,17.44554z" fill-rule="evenodd" stroke-linecap="butt"/><path d="M309.63661,178.01795v-3.44238h7.32221" fill-rule="nonzero" stroke-linecap="round"/></g></g></g></svg>