<svg version="1.1" xmlns="http://www.w3.org/2000/svg" xmlns:xlink="http://www.w3.org/1999/xlink" width="133.85629" height="28.23098" viewBox="0,0,133.85629,28.23098"><g transform="translate(-253.07186,-165.82307)"><g stroke-miterlimit="10"><path d="M253.07186,194.05405v-28.1081h133.85629v28.1081z" fill-opacity="0.00392" fill="#ffffff" stroke="none" stroke-width="0" stroke-linecap="butt"/><text transform="translate(284.6597,187.07307) scale(0.5,0.5)" font-size="40" xml:space="preserve" fill="#ffffff" stroke="none" stroke-width="1" stroke-linecap="butt" font-family="&quot;MiSans-Medium&quot;, Sans Serif" font-weight="normal" text-anchor="start"><tspan x="0" dy="0">重启并更新</tspan></text><path d="M259.89322,179.79757c0,-5.02469 4.07332,-9.09802 9.098,-9.09802c5.02469,0 9.098,4.07333 9.098,9.09802c0,5.02469 -4.07332,9.098 -9.098,9.098c-5.02469,0 -9.098,-4.07332 -9.098,-9.098z" fill="none" stroke="#ffffff" stroke-width="1.5" stroke-linecap="butt"/><path d="M263.22225,176.41336l11.08371,-0.85574v8.71605" fill="none" stroke="#ffffff" stroke-width="1.5" stroke-linecap="round"/><path d="M262.86037,181.72324l1.68049,0.44918c0.07925,0.01108 0.20294,-0.35282 0.20294,-0.65838c0,-1.42277 1.15338,-2.57616 2.57615,-2.57616c0.61854,0 1.18617,0.218 1.63025,0.58135" fill="none" stroke="#ffffff" stroke-width="1.5" stroke-linecap="butt"/><path d="M271.68365,181.28188l-1.68615,-0.42748c-0.07939,-0.01005 -0.19837,0.35541 -0.19444,0.66094c0.01834,1.42265 -1.12007,2.59081 -2.54272,2.60916c-0.61849,0.00797 -1.18888,-0.20269 -1.63761,-0.56029" fill="none" stroke="#ffffff" stroke-width="1.5" stroke-linecap="butt"/></g></g></svg>