<svg version="1.1" xmlns="http://www.w3.org/2000/svg" xmlns:xlink="http://www.w3.org/1999/xlink" width="78.24325" height="28.1323" viewBox="0,0,78.24325,28.1323"><g transform="translate(-288.19509,-164.51876)"><g stroke-miterlimit="10"><path d="M288.19509,192.65107v-28.1081h78.24325v28.1081z" fill-opacity="0.00392" fill="#ffffff" stroke="none" stroke-width="0" stroke-linecap="butt"/><text transform="translate(319.75005,185.76877) scale(0.5,0.5)" font-size="40" xml:space="preserve" fill="#0089ff" stroke="none" stroke-width="1" stroke-linecap="butt" font-family="&quot;MiSans-Medium&quot;, Sans Serif" font-weight="normal" text-anchor="start"><tspan x="0" dy="0">帮助</tspan></text><path d="M294.94735,178.59703c0,-5.02469 4.07332,-9.09802 9.098,-9.09802c5.02469,0 9.098,4.07333 9.098,9.09802c0,5.02469 -4.07332,9.098 -9.098,9.098c-5.02469,0 -9.098,-4.07332 -9.098,-9.098z" fill="none" stroke="#0089ff" stroke-width="1.5" stroke-linecap="butt"/><path d="M301.52813,175.82936c-0.0051,-2.3896 2.45672,-2.36816 2.51183,-2.36754c2.34709,0.02638 2.5227,2.38277 2.52261,2.39658c-0.01968,2.77376 -2.53634,3.05838 -2.53921,3.11874c-0.01757,0.36841 -0.04139,1.92886 -0.04139,1.92886" fill="none" stroke="#0089ff" stroke-width="1.5" stroke-linecap="round"/><path d="M303.24097,182.92788c0,-0.44425 0.36013,-0.80438 0.80438,-0.80438c0.44425,0 0.80437,0.36013 0.80437,0.80438c0,0.44425 -0.36013,0.80438 -0.80437,0.80438c-0.44425,0 -0.80438,-0.36013 -0.80438,-0.80438z" fill="#0089ff" stroke="none" stroke-width="0" stroke-linecap="butt"/></g></g></svg>