<svg version="1.1" xmlns="http://www.w3.org/2000/svg" xmlns:xlink="http://www.w3.org/1999/xlink" width="111.63718" height="105.47143" viewBox="0,0,111.63718,105.47143"><g transform="translate(-264.18141,-127.26429)"><g data-paper-data="{&quot;isPaintingLayer&quot;:true}" fill-rule="nonzero" stroke="none" stroke-width="0.5" stroke-linecap="butt" stroke-linejoin="miter" stroke-miterlimit="10" stroke-dasharray="" stroke-dashoffset="0" style="mix-blend-mode: normal"><path d="M314.48654,184.0113c-0.36468,4.74085 -7.85239,6.68581 -8.51892,1.13927c-0.63959,-5.32242 7.36256,-5.71104 8.50031,-1.16007z" fill="#ffd5d5"/><path d="M277.3913,190.54844c0.81948,-1.43409 1.98378,-2.11895 3.33157,-2.35837c2.99008,-0.53116 6.88329,1.13002 9.91817,1.6665c1.83092,0.32366 5.21238,0.82447 3.99081,3.87841c-1.2746,3.1865 -10.13112,-0.11761 -12.72191,-0.55589c-0.58087,-0.09826 -2.96771,0.08347 -3.28747,-0.47611z" fill="#3e3e3e"/><path d="M330.05557,211.92136c-1.91992,1.72591 -9.938,2.33068 -11.92784,-0.46276h-8.36796l-0.02337,0.01558l-0.07009,-0.01558h-0.06966l-0.55728,-0.13932l-0.56076,-0.12461l-0.0623,-0.03115l-0.06966,-0.01741l-0.01393,-0.02438l-0.3819,-0.19095l-0.97818,-0.36682l-0.60822,-0.12165l-0.09332,-0.0442l-0.1032,-0.00344l-1.08898,-0.31114l-0.30617,-0.07654h-0.17611l-0.47848,-0.11962l-0.18443,0.0503l-0.27545,-0.16527l-0.31164,-0.07791l-0.09484,-0.16598l-0.42292,-0.25375l-0.14754,-0.14754l-0.2779,-0.18527l-0.1675,-0.18424l-0.21352,-0.12812l-0.13642,-0.13642l-0.37246,-0.31924l-0.18753,-0.05274l-0.10611,-0.19895l-0.17119,-0.14674l-0.0108,-0.19451l-0.29542,-0.5539l-0.01039,-0.01039l-0.25376,-0.42293l-0.16598,-0.09484l-0.07791,-0.31163l-0.16527,-0.27545l0.0503,-0.18444l-0.11962,-0.47848v-1.12903l0.06039,-0.24157l-0.01184,-0.24872l0.16129,-0.80645l0.0442,-0.09332l0.00344,-0.10319l0.22639,-0.79236v-0.6176l0.0654,-0.26158l-0.00833,-0.2695l0.80645,-3.70968l0.00263,-0.00532l-0.00016,-0.00593l0.32258,-1.45162l0.03412,-0.06823l0.00254,-0.07625l0.28875,-1.01062l0.30055,-1.65302l0.00903,-0.01998l-0.38202,-0.21829l-0.3125,-1.25v-4.03226l0.3125,-1.25l0.59659,-0.34091l0.34091,-0.59659l1.25,-0.3125l10.00002,-0.00004l0.10291,0.02573l0.1047,-0.0171l1.93548,0.16129l0.08409,0.02863l0.08844,-0.00819l2.09678,0.32258l0.01482,0.00623l0.01603,-0.00128l1.93549,0.32258l0.09344,0.04063h0.1019l1.93548,0.48387l0.03773,0.02012l0.04273,0.00143l1.06925,0.3055l0.03589,-0.00979l0.5671,0.34026l0.57284,0.33048l0.00887,0.03613l0.6012,0.6012l0.15834,0.26391l0.21762,0.21762l0.48387,0.80645l0.05894,0.19366l0.11852,0.16411l0.32258,0.80645l0.04053,0.29717l0.11316,0.27775l0.16129,1.12903l-0.01851,0.17899l0.04364,0.17457v1.45162l-0.05068,0.20271l0.01666,0.20829l-0.16129,0.96774l-0.07906,0.18186l-0.01521,0.19771l-0.19429,0.58286v0.23947l-0.08457,0.33829l-0.01162,0.34851l-0.31113,1.08898l-0.07655,0.30617v0.17611l-0.09747,0.38988l-0.03082,0.40069l-0.033,0.099v0.23946l-0.03419,0.13678c3.78479,1.38666 7.5867,8.92141 3.96085,12.18086zM325.15163,204.79004c-0.00389,-0.00599 -0.00894,-0.0111 -0.0151,-0.01539c-0.01695,0.00675 -0.03398,0.01333 -0.05111,0.01972l-0.02688,0.12095l-0.19245,0.38488l-0.00552,0.0221l-0.12461,0.56076l-0.03116,0.06231l-0.01741,0.06966l-0.02438,0.01394l-0.03885,0.0777l-0.04432,0.17728l-0.03082,0.40069l-0.11207,0.33622l-0.13077,0.65383l-0.02609,0.05509v0.06096l-0.06105,0.24421c1.80494,0.07991 2.81218,-0.34586 0.93259,-3.24491zM307.92763,190.02068l0.00582,0.07276c0.08491,0.25134 0.13094,0.5206 0.13094,0.80061c0,0.15625 -0.01433,0.30915 -0.04175,0.45746l-0.15355,0.92128l-0.1489,0.34248l-0.08101,0.36456l-0.48544,0.97089l-0.25869,1.42281l-0.05168,0.11425l-0.00418,0.12534l-0.3021,1.05734l-0.30516,1.3732l-0.74817,3.44158v0.69914l-0.08457,0.3383l-0.01162,0.34851l-0.29478,1.03174l-0.0917,0.45846l0.09389,0.17603l0.14042,0.23404l0.14754,0.14754l0.24392,0.16261h0.06002l0.64516,0.16129l0.03773,0.02012l0.04273,0.00143l1.03174,0.29478l0.70723,0.14145l0.18459,0.08743l0.20293,0.0232l1.29033,0.48387l0.1099,0.07579l0.13032,0.02896l0.1173,0.05865h9.26355l0.11419,-0.57093l0.06762,-0.14277l0.01211,-0.15751l0.02733,-0.08196l0.00567,-0.02555v-0.06966l0.13932,-0.55728l0.12462,-0.56075l0.03115,-0.06231l0.01741,-0.06966l0.02438,-0.01393l0.11949,-0.23899l0.00553,-0.0221l0.12462,-0.56076l0.03115,-0.0623l0.01742,-0.06966l0.02438,-0.01393l0.17018,-0.34035l0.03626,-0.10878l-0.0109,-0.22884l0.11274,-0.56371v-0.07503l0.06039,-0.24157l-0.01184,-0.24872l0.16129,-0.80645l0.06763,-0.14277l0.01211,-0.15751l0.10764,-0.32293v-0.2993l0.08665,-0.34659v-0.3374l0.09747,-0.38988l0.03082,-0.40069l0.033,-0.099v-0.07818l0.07464,-0.29857v-0.30776l0.16129,-0.64517l0.02012,-0.03772l0.00142,-0.04273l0.22639,-0.79237v-0.29502l0.09747,-0.38988l0.03082,-0.40069l0.26055,-0.78166l0.09503,-0.57017v-1.06704l-0.09378,-0.65648l-0.13689,-0.34221l-0.20667,-0.34445l-0.45135,-0.12896l-1.79821,-0.44955l-1.82159,-0.3036l-1.99542,-0.30699l-1.74523,-0.14543h-6.25603c0.05551,0.1002 0.10434,0.20463 0.14588,0.31267z" fill="#3e3e3e"/><path d="M291.27533,205.38907c0.00286,0.06937 2.9399,1.1256 2.96404,1.13132c0.10403,0.02468 3.00289,0.67004 3.47858,0.56091c1.02875,-0.23601 1.28815,-1.95279 2.69524,-1.75177c2.33333,0.33334 2.95833,1.16666 2.625,3.5c-0.81677,5.71739 -15.19858,2.18903 -16.50559,-0.5702c-2.66037,-5.61633 5.18946,-10.73934 10.08701,-10.33675c1.07612,0.08846 6.16756,0.91503 5.93006,2.81508c0.12378,0.29635 0.19215,0.62161 0.19215,0.96284c0,1.38071 -1.11929,2.5 -2.5,2.5c-0.28382,0.25393 -0.69178,0.00748 -1.07563,-0.24258c-0.15807,-0.07545 -0.30697,-0.16702 -0.44458,-0.27257c-1.38169,-0.69713 -7.52318,-0.16157 -7.44628,1.70372z" fill="#3e3e3e"/><path d="M299.90148,127.81821c4.96319,-2.15791 12.57629,2.30951 11.96711,7.85907c-0.08604,0.78384 -0.25391,4.42124 -1.25937,5.02451c-0.72014,0.43208 -1.61061,0.88582 -2.42536,0.68213c-4.80286,-1.20072 0.32021,-5.11066 -1.2485,-6.90952c-0.12661,-0.14518 -2.09262,-1.44302 -2.48344,-1.65011c-0.97787,-0.51817 -2.16734,-0.52103 -3.0923,0.03395c-0.29415,1.05338 -1.2609,1.82613 -2.40813,1.82613c-1.38071,0 -2.5,-1.11929 -2.5,-2.5c0,-0.11751 0.00811,-0.23313 0.02379,-0.34632c0.15138,-1.56205 1.67307,-3.25761 3.4262,-4.01984z" fill="#3e3e3e"/><path d="M313.35329,146.54329c1.33621,2.564 -0.00281,5.88073 -3.50111,4.13158c-0.6586,-0.3293 -1.27195,-2.35254 -1.66265,-3.13394c-0.18291,-0.34741 -0.28642,-0.74312 -0.28642,-1.16302c0,-0.02848 0.00048,-0.05685 0.00142,-0.0851c0.06547,-3.18655 1.46231,-3.23047 2.8362,-2.3923c1.0284,0.13883 1.8584,0.90298 2.09469,1.89713c0.2373,0.29205 0.41829,0.55456 0.51787,0.74564z" fill="#3e3e3e"/><path d="M272.21913,193.43908c-1.83512,0.86927 -4.43501,1.30672 -6.27447,0.13616c-2.0534,-1.30671 -2.54365,-5.31672 -0.22721,-6.70658c5.83652,-3.50191 11.51402,3.49874 6.52847,6.49006z" fill="#ffd5d5"/><path d="M343.96277,183.77415c-0.49862,1.39119 -0.87616,2.83095 -1.38739,4.21853c-0.3734,1.01349 -0.87883,1.98161 -1.4548,2.8953c-0.23928,0.37959 -1.14289,0.5293 -0.96315,0.94045c0.17049,0.39 0.64781,-0.63655 1.06892,-0.69851c1.21986,-0.17951 2.46599,-0.00253 3.69899,-0.00311c2.64706,-0.00124 5.29412,0 7.94118,0c4.70588,0 9.41177,0 14.11764,0c0.88236,0 1.77207,-0.11375 2.64706,0c0.41519,0.05398 0.78267,0.6863 1.15473,0.49427c0.30623,-0.15805 -0.05249,-0.68923 -0.12366,-1.02641c-0.1621,-0.76794 -0.49807,-1.50222 -0.57496,-2.2833c-0.19151,-1.94549 -0.0265,-3.91173 -0.14882,-5.8628c-0.23073,-1.19139 -6.98985,0.90597 -7.57079,1.00158c-5.95954,0.98084 -12.36802,0.33911 -18.40494,0.32398zM343.09785,178.90854l0.65102,-0.13466c5.82535,0 12.09843,0.70731 17.85175,-0.26452c2.11016,-0.35644 8.34957,-1.94951 10.2013,-1.29398c1.40475,0.4973 1.87742,2.31469 2.81614,3.47204c0.2864,2.34659 0.22225,4.72438 0.43941,7.07838c0.28206,3.0575 2.0919,4.86778 -1.28686,7.86676c-0.67473,0.59888 -5.50607,0.49426 -6.78645,0.49426c-7.35294,0 -14.70589,0.00331 -22.05883,0c-1.65463,-0.00074 -7.66695,0.33214 -8.76149,-1.28985c-1.03189,-1.52915 -0.14771,-3.72105 0.21331,-5.53013c0.21765,-1.09064 1.10192,-1.94348 1.48638,-2.98705c0.74274,-2.01608 1.25669,-4.12132 2.13883,-6.08042c0,0 0.96928,-2.13241 3.09548,-1.33083z" fill="#3e3e3e"/><path d="M367.64858,187.60763c0,2.5 -2.5,2.5 -2.5,2.5l-0.80826,-0.00736c-6.00811,0.45804 -12.04647,0.10203 -18.06689,0.40425c0,0 -2.49688,0.12484 -2.62173,-2.37204c-0.12484,-2.49688 2.37203,-2.62172 2.37203,-2.62172c5.97431,-0.29756 11.97288,0.06712 17.93311,-0.39575l1.19174,-0.00737c0,0 2.5,0 2.5,2.5z" fill="#3e3e3e"/><path d="M339.82401,197.13008c0.93802,6.5535 1.38558,12.82222 1.8808,19.49556c0.19664,2.64976 -0.51599,6.89514 0.20095,9.25332c0.13455,0.44257 0.92342,0.06803 1.38599,0.0693c7.93395,0.02183 15.92673,0.9639 23.80194,0c0.21846,-0.02674 0.92252,-7.29001 1.01761,-8.07622c0.76966,-6.36369 1.73709,-12.83102 2.02976,-19.22567c0.05255,-1.14835 0.16566,-6.30127 0.90073,-7.03634c1.66667,-1.66666 2.70833,-1.66666 4.375,0c0.73796,0.73797 0.28386,3.8997 0.01895,4.97321c-1.01897,4.1292 -1.32865,8.92662 -1.47116,13.18805c-0.15378,4.5984 -1.20448,8.97722 -1.51193,13.54823c-0.11231,1.66974 -0.27201,5.35476 -2.05164,6.71067c-7.20853,5.49221 -18.10931,0.92369 -27.17172,0.91808c-1.83943,-0.00114 -4.21549,-0.13932 -5.70114,-1.40828c-2.02239,-1.72741 -0.55147,-6.46198 -0.68629,-8.89633c-0.30874,-5.5743 0.00378,-12.09018 -0.88264,-17.53651c-0.47195,-2.89979 -1.45439,-5.73659 -1.77926,-8.66044c-0.01274,-0.10227 -0.0193,-0.20646 -0.0193,-0.31218c0,-0.39126 0.08988,-0.76153 0.25011,-1.09127c0.79199,-2.8835 1.99124,-2.60506 3.06241,-1.27373c0.98185,0.33725 1.68748,1.26873 1.68748,2.365c0,0.19904 -0.02326,0.39263 -0.06721,0.57823c0.38073,0.94101 0.64794,1.84012 0.73056,2.41732z" fill="#3e3e3e"/><path d="M350.66353,209.90561c-1.72239,-0.98422 -2.19484,-2.50641 -1.92482,-4.09543c0.45857,-0.55263 1.15059,-0.90457 1.92482,-0.90457c1.38071,0 2.5,1.11929 2.5,2.5c0,1.38071 -1.11929,2.5 -2.5,2.5c-1.38071,0 -2.5,-1.11929 -2.5,-2.5c0,-0.60649 0.21596,-1.16253 0.57518,-1.59543c0.52483,-3.0885 3.8546,-6.42944 6.26325,-6.56325c1.67476,-0.09304 9.98995,7.11953 6.20086,9.64559c-3.94662,2.63108 -3.4266,-3.48858 -6.20059,-3.39177c-1.10559,0.03858 -1.62846,2.85616 -2.18417,3.1737z" fill="#3e3e3e"/><path d="M366.26995,219.17031c-1.06115,1.80073 -4.63749,0.12082 -5.73353,1.1046c-1.56242,1.40239 1.91699,4.96968 -2.83898,4.96968c-2.00854,0 -2.26604,-1.18349 -2.5,-2.5c-0.35216,-1.98163 0.05061,-5.12353 1.52619,-6.67258c1.13278,-1.18919 2.98952,0.38235 3.55301,-1.68377c-0.0517,-0.20027 -0.0792,-0.41027 -0.0792,-0.6267c0,-1.38071 1.11929,-2.5 2.5,-2.5c0.48684,-0.37693 1.09438,-0.05242 1.68227,0.65066c0.27952,0.25442 0.50114,0.57134 0.64275,0.92868c1.15636,1.96472 1.99844,5.05511 1.2475,6.32943z" fill="#3e3e3e"/><path d="M349.95877,211.4184c0.00862,0.18413 -0.01066,0.37358 -0.05133,0.56344c-0.05027,0.29451 -0.15206,0.57145 -0.29576,0.82122c-0.14799,0.2991 -0.32852,0.57976 -0.51209,0.81981c-0.18774,0.24551 -0.81863,0.75609 -0.5101,0.77427c2.0755,0.12224 4.1754,0.26363 4.23506,2.92373c0.00857,0.38216 0.95883,8.10433 -2.5,7.16102c-1.13699,-0.31009 -2.23902,-1.35075 -2.5,-2.5c-0.1463,-0.64423 0.27095,-2.34347 0,-2.58475c-1.3863,-1.23449 -5.13424,0.86586 -5.39426,-2.51437c-0.12397,-1.61162 2.00814,-7.33164 3.65347,-7.42305c0.39131,-0.25403 0.85814,-0.40157 1.35944,-0.40157c1.22776,0 2.24881,0.88504 2.45996,2.05193c0.03131,0.09689 0.05052,0.19936 0.05562,0.30832z" fill="#3e3e3e"/></g></g></svg>