<svg version="1.1" xmlns="http://www.w3.org/2000/svg" xmlns:xlink="http://www.w3.org/1999/xlink" width="700.75047" height="417.44841" viewBox="0,0,700.75047,417.44841"><defs><radialGradient cx="320.00001" cy="180.00003" r="350.37524" gradientUnits="userSpaceOnUse" id="color-1"><stop offset="0" stop-color="#000000"/><stop offset="1" stop-color="#000000" stop-opacity="0"/></radialGradient><linearGradient x1="168.50001" y1="167.60425" x2="471.50001" y2="167.60425" gradientUnits="userSpaceOnUse" id="color-2"><stop offset="0" stop-color="#00b5ff"/><stop offset="1" stop-color="#0079ff"/></linearGradient><linearGradient x1="239.25907" y1="204.16724" x2="263.32434" y2="204.16724" gradientTransform="translate(-255.69883,-229.73118) scale(1.06867,1.06867)" gradientUnits="userSpaceOnUse" id="color-3"><stop offset="0" stop-color="#ffffff" stop-opacity="0"/><stop offset="1" stop-color="#ffffff"/></linearGradient></defs><g transform="translate(30.37523,28.72419)"><g data-paper-data="{&quot;isPaintingLayer&quot;:true}" stroke="none" stroke-linecap="butt" stroke-linejoin="miter" stroke-miterlimit="10" stroke-dasharray="" stroke-dashoffset="0" style="mix-blend-mode: normal"><path d="M-30.37523,388.72423v-417.44841h700.75047v417.44841z" fill="url(#color-1)" fill-rule="nonzero" stroke-width="0"/><path d="M168.50001,226.19754v-117.18655h303v117.18655z" fill="url(#color-2)" fill-rule="nonzero" stroke-width="0"/><text transform="translate(182.42632,136.66549) scale(0.5,0.5)" font-size="40" xml:space="preserve" fill="#ffffff" fill-rule="nonzero" stroke="none" stroke-width="1" stroke-linecap="butt" stroke-linejoin="miter" stroke-miterlimit="10" stroke-dasharray="" stroke-dashoffset="0" font-family="&quot;MiSans-Heavy&quot;, Sans Serif" font-weight="normal" text-anchor="start" style="mix-blend-mode: normal"><tspan x="0" dy="0">错误报告</tspan></text><text transform="translate(182.42632,153.00212) scale(0.2279,0.2279)" font-size="40" xml:space="preserve" fill="#ffffff" fill-rule="nonzero" stroke="none" stroke-width="1" stroke-linecap="butt" stroke-linejoin="miter" stroke-miterlimit="10" stroke-dasharray="" stroke-dashoffset="0" font-family="&quot;MiSans-Medium&quot;, Sans Serif" font-weight="normal" text-anchor="start" style="mix-blend-mode: normal"><tspan x="0" dy="0">TechFure 因“克隆体溢出”而关闭，您可以尝试重启</tspan><tspan x="0" dy="46.150000000000006px">如果是在应用内触发，请联系应用开发者</tspan><tspan x="0" dy="46.150000000000006px">如果是在系统内触发，请联系@_KOSHINO_</tspan></text><text transform="translate(386.39682,218.1131) scale(3.17609,3.17609)" font-size="40" xml:space="preserve" fill-opacity="0.32941" fill="#ffffff" fill-rule="nonzero" stroke="none" stroke-width="1" stroke-linecap="butt" stroke-linejoin="miter" stroke-miterlimit="10" stroke-dasharray="" stroke-dashoffset="0" font-family="&quot;MiSans-Medium&quot;, Sans Serif" font-weight="normal" text-anchor="start" style="mix-blend-mode: normal"><tspan x="0" dy="0">:(</tspan></text><text transform="translate(239.26762,214.96865) scale(0.93574,0.93574)" font-size="40" xml:space="preserve" fill="url(#color-3)" fill-rule="nonzero" stroke="none" stroke-width="1" stroke-linecap="butt" stroke-linejoin="miter" stroke-miterlimit="10" stroke-dasharray="" stroke-dashoffset="0" font-family="&quot;MiSans-Heavy&quot;, Sans Serif" font-weight="normal" text-anchor="start" style="mix-blend-mode: normal"><tspan x="0" dy="0">3</tspan></text><path d="M213.36084,194.23153v4.01903c0,0.1722 0.13969,0.31179 0.3118,0.31179h5.21631c0.17211,0 0.3118,0.13959 0.3118,0.3118v9.33512c0,0.1722 -0.13969,0.31179 -0.3118,0.31179h-3.28007c-0.17211,0 -0.3118,-0.13959 -0.3118,-0.31179v-6.56638c0,-0.1722 -0.13968,-0.3118 -0.31179,-0.3118h-1.31265c-0.17211,0 -0.3118,0.13959 -0.3118,0.3118v6.56638c0,0.1722 -0.13968,0.31179 -0.31179,0.31179h-3.28008c-0.1722,0 -0.31179,-0.13959 -0.31179,-0.31179v-6.56638c0,-0.1722 -0.13959,-0.3118 -0.31179,-0.3118h-3.41103c-0.1722,0 -0.31179,0.13959 -0.31179,0.3118v3.80077c0,0.1722 0.13959,0.31179 0.31179,0.31179h2.42264c0.2957,0 0.42534,0.37172 0.19331,0.55499l-2.71261,2.14203c-0.05503,0.0435 -0.12319,0.06859 -0.19331,0.06859h-3.6137c-0.1722,0 -0.31179,-0.13959 -0.31179,-0.31179v-6.71917c0,-0.10106 0.04852,-0.19409 0.13096,-0.25255l3.69164,-2.61907c0.05273,-0.03739 0.11621,-0.05612 0.18084,-0.05612h3.62305c0.1722,0 0.31179,-0.13959 0.31179,-0.31179v-3.49521c0,-0.15321 0.11059,-0.28451 0.2619,-0.30868l3.28008,-0.52381c0.18926,-0.03026 0.36168,0.11686 0.36168,0.30867zM182.90166,194.693l20.89333,-0.00624c0.30381,0 0.42859,0.38853 0.18084,0.56435l-3.01816,2.14202c-0.05275,0.03742 -0.11618,0.05924 -0.18084,0.05924l-10.98451,0.00624c-0.1722,0 -0.31179,0.13959 -0.31179,0.31179v10.43886c0,0.1722 -0.13959,0.3118 -0.3118,0.3118h-3.28007c-0.1722,0 -0.3118,-0.13959 -0.3118,-0.3118v-10.43886c0,-0.1722 -0.13959,-0.31179 -0.31179,-0.31179h-2.3634c-0.1722,0 -0.31179,-0.13959 -0.31179,-0.3118v-2.14202c0,-0.1722 0.13959,-0.31179 0.31179,-0.31179zM194.92446,198.54365h5.72142c0.1722,0 0.3118,0.13959 0.3118,0.3118v4.19052c0,0.1722 -0.13959,0.31179 -0.3118,0.31179h-5.82119l2.32287,-1.47167c0.26384,-0.16709 0.14393,-0.5737 -0.16837,-0.5737h-1.84271c-0.1722,0 -0.31179,0.13959 -0.31179,0.31179v3.80077c0,0.1722 0.13959,0.31179 0.31179,0.31179h4.84217c0.30394,0 0.42884,0.38862 0.18084,0.56435l-3.02441,2.14203c-0.05269,0.03733 -0.11627,0.05924 -0.18084,0.05924h-5.72142c-0.1722,0 -0.3118,-0.13959 -0.3118,-0.31179v-6.71917c0,-0.10106 0.04852,-0.19409 0.13095,-0.25255l3.69164,-2.61907c0.05273,-0.03739 0.1162,-0.05613 0.18084,-0.05613z" fill="#ffffff" fill-rule="evenodd" stroke-width="0"/><path d="M220.53855,194.66394c-0.17211,0 -0.31179,0.13959 -0.31179,0.31179v2.14203c0,0.1722 0.13968,0.31179 0.31179,0.31179h9.39748c0.06454,0 0.12814,-0.02191 0.18084,-0.05924l3.02441,-2.14203c0.24788,-0.17569 0.12285,-0.56435 -0.18084,-0.56435h-12.42188zM230.09192,205.07163c0,0.1722 0.13968,0.31179 0.31179,0.31179h1.48414v-6.55703c0,-0.1722 0.13968,-0.31179 0.31179,-0.31179h6.04881c0.30244,0 0.4256,0.38703 0.18084,0.56435l-2.50994,1.81776c-0.08076,0.05865 -0.12784,0.15259 -0.12784,0.25255v7.03096c0,0.1722 -0.13968,0.31179 -0.31179,0.31179h-3.28008c-0.17211,0 -0.31179,-0.13959 -0.31179,-0.31179v-2.7968l-1.76164,2.95581c-0.05643,0.09441 -0.15839,0.15277 -0.26814,0.15277h-3.43286c-0.17211,0 -0.31179,-0.13959 -0.31179,-0.31179v-6.56638c0,-0.1722 -0.13968,-0.31179 -0.31179,-0.31179h-1.35942c-0.17211,0 -0.3118,0.13959 -0.3118,0.31179v6.56638c0,0.1722 -0.13968,0.31179 -0.31179,0.31179h-3.28631c-0.17243,0 -0.31179,-0.13952 -0.31179,-0.31179l0.00624,-9.33512c0,-0.17214 0.13968,-0.3118 0.31179,-0.3118h9.24158c0.17211,0 0.3118,0.13959 0.3118,0.3118zM240.73034,198.58942l-3.69164,2.61907c-0.08231,0.05846 -0.13095,0.1515 -0.13095,0.25256v6.71917c0,0.1722 0.13969,0.31179 0.3118,0.31179h5.72142c0.06454,0 0.12814,-0.02191 0.18084,-0.05924l3.02441,-2.14203c0.24788,-0.17572 0.12285,-0.56435 -0.18084,-0.56435h-4.84216c-0.17211,0 -0.3118,-0.13959 -0.3118,-0.31179v-3.80077c0,-0.1722 0.13969,-0.3118 0.3118,-0.3118h1.8427c0.31241,0 0.43246,0.40661 0.16837,0.5737l-2.32287,1.47167h5.8212c0.17211,0 0.31179,-0.13959 0.31179,-0.3118v-4.19052c0,-0.1722 -0.13968,-0.31179 -0.31179,-0.31179h-5.72142c-0.06485,0 -0.12815,0.01874 -0.18084,0.05612z" fill="#c1fffb" fill-rule="evenodd" stroke-width="1"/><text transform="translate(218.76955,210.49433) scale(0.05562,0.05562)" font-size="40" xml:space="preserve" fill="#ffffff" fill-rule="nonzero" stroke="none" stroke-width="1" stroke-linecap="butt" stroke-linejoin="miter" stroke-miterlimit="10" stroke-dasharray="" stroke-dashoffset="0" font-family="&quot;MiSans-Heavy&quot;, Sans Serif" font-weight="normal" text-anchor="start" style="mix-blend-mode: normal"><tspan x="0" dy="0">TechFure by _KOSHINO_</tspan></text></g></g></svg>