<svg version="1.1" xmlns="http://www.w3.org/2000/svg" xmlns:xlink="http://www.w3.org/1999/xlink" width="56.5" height="26.75" viewBox="0,0,56.5,26.75"><g transform="translate(-307.54247,-165.67925)"><g stroke-miterlimit="10"><path d="M310.32787,180c0,-5.34177 4.33036,-9.67213 9.67213,-9.67213c5.34177,0 9.67213,4.33036 9.67213,9.67213c0,5.34177 -4.33036,9.67213 -9.67213,9.67213c-5.34177,0 -9.67213,-4.33036 -9.67213,-9.67213z" fill-opacity="0.00392" fill="#ffffff" stroke="#0077ff" stroke-width="1.5" stroke-linecap="butt"/><path d="M328.87581,178.42925h-12v3.16666h12.08333" fill="none" stroke="#0077ff" stroke-width="1.5" stroke-linecap="round"/><path d="M317.87581,181.76259v7.08333" fill="none" stroke="#0077ff" stroke-width="1.5" stroke-linecap="round"/><path d="M320.87581,184.26259v5.08333" fill="none" stroke="#0077ff" stroke-width="1.5" stroke-linecap="round"/><path d="M324.37581,184.26259v3.91666" fill="none" stroke="#0077ff" stroke-width="1.5" stroke-linecap="round"/><path d="M321.12581,177.76259v-1.16667h7.25" fill="none" stroke="#0077ff" stroke-width="1.5" stroke-linecap="round"/><path d="M327.95914,184.09592v0.83333" fill="none" stroke="#0077ff" stroke-width="1.5" stroke-linecap="round"/><text transform="translate(332.45914,184.39375) scale(0.38082,0.38082)" font-size="40" xml:space="preserve" fill="#0077ff" stroke="none" stroke-width="1" stroke-linecap="butt" font-family="&quot;MiSans-Medium&quot;, Sans Serif" font-weight="normal" text-anchor="start"><tspan x="0" dy="0">删除</tspan></text><path d="M307.54247,192.42925v-26.75h56.5v26.75z" fill-opacity="0.00392" fill="#0077ff" stroke="none" stroke-width="0" stroke-linecap="butt"/></g></g></svg>