<svg version="1.1" xmlns="http://www.w3.org/2000/svg" xmlns:xlink="http://www.w3.org/1999/xlink" width="93.22223" height="29.75486" viewBox="0,0,93.22223,29.75486"><g transform="translate(-320,-180)"><g data-paper-data="{&quot;isPaintingLayer&quot;:true}" fill-rule="nonzero" stroke="none" stroke-linecap="butt" stroke-linejoin="miter" stroke-miterlimit="10" stroke-dasharray="" stroke-dashoffset="0" style="mix-blend-mode: normal"><path d="M320,202.00486c0,-4.28021 3.46979,-7.75 7.75,-7.75c4.28021,0 7.75,3.46979 7.75,7.75c0,4.28021 -3.46979,7.75 -7.75,7.75c-4.28021,0 -7.75,-3.46979 -7.75,-7.75z" fill="#ffffff" stroke-width="0"/><path d="M320,202.00486v-15.5h93.22222v15.5z" fill="#ffffff" stroke-width="0"/><path d="M327.75,209.75486v-29.75486h77.72222v29.75486z" fill="#ffffff" stroke-width="0"/><path d="M320,187.75c0,-4.28021 3.46979,-7.75 7.75,-7.75c4.28021,0 7.75,3.46979 7.75,7.75c0,4.28021 -3.46979,7.75 -7.75,7.75c-4.28021,0 -7.75,-3.46979 -7.75,-7.75z" fill="#ffffff" stroke-width="0"/><path d="M397.72223,202.00486c0,-4.28021 3.46979,-7.75 7.75,-7.75c4.28021,0 7.75,3.46979 7.75,7.75c0,4.28021 -3.46979,7.75 -7.75,7.75c-4.28021,0 -7.75,-3.46979 -7.75,-7.75z" fill="#ffffff" stroke-width="0"/><path d="M397.72223,187.75c0,-4.28021 3.46979,-7.75 7.75,-7.75c4.28021,0 7.75,3.46979 7.75,7.75c0,4.28021 -3.46979,7.75 -7.75,7.75c-4.28021,0 -7.75,-3.46979 -7.75,-7.75z" fill="#ffffff" stroke-width="0"/><text transform="translate(349.94444,197.28108) scale(0.20833,0.20833)" font-size="40" xml:space="preserve" fill="#005aad" fill-rule="nonzero" stroke="none" stroke-width="1" stroke-linecap="butt" stroke-linejoin="miter" stroke-miterlimit="10" stroke-dasharray="" stroke-dashoffset="0" font-family="&quot;MiSans-Medium&quot;, Sans Serif" font-weight="normal" text-anchor="start" style="mix-blend-mode: normal"><tspan x="0" dy="0">卸载应用</tspan></text></g></g></svg>