<svg version="1.1" xmlns="http://www.w3.org/2000/svg" xmlns:xlink="http://www.w3.org/1999/xlink" width="31.54004" height="40.45654" viewBox="0,0,31.54004,40.45654"><defs><radialGradient cx="336.04004" cy="154.42089" r="0.0025" gradientUnits="userSpaceOnUse" id="color-1"><stop offset="0" stop-color="#000000" stop-opacity="0.37255"/><stop offset="1" stop-color="#ffffff"/></radialGradient></defs><g transform="translate(-304.5,-154.42088)"><g data-paper-data="{&quot;isPaintingLayer&quot;:true}" fill-rule="nonzero" stroke="none" stroke-width="0" stroke-linecap="butt" stroke-linejoin="miter" stroke-miterlimit="10" stroke-dasharray="" stroke-dashoffset="0" style="mix-blend-mode: normal"><path d="M304.5,187.12743c0,-4.28021 3.46979,-7.75 7.75,-7.75c4.28021,0 7.75,3.46979 7.75,7.75c0,4.28021 -3.46979,7.75 -7.75,7.75c-4.28021,0 -7.75,-3.46979 -7.75,-7.75z" fill="#ffffff"/><path d="M304.5,187.12743v-15.5h31v15.5z" fill="#ffffff"/><path d="M312.25,194.87743v-29.75486h15.5v29.75486z" fill="#ffffff"/><path d="M304.5,172.87257c0,-4.28021 3.46979,-7.75 7.75,-7.75c4.28021,0 7.75,3.46979 7.75,7.75c0,4.28021 -3.46979,7.75 -7.75,7.75c-4.28021,0 -7.75,-3.46979 -7.75,-7.75z" fill="#ffffff"/><path d="M320,187.12743c0,-4.28021 3.46979,-7.75 7.75,-7.75c4.28021,0 7.75,3.46979 7.75,7.75c0,4.28021 -3.46979,7.75 -7.75,7.75c-4.28021,0 -7.75,-3.46979 -7.75,-7.75z" fill="#ffffff"/><path d="M320,172.87257c0,-4.28021 3.46979,-7.75 7.75,-7.75c4.28021,0 7.75,3.46979 7.75,7.75c0,4.28021 -3.46979,7.75 -7.75,7.75c-4.28021,0 -7.75,-3.46979 -7.75,-7.75z" fill="#ffffff"/><ellipse cx="672.08008" cy="308.84177" transform="scale(0.5,0.5)" rx="0" ry="0" fill="url(#color-1)"/></g></g></svg>