<svg version="1.1" xmlns="http://www.w3.org/2000/svg" xmlns:xlink="http://www.w3.org/1999/xlink" width="114.88928" height="96.33945" viewBox="0,0,114.88928,96.33945"><defs><radialGradient cx="322.57049" cy="182.11687" r="18.97627" gradientUnits="userSpaceOnUse" id="color-1"><stop offset="0" stop-color="#ffffff"/><stop offset="1" stop-color="#ffffff" stop-opacity="0"/></radialGradient></defs><g transform="translate(-262.55536,-131.83027)"><g data-paper-data="{&quot;isPaintingLayer&quot;:true}" fill-rule="nonzero" stroke-linejoin="miter" stroke-miterlimit="10" stroke-dasharray="" stroke-dashoffset="0" style="mix-blend-mode: normal"><path d="M303.59422,182.11687c0,-10.4803 8.49597,-18.97627 18.97627,-18.97627c10.4803,0 18.97627,8.49597 18.97627,18.97627c0,10.4803 -8.49597,18.97627 -18.97627,18.97627c-10.4803,0 -18.97627,-8.49597 -18.97627,-18.97627z" fill="url(#color-1)" stroke="none" stroke-width="0" stroke-linecap="butt"/><path d="M301.02373,180c0,-10.48031 8.49597,-18.97627 18.97627,-18.97627c10.48031,0 18.97627,8.49597 18.97627,18.97627c0,10.48031 -8.49597,18.97627 -18.97627,18.97627c-10.48031,0 -18.97627,-8.49597 -18.97627,-18.97627z" fill="#0043e5" stroke="none" stroke-width="0" stroke-linecap="butt"/><path d="M324.46056,184.46056l-8.92112,-8.92112" fill="none" stroke="#ffffff" stroke-width="3" stroke-linecap="round"/><path d="M324.46056,175.53944l-8.92112,8.92111" data-paper-data="{&quot;index&quot;:null}" fill="none" stroke="#ffffff" stroke-width="3" stroke-linecap="round"/><path d="M262.55536,228.16972v-96.33945h114.88928v96.33945z" fill-opacity="0.00392" fill="#9966ff" stroke="none" stroke-width="0" stroke-linecap="butt"/></g></g></svg>