<svg version="1.1" xmlns="http://www.w3.org/2000/svg" xmlns:xlink="http://www.w3.org/1999/xlink" width="94.3386" height="79.8611" viewBox="0,0,94.3386,79.8611"><g transform="translate(-272.83071,-140.06946)"><g data-paper-data="{&quot;isPaintingLayer&quot;:true}" fill="#ffffff" fill-rule="nonzero" stroke="none" stroke-width="0" stroke-linecap="butt" stroke-linejoin="miter" stroke-miterlimit="10" stroke-dasharray="" stroke-dashoffset="0" style="mix-blend-mode: normal"><path d="M272.83072,214.54066v-69.08127h94.33858v69.08127z"/><path d="M356.95191,145.45938c0,-2.97676 2.28724,-5.38991 5.1087,-5.38991c2.82146,0 5.1087,2.41314 5.1087,5.38991c0,2.97677 -2.28724,5.38991 -5.1087,5.38991c-2.82146,0 -5.1087,-2.41314 -5.1087,-5.38991z"/><path d="M356.95191,214.54066c0,-2.97677 2.28724,-5.38991 5.1087,-5.38991c2.82146,0 5.1087,2.41314 5.1087,5.38991c0,2.97677 -2.28724,5.38991 -5.1087,5.38991c-2.82146,0 -5.1087,-2.41314 -5.1087,-5.38991z"/><path d="M272.83071,145.45938c0,-2.97676 2.28724,-5.38991 5.1087,-5.38991c2.82146,0 5.1087,2.41314 5.1087,5.38991c0,2.97677 -2.28724,5.38991 -5.1087,5.38991c-2.82146,0 -5.1087,-2.41314 -5.1087,-5.38991z"/><path d="M272.83072,214.54066c0,-2.97677 2.28724,-5.38991 5.1087,-5.38991c2.82146,0 5.1087,2.41314 5.1087,5.38991c0,2.97677 -2.28724,5.38991 -5.1087,5.38991c-2.82146,0 -5.1087,-2.41314 -5.1087,-5.38991z"/><path d="M277.93941,219.93057v-79.86109h84.12119v79.86109z"/></g></g></svg>