<svg version="1.1" xmlns="http://www.w3.org/2000/svg" xmlns:xlink="http://www.w3.org/1999/xlink" width="318.07134" height="91.46205" viewBox="0,0,318.07134,91.46205"><g transform="translate(-160.36867,-144.01953)"><g data-paper-data="{&quot;isPaintingLayer&quot;:true}" stroke-linecap="butt" stroke-linejoin="miter" stroke-miterlimit="10" stroke-dasharray="" stroke-dashoffset="0" style="mix-blend-mode: normal"><path d="M312.84346,145.54153v19.81693c0,0.8491 0.68875,1.53739 1.53739,1.53739h25.72049c0.84864,0 1.53739,0.68829 1.53739,1.53739v46.02938c0,0.8491 -0.68875,1.53739 -1.53739,1.53739h-16.17332c-0.84864,0 -1.53739,-0.68829 -1.53739,-1.53739v-32.37738c0,-0.8491 -0.68875,-1.53739 -1.53739,-1.53739h-6.4724c-0.84864,0 -1.53739,0.68829 -1.53739,1.53739v32.37738c0,0.8491 -0.68875,1.53739 -1.53739,1.53739h-16.17332c-0.8491,0 -1.53739,-0.68829 -1.53739,-1.53739v-32.37738c0,-0.8491 -0.68829,-1.53739 -1.53739,-1.53739h-16.81902c-0.8491,0 -1.53739,0.68829 -1.53739,1.53739v18.74075c0,0.8491 0.68829,1.53739 1.53739,1.53739h11.9455c1.45806,0 2.0973,1.83287 0.95318,2.73655l-13.37527,10.56185c-0.27135,0.21447 -0.60742,0.33823 -0.95318,0.33823h-17.81832c-0.8491,0 -1.53739,-0.68829 -1.53739,-1.53739v-33.1307c0,-0.49827 0.23922,-0.95702 0.6457,-1.24528l18.20267,-12.91406c0.25997,-0.18433 0.57298,-0.27673 0.89168,-0.27673h17.86444c0.8491,0 1.53739,-0.68829 1.53739,-1.53739v-17.23411c0,-0.75547 0.54531,-1.40287 1.29141,-1.52201l16.17332,-2.58281c0.93319,-0.1492 1.78337,0.57621 1.78337,1.52201zM162.65607,147.81686l103.02034,-0.03075c1.49803,0 2.11329,1.91574 0.89168,2.78267l-14.88191,10.56185c-0.26013,0.18449 -0.57283,0.2921 -0.89168,0.2921l-54.16216,0.03075c-0.8491,0 -1.53739,0.68829 -1.53739,1.53739v51.47173c0,0.8491 -0.68829,1.53739 -1.53739,1.53739h-16.17332c-0.8491,0 -1.53739,-0.68829 -1.53739,-1.53739v-51.47173c0,-0.8491 -0.68829,-1.53739 -1.53739,-1.53739h-11.6534c-0.8491,0 -1.53739,-0.68829 -1.53739,-1.53739v-10.56185c0,-0.8491 0.68829,-1.53739 1.53739,-1.53739zM221.93774,166.8036h28.21106c0.8491,0 1.53739,0.68829 1.53739,1.53739v20.66249c0,0.8491 -0.68829,1.53739 -1.53739,1.53739h-28.70302l11.45354,-7.25647c1.30094,-0.82389 0.70966,-2.82879 -0.83019,-2.82879h-9.08596c-0.8491,0 -1.53739,0.68829 -1.53739,1.53739v18.74075c0,0.8491 0.68829,1.53739 1.53739,1.53739h23.87563c1.49865,0 2.11452,1.9162 0.89168,2.78267l-14.91266,10.56185c-0.25982,0.18403 -0.57329,0.2921 -0.89168,0.2921h-28.21106c-0.8491,0 -1.53739,-0.68829 -1.53739,-1.53739v-33.1307c0,-0.49827 0.23922,-0.95702 0.6457,-1.24528l18.20267,-12.91406c0.25997,-0.18433 0.57298,-0.27673 0.89168,-0.27673z" fill="none" fill-rule="evenodd" stroke="#ffffff" stroke-width="1.5"/><path d="M348.23866,147.67366c-0.84864,0 -1.53739,0.68829 -1.53739,1.53739v10.56185c0,0.8491 0.68875,1.53739 1.53739,1.53739h46.33686c0.31823,0 0.63186,-0.10807 0.89168,-0.2921l14.91266,-10.56185c1.22223,-0.86632 0.60574,-2.78267 -0.89168,-2.78267h-61.24952zM395.34423,198.99168c0,0.8491 0.68875,1.53739 1.53739,1.53739h7.31796v-32.33126c0,-0.8491 0.68875,-1.53739 1.53739,-1.53739h29.82532c1.49126,0 2.09853,1.90836 0.89168,2.78267l-12.37597,8.96297c-0.39818,0.28918 -0.63033,0.75239 -0.63033,1.24528v34.66809c0,0.8491 -0.68875,1.53739 -1.53739,1.53739h-16.17332c-0.84864,0 -1.53739,-0.68829 -1.53739,-1.53739v-13.79037l-8.68624,14.57443c-0.27826,0.46552 -0.78099,0.75332 -1.32215,0.75332h-16.92664c-0.84864,0 -1.53739,-0.68829 -1.53739,-1.53739v-32.37738c0,-0.8491 -0.68875,-1.53739 -1.53739,-1.53739h-6.70301c-0.84864,0 -1.53739,0.68829 -1.53739,1.53739v32.37738c0,0.8491 -0.68875,1.53739 -1.53739,1.53739h-16.20406c-0.85018,0 -1.53739,-0.68798 -1.53739,-1.53739l0.03075,-46.02938c0,-0.84879 0.68875,-1.53739 1.53739,-1.53739h45.56817c0.84864,0 1.53739,0.68829 1.53739,1.53739zM447.79988,167.02938l-18.20267,12.91406c-0.40587,0.28826 -0.6457,0.74701 -0.6457,1.24528v33.1307c0,0.8491 0.68875,1.53739 1.53739,1.53739h28.21106c0.31823,0 0.63186,-0.10807 0.89168,-0.2921l14.91266,-10.56185c1.22223,-0.86647 0.60574,-2.78267 -0.89168,-2.78267h-23.87563c-0.84864,0 -1.53739,-0.68829 -1.53739,-1.53739v-18.74075c0,-0.8491 0.68875,-1.53739 1.53739,-1.53739h9.08596c1.54046,0 2.13236,2.0049 0.83019,2.82879l-11.45354,7.25647h28.70302c0.84864,0 1.53739,-0.68829 1.53739,-1.53739v-20.66249c0,-0.8491 -0.68875,-1.53739 -1.53739,-1.53739h-28.21106c-0.31977,0 -0.63186,0.0924 -0.89168,0.27673z" fill="none" fill-rule="evenodd" stroke="#00b5ff" stroke-width="1.5"/><text transform="translate(275.90853,231.85814) scale(0.27426,0.27426)" font-size="40" xml:space="preserve" fill-opacity="0" fill="#000000" fill-rule="nonzero" stroke="#00b5ff" stroke-width="3" stroke-linecap="butt" stroke-linejoin="miter" stroke-miterlimit="10" stroke-dasharray="" stroke-dashoffset="0" font-family="&quot;MiSans-Heavy&quot;, Sans Serif" font-weight="normal" text-anchor="start" style="mix-blend-mode: normal"><tspan x="0" dy="0">TurboWarp</tspan></text><text transform="translate(347.28855,231.85814) scale(0.27426,0.27426)" font-size="40" xml:space="preserve" fill-opacity="0" fill="#000000" fill-rule="nonzero" stroke="#ffffff" stroke-width="3" stroke-linecap="butt" stroke-linejoin="miter" stroke-miterlimit="10" stroke-dasharray="" stroke-dashoffset="0" font-family="&quot;MiSans-Heavy&quot;, Sans Serif" font-weight="normal" text-anchor="start" style="mix-blend-mode: normal"><tspan x="0" dy="0">Version By KOSHINO</tspan></text></g></g></svg>