<svg version="1.1" xmlns="http://www.w3.org/2000/svg" xmlns:xlink="http://www.w3.org/1999/xlink" width="482.68635" height="224.05137" viewBox="0,0,482.68635,224.05137"><g transform="translate(-342.58606,-191.47181)"><g data-paper-data="{&quot;isPaintingLayer&quot;:true}" stroke="none" stroke-linecap="butt" stroke-linejoin="miter" stroke-miterlimit="10" stroke-dasharray="" stroke-dashoffset="0" style="mix-blend-mode: normal"><text transform="translate(687.11251,288.80276) scale(0.5,0.5)" font-size="40" xml:space="preserve" fill="#ffffff" fill-rule="nonzero" stroke="none" stroke-width="1" stroke-linecap="butt" stroke-linejoin="miter" stroke-miterlimit="10" stroke-dasharray="" stroke-dashoffset="0" font-family="&quot;MiSans-Heavy&quot;, Sans Serif" font-weight="normal" text-anchor="start" style="mix-blend-mode: normal"><tspan x="0" dy="0">@_KOSHINO_</tspan></text><g fill-rule="nonzero"><path d="M708.79698,229.3713c-2.42535,0.60634 -3.0317,-1.81902 -3.0317,-1.81902l-0.24691,-1.04236c-0.70644,-4.94503 -1.99052,-8.56368 -4.28636,-13.02381c-0.36709,-0.71316 -1.62035,-4.07296 -3.02243,-3.97849c-1.44111,0.0971 -3.27025,3.79946 -3.78262,4.76011c-2.33072,4.36986 -0.73556,10.51025 0.56794,14.93371c0,0 0.70542,2.39841 -1.69299,3.10383c-2.39841,0.70541 -3.10383,-1.69299 -3.10383,-1.69299c-2.10999,-7.18695 -3.16319,-15.08697 1.55273,-21.50915c1.48193,-2.0181 3.39869,-4.48891 6.28667,-4.59253c4.07339,-0.14616 6.10501,3.7454 7.63687,6.68081c2.56103,4.90757 4.01298,9.14582 4.79378,14.61141l0.14787,0.53679c0,0 0.60634,2.42536 -1.81902,3.0317z" fill="#000000" stroke-width="0.5"/><path d="M735.43206,228.92286c-2.37171,0.79057 -3.16228,-1.58113 -3.16228,-1.58113l-0.51672,-1.79682c-0.05962,-0.86327 -0.11925,-1.72654 -0.17887,-2.58981c-0.57489,-2.66502 -1.24536,-5.39669 -2.22852,-7.94636c-0.75702,-1.9632 -1.74756,-3.83719 -2.40807,-5.83493c-0.30102,-0.91045 -0.4923,-2.9517 -1.49252,-3.71632c-1.78209,-1.36234 -4.8492,-0.18256 -5.13066,2.04191c-0.81516,6.44241 -0.08467,13.58376 1.72351,19.7281c0,0 0.70542,2.39842 -1.693,3.10383c-2.39841,0.70541 -3.10383,-1.693 -3.10383,-1.693c-1.63563,-5.56419 -1.87813,-10.34744 -1.87813,-16.10218c0,-0.72146 -0.01203,-5.73947 0.04855,-6.01733c1.24714,-5.72021 8.09843,-8.58433 13.02962,-5.06429c2.43367,1.73724 2.41036,3.66895 3.24495,6.1534c1.66467,4.95553 3.73756,9.47844 4.83835,14.64351c0.07197,0.97908 0.14395,1.95815 0.21593,2.93723l0.27285,0.57192c0,0 0.79057,2.3717 -1.58114,3.16227z" fill="#000000" stroke-width="0.5"/><path d="M704.89387,240.47663c-0.25075,-0.2461 -0.47258,-0.58395 -0.63674,-1.04358c-0.38105,-1.06696 -0.10589,-1.82308 0.30897,-2.33096c0.14778,-0.73008 0.66059,-1.99686 2.44018,-1.99686c0.57174,0 1.01273,0.13075 1.35287,0.33246c2.38177,-0.63496 4.70729,-1.00259 7.27041,-1.47472c2.57035,-0.47347 8.56745,-2.60399 11.02227,-0.73744c1.17112,0.89048 1.35017,2.63624 1.74865,4.05246c0.91188,3.24085 0.41532,8.23832 -1.59333,11.05644c-4.36432,6.12308 -14.79062,4.04424 -18.94605,-1.02145c-1.86296,-2.27104 -2.08115,-3.76001 -2.89669,-6.38505c-0.02351,-0.15043 -0.04702,-0.30086 -0.07053,-0.45129zM709.9467,240.15559c1.50396,4.6042 4.65514,7.51953 9.82537,6.63853c0.72143,-0.12293 2.46245,-0.54862 2.96434,-1.363c1.34464,-2.18187 0.88499,-4.7699 0.7754,-7.10385c-0.01709,-0.36393 0.45407,-0.85228 0.1695,-1.07979c-0.26951,-0.21547 -0.57936,0.40476 -0.9153,0.48354c-0.88076,0.20654 -1.80007,0.19773 -2.68971,0.36182c-3.39737,0.62663 -6.81415,1.13684 -10.12959,2.06275z" fill="#000000" stroke-width="0.5"/><path d="M693.34956,246.66725c-1.28522,1.10581 -2.94735,0.66586 -4.88837,-4.08826c-0.79467,-1.94639 0.98921,-4.83016 2.95666,-5.57114c1.92144,-0.72366 4.77133,0.48123 5.71142,2.30658c2.09529,4.06837 -0.51762,7.63426 -3.77972,7.35282z" fill="#ffbbbb" stroke-width="0.5"/><path d="M735.89199,236.81566l0.40141,-0.57808c0.02148,-0.29653 0.09469,-0.57871 0.21063,-0.83757l-0.3399,-0.57283c1.80155,-1.17855 3.40535,-4.33398 5.40465,-3.53563c2.0616,0.82322 3.17779,4.67243 1.79886,6.41208c-0.33492,0.42255 -0.76711,0.63951 -1.2618,0.72433l-0.34614,0.59339c-0.42764,0.76448 -1.24513,1.28129 -2.18334,1.28129c-0.8691,0 -1.63463,-0.44349 -2.08262,-1.1165c-1.60175,-0.51247 -1.60175,-2.37047 -1.60175,-2.37047z" fill="#ffbbbb" stroke-width="0.5"/><text transform="translate(752.96127,224.20453) scale(0.5,0.5)" font-size="40" xml:space="preserve" fill="#ffffff" fill-rule="nonzero" stroke="none" stroke-width="1" stroke-linecap="butt" stroke-linejoin="miter" stroke-miterlimit="10" stroke-dasharray="" stroke-dashoffset="0" font-family="&quot;MiSans-Heavy&quot;, Sans Serif" font-weight="normal" text-anchor="start" style="mix-blend-mode: normal"><tspan x="0" dy="0">这是个</tspan><tspan x="0" dy="46.15px">  彩蛋</tspan></text></g><text transform="translate(344.65474,364.99887) scale(4.13737,4.13737)" font-size="40" xml:space="preserve" fill-opacity="0.40392" fill="#0096ff" fill-rule="nonzero" stroke="none" stroke-width="1" stroke-linecap="butt" stroke-linejoin="miter" stroke-miterlimit="10" stroke-dasharray="" stroke-dashoffset="0" font-family="&quot;MiSans-Heavy&quot;, Sans Serif" font-weight="normal" text-anchor="start" style="mix-blend-mode: normal"><tspan x="0" dy="0">欢迎</tspan></text><path d="M441.65105,199.97853l260.10524,-0.06358c3.09739,0 4.36951,3.96106 1.84367,5.75355l-30.77043,21.83812c-0.53786,0.38146 -1.18443,0.60396 -1.84369,0.60396l-159.08411,0.06358c-1.75564,0 -3.17877,1.42313 -3.17877,3.17877v106.42505c0,1.75564 -1.42314,3.17877 -3.17879,3.17877h-33.44059c-1.75564,0 -3.17877,-1.42313 -3.17877,-3.17877v-106.42505c0,-1.75564 -1.42314,-3.17877 -3.17879,-3.17877h-24.09502c-1.75564,0 -3.17879,-1.42314 -3.17879,-3.17879v-21.8381c0,-1.75564 1.42314,-3.17877 3.17879,-3.17877z" fill="#00b5ff" fill-rule="evenodd" stroke-width="1"/><path d="M524.91639,241.07216c-1.75469,0 -3.17877,1.42313 -3.17877,3.17877v21.83812c0,1.75564 1.42408,3.17877 3.17877,3.17877h116.7055c0.65798,0 1.30647,-0.22344 1.84367,-0.60396l30.83401,-21.83812c2.52713,-1.79123 1.25246,-5.75357 -1.84367,-5.75357h-147.53953zM599.47147,308.74808h-34.75695c-1.75469,0 -3.17879,1.42313 -3.17879,3.17877v66.94478c0,1.75564 -1.42408,3.17877 -3.17877,3.17877h-33.50417c-1.75786,0 -3.17877,-1.42248 -3.17877,-3.17877l0.06358,-95.17221c0,-1.755 1.42408,-3.17877 3.17877,-3.17877h115.11612c1.75469,0 -38.80637,28.22743 -40.56104,28.22743z" fill="#00b5ff" fill-rule="evenodd" stroke-width="1"/></g></g></svg>