<svg version="1.1" xmlns="http://www.w3.org/2000/svg" xmlns:xlink="http://www.w3.org/1999/xlink" width="141.90934" height="360.00001" viewBox="0,0,141.90934,360.00001"><g transform="translate(-288.89054,0)"><g data-paper-data="{&quot;isPaintingLayer&quot;:true}" fill="#ffffff" fill-rule="nonzero" stroke="none" stroke-width="0" stroke-linecap="butt" stroke-linejoin="miter" stroke-miterlimit="10" stroke-dasharray="" stroke-dashoffset="0" style="mix-blend-mode: normal"><path d="M288.89054,354.61009v-349.22017h141.90934v349.22017z"/><path d="M420.58248,5.38992c0,-2.97676 2.28724,-5.38991 5.1087,-5.38991c2.82146,0 5.1087,2.41314 5.1087,5.38991c0,2.97677 -2.28724,5.38991 -5.1087,5.38991c-2.82146,0 -5.1087,-2.41314 -5.1087,-5.38991z"/><path d="M420.58248,354.6101c0,-2.97677 2.28724,-5.38991 5.1087,-5.38991c2.82146,0 5.1087,2.41314 5.1087,5.38991c0,2.97677 -2.28724,5.38991 -5.1087,5.38991c-2.82146,0 -5.1087,-2.41314 -5.1087,-5.38991z"/><path d="M288.89054,5.38991c0,-2.97676 2.28724,-5.38991 5.1087,-5.38991c2.82146,0 5.1087,2.41314 5.1087,5.38991c0,2.97677 -2.28724,5.38991 -5.1087,5.38991c-2.82146,0 -5.1087,-2.41314 -5.1087,-5.38991z"/><path d="M288.89054,354.61009c0,-2.97677 2.28724,-5.38991 5.1087,-5.38991c2.82146,0 5.1087,2.41314 5.1087,5.38991c0,2.97677 -2.28724,5.38991 -5.1087,5.38991c-2.82146,0 -5.1087,-2.41314 -5.1087,-5.38991z"/><path d="M293.99923,360v-359.99999h131.69195v359.99999z"/></g></g></svg>