<svg version="1.1" xmlns="http://www.w3.org/2000/svg" xmlns:xlink="http://www.w3.org/1999/xlink" width="236.73858" height="196.78517" viewBox="0,0,236.73858,196.78517"><g transform="translate(-430.93247,-173.10394)"><g data-paper-data="{&quot;isPaintingLayer&quot;:true}" fill-rule="nonzero" stroke="none" stroke-width="1" stroke-linecap="butt" stroke-linejoin="miter" stroke-miterlimit="10" stroke-dasharray="" stroke-dashoffset="0" style="mix-blend-mode: normal"><path d="M537.38042,174.59741c83.32957,11.24678 148.11154,64.55002 125.87361,125.65727c-22.23793,61.10724 -95.17488,74.8776 -146.66681,68.03782c-51.4923,-6.83997 -112.80612,-41.53426 -72.74106,-64.05417c40.06506,-22.51991 1.00411,-47.34876 -9.92735,-66.44351c-10.93145,-19.09475 20.13178,-74.44432 103.46161,-63.19742zM488.11693,254.49509c13.80712,0 25,-11.19288 25,-25c0,-13.80712 -11.19288,-25 -25,-25c-13.80712,0 -25,11.19288 -25,25c0,13.80712 11.19288,25 25,25zM547.47766,245.65735c10.90763,0 19.75,-8.84238 19.75,-19.75c0,-10.90762 -8.84237,-19.75 -19.75,-19.75c-10.90763,0 -19.75,8.84238 -19.75,19.75c0,10.90762 8.84237,19.75 19.75,19.75zM597.99756,257.43214c9.66498,0 17.5,-7.83502 17.5,-17.5c0,-9.66498 -7.83502,-17.5 -17.5,-17.5c-9.66498,0 -17.5,7.83502 -17.5,17.5c0,9.66498 7.83502,17.5 17.5,17.5z" fill="#00a9ff"/><path d="" fill="#ffffff"/><path d="M529.5055,217.42399c1.83222,-3.8376 4.75651,-6.8013 8.22296,-8.69659c-5.97259,3.3966 -10.0008,9.81786 -10.0008,17.17996c0,4.33465 1.39642,8.34315 3.76395,11.60017c-4.19962,-5.61621 -5.2172,-13.31598 -1.9861,-20.08354z" fill="#ffffff"/><path d="" fill="#ffffff"/></g></g></svg>