<svg version="1.1" xmlns="http://www.w3.org/2000/svg" xmlns:xlink="http://www.w3.org/1999/xlink" width="960" height="540" viewBox="0,0,960,540"><defs><clipPath id="clip-1"><path d="M-160,450v-540h960v540z" fill="none" fill-rule="nonzero"/></clipPath></defs><g transform="translate(160,90)"><g clip-path="url(#clip-1)" stroke="none" stroke-miterlimit="10"><path d="M124.42414,92.39099c0,-12.12346 9.83264,-21.95834 21.96134,-21.95834h346.48413c12.12346,0 21.95834,9.83489 21.95834,21.95834v175.21802c0,12.12346 -9.83489,21.95834 -21.95834,21.95834h-346.48413c-12.12869,0 -21.96134,-9.83489 -21.96134,-21.95834z" fill="#009cff" fill-rule="evenodd"/><path d="M163.49871,98.85285c2.05171,0 3.82489,0.38381 5.32062,1.16237c1.49465,0.77858 2.63838,1.87516 3.42901,3.28975c0.79064,1.41459 1.18651,3.03753 1.18651,4.86883c0,1.62294 -0.37723,3.19106 -1.13057,4.69337c-0.75446,1.50231 -1.83567,3.00464 -3.24369,4.50696l-5.19013,5.53775h10.15765v6.64529h-20.79779v-4.69337l10.45482,-11.04259c1.01324,-1.09658 1.71725,-2.03964 2.11203,-2.82918c0.39586,-0.78954 0.59325,-1.60101 0.59325,-2.43442c0,-0.97596 -0.26537,-1.74357 -0.79613,-2.33573c-0.53184,-0.58119 -1.30383,-0.87727 -2.31708,-0.87727c-1.06368,0 -1.97713,0.32897 -2.74366,0.97596c-0.76651,0.64698 -1.42117,1.63391 -1.96508,2.96077l-5.37546,-3.78322c0.81586,-1.88613 2.07582,-3.45424 3.78102,-4.71531c1.70518,-1.26108 3.88081,-1.90806 6.52468,-1.92998z" fill="#ffffff" fill-rule="evenodd"/><path d="M220.52212,98.85285c2.05061,0 3.82379,0.38381 5.31952,1.16237c1.49575,0.77858 2.63838,1.87516 3.42901,3.28975c0.79173,1.41459 1.18651,3.03753 1.18651,4.86883c0,1.62294 -0.37723,3.19106 -1.13057,4.69337c-0.75336,1.50231 -1.83459,3.00464 -3.24369,4.50696l-5.19013,5.53775h10.15765v6.64529h-20.79779v-4.69337l10.45482,-11.04259c1.01324,-1.09658 1.71725,-2.03964 2.11311,-2.82918c0.39476,-0.78954 0.59325,-1.60101 0.59325,-2.43442c0,-0.97596 -0.26647,-1.74357 -0.79721,-2.33573c-0.53184,-0.58119 -1.30383,-0.87727 -2.31708,-0.87727c-1.0626,0 -1.97713,0.32897 -2.74366,0.97596c-0.76651,0.64698 -1.42117,1.63391 -1.96508,2.96077l-5.37546,-3.78322c0.81586,-1.88613 2.07582,-3.45424 3.78102,-4.71531c1.70518,-1.26108 3.88081,-1.90806 6.52576,-1.92998z" fill="#ffffff" fill-rule="evenodd"/><path d="M278.64101,98.85285c2.05061,0 3.82379,0.38381 5.31952,1.16237c1.49575,0.77858 2.63838,1.87516 3.42901,3.28975c0.79173,1.41459 1.18651,3.03753 1.18651,4.86883c0,1.62294 -0.37723,3.19106 -1.13057,4.69337c-0.75336,1.50231 -1.83459,3.00464 -3.24369,4.50696l-5.19013,5.53775h10.15765v6.64529h-20.79779v-4.69337l10.45482,-11.04259c1.01324,-1.09658 1.71725,-2.03964 2.11311,-2.82918c0.39476,-0.78954 0.59325,-1.60101 0.59325,-2.43442c0,-0.97596 -0.26647,-1.74357 -0.79721,-2.33573c-0.53184,-0.58119 -1.30383,-0.87727 -2.31708,-0.87727c-1.0626,0 -1.97713,0.32897 -2.74366,0.97596c-0.76651,0.64698 -1.42117,1.63391 -1.96508,2.96077l-5.37546,-3.78322c0.81586,-1.88613 2.07582,-3.45424 3.78212,-4.71531c1.70518,-1.26108 3.87971,-1.90806 6.52468,-1.92998z" fill="#ffffff" fill-rule="evenodd"/><path d="M303.42489,98.85285c3.54635,0 6.26039,1.30493 8.14213,3.92576c1.88283,2.60986 2.8237,6.43694 2.8237,11.4593c0,5.01138 -0.94087,8.81653 -2.8237,11.41543c-1.88174,2.5989 -4.59578,3.90383 -8.14213,3.90383c-3.54525,0 -6.26039,-1.30493 -8.14213,-3.90383c-1.88174,-2.5989 -2.8237,-6.40405 -2.8237,-11.41543c0,-5.02235 0.94197,-8.84942 2.8237,-11.4593c1.88174,-2.62083 4.59688,-3.92576 8.14213,-3.92576zM303.42489,105.38848c-1.31152,0 -2.31269,0.73471 -3.00573,2.22607c-0.69194,1.49135 -1.03846,3.69548 -1.03846,6.62337c0,2.90595 0.34653,5.09912 1.03846,6.56853c0.69304,1.48039 1.69423,2.2151 3.00573,2.2151c1.31152,0 2.31379,-0.73471 3.00573,-2.2151c0.69194,-1.46943 1.03846,-3.66259 1.03846,-6.56853c0,-2.92787 -0.34653,-5.13201 -1.03846,-6.62337c-0.69194,-1.49135 -1.69423,-2.22607 -3.00573,-2.22607z" fill="#ffffff" fill-rule="evenodd"/><path d="M177.33539,99.94943h18.38421v5.55967l-6.64859,5.37326l0.07457,0.18641c1.43653,0 2.76119,0.37284 3.97402,1.12948c1.21282,0.74567 2.17233,1.78743 2.87853,3.12527c0.7051,1.33783 1.0582,2.82918 1.0582,4.47406c0,1.88613 -0.45179,3.57485 -1.35537,5.04428c-0.90358,1.46943 -2.15478,2.6318 -3.75142,3.4652c-1.59662,0.8334 -3.41037,1.25011 -5.44124,1.25011c-2.5989,0 -4.76574,-0.60313 -6.49836,-1.80937c-1.7337,-1.19527 -2.99696,-2.73049 -3.78869,-4.59468l5.38532,-3.60776c0.51977,1.27203 1.16347,2.22607 1.93108,2.87305c0.76761,0.63602 1.7337,0.95402 2.89717,0.95402c1.13825,0 2.05499,-0.31801 2.74804,-0.95402c0.69304,-0.64698 1.03956,-1.51328 1.03956,-2.62083c0,-1.12948 -0.35309,-2.02869 -1.0582,-2.70856c-0.7062,-0.66892 -1.65256,-1.00886 -2.84125,-1.00886c-0.44522,0 -0.85423,0.06579 -1.22598,0.19738c-0.37064,0.14256 -0.81696,0.36188 -1.33673,0.67988l-3.7876,-4.67144l6.46216,-5.93252h-9.09944z" fill="#ffffff" fill-rule="evenodd"/><path d="M234.85445,99.94943h17.86992v6.18473h-11.46148l-0.43973,4.57275c1.22049,-0.59216 2.55066,-0.88823 3.99157,-0.88823c1.90366,0 3.55183,0.39476 4.94339,1.19527c1.39157,0.80051 2.45964,1.92998 3.20421,3.38844c0.74457,1.45846 1.11632,3.15816 1.11632,5.09912c0,2.06157 -0.43973,3.84901 -1.3181,5.36229c-0.87837,1.51328 -2.14273,2.6647 -3.78979,3.47616c-1.64816,0.81148 -3.5946,1.21721 -5.84041,1.21721c-2.29514,0 -4.31506,-0.52636 -6.06081,-1.56812c-1.74467,-1.04176 -3.01999,-2.51117 -3.82597,-4.3973l5.52897,-3.76128c0.97706,2.35766 2.50241,3.54197 4.57713,3.54197c1.19637,0 2.16026,-0.32897 2.89279,-0.97596c0.73252,-0.64698 1.09878,-1.55715 1.09878,-2.70856c0,-1.20624 -0.34761,-2.12738 -1.04395,-2.78533c-0.69524,-0.64698 -1.67778,-0.97596 -2.94762,-0.97596c-0.87837,0 -1.66571,0.23028 -2.36204,0.66892c-0.69524,0.43863 -1.22598,1.09658 -1.59224,1.95191l-5.74938,-2.62083z" fill="#ffffff" fill-rule="evenodd"/><path d="M200.34609,106.52893h6.5795v7.67608h-6.5795z" fill="#ffffff" fill-rule="evenodd"/><path d="M258.46499,106.52893h7.67608v7.67608h-7.67608z" fill="#ffffff" fill-rule="evenodd"/><path d="M200.34609,121.88109h6.5795v7.67608h-6.5795z" fill="#ffffff" fill-rule="evenodd"/><path d="M258.46499,121.88109h7.67608v7.67608h-7.67608z" fill="#ffffff" fill-rule="evenodd"/><path d="M208.62749,133.9435l1.08452,0.31801c-0.31801,0.73471 -0.68647,1.45846 -1.10645,2.19317h13.06469v1.04176h-7.13986v4.16702h6.59705v1.01983h-6.59705v4.75918h7.74735v1.07465h-7.74735v5.16491h-1.12839v-5.16491h-9.76617v-1.07465h3.16802v-5.77899h6.59813v-4.16702h-5.40396c-1.08562,1.72163 -2.30062,3.27878 -3.64614,4.69337l-0.69414,-0.92114c1.04176,-1.05271 1.99578,-2.22607 2.86427,-3.4981c0.8685,-1.283 1.5703,-2.55504 2.10544,-3.82707zM207.86755,142.68326v4.75918h5.53445v-4.75918z" fill="#ffffff" fill-rule="evenodd"/><path d="M250.55642,135.04009h12.2949v15.50569c0,0.70182 -0.08334,1.22818 -0.24892,1.57909c-0.16668,0.35091 -0.45179,0.60313 -0.85753,0.74567c-0.40465,0.13159 -0.99679,0.19738 -1.77757,0.19738h-2.53749l-0.21603,-1.08562h2.51446c0.59325,0 1.0264,-0.04387 1.30165,-0.12063c0.27415,-0.07676 0.46275,-0.23028 0.56364,-0.46057c0.10089,-0.21932 0.15133,-0.57023 0.15133,-1.05271v-3.59679h-10.25634c-0.15901,1.44749 -0.45837,2.65373 -0.8992,3.64066c-0.44083,0.98692 -1.1536,2.08351 -2.13614,3.28975l-0.95402,-0.70182c0.8959,-1.06368 1.55385,-2.01772 1.97275,-2.85112c0.42,-0.82244 0.7051,-1.78743 0.85643,-2.88402c0.15243,-1.09658 0.22808,-2.6318 0.22808,-4.62758zM251.64095,136.10377v4.3644h10.10391v-4.3644zM251.64095,141.50993v1.23914c0,1.11852 -0.02193,2.11641 -0.06579,2.98271h10.1697v-4.22185z" fill="#ffffff" fill-rule="evenodd"/><path d="M295.74881,136.13667h14.25558v17.52339h-1.20186v-1.63391h-11.82994v1.65584h-1.22379zM296.97258,137.24422v6.1628h11.82994v-6.1628zM296.97258,144.51455v6.40405h11.82994v-6.40405z" fill="#ffffff" fill-rule="evenodd"/><path d="M157.0201,136.13667c0.91235,0 1.72601,0.17545 2.4399,0.52636c0.71387,0.35091 1.26875,0.85533 1.66681,1.50231c0.39696,0.64698 0.59544,1.41459 0.59544,2.29186c0,0.91017 -0.19848,1.72163 -0.59544,2.45635c-0.39806,0.73471 -1.08233,1.63391 -2.0539,2.71952l-5.27675,5.76802h8.16955v1.18431h-9.86925v-1.09658l5.85027,-6.4479c0.91345,-1.00886 1.54947,-1.83129 1.91024,-2.45635c0.36078,-0.62505 0.54061,-1.30493 0.54061,-2.03964c0,-0.97596 -0.31582,-1.7655 -0.94854,-2.34669c-0.63383,-0.58119 -1.45078,-0.87727 -2.45087,-0.87727c-0.85423,0 -1.61527,0.23028 -2.28527,0.69085c-0.67002,0.46057 -1.19637,1.14045 -1.57909,2.02869l-0.99351,-0.67988c0.38271,-0.99789 1.00448,-1.77647 1.86639,-2.35766c0.86082,-0.58119 1.86529,-0.8663 3.01341,-0.8663z" fill="#ffffff" fill-rule="evenodd"/><path d="M170.72739,136.13667c1.77098,0 3.12965,0.70182 4.07491,2.10544c0.94635,1.41459 1.41897,3.45424 1.41897,6.11893c0,2.6647 -0.47262,4.70434 -1.41897,6.11893c-0.94525,1.40362 -2.30392,2.10544 -4.07491,2.10544c-1.74138,0 -3.08907,-0.70182 -4.04201,-2.11641c-0.95294,-1.41459 -1.42994,-3.45424 -1.42994,-6.10796c0,-2.65373 0.47702,-4.69337 1.42994,-6.10796c0.95294,-1.41459 2.30062,-2.11641 4.04201,-2.11641zM170.72739,137.29904c-1.32138,0 -2.34229,0.60313 -3.06275,1.82032c-0.72045,1.21721 -1.08123,2.96077 -1.08123,5.24166c0,2.29186 0.36078,4.04639 1.08123,5.25263c0.72045,1.20624 1.74138,1.80937 3.06275,1.80937c1.33563,0 2.36423,-0.60313 3.08468,-1.80937c0.72045,-1.20624 1.08123,-2.96077 1.08123,-5.25263c0,-2.28089 -0.36516,-4.02445 -1.0922,-5.24166c-0.72814,-1.21721 -1.75343,-1.82032 -3.07372,-1.82032z" fill="#ffffff" fill-rule="evenodd"/><path d="M183.33809,136.13667c0.91235,0 1.72601,0.17545 2.4399,0.52636c0.71387,0.35091 1.26875,0.85533 1.66681,1.50231c0.39696,0.64698 0.59544,1.41459 0.59544,2.29186c0,0.91017 -0.19848,1.72163 -0.59544,2.45635c-0.39806,0.73471 -1.08233,1.63391 -2.0539,2.71952l-5.27675,5.76802h8.16955v1.18431h-9.86925v-1.09658l5.85136,-6.4479c0.91235,-1.00886 1.54837,-1.83129 1.90915,-2.45635c0.36078,-0.62505 0.54061,-1.30493 0.54061,-2.03964c0,-0.97596 -0.31582,-1.7655 -0.94854,-2.34669c-0.63383,-0.58119 -1.45078,-0.87727 -2.45087,-0.87727c-0.85423,0 -1.61527,0.23028 -2.28527,0.69085c-0.67002,0.46057 -1.19637,1.14045 -1.57909,2.02869l-0.99351,-0.67988c0.38271,-0.99789 1.00448,-1.77647 1.86639,-2.35766c0.86082,-0.58119 1.86529,-0.8663 3.01341,-0.8663z" fill="#ffffff" fill-rule="evenodd"/><path d="M238.71553,136.13667c1.77098,0 3.12965,0.70182 4.07491,2.10544c0.94635,1.41459 1.41897,3.45424 1.41897,6.11893c0,2.6647 -0.47262,4.70434 -1.41897,6.11893c-0.94525,1.40362 -2.30392,2.10544 -4.07491,2.10544c-1.74138,0 -3.08907,-0.70182 -4.04201,-2.11641c-0.95402,-1.41459 -1.42994,-3.45424 -1.42994,-6.10796c0,-2.65373 0.47592,-4.69337 1.42994,-6.10796c0.95294,-1.41459 2.30062,-2.11641 4.04201,-2.11641zM238.71553,137.29904c-1.32138,0 -2.34229,0.60313 -3.06275,1.82032c-0.72045,1.21721 -1.08123,2.96077 -1.08123,5.24166c0,2.29186 0.36078,4.04639 1.08123,5.25263c0.72045,1.20624 1.74138,1.80937 3.06275,1.80937c1.33563,0 2.36423,-0.60313 3.08468,-1.80937c0.72045,-1.20624 1.08123,-2.96077 1.08123,-5.25263c0,-2.28089 -0.36406,-4.02445 -1.0922,-5.24166c-0.72814,-1.21721 -1.75343,-1.82032 -3.07372,-1.82032z" fill="#ffffff" fill-rule="evenodd"/><path d="M273.25789,136.13667c0.91235,0 1.72601,0.17545 2.4399,0.52636c0.71387,0.35091 1.26985,0.85533 1.66681,1.50231c0.39696,0.64698 0.59654,1.41459 0.59654,2.29186c0,0.91017 -0.19958,1.72163 -0.59654,2.45635c-0.39696,0.73471 -1.08233,1.63391 -2.0528,2.71952l-5.27785,5.76802h8.16955v1.18431h-9.86925v-1.09658l5.85136,-6.4479c0.91235,-1.00886 1.54837,-1.83129 1.90915,-2.45635c0.36078,-0.62505 0.54171,-1.30493 0.54171,-2.03964c0,-0.97596 -0.31691,-1.7655 -0.94964,-2.34669c-0.63273,-0.58119 -1.44968,-0.87727 -2.45087,-0.87727c-0.85423,0 -1.61527,0.23028 -2.28527,0.69085c-0.67002,0.46057 -1.19637,1.14045 -1.57799,2.02869l-0.99461,-0.67988c0.38271,-0.99789 1.00556,-1.77647 1.86639,-2.35766c0.86082,-0.58119 1.86529,-0.8663 3.01341,-0.8663z" fill="#ffffff" fill-rule="evenodd"/><path d="M197.65836,136.13667h1.72055v11.39349h2.06377v1.16237h-2.06377v3.89288h-1.24791v-3.89288h-7.65415v-1.01983zM198.13099,137.66092l-6.17047,9.86925h6.17047z" fill="#ffffff" fill-rule="evenodd"/><path d="M229.0305,136.13667h0.92332v16.44874h-1.23804v-14.90256l-3.14829,1.83129v-1.39266z" fill="#ffffff" fill-rule="evenodd"/><path d="M281.91103,136.13667h8.61475v1.09658l-5.01796,5.72417l0.04167,0.06579c0.43205,-0.13159 0.87178,-0.19738 1.317,-0.19738c0.78076,0 1.51658,0.18641 2.20632,0.57023c0.68975,0.38381 1.24463,0.9321 1.66242,1.65584c0.4189,0.72374 0.62725,1.57909 0.62725,2.57698c0,0.97596 -0.20506,1.84226 -0.61628,2.58793c-0.41121,0.74567 -0.99021,1.32687 -1.7359,1.74357c-0.74567,0.4167 -1.59224,0.62505 -2.54078,0.62505c-1.11522,0 -2.10544,-0.28511 -2.96954,-0.84436c-0.86411,-0.55926 -1.53302,-1.33783 -2.00675,-2.31379l0.98254,-0.72374c0.44632,0.8663 0.99351,1.52425 1.64159,1.99578c0.64808,0.47154 1.44639,0.70182 2.39385,0.70182c1.0593,0 1.9245,-0.35091 2.59341,-1.05271c0.66892,-0.70182 1.00338,-1.61197 1.00338,-2.71952c0,-1.12948 -0.34104,-2.03964 -1.02421,-2.73049c-0.68317,-0.69085 -1.56153,-1.04176 -2.63508,-1.04176c-0.72484,0 -1.43543,0.20835 -2.13286,0.61408l-0.66892,-0.96499l5.28992,-6.18473h-7.02581z" fill="#ffffff" fill-rule="evenodd"/><path d="M176.2399,160.26149h1.04723v2.47827h4.70324v-2.47827h1.04723v2.47827h1.76988v0.97596h-1.76988v9.84731h1.9563v0.95402h-10.96583v-0.95402h2.2118v-9.84731h-1.60649v-0.97596h1.60649zM177.28714,163.71572v2.65373h4.70324v-2.65373zM177.28714,167.35638v2.60986h4.70324v-2.60986zM177.28714,170.92028v2.64277h4.70324v-2.64277z" fill="#ffffff" fill-rule="evenodd"/><path d="M155.55067,161.35808h13.10197v7.19358h-5.84149v2.53311h7.23855v0.95402h-7.23855v2.33573h6.46655v0.9321h-6.46655v2.64277h7.9272v0.95402h-17.33698v-0.95402h8.345v-2.64277h-5.9665v-0.9321h5.9665v-2.33573h-5.36119c-0.72374,1.12948 -1.54398,2.19317 -2.46184,3.20203l-0.73032,-0.71279c0.73691,-0.81148 1.41897,-1.67778 2.04512,-2.5989c0.62505,-0.92114 1.1536,-1.84226 1.58457,-2.75242l0.98144,0.30704c-0.29279,0.61408 -0.57023,1.15142 -0.8345,1.60101h4.77671v-2.53311h-6.1957zM156.59352,162.26824v2.22607h11.01518v-2.22607zM156.59352,165.40447v2.23704h11.01518v-2.23704z" fill="#ffffff" fill-rule="evenodd"/><path d="M185.82623,162.45466h6.84377v14.80387c0,0.82244 -0.18203,1.39266 -0.54719,1.69971c-0.36406,0.30704 -1.03518,0.46057 -2.01332,0.46057h-1.93218l-0.20945,-1.00886h1.93218c0.46605,0 0.81915,-0.0329 1.0593,-0.10966c0.24015,-0.07676 0.40683,-0.20835 0.50004,-0.39476c0.09321,-0.19738 0.14036,-0.47154 0.14036,-0.85533v-3.73935h-4.84142c-0.10856,1.46943 -0.37613,2.67567 -0.80379,3.61872c-0.42657,0.94306 -1.14374,1.97385 -2.1526,3.07043l-1.00118,-0.62505c0.931,-0.96499 1.6021,-1.83129 2.01332,-2.62083c0.41121,-0.78954 0.68317,-1.69971 0.81476,-2.73049c0.13159,-1.03079 0.19738,-2.52214 0.19738,-4.48502zM186.87456,163.47449v3.9148h4.72517v-3.9148zM186.87456,168.3433v1.61197c0,0.62505 -0.01535,1.41459 -0.04715,2.35766h4.77233v-3.96963z" fill="#ffffff" fill-rule="evenodd"/><path d="M197.05634,162.45466h16.44874v1.09658h-16.44874z" fill="#ffffff" fill-rule="evenodd"/><path d="M198.15293,169.03416h14.25558v1.09658h-14.25558z" fill="#ffffff" fill-rule="evenodd"/><path d="M177.62269,175.61365l0.79173,0.60313c-0.45618,0.60313 -1.02749,1.25011 -1.71176,1.95191c-0.68537,0.70182 -1.34112,1.30493 -1.96837,1.83129l-0.7062,-0.72374c0.613,-0.47154 1.25559,-1.04176 1.9256,-1.72163c0.67002,-0.67988 1.22708,-1.32687 1.66899,-1.94095z" fill="#ffffff" fill-rule="evenodd"/><path d="M181.28199,175.61365c0.42218,0.40573 0.78076,0.75664 1.07575,1.05271c0.56254,0.57023 1.07575,1.07465 1.5396,1.50231l-0.6744,0.73471l-0.75993,-0.75664c-0.88495,-0.8992 -1.50451,-1.51328 -1.85542,-1.82032z" fill="#ffffff" fill-rule="evenodd"/><path d="M195.95976,176.71024h18.64191v2.19317h-18.64191z" fill="#ffffff" fill-rule="evenodd"/><path d="M484.91196,70.43265h8.29421c11.94396,0 21.62178,9.83489 21.62178,21.95835v175.218c0,12.12346 -9.67782,21.95835 -21.62178,21.95835h-8.29421z" fill="#ffffff" fill-rule="evenodd"/></g></g></svg>