<svg version="1.1" xmlns="http://www.w3.org/2000/svg" xmlns:xlink="http://www.w3.org/1999/xlink" width="172.47625" height="166.56537" viewBox="0,0,172.47625,166.56537"><g transform="translate(-436.04047,-183.67515)"><g data-paper-data="{&quot;isPaintingLayer&quot;:true}" fill-rule="evenodd" stroke="none" stroke-width="1" stroke-linecap="butt" stroke-linejoin="miter" stroke-miterlimit="10" stroke-dasharray="" stroke-dashoffset="0" style="mix-blend-mode: normal"><path d="M436.04048,288.63738c0,-18.80065 15.2408,-34.04181 34.04181,-34.04181h48.93509c18.80101,0 34.04181,15.24116 34.04181,34.04181v0c0,18.80065 -15.2408,34.04181 -34.04181,34.04181h-48.93509c-18.80101,0 -34.04181,-15.24116 -34.04181,-34.04181z" fill="#008fff"/><path d="M436.17878,282.60915h116.74212l0.13829,1.18969c0,28.13165 -26.19446,50.93682 -58.50935,50.93682c-32.31489,0 -58.50935,-22.80517 -58.50935,-50.93682z" fill="#008fff"/><path d="M464.58595,213.63903c0,-16.54857 13.4146,-29.96388 29.96388,-29.96388c16.54928,0 29.96388,13.41531 29.96388,29.96388c0,16.54857 -13.4146,29.96388 -29.96388,29.96388c-16.54928,0 -29.96388,-13.41531 -29.96388,-29.96388z" fill="#008fff"/><path d="M518.84659,314.91591c0,-14.40673 11.67886,-26.08586 26.08586,-26.08586h37.49842c14.40701,0 26.08586,11.67913 26.08586,26.08586v0c0,14.40673 -11.67886,26.08586 -26.08586,26.08586h-37.49842c-14.40701,0 -26.08586,-11.67913 -26.08586,-26.08586z" fill="#00e6ff"/><path d="M518.95255,310.29654h89.4582l0.10597,0.91165c0,21.55697 -20.07253,39.03233 -44.83507,39.03233c-24.76255,0 -44.83507,-17.47535 -44.83507,-39.03233z" fill="#00e6ff"/><path d="M541.85349,261.51863c0,-12.68099 10.27946,-22.96099 22.96099,-22.96099c12.68153,0 22.96099,10.28 22.96099,22.96099c0,12.68099 -10.27946,22.96099 -22.96099,22.96099c-12.68153,0 -22.96099,-10.28 -22.96099,-22.96099z" fill="#00e6ff"/></g></g></svg>