<svg version="1.1" xmlns="http://www.w3.org/2000/svg" xmlns:xlink="http://www.w3.org/1999/xlink" width="90.632" height="49.33756" viewBox="0,0,90.632,49.33756"><defs><radialGradient cx="296.46566" cy="180.48743" r="21.78167" gradientUnits="userSpaceOnUse" id="color-1"><stop offset="0" stop-color="#ffffff" stop-opacity="0.18431"/><stop offset="1" stop-color="#ffffff" stop-opacity="0"/></radialGradient><radialGradient cx="307.79914" cy="180.48743" r="21.78167" gradientUnits="userSpaceOnUse" id="color-2"><stop offset="0" stop-color="#ffffff" stop-opacity="0.18431"/><stop offset="1" stop-color="#ffffff" stop-opacity="0"/></radialGradient><radialGradient cx="315.28893" cy="179.51256" r="21.78167" gradientUnits="userSpaceOnUse" id="color-3"><stop offset="0" stop-color="#ffffff" stop-opacity="0.18431"/><stop offset="1" stop-color="#ffffff" stop-opacity="0"/></radialGradient><radialGradient cx="323.91407" cy="180.48743" r="21.78167" gradientUnits="userSpaceOnUse" id="color-4"><stop offset="0" stop-color="#ffffff" stop-opacity="0.18431"/><stop offset="1" stop-color="#ffffff" stop-opacity="0"/></radialGradient><radialGradient cx="332.20085" cy="179.51256" r="21.78167" gradientUnits="userSpaceOnUse" id="color-5"><stop offset="0" stop-color="#ffffff" stop-opacity="0.18431"/><stop offset="1" stop-color="#ffffff" stop-opacity="0"/></radialGradient><radialGradient cx="343.53433" cy="179.51256" r="21.78167" gradientUnits="userSpaceOnUse" id="color-6"><stop offset="0" stop-color="#ffffff" stop-opacity="0.18431"/><stop offset="1" stop-color="#ffffff" stop-opacity="0"/></radialGradient></defs><g transform="translate(-274.684,-155.33122)"><g stroke="none" stroke-miterlimit="10"><text transform="translate(290.6704,184.39944) scale(0.36662,0.36662)" font-size="40" xml:space="preserve" fill="#ffffff" stroke-width="1" font-family="&quot;MiSans-Heavy&quot;, Sans Serif" font-weight="normal" text-anchor="start"><tspan x="0" dy="0">欢迎使用</tspan></text><path d="M318.24733,180.48743c0,13.35499 -9.75199,24.18135 -21.78167,24.18135c-12.02968,0 -21.78166,-10.82635 -21.78166,-24.18134c0,-13.35499 9.75199,-24.18135 21.78166,-24.18135c12.02968,0 21.78167,10.82636 21.78167,24.18135z" fill="url(#color-1)" stroke-width="0"/><path d="M329.58081,180.48743c0,13.35499 -9.75199,24.18135 -21.78167,24.18135c-12.02968,0 -21.78167,-10.82635 -21.78167,-24.18134c0,-13.35499 9.75199,-24.18135 21.78167,-24.18135c12.02968,0 21.78167,10.82636 21.78167,24.18135z" fill="url(#color-2)" stroke-width="0"/><path d="M337.0706,179.51256c0,13.35499 -9.75199,24.18135 -21.78167,24.18135c-12.02968,0 -21.78167,-10.82635 -21.78167,-24.18134c0,-13.35499 9.75199,-24.18135 21.78167,-24.18135c12.02968,0 21.78167,10.82636 21.78167,24.18135z" fill="url(#color-3)" stroke-width="0"/><path d="M345.69574,180.48743c0,13.35499 -9.75199,24.18135 -21.78167,24.18135c-12.02968,0 -21.78167,-10.82635 -21.78167,-24.18134c0,-13.35499 9.75199,-24.18135 21.78167,-24.18135c12.02968,0 21.78167,10.82636 21.78167,24.18135z" fill="url(#color-4)" stroke-width="0"/><path d="M353.98252,179.51256c0,13.35499 -9.75199,24.18135 -21.78167,24.18135c-12.02968,0 -21.78166,-10.82635 -21.78166,-24.18134c0,-13.35499 9.75199,-24.18135 21.78166,-24.18135c12.02968,0 21.78167,10.82636 21.78167,24.18135z" fill="url(#color-5)" stroke-width="0"/><path d="M365.316,179.51256c0,13.35499 -9.75199,24.18135 -21.78167,24.18135c-12.02968,0 -21.78166,-10.82635 -21.78166,-24.18134c0,-13.35499 9.75199,-24.18135 21.78166,-24.18135c12.02968,0 21.78167,10.82636 21.78167,24.18135z" fill="url(#color-6)" stroke-width="0"/></g></g></svg>