<svg version="1.1" xmlns="http://www.w3.org/2000/svg" xmlns:xlink="http://www.w3.org/1999/xlink" width="78.24325" height="28.1081" viewBox="0,0,78.24325,28.1081"><g transform="translate(-288.19509,-164.54297)"><g data-paper-data="{&quot;isPaintingLayer&quot;:true}" fill-rule="nonzero" stroke-linecap="butt" stroke-linejoin="miter" stroke-miterlimit="10" stroke-dasharray="" stroke-dashoffset="0" style="mix-blend-mode: normal"><path d="M288.19509,192.65107v-28.1081h78.24325v28.1081zM310.18562,174.3461c0,0 -0.09855,0.1075 -0.16132,0.27116c-0.04833,0.03375 -0.09739,0.06843 -0.14727,0.10406l0.03918,-0.04802c0,0 -0.71151,0.23717 -0.47434,0.94868c0.23717,0.71151 0.94868,0.47434 0.94868,0.47434l0.35833,-0.1544c0.49484,-0.35348 0.84054,-0.5806 1.1864,-0.73013l0.45214,0.23153c0.65603,0 1.31206,0 1.96809,0c0,0 0.75,0 0.75,-0.75c0,-0.65589 -0.57359,-0.73819 -0.71754,-0.74852c-0.02241,-0.09187 -0.05778,-0.16794 -0.10128,-0.23091c0.18065,-0.08367 0.35711,-0.25408 0.3899,-0.5984c0.07111,-0.74662 -0.67551,-0.81773 -0.67551,-0.81773c-0.55664,-0.04903 -1.62041,-0.26342 -2.19198,0.0938c0.03039,-0.11497 0.03414,-0.21629 -0.05347,-0.27939c-0.03921,-0.02824 -0.10094,-0.02345 -0.16804,-0.00004l0.11347,-0.14751c0.10009,-0.12747 0.15977,-0.28816 0.15977,-0.4628c0,-0.41421 -0.33579,-0.75 -0.75,-0.75c-0.1576,0 -0.30384,0.04861 -0.42456,0.13165l-0.94891,0.63261l0.13189,0.19783c-0.32828,0.20201 -0.61576,0.44978 -0.82547,0.76532l0.04736,-0.07157c0,0 -0.53033,0.53033 0,1.06066c0.53033,0.53033 1.06066,0 1.06066,0l0.13198,-0.15276c0.13691,0.22703 0.29822,0.36202 0.49068,0.43845c-0.19137,0.17426 -0.38601,0.37272 -0.58883,0.59208zM293.33955,183.31034c0,0.41421 0.33579,0.75 0.75,0.75h1.06383v-0.0484l0.12014,0.03872c0.09488,-0.0317 0.18571,-0.06331 0.27291,-0.09516c-0.04925,0.2237 -0.05489,0.43315 0.06853,0.60039c0.15775,0.48478 0.89352,0.86772 1.62105,0.99377c0.77947,0.13505 1.39271,-0.62675 1.85197,-1.07069l0.21967,-0.58352c0,0 0,-0.75 -0.75,-0.75c-0.03279,0 -0.06415,0.00143 -0.09414,0.00418c-0.12946,-0.22501 -0.37231,-0.37652 -0.65054,-0.37652c-0.12597,0 -0.24468,0.03106 -0.34891,0.08593l-0.28217,0.14109c-0.00538,-0.01354 -0.01126,-0.02704 -0.0177,-0.04047c0.07046,-0.07354 0.14037,-0.15187 0.2106,-0.23569l0.64215,-0.2734c0,0 0.68277,-0.31035 0.37242,-0.99313c-0.31035,-0.68277 -0.99313,-0.37242 -0.99313,-0.37242l-0.03495,0.01767c-0.38714,-0.15279 -0.67679,0.08964 -0.79631,0.2188c-0.38552,-0.14661 -0.64883,0.04411 -0.78995,0.20339c-0.4409,0.07585 -0.88307,0.14097 -1.33843,0.18852c0,0 -0.74588,0.07851 -0.66737,0.82439c0.00324,0.03078 0.00762,0.06016 0.01303,0.0882c-0.26097,0.11737 -0.44268,0.37964 -0.44268,0.68435z" fill-opacity="0.00392" fill="#ffffff" stroke="none" stroke-width="0"/><path d="M311.70005,172.87442c-0.00755,-0.04796 -0.0027,-0.09992 0.00868,-0.15364c-0.00554,0.1324 0.00423,0.23564 -0.00868,0.15364z" fill-opacity="0.00392" fill="#ffffff" stroke="none" stroke-width="0"/><path d="M297.44185,184.59237c-0.0349,0.06894 -0.05607,0.08973 -0.05813,0.0327z" fill-opacity="0.00392" fill="#ffffff" stroke="none" stroke-width="0"/><text transform="translate(319.75005,185.76877) scale(0.5,0.5)" font-size="40" xml:space="preserve" fill="#0089ff" fill-rule="nonzero" stroke="none" stroke-width="1" stroke-linecap="butt" stroke-linejoin="miter" stroke-miterlimit="10" stroke-dasharray="" stroke-dashoffset="0" font-family="&quot;MiSans-Heavy&quot;, Sans Serif" font-weight="normal" text-anchor="start" style="mix-blend-mode: normal"><tspan x="0" dy="0">更新</tspan></text><path d="M291.11082,180.33161l4.40543,1.23645c-0.34482,-0.96044 -0.5327,-1.99568 -0.5327,-3.0748c0,-5.02469 4.07332,-9.09802 9.098,-9.09802c2.18446,0 4.18911,0.76988 5.75742,2.0531" fill="none" stroke="#0089ff" stroke-width="1.5"/><path d="M317.33424,176.87415l-4.6785,-1.43085c0.33917,0.95344 0.52382,1.98013 0.52382,3.04995c0,5.02469 -4.07332,9.098 -9.098,9.098c-2.28813,0 -4.37897,-0.84468 -5.97772,-2.23922" fill="none" stroke="#0089ff" stroke-width="1.5"/></g></g></svg>