<svg version="1.1" xmlns="http://www.w3.org/2000/svg" xmlns:xlink="http://www.w3.org/1999/xlink" width="58.5008" height="58.5008" viewBox="0,0,58.5008,58.5008"><g transform="translate(-290.7496,-150.7496)"><g data-paper-data="{&quot;isPaintingLayer&quot;:true}" fill="none" fill-rule="nonzero" stroke="#2900ff" stroke-width="0.5" stroke-linecap="butt" stroke-linejoin="miter" stroke-miterlimit="10" stroke-dasharray="" stroke-dashoffset="0" style="mix-blend-mode: normal"><path d="M290.9996,175.6246c0,-13.60001 11.02499,-24.625 24.625,-24.625c13.60001,0 24.625,11.02499 24.625,24.625c0,13.60001 -11.02499,24.625 -24.625,24.625c-13.60001,0 -24.625,-11.02499 -24.625,-24.625z"/><path d="M290.9996,184.3754c0,-13.60001 11.02499,-24.625 24.625,-24.625c13.60001,0 24.625,11.02499 24.625,24.625c0,13.60001 -11.02499,24.625 -24.625,24.625c-13.60001,0 -24.625,-11.02499 -24.625,-24.625z"/><path d="M299.7504,175.6246c0,-10.45783 5.76571,-24.02163 15.61888,-24.5021c2.28229,-0.11129 5.86394,-0.12289 9.00612,-0.12289c13.60001,0 24.625,11.02499 24.625,24.625c0,13.60001 -11.02499,24.625 -24.625,24.625c-13.60001,0 -24.625,-11.02499 -24.625,-24.625z"/><path d="M299.7504,184.3754c0,-13.60001 11.02499,-24.625 24.625,-24.625c13.60001,0 24.625,11.02499 24.625,24.625c0,13.60001 -11.02499,24.625 -24.625,24.625c-13.60001,0 -24.625,-11.02499 -24.625,-24.625z"/><path d="M290.9996,184.3754v-8.7508h58.0008v8.7508z"/><path d="M315.6246,184.3754v-33.3758h8.7508v33.3758z"/><path d="M315.6246,209.0004v-33.3758h8.7508v33.3758z"/></g></g></svg>