<svg version="1.1" xmlns="http://www.w3.org/2000/svg" xmlns:xlink="http://www.w3.org/1999/xlink" width="1459.15676" height="767.33033" viewBox="0,0,1459.15676,767.33033"><g transform="translate(409.57838,203.66515)"><g stroke="none" stroke-width="0" stroke-miterlimit="10"><path d="M-409.57838,563.66518v-767.33033h1459.15676v767.33033z" fill-opacity="0.54902" fill="#1f1f1f"/><path d="M495.83707,295.11974c0,-7.35801 5.96483,-13.32285 13.32285,-13.32285c7.35801,0 13.32284,5.96483 13.32284,13.32285c0,7.35801 -5.96483,13.32284 -13.32284,13.32284c-7.35801,0 -13.32285,-5.96483 -13.32285,-13.32284z" fill="#131313"/><path d="M117.51722,295.11974c0,-7.35801 5.96483,-13.32285 13.32284,-13.32285c7.35801,0 13.32285,5.96483 13.32285,13.32285c0,7.35801 -5.96483,13.32284 -13.32285,13.32284c-7.35801,0 -13.32284,-5.96483 -13.32284,-13.32284z" fill="#131313"/><path d="M117.51724,295.11974v-230.29524h404.96551v230.29524z" fill="#131313"/><path d="M117.51724,64.82452c0,-7.32719 5.96483,-13.26706 13.32284,-13.26706c7.35801,0 13.32285,5.93985 13.32285,13.26706c0,7.32721 -5.96483,13.26706 -13.32285,13.26706c-7.35801,0 -13.32284,-5.93985 -13.32284,-13.26706z" fill="#131313"/><path d="M495.83709,64.82452c0,-7.32719 5.96483,-13.26706 13.32285,-13.26706c7.35801,0 13.32284,5.93985 13.32284,13.26706c0,7.32721 -5.96483,13.26706 -13.32284,13.26706c-7.35801,0 -13.32285,-5.93985 -13.32285,-13.26706z" fill="#131313"/><path d="M130.84006,308.44257v-256.88515h378.31986v256.88515z" fill="#131313"/></g></g></svg>