<svg version="1.1" xmlns="http://www.w3.org/2000/svg" xmlns:xlink="http://www.w3.org/1999/xlink" width="79.41622" height="78.69831" viewBox="0,0,79.41622,78.69831"><g transform="translate(-280.2919,-140.65087)"><g data-paper-data="{&quot;isPaintingLayer&quot;:true}" fill="none" fill-rule="nonzero" stroke="#00b4ff" stroke-width="7" stroke-linejoin="miter" stroke-miterlimit="10" stroke-dasharray="" stroke-dashoffset="0" style="mix-blend-mode: normal"><path d="M303.45514,180.00002c0,-9.13749 7.4074,-16.54488 16.54488,-16.54488c9.13749,0 16.54488,7.4074 16.54488,16.54488c0,9.13749 -7.4074,16.54488 -16.54488,16.54488c-9.13749,0 -16.54488,-7.4074 -16.54488,-16.54488z" stroke-linecap="butt"/><path d="M339.76363,161.69473l7.6606,-9.39032" stroke-linecap="round"/><path d="M320.00001,154.827v-10.67613" data-paper-data="{&quot;index&quot;:null}" stroke-linecap="round"/><path d="M356.20812,179.96271l-10.26865,0.03731" data-paper-data="{&quot;index&quot;:null}" stroke-linecap="round"/><path d="M339.76363,161.69473l7.6606,-9.39032" stroke-linecap="round"/><path d="M320.00001,154.827v-10.67613" data-paper-data="{&quot;index&quot;:null}" stroke-linecap="round"/><path d="M356.20812,179.96271l-10.26865,0.03731" data-paper-data="{&quot;index&quot;:null}" stroke-linecap="round"/><path d="M339.76363,198.30531l7.6606,9.39032" data-paper-data="{&quot;index&quot;:null}" stroke-linecap="round"/><path d="M320.00001,215.84918v-10.67613" data-paper-data="{&quot;index&quot;:null}" stroke-linecap="round"/><path d="M345.93947,180.00002l10.26865,0.03731" data-paper-data="{&quot;index&quot;:null}" stroke-linecap="round"/><path d="M300.23641,198.30531l-7.6606,9.39032" data-paper-data="{&quot;index&quot;:null}" stroke-linecap="round"/><path d="M320.00001,205.17305v10.67613" data-paper-data="{&quot;index&quot;:null}" stroke-linecap="round"/><path d="M294.06055,180.00002l-10.26865,0.03731" data-paper-data="{&quot;index&quot;:null}" stroke-linecap="round"/><path d="M292.57581,152.34172l7.6606,9.39032" data-paper-data="{&quot;index&quot;:null}" stroke-linecap="round"/><path d="M320.00001,144.18817v10.67613" data-paper-data="{&quot;index&quot;:null}" stroke-linecap="round"/><path d="M283.79191,180.00002l10.26865,0.03731" data-paper-data="{&quot;index&quot;:null}" stroke-linecap="round"/></g></g></svg>