<svg version="1.1" xmlns="http://www.w3.org/2000/svg" xmlns:xlink="http://www.w3.org/1999/xlink" width="42.5084" height="13.43202" viewBox="0,0,42.5084,13.43202"><defs><linearGradient x1="355.71337" y1="216.88284" x2="362.5084" y2="216.88284" gradientUnits="userSpaceOnUse" id="color-1"><stop offset="0" stop-color="#0084ff"/><stop offset="1" stop-color="#0081ff"/></linearGradient><linearGradient x1="355.71337" y1="210.16683" x2="362.5084" y2="210.16683" gradientUnits="userSpaceOnUse" id="color-2"><stop offset="0" stop-color="#0085ff"/><stop offset="1" stop-color="#0081ff"/></linearGradient><linearGradient x1="323.3185" y1="213.48533" x2="359.1899" y2="213.48533" gradientUnits="userSpaceOnUse" id="color-3"><stop offset="0" stop-color="#00b5ff"/><stop offset="1" stop-color="#0081ff"/></linearGradient><linearGradient x1="320" y1="213.48533" x2="362.5084" y2="213.48533" gradientUnits="userSpaceOnUse" id="color-4"><stop offset="0" stop-color="#00b5ff"/><stop offset="1" stop-color="#0081ff"/></linearGradient><linearGradient x1="358.0498" y1="208.99427" x2="362.50839" y2="208.99427" gradientUnits="userSpaceOnUse" id="color-5"><stop offset="0" stop-color="#0084ff"/><stop offset="1" stop-color="#0081ff"/></linearGradient></defs><g transform="translate(-320,-206.76932)"><g stroke-miterlimit="10"><path d="M320,216.88284c0,-1.83308 1.48542,-3.3185 3.3185,-3.3185c1.83308,0 3.3185,1.48542 3.3185,3.3185c0,1.83308 -1.48542,3.3185 -3.3185,3.3185c-1.83308,0 -3.3185,-1.48542 -3.3185,-3.3185z" fill="#00b2ff" fill-rule="evenodd" stroke="none" stroke-width="1" stroke-linecap="butt"/><path d="M355.71337,216.88284c0,-1.83308 1.52019,-3.3185 3.39751,-3.3185c1.87574,0 3.39751,1.48542 3.39751,3.3185c0,1.83308 -1.52177,3.3185 -3.39751,3.3185c-1.87732,0 -3.39751,-1.48542 -3.39751,-3.3185z" fill="url(#color-1)" fill-rule="evenodd" stroke="none" stroke-width="1" stroke-linecap="butt"/><path d="M355.71337,210.16683c0,-1.87574 1.52019,-3.39751 3.39751,-3.39751c1.87574,0 3.39751,1.52177 3.39751,3.39751c0,1.87574 -1.52177,3.39751 -3.39751,3.39751c-1.87732,0 -3.39751,-1.52177 -3.39751,-3.39751z" fill="url(#color-2)" fill-rule="evenodd" stroke="none" stroke-width="1" stroke-linecap="butt"/><path d="M320,210.16683c0,-1.87574 1.48542,-3.39751 3.3185,-3.39751c1.83308,0 3.3185,1.52177 3.3185,3.39751c0,1.87574 -1.48542,3.39751 -3.3185,3.39751c-1.83308,0 -3.3185,-1.52177 -3.3185,-3.39751z" fill="#00b3ff" fill-rule="evenodd" stroke="none" stroke-width="1" stroke-linecap="butt"/><path d="M323.3185,220.20134v-13.43202h35.8714v13.43202z" fill="url(#color-3)" fill-rule="evenodd" stroke="none" stroke-width="1" stroke-linecap="butt"/><path d="M320,216.88284v-6.79502h42.50839v6.79502z" fill="url(#color-4)" fill-rule="evenodd" stroke="none" stroke-width="1" stroke-linecap="butt"/><text transform="translate(333.27817,215.24698) scale(0.14022,0.14022)" font-size="40" xml:space="preserve" fill="#ffffff" fill-rule="nonzero" stroke="none" stroke-width="1" stroke-linecap="butt" font-family="&quot;MiSans-Medium&quot;, Sans Serif" font-weight="normal" text-anchor="start"><tspan x="0" dy="0">删除壁纸</tspan></text><path d="M327.45164,211.16106l3.81345,3.8834" fill="none" fill-rule="nonzero" stroke="#ffffff" stroke-width="1" stroke-linecap="round"/><path d="M327.38901,214.98092l3.93871,-3.75629" fill="none" fill-rule="nonzero" stroke="#ffffff" stroke-width="1" stroke-linecap="round"/><path d="M320,210.51792v-3.7486h3.3185v3.7486z" fill="#00b2ff" fill-rule="nonzero" stroke="none" stroke-width="0" stroke-linecap="butt"/><path d="M358.0498,211.21923v-4.44991h4.4586v4.44991z" fill="url(#color-5)" fill-rule="nonzero" stroke="none" stroke-width="0" stroke-linecap="butt"/></g></g></svg>