<svg version="1.1" xmlns="http://www.w3.org/2000/svg" xmlns:xlink="http://www.w3.org/1999/xlink" width="35.56219" height="38.56454" viewBox="0,0,35.56219,38.56454"><g transform="translate(-264.18141,-147.34582)"><g data-paper-data="{&quot;isPaintingLayer&quot;:true}" fill="#3e3e3e" fill-rule="nonzero" stroke="none" stroke-width="0.5" stroke-linecap="butt" stroke-linejoin="miter" stroke-miterlimit="10" stroke-dasharray="" stroke-dashoffset="0" style="mix-blend-mode: normal"><path d="M266.88446,152.84584c1.43406,0.81947 2.11874,1.82516 2.45571,2.97095c0.50719,1.72457 0.22667,3.7665 0.52816,5.96845c0.69645,5.08653 2.22348,10.16312 3.03393,15.26747c0.28114,1.77064 2.55793,8.85765 -1.66296,8.85765c-2.86784,0 -2.50876,-3.22945 -2.79199,-5.01332c-1.05963,-6.67374 -3.26052,-13.66611 -3.57898,-20.39555c-0.05911,-1.24905 -1.42156,-5.69125 -0.13841,-6.42448z"/><path d="M295.07182,150.85867c2.09425,4.89424 2.98405,10.86571 3.63652,16.11514c0.26021,2.09353 0.2716,3.19564 0.34332,5.59984c0.0415,1.39118 1.52929,7.10491 0.01008,8.39239c-1.80427,1.52907 -2.57073,1.80427 -4.375,0c-1.65624,-1.65624 -0.41856,-4.66921 -0.47379,-7.01083c-0.07029,-2.97989 -0.27999,-6.00487 -0.77329,-8.97205c-0.52514,-3.15867 -1.14487,-6.57567 -2.15051,-9.59517c-0.21875,-0.65679 -1.97957,-4.19519 -1.83571,-4.72268c-0.05169,-0.20028 -0.0792,-0.41027 -0.0792,-0.6267c0,-1.38071 1.11929,-2.5 2.5,-2.5c0.70684,-0.54727 1.44934,0.15313 2.04849,1.06655c0.04311,0.06149 0.08351,0.12501 0.12105,0.19038c0.49148,0.79646 0.87071,1.69546 1.02804,2.06312z"/></g></g></svg>