<svg version="1.1" xmlns="http://www.w3.org/2000/svg" xmlns:xlink="http://www.w3.org/1999/xlink" width="155.28573" height="55.48577" viewBox="0,0,155.28573,55.48577"><g transform="translate(-320,-152.25711)"><g fill="#ffffff" stroke="none" stroke-width="0" stroke-miterlimit="10"><path d="M465.06832,202.63418c0,-2.82146 2.28724,-5.1087 5.1087,-5.1087c2.82146,0 5.1087,2.28724 5.1087,5.1087c0,2.82146 -2.28724,5.1087 -5.1087,5.1087c-2.82146,0 -5.1087,-2.28724 -5.1087,-5.1087z"/><path d="M320,202.63418c0,-2.82146 2.28724,-5.1087 5.1087,-5.1087c2.82146,0 5.1087,2.28724 5.1087,5.1087c0,2.82146 -2.28724,5.1087 -5.1087,5.1087c-2.82146,0 -5.1087,-2.28724 -5.1087,-5.1087z"/><path d="M320.00001,202.63418v-45.28975h155.28571v45.28975z"/><path d="M320.00001,157.34444c0,-2.80964 2.28724,-5.08731 5.1087,-5.08731c2.82146,0 5.1087,2.27766 5.1087,5.08731c0,2.80965 -2.28724,5.08731 -5.1087,5.08731c-2.82146,0 -5.1087,-2.27766 -5.1087,-5.08731z"/><path d="M465.06833,157.34444c0,-2.80964 2.28724,-5.08731 5.1087,-5.08731c2.82146,0 5.1087,2.27766 5.1087,5.08731c0,2.80965 -2.28724,5.08731 -5.1087,5.08731c-2.82146,0 -5.1087,-2.27766 -5.1087,-5.08731z"/><path d="M325.1087,207.74289v-55.48577h145.06832v55.48577z"/></g></g></svg>