<svg version="1.1" xmlns="http://www.w3.org/2000/svg" xmlns:xlink="http://www.w3.org/1999/xlink" width="30.58334" height="30.58334" viewBox="0,0,30.58334,30.58334"><g transform="translate(-304.70834,-164.70834)"><g stroke-miterlimit="10"><g fill="#0075e3" stroke="none" stroke-width="0"><path d="M319.89738,183.07743v-10.05227h1.93922v10.05227z"/><path d="M314.39634,183.25473c0,-2.05457 1.66556,-3.72013 3.72013,-3.72013c2.05457,0 3.72013,1.66556 3.72013,3.72013c0,2.05457 -1.66556,3.72013 -3.72013,3.72013c-2.05457,0 -3.72013,-1.66556 -3.72013,-3.72013z"/><path d="M320.51332,174.7317l1.19993,-1.67191l3.89041,2.79215l-1.19993,1.67191z"/></g><path d="M306.45834,180.00001c0,-7.47886 6.06281,-13.54167 13.54167,-13.54167c7.47886,0 13.54167,6.06281 13.54167,13.54167c0,7.47886 -6.06281,13.54167 -13.54167,13.54167c-7.47886,0 -13.54167,-6.06281 -13.54167,-13.54167z" fill="none" stroke="#0084ff" stroke-width="3.5"/></g></g></svg>