<svg version="1.1" xmlns="http://www.w3.org/2000/svg" xmlns:xlink="http://www.w3.org/1999/xlink" width="30.75739" height="27.56577" viewBox="0,0,30.75739,27.56577"><g transform="translate(-304.6213,-166.39099)"><g data-paper-data="{&quot;isPaintingLayer&quot;:true}" fill-rule="nonzero" stroke="none" stroke-width="0.5" stroke-linecap="butt" stroke-linejoin="miter" stroke-miterlimit="10" stroke-dasharray="" stroke-dashoffset="0" style="mix-blend-mode: normal"><path d="M333.82273,171.78687c0.00474,-0.00004 0.00948,-0.00006 0.01424,-0.00006c0.85147,0 1.54172,0.69025 1.54172,1.54172c0,0.67405 -0.43257,1.24707 -1.03525,1.4566c-0.81001,0.93001 -2.46693,-0.03708 -3.6999,-0.00832c-0.72515,0.01692 -6.33269,1.43471 -6.51491,1.93511c-0.10518,0.28884 1.4931,1.98296 1.73503,2.25396c1.01686,1.13907 4.98198,7.01922 2.68276,8.16882c-1.13482,0.56741 -1.56253,-0.03473 -2.06844,-0.68948c-1.85331,-2.39856 -2.41535,-5.47771 -5.00666,-8.06902c-0.50329,-0.50329 -1.4304,-2.11178 -1.09337,-2.7468c0.67421,-1.27032 1.79926,-1.44708 3.07341,-1.95664c2.36924,-0.94752 7.54515,-3.12361 10.37135,-1.8859z" data-paper-data="{&quot;index&quot;:null}" fill="#ffffff"/><path d="M318.85875,189.21089c0.14318,-0.13465 0.31211,-0.24224 0.49861,-0.31458c0.17286,-0.06706 0.36083,-0.10384 0.55739,-0.10384c0.85147,0 1.54172,0.69025 1.54172,1.54172c0,0.24078 -0.0552,0.46867 -0.15363,0.6717c0.04504,0.65306 -1.87289,1.32748 -2.32247,1.3372c-0.89079,0.01927 -7.01075,0.09377 -7.5531,-1.80113c-1.25265,-4.37661 3.33194,-1.2859 4.75289,-1.28232c0.83443,0.0021 1.66904,0.01671 2.5033,0c0.05307,-0.00106 0.11219,-0.01944 0.17529,-0.04877z" data-paper-data="{&quot;index&quot;:null}" fill="#ffffff"/><path d="M308.35956,187.5077c0.61545,2.46179 -1.84805,4.44331 -3.44552,1.91547c-1.29838,-2.05455 2.06799,-4.09924 3.34316,-1.97397z" fill="#ffbbbb"/><path d="M327.32196,193.86222c-2.96053,0.74013 -4.12051,-3.06902 -1.59357,-4.33249l0.71722,-0.17663c0.0415,0 0.08261,0.00164 0.12328,0.00486c2.36212,0.15634 3.20021,3.89248 0.75308,4.50427z" fill="#ffbbbb"/><path d="M315.42942,175.86321c-0.74975,1.4995 -8.4121,8.68847 -9.11689,5.16451c-0.32789,-1.63946 6.22443,-6.06355 6.20772,-6.4869c-0.07359,-1.86415 -0.75605,-4.07671 -1.77881,-5.58917c0,0 0,0 0,0c-0.06402,-0.06402 -0.12228,-0.1338 -0.17394,-0.2085c-0.13454,-0.14944 -0.265,-0.30339 -0.21789,-0.47615c-0.03102,-0.12016 -0.04752,-0.24616 -0.04752,-0.37602c0,-0.82843 0.67157,-1.5 1.5,-1.5c0.6967,0 1.28246,0.47498 1.45113,1.11878c1.96468,1.62607 2.94734,6.81114 2.17619,8.35344z" fill="#ffffff"/></g></g></svg>