<svg version="1.1" xmlns="http://www.w3.org/2000/svg" xmlns:xlink="http://www.w3.org/1999/xlink" width="676.31511" height="393.45946" viewBox="0,0,676.31511,393.45946"><g transform="translate(13.59179,13.93239)"><g data-paper-data="{&quot;isPaintingLayer&quot;:true}" fill-rule="nonzero" stroke="none" stroke-linecap="butt" stroke-linejoin="miter" stroke-miterlimit="10" stroke-dasharray="" stroke-dashoffset="0" style="mix-blend-mode: normal"><path d="" fill="#000000" stroke-width="0.5"/><path d="" fill="#000000" stroke-width="0.5"/><path d="" fill="#000000" stroke-width="0.5"/><path d="M-13.59178,379.52707v-393.45946h676.31511v393.45946z" fill="#ffffff" stroke-width="0"/><path d="M240.71821,113.02727c-1.03883,-2.07765 1.03883,-3.11648 1.03883,-3.11648c1.22797,-0.61128 2.4558,-1.07255 3.69767,-1.45171c0.08797,-0.72246 0.12616,-1.47865 0.1195,-2.30061c0,0 0.00001,-2.32288 2.32289,-2.32288c2.32288,0 2.32288,2.32288 2.32288,2.32288c-0.00251,0.38725 -0.01249,0.76482 -0.03026,1.13441c0.50065,-0.1079 1.00602,-0.21617 1.51691,-0.32869l1.20119,-0.13578c0.13441,-1.02277 0.24274,-2.04106 0.32627,-3.04908c0,0 0.19291,-2.31485 2.50777,-2.12195c2.31486,0.1929 2.12195,2.50776 2.12195,2.50776c-0.47431,5.66138 -1.65165,11.69589 -3.79454,17.09578c1.11787,0.58595 2.21204,1.21322 3.27335,1.88526l1.13452,0.75572c0,0 1.93275,1.2885 0.64425,3.22125c-1.2885,1.93275 -3.22126,0.64426 -3.22126,0.64426l-1.05171,-0.70178c-0.90176,-0.57712 -1.83256,-1.11158 -2.78342,-1.61135c-0.75151,1.23022 -1.60303,2.36838 -2.38028,3.61556l-4.29268,-1.77769c0,0 0,-1.6047 1.33376,-2.14658c0.38289,-0.54975 0.76752,-1.09681 1.12449,-1.66206c-0.32937,-0.13847 -0.65952,-0.27438 -0.99013,-0.408c-0.75932,-0.3069 -1.64322,-0.3776 -2.29794,-0.86964c-1.19634,-0.89907 -2.75747,-1.76542 -3.13522,-3.21347c-0.3431,-1.31519 1.28006,-3.39422 2.11704,-4.81236c-0.60833,0.19876 -2.02541,0.44804 -2.82581,-1.15275zM247.96874,115.76395c-0.32414,0.67663 -0.66768,1.36084 -1.15285,1.93313c-0.19892,0.23464 -0.85765,0.09858 -0.82928,0.40488c0.02691,0.29054 0.59002,-0.0057 0.87289,0.06589c0.58437,0.1479 1.14962,0.36616 1.71017,0.58786c0.4242,0.16777 0.84721,0.34025 1.2686,0.5176c0.94451,-2.45432 1.68538,-5.03288 2.24376,-7.64048c-0.92327,0.20279 -1.82635,0.3872 -2.71547,0.58842c-0.34737,1.15568 -0.80859,2.31274 -1.39781,3.54272z" fill="#000000" stroke-width="0.5"/><path d="M267.01713,110.32168c-1.03526,0.23114 -2.06943,0.4671 -3.10316,0.70502c-0.07441,1.41766 -0.1016,2.83373 -0.22066,4.25726c-0.06783,0.81096 -0.14249,1.62195 -0.17518,2.43508c-0.01973,0.49088 0.09198,0.99715 0.07297,1.48501c1.01425,-0.37968 2.82052,-0.26998 3.4318,-0.21759c0.15329,0.01314 0.30255,0.46946 0.33376,0.3188c0.15103,-0.72911 -0.28281,-1.471 -0.28442,-2.21558c-0.00446,-2.06475 0,-4.12959 0,-6.19436c0,-0.18672 -0.02653,-0.37993 -0.05512,-0.57364zM262.04366,106.58756c0.15134,-0.01916 0.24618,-0.01917 0.24618,-0.01917l0.02424,0.05949c1.34402,-0.31015 2.68863,-0.61777 4.03512,-0.91699c1.50209,-0.02784 3.23303,-0.88098 4.50627,-0.08353c1.00356,0.62854 0.67121,2.27753 0.86254,3.4461c0.2661,1.62521 0,3.63433 0,5.28342c0,1.58776 0.28152,3.20239 -0.00939,4.76328c-0.21684,1.16351 -0.21849,2.5203 -1.00378,3.40579c-0.69144,0.77967 -1.93467,0.79457 -2.94561,1.04755c-1.69378,0.42386 -6.73695,0.55842 -7.92951,-0.38049c-1.10571,-0.87053 -1.00234,-4.34242 -0.95441,-5.63957c0.10881,-2.94476 0.26819,-5.96535 0.55661,-8.8933c0,0 0.23113,-2.31135 2.54249,-2.08021c0.02334,0.00234 0.04642,0.00488 0.06925,0.00763z" fill="#000000" stroke-width="0.5"/><path d="M307.79098,122.19091c0,2.32288 -2.32288,2.32288 -2.32288,2.32288l-0.80307,-0.01421c-3.34423,-0.3795 -6.58724,-0.4114 -9.8791,-1.3574c-0.29043,-0.08347 -0.57313,-0.1806 -0.84981,-0.28848c0.02749,2.09657 0.00867,4.19351 0.00867,6.2603v0.18219c0,0 0,2.32289 -2.32288,2.32289c-2.32288,0 -2.32289,-2.32289 -2.32289,-2.32289v-0.18219c0,-2.87445 0.04993,-5.81633 -0.0602,-8.72677c-0.18583,-0.09163 -0.37377,-0.17995 -0.56437,-0.26394c0,0 -0.14114,-0.06272 -0.33444,-0.19222c-1.68662,3.31592 -3.92289,5.4736 -6.99187,7.61705l-0.89783,1.07354c0,0 -1.51171,1.76367 -3.27537,0.25196c-1.76366,-1.51171 -0.25195,-3.27537 -0.25195,-3.27537l1.28841,-1.47707c1.70723,-1.24131 3.15418,-2.33734 4.34511,-3.75586c-1.14508,0.21972 -2.30176,0.40188 -3.50952,0.4979c0,0 -2.31604,0.17816 -2.49419,-2.13788c-0.17816,-2.31604 2.13788,-2.4942 2.13788,-2.4942c2.69149,-0.199 5.09744,-0.90568 7.75133,-1.42169c0.74869,-0.14557 1.49894,-0.28271 2.25027,-0.41406c-0.02912,-0.18067 -0.05912,-0.36134 -0.08973,-0.54199c-0.79312,0.10325 -1.55285,0.26834 -2.25825,0.52093c0,0 -1.54997,0.51666 -2.4834,-0.61653c-1.30278,-0.55395 -1.30279,-2.1337 -1.30279,-2.1337l0.01153,-0.86199c-0.32996,-3.42718 -1.80497,-6.26479 -2.96885,-9.45758c0,0 -0.79383,-2.18303 1.3892,-2.97686c1.07382,-0.39048 1.81151,-0.06068 2.28393,0.37528c0.6065,-0.33294 1.2427,-0.33294 1.2427,-0.33294c4.58922,0 9.67233,-0.61521 14.21057,0c1.39882,0.18963 3.23602,-0.23973 4.15182,0.8345c0.89434,1.04907 0.28865,2.77143 0.08453,4.13478c-0.15134,1.01084 -0.79842,1.88366 -1.13036,2.85037c-0.47322,1.3782 -0.85763,2.78529 -1.2863,4.17808c0.44216,0.34212 0.98219,0.95776 0.89918,1.88933l0.74266,-0.04086c0,0 2.32288,0 2.32288,2.32288c0,2.32288 -2.32288,2.32288 -2.32288,2.32288l0.09118,-0.04511c-2.53372,0.50633 -5.08595,0.90983 -7.63815,1.31209c0.47445,0.22814 0.96087,0.42296 1.46796,0.56009c3.03634,0.82114 5.98796,0.85719 9.06833,1.19322l0.29004,-0.01421c0,0 2.32288,0 2.32288,2.32288zM297.22291,105.32967c0.0002,-0.00063 0.00041,-0.00127 0.00062,-0.0019l-0.2639,0.02836c0,0 0.10993,-0.05497 0.29186,-0.11432c0.06239,-0.19114 0.12614,-0.38185 0.19158,-0.572c0.19045,-0.55342 0.33418,-1.14002 0.55178,-1.68538c-0.45396,0.03802 -0.93197,0.03132 -1.2717,0.03132c-1.41208,0 -2.82416,0 -4.23624,0c-0.00505,0.89272 -0.05767,1.81606 -0.0865,2.73786c1.6123,-0.07517 3.21975,-0.15274 4.8225,-0.42394zM285.22276,103.01575c0.52877,1.38348 1.02522,2.75573 1.399,4.18901c0.2801,-0.52081 0.75041,-0.81442 1.13963,-0.9766c0.02049,-1.07846 0.07532,-2.16074 0.07984,-3.21241c-0.87282,0 -1.74565,0 -2.61847,0z" fill="#000000" stroke-width="0.5"/><path d="M326.73841,124.19496c0,2.32288 -2.32288,2.32288 -2.32288,2.32288h-0.36437c-1.07853,-0.00096 -2.15738,0.03934 -3.23413,0.1075c-0.01268,0.48441 -0.03641,0.96561 -0.07286,1.44109c2.14026,0 4.36891,0 6.40417,0c0.47504,0 0.96877,-0.12283 1.43246,-0.04822c0.02871,-0.27036 0.08465,-0.54697 0.0726,-0.81172c-0.09918,-2.17871 -0.22232,-4.73028 -0.60856,-6.87236c-0.10312,-0.57188 -1.15959,0.08521 -1.73615,0.15768c-1.8788,0.23616 -3.83247,0.59144 -5.68482,1.11796c0.01126,0.12368 0.02218,0.24772 0.03271,0.37208c1.13032,-0.06837 2.26259,-0.10886 3.39459,-0.10978h0.36437c0,0 2.32288,0 2.32288,2.32288zM323.93577,116.27437c1.70387,-0.35551 3.19878,-0.84999 5.02155,-0.35232c1.0206,0.27866 2.14541,0.70585 2.76011,1.56691c0.74866,1.0487 0.77995,2.46256 1.02021,3.72848c0.4217,2.22192 0.86396,5.27972 0.55949,7.53219c-0.14967,1.10726 0.15894,2.54465 -0.68036,3.28221c-0.9737,0.85567 -2.54244,0.52032 -3.82877,0.68036c-3.22193,0.40086 -6.7632,0 -10.02028,0h-0.36437c0,0 -1.41505,0 -2.03626,-1.10444l-1.01537,-0.3075c0,0 0,-0.83035 0.49644,-1.49814c0.24296,-1.40353 0.05012,-2.8808 0.05012,-4.33184c0,-1.31048 0.00373,-2.55728 -0.04603,-3.80407c-0.36199,0.51569 -0.74522,1.01324 -1.15084,1.48985l0.1318,-0.10851c0,0 -1.03882,2.07765 -3.11647,1.03883c-2.07765,-1.03883 -1.03882,-3.11648 -1.03882,-3.11648l0.49617,-0.83726c0.70583,-0.81628 1.32793,-1.71883 1.87633,-2.68271c-0.48399,0.15537 -0.96305,0.328 -1.43621,0.52119c0,0 -2.15674,0.8627 -3.01943,-1.29404c-0.86269,-2.15675 1.29404,-3.01944 1.29404,-3.01944c1.73793,-0.68394 3.52897,-1.11848 5.34278,-1.44572c0.10019,-0.33396 0.19514,-0.66973 0.28512,-1.00661c-0.71076,-0.02682 -1.74333,-0.32522 -2.09969,-1.75064c-0.56338,-2.25352 1.69015,-2.81691 1.69015,-2.81691c0.478,-0.11776 0.94545,-0.24292 1.40592,-0.37177c0.06265,-0.43095 0.11921,-0.858 0.17031,-1.27961c-0.03491,-0.032 -0.06984,-0.06544 -0.10476,-0.10036c-1.64252,-1.64253 0,-3.28505 0,-3.28505l0.49519,-0.48551c2.5919,-2.18207 5.90673,-3.28225 8.12864,-5.9424c0,0 1.51171,-1.76367 3.27537,-0.25195c1.76366,1.51171 0.25195,3.27538 0.25195,3.27538c-2.09823,2.40364 -4.86006,3.63296 -7.31178,5.40075c0.05104,0.35013 0.02544,0.60614 0.02544,0.60614c-0.02342,0.23355 -0.04834,0.46841 -0.07481,0.70444c0.95877,-0.22542 1.94286,-0.40791 2.98522,-0.51282l1.627,-0.18081c0,0 2.30867,-0.25652 2.56519,2.05215c0.25652,2.30867 -2.05215,2.5652 -2.05215,2.5652l-1.65237,0.18356c-1.5192,0.15087 -2.89666,0.48358 -4.26186,0.8734c-0.11082,0.53011 -0.23113,1.06047 -0.36164,1.58944c2.12883,-0.29033 4.25112,-0.61044 6.3191,-1.18394l0.79337,-0.08185c0,0 2.32288,0 2.32288,2.32288c0,1.9621 -1.65734,2.26685 -2.17217,2.31418c-2.63926,0.67788 -5.39927,0.94533 -8.13229,1.3121c0.30746,0.26963 0.50224,0.60636 0.62325,0.89344c1.28604,-0.28572 2.55298,-0.48604 3.9636,-0.78036z" fill="#000000" stroke-width="0.5"/><path d="M353.83082,123.42471c1.6851,-0.36777 4.76887,-1.53833 5.33116,1.27313c0.41033,2.05163 -1.10303,2.57495 -2.47992,2.86486c-2.26254,0.47639 -4.52707,0.94264 -6.7892,1.41593c-0.44162,0.314 -1.01404,0.41879 -1.60352,0.337c-0.20152,0.04257 -0.40301,0.08523 -0.60447,0.12799c-0.17818,0.03781 -1.6571,0.62751 -2.63993,0.8928c-0.0747,0.02299 -0.151,0.0423 -0.2287,0.05775c-0.14726,0.02927 -0.29953,0.04462 -0.45539,0.04462c-1.28289,0 -2.32289,-1.03999 -2.32289,-2.32288c0,-1.08623 0.74558,-1.99832 1.7529,-2.25244c0.09193,-0.0617 0.18636,-0.1214 0.28312,-0.1792c-0.46135,0.18559 -0.88861,0.30144 -1.08474,0.17069l-2.16321,-2.31748c0.29651,-1.00379 0.90226,-1.71601 1.68635,-2.23458c0.97813,-0.6469 2.23379,-0.99244 3.51297,-1.2267c0.01036,-1.00096 0.02794,-2.00182 0.05241,-3.00239c0.00007,-0.00296 0.00014,-0.00593 0.00021,-0.0089c-0.51798,0.13153 -1.03531,0.26663 -1.55772,0.3772c-0.67263,0.14235 -2.78498,0.41064 -3.20608,-0.221c-2.16966,-3.25449 0.67396,-6.82732 1.45722,-10.46471c0.03692,-0.17143 0.1755,-1.32576 0.43115,-2.40466c-0.96062,-0.00251 -1.92114,-0.01287 -2.88148,-0.03693c-0.02708,-0.00068 -0.05489,-0.00113 -0.08325,-0.00147c-1.24433,-0.04383 -2.23963,-1.06639 -2.23963,-2.32141c0,-1.07469 0.72982,-1.97892 1.72088,-2.24412c1.94223,-1.56544 4.09537,-0.01449 10.37414,-0.07877c1.62918,-0.01668 3.1338,-0.43464 4.71955,-0.49353c2.45479,-0.09117 3.36601,1.98361 1.99305,4.04305c-0.82808,1.24213 -5.68321,1.09484 -6.65457,1.09625c-0.69349,0.00101 -1.38704,0.00527 -2.0806,0.01058c0.07127,2.62215 -2.22118,5.49721 -1.86536,7.94808c0.00687,0.04726 0.71909,-0.16416 0.96464,-0.19778c0.67076,-0.09183 1.34996,-0.12712 2.01538,-0.25192c0.92395,-0.17329 2.09128,-0.60736 3.25714,-0.91105c-0.19333,-0.75729 -0.37343,-1.4105 -0.54226,-1.8607c-0.10753,-0.26755 -0.1667,-0.55974 -0.1667,-0.86574c0,-1.28289 1.03999,-2.32288 2.32288,-2.32288c0.21173,0 0.41684,0.02832 0.61176,0.0814c0.30953,0.06744 0.61048,0.20972 0.88354,0.44032c1.75246,1.47998 2.32094,5.86262 2.8742,7.94594c0.23109,0.87017 0.97033,1.69886 0.79377,2.5817c-0.49127,2.45639 -2.58078,3.21601 -4.26817,1.44956c-0.46821,-0.49014 -0.89,-1.52641 -1.27232,-2.75292c-1.0147,0.29041 -2.1052,0.50656 -3.07364,0.66756c0.05192,0.15322 0.0871,0.33389 0.10521,0.55138c0.00847,0.08067 0.01281,0.16257 0.01281,0.24547c0.01803,0.73754 0.03233,1.47524 0.04275,2.21302c1.55052,-0.32206 3.38495,-0.52105 3.81727,1.64054c0.25957,1.29783 -0.5199,2.1252 -1.72532,2.673c0.354,-0.05467 0.68084,-0.11198 0.9726,-0.17565z" fill="#000000" stroke-width="0.5"/><path d="M363.15278,106.16256c1.15699,1.2261 1.55998,4.71148 1.57536,6.33282c0.02387,2.51691 0.44241,5.03373 0.28379,7.54576c-0.151,2.39159 -3.10124,3.66555 -4.50454,1.56061c-1.11803,-1.67705 -0.40448,-8.23837 -0.42502,-8.87635c-0.03775,-1.17257 -0.58034,-3.20806 -0.86062,-4.32919c-0.05345,-0.19556 -0.082,-0.4014 -0.082,-0.61391c0,-1.28289 1.03999,-2.32288 2.32288,-2.32288c0.06587,0 0.1311,0.00274 0.19558,0.00811c0.51622,0.00592 1.03992,0.21324 1.49456,0.69504z" fill="#000000" stroke-width="0.5"/><path d="M373.31464,121.79467c0.14348,2.59058 0.38162,5.53459 -2.21385,6.82914c-0.64614,0.32227 -1.8288,-0.24871 -2.46858,-0.47237c-1.73118,-0.60519 -5.58732,0.09426 -5.58732,-2.86338c0,-2.65636 2.72037,-2.38456 4.34278,-2.32288c0.4495,0.01709 1.09337,0.70459 1.31293,0.31199c0.62048,-1.10945 -0.30883,-4.3499 -0.5082,-5.5459c-0.93681,-5.61969 -1.49255,-11.24756 -4.07342,-16.40931c-0.16995,-0.32279 -0.26613,-0.69048 -0.26613,-1.08062c0,-0.03404 0.00073,-0.06791 0.00218,-0.1016c0.06417,-2.12412 1.26418,-2.53341 2.43734,-2.21841c0.87743,0.04339 1.62677,0.57362 1.98352,1.32619c3.55737,4.94619 4.7061,16.54077 5.03876,22.54715z" fill="#000000" stroke-width="0.5"/><path d="M376.6151,110.6301c0.07302,-0.04108 0.1641,-0.07899 0.27125,-0.11368c0.27157,-0.11277 0.56918,-0.1755 0.88128,-0.17667c2.56691,-0.31861 7.952,0.16483 8.87158,1.69748c2.3542,3.92365 -1.57319,4.24599 -2.06993,6.98756c-0.03926,0.21668 0.62131,1.40263 0.66904,1.5935c0.07454,0.29814 -0.29636,1.25529 -0.0192,1.25576c1.75522,0.00294 3.51045,0.00114 5.26567,-0.00167c0.28497,-0.94288 1.14747,-2.04009 1.88997,-2.9989c-0.07137,-0.0235 -0.1427,-0.0474 -0.214,-0.07174c-0.585,-0.19969 -3.78643,-1.26937 -3.83847,-2.20602c-0.23603,-0.36359 -0.37312,-0.79735 -0.37312,-1.26312c0,-0.92802 0.54421,-1.72893 1.3309,-2.10102c-1.06356,-0.21267 -1.86489,-1.15163 -1.86489,-2.27775c0,-0.7815 0.38592,-1.47285 0.97759,-1.89389c1.39998,-1.54743 3.98808,-2.3905 6.49661,-2.93361c-1.15101,-0.1732 -1.97325,-1.58946 -2.90426,-2.65669c-0.24979,-0.28634 -1.72575,-1.87879 -1.61277,-2.29303c-0.04804,-0.18609 -0.07359,-0.38121 -0.07359,-0.5823c0,-1.28289 1.03999,-2.32288 2.32288,-2.32288c0.00232,0 0.00465,0.00001 0.00698,0.00001c0.17854,-0.01896 0.37868,-0.00016 0.60897,0.0644c0.09258,0.02595 0.19584,0.06869 0.30761,0.12644c0.25603,0.11106 0.48813,0.26689 0.68644,0.45761c1.76822,1.39266 4.30331,4.78604 2.77211,6.25344c-0.34386,0.32954 -0.66236,0.56464 -0.95977,0.72084c1.61129,-0.30205 3.10363,-0.50172 4.11793,-0.71356c0.0487,-0.01017 3.99043,-1.03702 4.20764,-0.92842c5.57204,2.78602 1.26631,4.35779 -1.82728,5.12604c-0.38346,1.7928 -1.7137,4.44085 -2.93718,6.64171c0.14402,0.05487 0.28752,0.11231 0.43044,0.17262c1.58751,0.67001 4.65776,1.32787 3.60719,3.95431c-0.28981,0.72451 -1.116,1.14842 -1.83323,1.4558c-0.58423,0.25038 -2.04937,-0.49811 -2.5857,-0.71764c-0.68136,-0.27888 -1.36851,-0.5044 -2.05872,-0.70409c-0.30797,0.49941 -0.69553,1.10202 -1.12009,1.68357c1.70688,-0.00074 3.41374,0.00129 5.1206,0.00954c1.87268,0.00905 5.96222,1.29457 5.3507,3.74066c-0.87293,3.49175 -3.83863,0.91595 -5.67603,0.90511c-7.25676,-0.04284 -15.468,3.31006 -21.76875,-0.29036c-2.91594,-1.66626 0.16447,-3.8584 1.29425,-5.13869c0.58075,-0.65812 -0.82875,-1.69697 -0.64011,-2.55418c0.30907,-1.40444 1.85702,-2.25827 2.13365,-3.43247c0.05061,-0.21483 -2.31032,-0.04638 -3.89209,-0.12632c-0.06288,0.00511 -0.12645,0.00772 -0.19064,0.00772c-0.22658,0 -0.44558,-0.03244 -0.6526,-0.09293c-0.9652,-0.282 -1.67028,-1.17364 -1.67028,-2.22996c0,-0.75593 0.36109,-1.42753 0.9202,-1.85171c0.07151,-0.06923 0.15125,-0.13018 0.24125,-0.18081zM391.23397,113.21762c0.84008,0.3361 1.67507,0.95459 2.39911,1.17679c0.46604,0.14302 0.93468,0.2676 1.40408,0.38402c0.16242,-0.27801 0.32364,-0.55457 0.48424,-0.82762c0.13812,-0.2348 0.67287,-1.68035 1.30032,-3.23266c-0.24804,0.05542 -0.49649,0.10892 -0.74553,0.15977c-1.7457,0.35641 -3.68938,1.66437 -5.30338,2.1859c0.16057,0.03529 0.31492,0.08718 0.46114,0.15379z" fill="#000000" stroke-width="0.5"/><path d="M374.06527,104.33228c0.55596,-0.6874 0.83516,-1.83995 1.5855,-2.2034c0.08617,-0.04174 0.17855,-0.07307 0.27828,-0.0921c0.0824,-0.01572 0.17551,-0.02231 0.27805,-0.02043c0.05975,-0.0046 0.12012,-0.00695 0.18105,-0.00695c0.40149,0 0.77919,0.10186 1.10867,0.28114c2.34714,0.7844 5.95582,3.05788 6.12698,4.28452c0.04627,0.33158 -0.33101,0.58205 -0.49831,0.87205c-1.69795,2.94308 -4.63555,0.53814 -6.78039,-0.63658c-0.44801,-0.24537 -1.60969,-0.45816 -1.70857,-0.95256z" fill="#000000" stroke-width="0.5"/><path d="M411.24304,126.63082c0.28614,-0.96869 0.96243,-1.715 1.90199,-2.28485c1.36206,-0.82612 3.27742,-1.28139 5.35951,-1.5058c0.01738,-0.34325 0.05045,-0.68593 0.09208,-1.02828c-0.05563,0.00956 -0.11036,0.01914 -0.16414,0.02877c-0.24772,0.04435 -4.47107,1.2824 -5.02889,0.70033l-1.66501,-2.22841c0.48546,-1.159 1.26166,-1.86488 2.20495,-2.31994c1.45087,-0.69992 3.29703,-0.80646 5.08864,-1.05576c-0.02351,-0.9406 -0.05664,-1.88163 -0.09118,-2.82263c-1.36331,0.29032 -2.66041,0.68713 -3.74484,1.30681c-0.40407,0.68465 -1.14934,1.14394 -2.00189,1.14394c-0.75594,0 -1.42753,-0.36109 -1.85172,-0.92019c-0.06923,-0.07152 -0.13018,-0.15125 -0.18081,-0.24125c-0.30385,-0.54017 -0.43391,-1.03342 -0.42333,-1.48394c-0.45028,-0.88958 0.21091,-2.6242 0.13297,-3.43243c-0.39724,-4.11934 -1.71381,-8.16215 -2.60771,-12.18473c-0.1547,-0.31111 -0.24169,-0.66183 -0.24169,-1.03286v0c0,-0.03231 0.00066,-0.06446 0.00196,-0.09645c0.06243,-2.22941 1.27267,-2.58321 2.45282,-2.22274c0.30397,0.09284 0.60595,0.23307 0.8858,0.40085c0.05433,-0.0211 0.10967,-0.04022 0.1659,-0.05726c0.77119,-0.43368 1.75061,-0.59196 2.90467,-0.59505c4.99676,-0.01337 9.99368,-0.03598 14.99033,0c0.74716,0.00538 1.78719,0.53454 2.18569,1.1987c1.87456,3.12426 0.14716,6.7447 -0.38026,10.03185c-0.16258,1.01326 -0.0982,4.10055 -0.8879,4.89025c-0.21843,0.21843 -0.4253,0.40605 -0.62388,0.56285c-0.08726,0.20888 -0.19687,0.41891 -0.32948,0.62731c-0.51052,0.80225 -4.01986,1.06488 -4.64295,1.17567c-0.37819,0.06725 -0.7693,0.12911 -1.16933,0.18878c0.02572,0.88181 0.04681,1.76505 0.06774,2.65008c0.63311,-0.12328 1.26727,-0.24105 1.90245,-0.35276c0.69292,-0.12187 3.63568,-1.25141 4.54382,-0.36489c1.09497,1.06889 1.47609,3.21345 0,4.06504c-1.43208,0.8262 -3.87207,1.32465 -6.28497,1.69503c0.00043,0.53995 -0.01774,1.08026 -0.06871,1.60943c3.93741,0.11194 7.34786,0.63459 7.66998,0.64057c0.399,0.0074 0.87926,0.00818 1.16144,0.29036c1.54172,1.54171 1.42668,4.30655 -1.16144,4.3554c-4.73985,0.08947 -9.48355,-0.14368 -14.22206,0c-1.30068,0.03944 -2.69461,1.70752 -3.77733,0.9857zM423.90543,108.61608c0.52545,-0.09945 1.40639,-0.29206 2.22776,-0.43734c0.04609,-0.38218 0.10502,-0.78539 0.17223,-1.19648c-0.48528,0.22194 -1.03298,0.38385 -1.5813,0.48366c-0.47481,0.08643 -0.95009,0.14086 -1.42656,0.19366c0.02686,0.35296 0.05139,0.70603 0.07391,1.05923c0.17791,-0.0347 0.35588,-0.06903 0.53397,-0.10274zM422.52464,101.44058c0.09521,0.52323 0.18155,1.04641 0.25996,1.5696c0.40924,-0.03656 0.77887,-0.07291 1.09286,-0.11519c0.74658,-0.10054 2.31684,-0.65092 2.99084,0.02308c0.07369,0.0737 0.1433,0.14658 0.20894,0.21864c0.14724,-0.64812 0.26734,-1.15069 0.32268,-1.39835c0.01977,-0.08849 0.72887,-2.35607 0.3201,-2.39366c-1.83454,-0.16868 -3.67564,-0.20455 -5.51914,-0.18564c0.08479,0.59148 0.14853,1.31857 0.32376,2.28151zM418.80895,108.55938c-0.74036,0.18041 -1.48073,0.34897 -2.21149,0.47198c-0.2144,0.06529 -0.44194,0.10041 -0.67768,0.10041c-0.16345,0 -0.32295,-0.01688 -0.47686,-0.049c0.03773,0.40547 0.06322,0.80458 0.07423,1.19495c0.00011,0.00401 0.00023,0.00802 0.00033,0.01203c1.14887,-0.332 2.32485,-0.5705 3.30105,-0.74413c0.00617,-0.3292 0.01132,-0.65828 -0.00958,-0.98625zM414.59822,99.3447c-0.08009,0.00096 -0.61821,0.12239 -1.18039,0.24485c0.04573,0.24823 0.09291,0.4794 0.14662,0.68202c0.373,1.40705 0.79759,2.96507 1.15589,4.54767c0.14835,-0.08962 0.30754,-0.16312 0.47513,-0.21807c0.80401,-0.48031 1.83524,-0.79987 2.92512,-1.02325c-0.21112,-1.11948 -0.52243,-2.9001 -0.62463,-4.29983c-0.96643,0.02913 -1.93255,0.05509 -2.89774,0.06662z" fill="#000000" stroke-width="0.5"/><path d="M457.75481,99.3714c0.22379,-0.75759 0.75468,-1.49216 1.46782,-2.16044c0.05406,-0.05066 0.10916,-0.10094 0.16526,-0.15081c0.23642,-0.95177 0.31712,-1.78512 0.12561,-2.35967c-0.08826,-0.24548 -0.13635,-0.51013 -0.13635,-0.786c0,-1.28289 1.03999,-2.32288 2.32288,-2.32288c0.81896,0 1.53892,0.42381 1.95255,1.06407c0.31772,0.37914 0.53356,0.8667 0.57849,1.45085c0.00898,0.11668 0.01569,0.23422 0.02024,0.35258c0.77624,-0.22312 1.52095,-0.35083 2.16822,-0.36026c0.88826,-0.01295 6.1975,-0.92863 7.44204,1.14561c1.25275,2.08792 0.75951,4.267 1.05925,6.64129c0.42425,3.36055 0.90659,6.6891 1.02781,10.08722c0.07279,2.04068 0.10204,4.21119 -0.0112,6.25588c-0.05054,0.91263 -0.12622,3.71134 -1.04346,4.29503c-2.77812,1.76789 -3.91821,-0.27296 -6.80136,-1.16989c-1.51947,-0.4727 -3.81993,-0.91242 -2.99185,-3.39666c0.77934,-2.33802 2.82205,-1.50249 4.31667,-1.05649c0.4493,0.13407 1.20867,0.39432 1.42377,0.47228c0.16545,0.05997 0.47635,0.39087 0.48219,0.21499c0.13123,-3.95423 -0.24473,-7.65504 -0.5831,-11.54922c-0.16229,-1.86777 -0.57126,-3.7617 -0.59677,-5.63509c-0.00753,-0.55302 0.49656,-1.41567 0,-1.6592c-2.03708,-0.99907 -4.94781,0.27818 -6.87684,1.37996c-0.73052,2.22928 -1.73981,4.40604 -2.58618,6.18505c-0.70479,1.48142 -1.65728,4.3494 -4.14887,3.10361c-0.15942,-0.07971 -0.30177,-0.1631 -0.4284,-0.24978c-0.02643,0.21621 -0.04244,0.43214 -0.04449,0.64774c-0.03758,3.94192 -0.00482,7.8842 0,11.82631c0.00102,0.83462 -0.6255,2.5193 -1.45641,2.77403c-1.14215,0.35013 -2.3781,0.25077 -3.57206,0.29036c-0.53256,0.01766 -1.0648,0.0628 -1.59305,0.13276c-1.73901,0.23027 -9.37334,2.80994 -10.29375,0.04873c-0.09274,-0.27822 -0.13366,-0.53896 -0.12896,-0.7834c-1.34749,-1.84275 -0.64185,-6.04995 -0.46763,-8.12395l-0.555,-0.97125c0.17352,-0.30366 0.35068,-0.57047 0.53194,-0.80506c-0.31635,-3.51534 -1.75466,-7.49356 -0.90999,-10.87223c0.56457,-2.2583 5.44178,-3.7263 4.64396,-6.11977c-0.08826,-0.24548 -0.13635,-0.51012 -0.13635,-0.78599c0,-0.18627 0.02193,-0.36743 0.06333,-0.54102c0.36175,-2.34653 1.64803,-2.50267 2.80759,-1.71684c1.01842,0.24632 1.77484,1.16376 1.77484,2.25786c0,0.00965 -0.00006,0.01928 -0.00018,0.0289c0.14987,0.37802 0.24815,0.76638 0.27721,1.14413c0.09474,1.23161 -0.42729,2.36199 -1.18729,3.39592c3.56815,-0.51341 9.72104,-1.03151 10.8941,2.20224c0.03519,0.097 0.06595,0.19409 0.09261,0.29124c0.43678,-0.96571 1.01199,-2.1976 1.52553,-3.45454zM446.87435,111.89371c1.23724,-0.36738 3.21953,-1.36484 4.54338,-0.79273c-0.00403,-0.4686 -0.00603,-0.93717 -0.00475,-1.40566c0.00234,-0.85726 0.14942,-1.81309 0.34008,-2.66782c0.0661,-0.29635 0.3443,-1.04853 0.27684,-1.05617c-2.75087,-0.3116 -5.5379,-0.07365 -8.30539,0c-0.19777,0.00526 -0.80101,0.12444 -1.49778,0.22327c0.04721,0.81692 0.11417,1.72633 0.11595,1.76253c0.07671,1.56249 0.1919,3.03491 0.31403,4.4781c1.22368,-0.05944 2.61225,-0.06484 4.21763,-0.54153zM448.81063,120.2306c0.65349,-0.09716 1.36528,-0.12304 2.0274,-0.15058c0.19165,-0.00797 0.56608,0.1677 0.57495,-0.02391c0.07825,-1.6914 0.0775,-3.38458 0.05752,-5.07823c-2.1576,1.57995 -6.67524,2.3336 -8.41155,2.43222c0.07799,1.18162 0.13659,2.39023 0.15899,3.65828c2.24655,-0.54623 4.72479,-0.70875 5.59269,-0.83778z" fill="#000000" stroke-width="0.5"/><path d="M463.63496,105.73563c2.17147,0 6.31891,2.52758 5.15719,4.85102c-0.93556,1.87113 -6.19099,0.28928 -6.64873,-0.51177c-0.68465,-0.40407 -1.14394,-1.14935 -1.14394,-2.0019c0,-0.90434 0.51678,-1.68797 1.27114,-2.0717c0.2869,-0.18317 0.6919,-0.26566 1.36434,-0.26566z" fill="#000000" stroke-width="0.5"/><path d="M487.30669,92.09236c0.98618,1.75317 4.11419,7.39633 0.8566,8.48219c-2.58252,0.86084 -4.3113,-4.04636 -4.92164,-5.75533c-0.20152,-0.56426 -0.68655,-2.33456 0.03062,-2.74437c0.40407,-0.68465 1.14935,-1.14394 2.0019,-1.14394c0.75594,0 1.42752,0.3611 1.85171,0.9202c0.06923,0.07152 0.13018,0.15125 0.18081,0.24124z" fill="#000000" stroke-width="0.5"/><path d="M492.5448,116.02488l-0.00529,-0.06869l0.02337,-0.02612c0.22314,-1.04997 1.15564,-1.83766 2.27213,-1.83766c0.11332,0 0.22474,0.00811 0.33371,0.02379l0.2351,-0.18807l0.09345,-0.04283l0.06914,-0.07606l1.21194,-0.80796l0.29219,-0.10435l0.26176,-0.16657l1.16318,-0.38773c0.00349,-0.97465 -0.00317,-1.94947 -0.01381,-2.92437c-1.17039,0.2398 -2.335,0.49331 -3.48787,0.76981c-0.7306,0.17522 -3.67371,1.10403 -4.07747,-0.33154c-0.42802,-0.42135 -0.69341,-1.00741 -0.69341,-1.65547c0,-0.96181 0.58456,-1.78709 1.41778,-2.13994c0.08328,-0.04839 0.17329,-0.08689 0.2713,-0.11358c2.07806,-0.56596 4.29117,-0.98091 6.51224,-1.36164c-0.00366,-0.51614 -0.00557,-1.03225 -0.00482,-1.54834c-0.04899,0.01032 -0.09593,0.01568 -0.14059,0.01568c-6.69895,0 0.66372,-7.2005 1.93083,-8.98701c0.55644,-0.78453 0.27194,-2.18745 1.10703,-2.66464c0.40407,-0.68465 1.14934,-1.14394 2.00189,-1.14394c1.28289,0 2.32289,1.03999 2.32289,2.32288c0,0.17181 -0.01866,0.33926 -0.05405,0.50044c0.16863,1.94416 -1.78936,4.06515 -3.34825,6.19196c0.20667,0.17086 0.38328,0.3768 0.52069,0.6087c0.18131,0.22822 0.28899,0.53597 0.31664,1.00831c0.00426,0.0575 0.00643,0.11557 0.00643,0.17415c0.01535,0.90722 0.02612,1.81449 0.03329,2.7218c0.28537,-0.05145 0.56932,-0.10374 0.85156,-0.15713c1.60534,-0.30372 6.25212,-2.03659 6.25212,1.6098c0,2.06307 -1.84216,2.27896 -3.2414,2.55241c-1.2764,0.24945 -2.56315,0.48855 -3.85239,0.72951c-0.00288,1.09424 -0.00852,2.1885 -0.0152,3.28274h4.92077l0.44458,0.11115l0.17136,-0.04673l0.25594,0.15356l0.28956,0.07239l0.08812,0.15422l0.39296,0.23577l0.26932,0.26932l0.04808,0.08014l0.07467,0.02488l0.22399,0.47288l0.2692,0.44868l-0.02071,0.07593l0.04001,0.08446l0.26932,1.34659l-0.01101,0.2311l0.05611,0.22446v2.28921l-0.06935,0.27742v0.28596l-0.26932,1.07728l-0.01869,0.03505l-0.00133,0.0397l-0.26932,0.94262l-0.10868,0.18838l-0.04718,0.21231l-0.26486,0.52972l-0.07366,0.36826l-0.19617,0.41415l0.01223,0.1772l-0.20078,0.22085l-0.12777,0.26974l-0.16851,0.05617l-0.30826,0.33909l-0.40398,0.26932l-0.13823,0.04937l-0.11145,0.09553l-0.80796,0.40398l-0.30288,0.06731l-0.28039,0.13282l-1.31311,0.26262l-1.7173,0.3963l-0.12966,-0.00236l-0.12126,0.04593l-2.28086,0.26834l-2.14621,0.26827l-0.03988,-0.00483l-0.03793,0.01323l-1.48126,0.13466l-0.10612,-0.01651l-0.10419,0.02605h-0.40398l-1.16144,-0.29036l-1.16144,-2.03252l0.08494,-0.14865l-0.0639,-0.03651l-0.29036,-1.16145v-0.2596l-0.15875,-0.3175l-0.06203,-0.27915l-0.12788,-0.25577l-0.20729,-0.93279l-0.14144,-0.28287l-0.03627,-0.16321l-0.08976,-0.14105l-0.79081,-2.37244c-0.00621,-0.01728 -0.01223,-0.03465 -0.01803,-0.05212c-0.0353,0.35846 -0.13446,0.76708 -0.29141,1.23795c-0.4688,1.40642 -3.74582,1.90203 -4.77702,2.66119c-0.64994,0.47848 -0.95657,1.7452 -1.94121,1.7999c-0.51499,0.02861 -1.95655,-0.16305 -2.25848,-0.61594c-1.28786,-1.93179 1.33771,-8.34554 1.76414,-10.88729c0.17717,-1.05606 0.14789,-2.13691 0.25673,-3.20218c0.03584,-0.35071 0.31882,-1.29939 0.2507,-1.33074c-0.89075,-0.4099 -3.65852,2.55748 -4.75863,1.2944l-1.55979,-2.19463c0.33139,-0.74117 1.09179,-1.56313 2.07778,-2.31011c2.8485,-2.15799 7.5798,-3.69025 9.28909,-0.84144c0.46083,0.76805 -0.04161,2.44763 -0.17201,3.25119c-0.48951,3.01649 -1.11242,6.14486 -1.47688,9.17668c-0.06169,0.51313 0.99734,-0.60034 1.48764,-0.43691c1.11387,0.37129 1.75498,0.79234 2.00337,1.42323c0.00519,-0.05035 0.01198,-0.10023 0.02033,-0.14959zM504.41217,120.21158l0.03507,0.00064l0.0317,-0.01502l1.03325,-0.20665l0.03785,-0.17032l0.30743,-0.61486l0.19938,-0.69783l0.19057,-0.7623v-1.2963h-3.18073c-0.25279,2.46079 -3.38234,3.29206 -4.69687,1.28326v1.74983l0.058,0.40603l0.16762,0.33525l0.02266,0.01295l0.01618,0.06472l0.02895,0.05789l0.11579,0.52103l0.04651,0.18606l1.78105,-0.22263l0.00861,0.00104l0.00811,-0.00307l2.16256,-0.25442z" fill="#000000" stroke-width="0.5"/><path d="M248.1052,146.50337c-1.95552,0.97777 -5.61158,-3.54864 -4.8185,-5.13481c-0.00233,-0.04269 -0.00351,-0.08569 -0.00351,-0.12896c0,-1.28289 1.03999,-2.32288 2.32288,-2.32288c0.39309,0 0.76338,0.09764 1.08793,0.27c0.35171,0.18678 0.64971,0.46129 0.86481,0.79436c1.21043,1.27294 2.60903,5.49098 0.54639,6.52229z" fill="#000000" stroke-width="0.5"/><path d="M261.67411,170.31636c-0.03332,0.01465 -0.06705,0.02855 -0.10117,0.04165c-0.33506,1.84098 -3.3927,2.82042 -4.32564,0.85088c-0.25702,-0.54261 -0.59263,-1.68024 -0.57034,-2.22057c0.04788,-1.16057 0.08948,-2.41663 0.10801,-3.70046c-0.9783,0.26952 -2.15491,0.12415 -3.05563,0.58702c-2.01246,1.03418 -4.58874,2.63317 -6.77088,3.30934c-0.29516,0.09146 -1.70932,-0.63502 -2.14866,-0.92916c-0.9971,-0.66756 -0.25128,-1.90109 -0.19906,-2.72128c0.15487,-2.43257 0.73597,-4.59987 1.06204,-7.02549c0.06123,-0.45545 0.30533,-1.0352 0,-1.37865c-0.05735,-0.06452 -0.65974,0.45549 -0.91922,0.60484c-0.91091,0.52428 -1.81429,1.39923 -2.79728,1.98218c-0.40837,0.3568 -0.94277,0.57297 -1.52766,0.57297c-1.28289,0 -2.32288,-1.03999 -2.32288,-2.32289c0,-0.64085 0.25951,-1.22107 0.67917,-1.64133c0.87539,-1.15588 2.39853,-1.85908 3.61443,-2.59699c2.79929,-1.69884 4.53994,-3.32737 7.6209,-1.78689c0.44613,0.22306 0.52815,1.25699 0.52179,2.02957c0.1337,-0.49132 0.48349,-0.84034 1.10244,-0.87472c0.36359,-0.23603 0.79735,-0.37312 1.26313,-0.37312c0.23935,0 0.47025,0.0362 0.68752,0.10343c0.16686,0.01782 0.33809,0.03133 0.51334,0.04082c-0.75206,-0.3845 -1.26691,-1.1669 -1.26691,-2.06954c0,-0.89711 0.50856,-1.67543 1.25311,-2.06242c1.95365,-1.54685 5.77539,-2.05984 8.79223,-2.37815c0.00958,-0.83775 -0.03183,-1.67845 -0.08193,-2.51703c-1.18219,-0.00969 -2.36437,-0.01763 -3.54642,-0.01237c-0.03397,0.00015 -0.06797,0.00259 -0.10201,0.00702c-0.40038,0.32751 -0.91212,0.524 -1.46974,0.524c-1.28289,0 -2.32288,-1.03999 -2.32288,-2.32288c0,-1.03975 0.68312,-1.91994 1.62503,-2.21624c1.3678,-0.86684 3.38233,-1.16801 5.42394,-1.20783c0.0806,-0.34237 0.2534,-0.62532 0.57353,-0.80824c0.40407,-0.68465 1.14935,-1.14394 2.0019,-1.14394c0.75594,0 1.42753,0.36109 1.85172,0.9202c0.06923,0.07152 0.13018,0.15126 0.18081,0.24125c0.0571,0.10152 0.10495,0.21973 0.1449,0.35056c0.08398,0.2254 0.13395,0.46737 0.14369,0.71964c1.24235,0.14009 2.19618,0.2813 2.59082,0.29071c0.39895,0.00951 0.87926,0.00818 1.16144,0.29036c1.55,1.54999 1.42126,4.29187 -1.16144,4.3554c-0.82839,0.02038 -1.6569,0.03037 -2.48548,0.03393c0.03027,0.56665 0.05883,1.13405 0.07525,1.70086c0.75554,-0.25202 1.58625,-0.47603 2.03932,-0.22433c4.2099,2.33883 0.12946,4.78206 -2.47645,5.21302c-0.00221,0.01063 -0.0044,0.02133 -0.00661,0.0321c1.04148,-0.25063 2.00691,-0.46831 2.8492,-0.61679c1.66554,-0.29361 4.72084,-1.82994 5.44441,1.06433c0.70504,2.8202 -2.83287,3.11734 -4.50935,3.48829c-0.56459,0.12492 -1.13141,0.24673 -1.70002,0.36567c4.52427,1.13616 4.48816,6.84182 4.93521,10.64188c0.1936,1.64563 0.62319,3.67385 -0.0534,5.21663c-1.10813,2.5268 -8.03336,2.0174 -8.41031,-1.09221c-1.03028,0.2636 -2.67053,0.52714 -3.9279,0.66498zM268.30717,160.95406c0.19898,0.01218 0.3947,0.03985 0.58294,0.08449c-0.08338,-0.4654 -0.45289,-1.55215 -0.7344,-1.53816c-1.83531,0.09123 -5.00545,0.73846 -6.68647,1.58648c-0.01846,0.00931 -0.03667,0.01877 -0.05462,0.02837c0.01184,0.14731 0.02588,0.29974 0.04254,0.45757c0.00013,0.00118 0.00025,0.00238 0.00038,0.00356c2.03082,-0.82479 4.63076,-0.75806 6.84964,-0.6223zM267.90891,167.06079c0.55413,-0.11426 1.65414,0.92098 1.65977,0.35522c0.00684,-0.68791 -0.04339,-1.38574 -0.12048,-2.08648c-0.5935,0.57341 -1.45704,0.54925 -2.35962,0.44034c0.35697,0.31841 0.58203,0.75368 0.61629,1.33252c0.06751,-0.01372 0.13559,-0.02748 0.20404,-0.04159zM256.58257,159.91432c0.01315,-0.03772 0.02709,-0.07529 0.0418,-0.11267c-0.14623,-0.8942 -0.38145,-1.89241 -0.19374,-2.61799c-1.08317,0.2293 -2.73767,0.6319 -3.65579,0.45085c-0.48297,-0.09524 -0.91495,-0.36859 -1.2704,-0.73703c-0.49579,-0.37634 -0.83578,-0.94728 -0.90618,-1.59903c-0.04623,-0.16449 -0.07969,-0.32841 -0.09934,-0.48834c-0.12723,1.13644 -1.08527,7.36235 -0.97691,7.85764c0.15946,0.72883 1.40011,-0.52694 2.0604,-0.87428c0.99648,-0.52418 3.17822,-1.24788 4.84808,-1.18558c0.01516,-0.24323 0.06775,-0.47633 0.15208,-0.69358zM261.89887,151.17222c-0.32148,0.05333 -0.64272,0.11218 -0.96375,0.1781c-1.42262,0.29212 -2.86872,0.98673 -4.27721,1.42654c1.5711,-0.16416 3.29212,-0.49919 5.01132,-0.88842c0.05962,-0.23588 0.14016,-0.47545 0.22964,-0.71622z" fill="#000000" stroke-width="0.5"/><path d="M296.96182,150.30724c0.08328,-0.04839 0.17329,-0.08689 0.2713,-0.11359c0.07926,-0.02158 0.16932,-0.03507 0.26911,-0.04089c0.11881,-0.01873 0.24061,-0.02847 0.36469,-0.02847c0.36687,0 0.71388,0.08506 1.02238,0.23651c3.08376,0.85001 8.50509,4.07167 7.98939,6.13447c-1.00922,4.03687 -6.07825,-0.10585 -7.61596,-0.7841c-0.10163,-0.04483 -0.47271,-0.2099 -0.92202,-0.42015c0.08277,0.826 0.12043,1.59502 0.15363,2.16493c0.01193,0.20489 2.021,9.68684 -0.28445,11.99229c-1.55018,1.55017 -4.29156,1.42114 -4.35541,-1.16144c-0.08719,-3.52642 0.02596,-7.05509 0,-10.5825c-0.00862,-1.17174 -0.29496,-2.46062 -0.59541,-3.66711c-1.39902,2.07008 -3.07373,3.97572 -4.80435,5.58713c-0.50889,0.47383 -3.21243,3.31793 -4.33311,3.31793c-0.78032,0 -1.7067,-0.06418 -2.25847,-0.61595c-2.43674,-2.43674 2.04314,-4.8021 3.4377,-6.08917c1.54043,-1.42169 3.02076,-3.35594 4.19829,-5.08951c1.10924,-1.63305 2.01612,-3.26782 2.52826,-5.20037c0.04912,-0.18535 0.09454,-0.72466 0.16213,-1.28312c-0.36858,0.02302 -0.73757,0.0416 -1.10712,0.05433c-2.0316,0.06997 -4.06708,0.09799 -6.09838,0.01983c-0.03947,-0.00152 -0.08049,-0.00243 -0.12255,-0.00317c-1.22593,-0.06372 -2.20033,-1.07792 -2.20033,-2.31971c0,-0.75593 0.36109,-1.42753 0.92019,-1.85171c0.07151,-0.06923 0.15125,-0.13019 0.24124,-0.18081c2.06459,-1.16135 4.7323,-0.2363 7.1005,-0.29036c2.06889,-0.04723 3.88333,-0.37343 5.93925,-0.52248c1.21823,-0.08832 8.16864,-1.0026 9.13547,-0.13753c1.17295,1.04948 1.37833,3.18792 0,4.06504c-1.4632,0.93113 -4.26598,0.44266 -5.83332,0.50155c-1.0763,0.04045 -2.14745,0.12921 -3.21693,0.23168c0.14116,1.35166 -0.43395,2.98789 -0.79764,4.08495c-0.19063,0.57503 -0.41159,1.14675 -0.65927,1.71303c0.41221,0.01895 0.82703,0.16811 1.20563,0.48458c0.08078,-0.08008 0.16862,-0.14979 0.26555,-0.20611z" fill="#000000" stroke-width="0.5"/><path d="M308.68915,163.76108c0.97994,-1.71489 1.66739,-2.17808 2.66758,-2.29748c0.87291,-0.10421 1.98401,0.05344 3.73564,-0.13059c0.90621,-0.09521 1.77717,-0.18111 2.62263,-0.25837c0.07012,-0.11068 0.13489,-0.22156 0.19336,-0.33272c0.18552,-0.35271 0.3707,-0.72364 0.53994,-1.10473c-1.25804,0.12994 -4.03883,0.33714 -4.42218,-0.33374l-0.42222,-0.73888c-0.50209,-0.21587 -0.95571,-0.62592 -1.33796,-1.00818c-0.44296,-0.44296 -0.27059,-2.58926 -0.29036,-2.87851c-0.03005,-0.43968 -1.20204,-3.85323 -1.61202,-6.17526c-0.12929,-0.28922 -0.20118,-0.60973 -0.20118,-0.94702c0,-0.1943 0.02385,-0.38302 0.06879,-0.56341c0.25179,-1.01065 1.16549,-1.75947 2.25409,-1.75947c0.7047,0 1.33611,0.3138 1.76211,0.8093c2.34451,-0.80868 5.32582,-0.97485 7.10848,-1.24048c-0.00023,-0.60422 0.00226,-1.20842 0.00886,-1.81257c-0.2023,-0.00582 -0.40454,-0.01349 -0.60672,-0.02332c-0.04809,-0.00234 -0.09846,-0.00367 -0.15022,-0.00478c-1.21288,-0.07742 -2.17266,-1.08568 -2.17266,-2.3181c0,-0.75593 0.36109,-1.42753 0.92019,-1.85171c0.07151,-0.06923 0.15125,-0.13019 0.24125,-0.18081c1.6388,-0.92184 3.75334,-0.25882 5.63336,-0.29036c1.77461,-0.02977 4.18119,-0.08185 5.83814,-0.11333c0.48102,-0.00913 1.95034,-0.38881 2.33621,-0.15729c2.1515,1.29091 2.15706,3.50857 -0.07042,4.50705c-0.39714,0.17802 -0.83143,0.30358 -1.28999,0.38998c0.04275,0.26358 0.07789,0.53119 0.10718,0.8004c0.38118,0.0079 0.77011,0.02013 1.16836,0.0367c1.48624,0.06182 3.10672,-0.07959 4.25543,0.96469c2.22291,2.02083 1.73763,6.24386 1.33776,8.82798c-0.06383,0.41254 -0.30098,2.21157 -0.48319,2.39378c-1.54859,1.54859 -2.51646,1.54859 -4.06504,0c-1.27503,-1.27502 0.68036,-5.99523 0.05759,-7.46438c-0.16895,-0.39856 -0.86196,-0.09322 -1.2948,-0.10021c-0.23924,-0.00386 -0.4785,-0.00717 -0.71776,-0.00991c0.03608,1.10637 0.03859,2.92499 -0.23667,4.45954c0.53596,0.24146 0.9515,0.70386 1.1514,1.50347c0.45296,1.81183 -0.55631,2.30866 -1.69014,2.8169c-0.11041,0.04949 -0.22294,0.09728 -0.33747,0.14346c0.36726,0.96822 0.31059,2.04865 -0.00662,3.15426c1.93554,-0.00243 4.01722,0.01958 6.35355,0.05864c1.22324,0.02045 2.32288,0.84172 2.32288,2.32288c0,1.48146 -1.09964,2.30228 -2.32288,2.32288c-2.9577,0.04982 -5.91609,0.017 -8.87441,-0.00715c-0.33235,0.45403 -0.66966,0.8871 -0.99647,1.29099c3.05105,0.69404 6.32199,1.84395 5.91578,3.87499c-0.36095,1.80474 -1.49379,1.86187 -2.73333,1.82222c-2.03307,-0.06504 -4.40516,-0.70073 -6.74727,-1.34805c-0.34684,0.31465 -0.72924,0.56417 -1.16433,0.69463c-1.77821,0.53321 -3.03378,-0.32216 -3.18907,-1.80324c-0.24737,-0.04989 -0.49124,-0.09522 -0.73105,-0.13515c-1.43511,-0.23895 -3.31552,-0.17192 -4.31416,-1.44319c-0.58301,-0.74218 -0.72616,-1.44423 -0.59864,-2.11909c-2.06898,0.1711 -4.11565,0.21671 -4.37739,-0.24134zM321.56658,165.17736c-0.27964,0.00474 -0.55849,0.02307 -0.83682,0.04976c0.34731,0.11614 1.17242,0.21497 1.78528,0.28037c0.09814,-0.11618 0.19703,-0.23161 0.29637,-0.34656c-0.41496,0.00402 -0.8299,0.00941 -1.24483,0.01644zM326.61618,158.43412c-0.98041,0.14303 -1.96666,0.25886 -2.90465,0.37831c-0.07073,0.59766 -0.26406,1.22027 -0.53585,1.86278c0.94761,-0.05048 1.89012,-0.09043 2.84504,-0.12102c0.25626,-0.68086 0.44013,-1.3851 0.59546,-2.12007zM318.43142,154.99152c0.97841,-0.13253 1.96277,-0.2851 2.94729,-0.45221c0.00149,-0.02363 0.00245,-0.04726 0.00285,-0.07089c0.02731,-1.62535 0.02085,-3.251 0.00756,-4.87671c-1.7609,0.50484 -3.51194,1.06306 -5.24396,1.44174c0.27862,1.2425 0.45289,2.46564 0.47618,3.43496c0.00377,0.15695 0.00985,0.32352 0.01533,0.49639c0.6594,0.0397 1.29682,0.09415 1.79475,0.0267zM327.06753,153.44312c0.11885,-0.02501 0.24571,-0.05548 0.37923,-0.08976c-0.4904,-1.39786 0.12405,-3.28901 0.25721,-4.94457c-0.54679,0.01471 -1.09367,0.06092 -1.64038,0.13179c-0.00759,1.70596 -0.02249,3.41198 -0.03157,5.11789c0.3464,-0.07112 0.69166,-0.143 1.03551,-0.21535zM326.04519,142.95135c0.00509,0.36137 0.00921,0.72276 0.01249,1.08415c0.44854,-0.05389 0.89493,-0.10054 1.34263,-0.13993c-0.05687,-0.3096 -0.12327,-0.60988 -0.20075,-0.89325c-0.39981,-0.02273 -0.7871,-0.04229 -1.15437,-0.05097z" fill="#000000" stroke-width="0.5"/><path d="M366.29809,145.74203c0.69725,0.59862 1.91194,0.91982 2.24301,1.71676c0.03658,0.08805 0.06237,0.18192 0.07549,0.2826c0.01328,0.10199 0.01445,0.2133 0.00437,0.33292c-0.00174,0.43837 -0.1249,0.84809 -0.33761,1.19729c-1.23791,2.94159 -5.4738,7.75492 -7.07157,8.02121c-1.68185,0.2803 -2.67311,-0.83431 -2.74667,-2.10993c-0.33811,0.45459 -0.83954,0.83111 -1.33267,1.15062c-0.71118,0.4608 -1.45822,0.85283 -2.22297,1.21087c0.19103,2.97036 0.83736,7.99878 -2.526,9.1199c-1.42806,0.47602 -5.76882,-2.41123 -5.88023,-4.63201c-0.12297,0.09392 -0.2484,0.18288 -0.37768,0.26407c-0.38397,0.28068 -0.85733,0.44636 -1.36937,0.44636c-1.28289,0 -2.32288,-1.03999 -2.32288,-2.32288c0,-0.76227 0.36717,-1.43879 0.9343,-1.86234c1.48494,-1.84613 4.30949,-3.06974 6.78122,-4.04535c-0.04235,-1.40131 -0.0931,-2.80203 -0.14173,-4.20213c-0.43322,0.07778 -0.86441,0.15801 -1.29281,0.24213c-0.1117,0.02194 -1.03635,0.34524 -1.82546,0.57395c-0.26243,0.12093 -0.55125,0.19436 -0.85546,0.20926c-0.0383,0.00188 -0.07685,0.00283 -0.11561,0.00283c-1.28289,0 -2.32288,-1.03999 -2.32288,-2.32289c0,-1.17581 0.87362,-2.14757 2.00718,-2.3016c1.16482,-0.6755 2.68566,-1.11028 4.25781,-1.42183c-0.02161,-1.06211 -0.03474,-2.12381 -0.03474,-3.18509c-0.06862,-0.21929 -0.10559,-0.45257 -0.10559,-0.69449c0,-0.0488 0.0015,-0.09724 0.00446,-0.14529c0.08056,-1.64059 1.15765,-2.2526 2.2561,-2.17677c0.02071,-0.00054 0.04148,-0.00082 0.06232,-0.00082c0.83814,0 1.57261,0.44389 1.98111,1.10942c0.05865,0.0839 0.11127,0.17174 0.15701,0.26322c0.59099,1.18197 0.46432,2.74723 0.43851,4.12139c0.63839,-0.0865 1.21646,-0.17296 1.70168,-0.27193c1.78543,-0.36419 5.56777,-2.01647 6.1381,1.12035c0.3123,1.71769 -0.69425,2.32882 -1.86989,2.70094c-1.87066,0.59212 -3.82309,1.00068 -5.78954,1.3542c0.01513,0.9386 0.01778,1.87908 0.01977,2.81869c1.1805,-0.74427 2.45678,-1.31723 3.59108,0.38421c0.22808,0.34212 0.36414,0.65988 0.4265,0.95553c0.14456,-0.24834 0.33193,-0.48244 0.56413,-0.69152c0.92872,-0.83624 1.81511,-1.78658 2.68124,-2.69091c0.09368,-0.09782 1.37339,-1.4691 1.55347,-1.7964c0.16573,-0.30123 0.68422,-2.16199 1.24213,-2.23984zM350.24753,160.70589c0.00143,-0.37999 0.0011,-0.75994 -0.00077,-1.13985c-0.37426,0.17728 -0.74403,0.36312 -1.10715,0.56167c0.47324,0.16378 1.10634,0.99589 1.10791,0.57818z" fill="#000000" stroke-width="0.5"/><path d="M375.45078,141.21822c1.37322,3.34413 0.84593,8.25039 0.87882,11.46328c0.03105,3.03242 -3.96295,3.86873 -4.52656,0.97546c-0.64676,-3.32011 0.8244,-7.69719 -0.80345,-10.95288c-0.16995,-0.3228 -0.26614,-0.69047 -0.26614,-1.08062c0,-0.03193 0.00065,-0.0637 0.00192,-0.09531c0.06356,-2.31062 1.3339,-2.66016 2.55505,-2.21592c0.89871,0.08993 1.64646,0.69211 1.947,1.51027c0.08745,0.13192 0.15958,0.26477 0.21335,0.39572z" fill="#000000" stroke-width="0.5"/><path d="M379.58574,143.80009c0.1164,0.03263 0.23954,0.0845 0.36773,0.15354c0.25212,0.11802 0.47956,0.28002 0.67244,0.47611c1.87802,1.60977 4.15009,5.66921 2.69955,7.11976c-0.55177,0.55177 -1.2522,1.16144 -2.03252,1.16144c-2.58492,0 -1.96831,-1.70494 -2.37735,-3.09958c-0.23722,-0.80881 -2.44162,-2.06656 -2.19509,-2.9705c-0.04804,-0.18608 -0.07358,-0.38121 -0.07358,-0.5823c0,-1.28289 1.03999,-2.32288 2.32288,-2.32288c0.00232,0 0.00466,0.00001 0.00698,0.00001c0.17854,-0.01896 0.37867,-0.00016 0.60897,0.0644z" fill="#000000" stroke-width="0.5"/><path d="M379.86513,158.88592c-3.09379,3.5223 -7.33121,6.22743 -11.44259,8.40694c-0.52197,0.2767 -6.41545,2.94298 -6.784,2.85793c-8.29507,-1.91424 1.46907,-5.61203 2.81624,-6.17311c2.08071,-0.8666 4.07677,-2.13123 6.00685,-3.31744c2.19844,-1.35115 4.86322,-3.07606 6.30195,-5.28372c0.35682,-0.54752 0.89655,-2.16881 1.73398,-2.06413c0.27535,-0.11501 0.57757,-0.17853 0.89463,-0.17853c1.28289,0 2.32288,1.03999 2.32288,2.32288c0.48969,0.54734 -1.51099,3.04328 -1.84994,3.42918z" fill="#000000" stroke-width="0.5"/><path d="M411.79886,168.40934c1.78526,0.35771 6.08253,0.31558 6.08253,3.00494c0,2.31195 -2.53045,2.65098 -4.10045,2.25848c-3.11541,-0.77885 -6.27743,-1.68919 -9.42338,-2.60974c0.36743,0.50591 0.4367,1.46357 0.02915,3.09381c-0.18232,0.72926 -1.99054,1.57593 -2.57921,1.88558c-2.28539,1.20219 -5.96342,3.44862 -8.32196,1.43409c-0.29868,-0.25511 -0.7397,-3.33136 -1.0048,-5.68408c-1.20182,0.6365 -2.45551,1.17746 -3.73007,1.63787c-0.88189,0.31857 -4.29869,1.83748 -5.16989,1.46411c-2.25191,-0.9651 -2.67,-3.23014 -0.53919,-4.47524c2.48395,-1.45145 5.70364,-1.44327 8.0942,-3.16031c-0.38961,0.06605 -0.77787,0.1328 -1.16463,0.20047c-2.38476,0.41724 -4.63126,1.02992 -7.05033,1.18891c-0.47582,0.03127 -1.56845,0.07829 -1.7927,-0.31414l-1.14394,-2.0019c0.33592,-0.58785 0.45128,-1.39776 0.9202,-1.85171c0.07151,-0.06923 0.15125,-0.13018 0.24124,-0.18081c0.09691,-0.05451 0.2095,-0.10016 0.33369,-0.13854c0.25188,-0.09609 0.52479,-0.1496 0.80991,-0.15175c0.74096,-0.07979 1.56926,-0.06203 2.02307,-0.12767c3.60061,-0.52078 7.32445,-1.3726 10.8696,-2.13187c0.53517,-0.11462 1.07147,-0.22511 1.60857,-0.33265c-0.22665,-0.25563 -0.42052,-0.53427 -0.56784,-0.82891l-0.26613,-1.08062c0,-0.0372 0.00088,-0.07419 0.00261,-0.11096c0.04973,-1.45144 0.70026,-2.08178 1.54156,-2.20373c-0.29784,-1.6001 1.66477,-3.44804 3.5718,-4.93795c-0.12425,-0.46382 -0.24848,-0.94539 -0.38143,-1.44189c-0.22409,-0.83683 -0.48438,-1.62464 -0.74634,-2.41393c-2.37997,3.66845 -5.41325,7.16964 -7.32558,9.01728c-0.58869,0.56878 -5.05489,5.84015 -6.95703,5.15455c-2.13644,-0.77005 -2.4517,-1.48074 -1.81795,-3.63589c0.12824,-0.4361 2.71526,-2.17512 2.78159,-2.2329c0.93277,-0.8126 1.8421,-1.65597 2.69067,-2.55614c1.88684,-2.00158 4.45058,-4.62718 6.45407,-7.50094c-1.22892,0.06431 -2.47195,0.09314 -3.73482,0.08429c-0.46449,-0.00325 -1.04058,-0.18658 -1.60346,-0.47758c-0.72211,-0.13906 -1.3252,-0.61252 -1.64175,-1.25289c-0.68096,-0.78223 -0.88719,-1.6533 0.0817,-2.20695c0.40407,-0.68465 1.14934,-1.14394 2.00189,-1.14394c0.39776,0 0.77216,0.09997 1.09946,0.27616c1.58781,0.29814 3.2597,0.22054 4.87714,0.15945c0.34096,-0.01288 0.85485,-0.06157 1.43777,-0.12876c0.57722,-1.63394 0.80232,-3.28247 0.48147,-4.88672c-0.0357,-0.16184 -0.05451,-0.33002 -0.05451,-0.50259c0,-1.27403 1.02567,-2.3085 2.29634,-2.32273c0.61023,-0.06402 1.24905,0.15266 1.79181,0.78524c0.14773,0.17217 0.26711,0.37753 0.36329,0.606c0.03136,0.07154 0.05921,0.14496 0.08334,0.22006c0.41758,1.22838 0.27822,2.97124 0.25617,3.90591c-0.0106,0.44933 -0.07158,0.92395 -0.17648,1.41844c1.75808,-0.369 3.49122,-0.8471 5.2345,-1.23013c-0.52236,-0.23692 -0.94312,-0.57535 -1.1545,-0.94527c-0.68465,-0.40407 -1.14394,-1.14934 -1.14394,-2.00189c0,-0.96212 0.58492,-1.78761 1.41857,-2.14028c0.38694,-0.26962 0.89152,-0.36729 1.63028,-0.1826c1.36858,0.34214 4.42509,2.33835 3.26999,4.26351c-0.09019,0.15032 -0.18874,0.28629 -0.29431,0.40876c0.83832,-0.06916 1.68444,-0.08493 2.54207,-0.02579c1.22324,0.08435 2.32288,0.71678 2.32288,2.32289c0,3.30436 -4.17482,2.16721 -6.1769,2.47832c1.1837,0.10692 2.11122,1.10182 2.11122,2.31337c0.4516,0.52094 -0.95031,2.04632 -1.26117,2.36854c-1.68313,1.74457 -3.45062,3.35033 -5.24053,4.94489c2.08272,0.92625 5.69563,0.03078 7.75835,-0.48557c1.1479,-0.28734 -0.33175,-6.49141 3.96249,-4.77372c3.00521,1.20209 0.52549,7.76637 -1.84563,8.94029c-0.12584,0.0623 -0.25574,0.12073 -0.38915,0.17555c2.30859,0.83625 2.17682,3.80341 -0.19002,4.59235c-0.73611,0.24537 -1.48099,0.47714 -2.2333,0.69684c0.51294,0.31581 0.98884,0.64893 1.14418,1.12965c0.02909,0.09003 0.04694,0.18524 0.05168,0.28647c0.09752,2.08276 -1.93568,3.26406 -3.82993,3.92672c0.25978,0.05935 0.52047,0.11549 0.78218,0.16793zM400.42584,169.91224c-0.46233,-0.13447 -1.94206,-0.42085 -3.2939,-0.80461c0.00331,0.82924 0.13517,1.38814 0.25793,2.16373c0.08225,0.51968 -0.34164,1.7184 0.16314,1.56999c1.05696,-0.31078 3.56215,-1.96438 5.29756,-2.22002c-0.81034,-0.23767 -1.61894,-0.47473 -2.42473,-0.70909zM409.57062,163.97021c0.01371,-0.00347 0.02798,-0.0083 0.04274,-0.01439c-2.62064,0.61606 -5.29971,1.12534 -7.98589,1.58793c0.95923,0.23067 1.91096,0.50424 2.86139,0.79377c0.67197,-1.30489 3.59017,-1.98992 5.08175,-2.3673zM407.05699,159.41951c1.72944,-0.38085 3.46886,-0.71572 5.21035,-1.03768c-0.54311,0.04315 -1.07062,0.06824 -1.55736,0.08694c-1.15751,0.04445 -2.41073,0.11733 -3.57094,0.00415c-1.8849,-0.18389 -3.11277,-0.76269 -3.9742,-1.64283c-0.67347,0.62625 -1.49216,1.34768 -2.34045,1.75331c0.37048,0.37972 0.6323,0.7935 0.71043,1.18416c0.05221,0.26104 0.08682,0.50382 0.10537,0.72912c1.81097,-0.33745 3.6205,-0.68159 5.41681,-1.07717zM406.17432,147.75251c0.32903,-0.30141 2.15339,-2.46999 3.19281,-3.22699c-1.82177,0.45432 -3.62621,0.84646 -5.43322,1.1688c0.58479,0.90142 0.92322,2.03061 1.18896,3.16785c0.34425,-0.38942 0.7019,-0.78945 1.05146,-1.10966z" fill="#000000" stroke-width="0.5"/><path d="M427.53898,137.9868c0.58785,0.33592 1.39776,0.45128 1.85171,0.9202c0.06923,0.07152 0.13018,0.15125 0.18081,0.24124c0.6273,1.11517 0.30293,2.78635 0.42311,4.02256c0.3936,4.04863 0.61408,7.95538 0.25398,11.97307c-0.15713,1.75308 -0.18663,6.20716 -2.97512,6.20716c-1.88646,0 -2.09516,-1.09964 -2.32288,-2.32288c-0.21379,-1.14839 0.60578,-3.20479 0.66377,-4.23126c0.18023,-3.19024 0.35507,-6.32176 0.01472,-9.56021c-0.09606,-0.91405 -1.14065,-5.5067 -0.092,-6.10593z" fill="#000000" stroke-width="0.5"/><path d="M428.9188,166.39663c0.05634,0.14532 0.09575,0.31621 0.11968,0.50802c0.01768,0.11552 0.02686,0.23385 0.02686,0.35431c0,0.00607 -0.00002,0.01213 -0.00007,0.01818c0.06508,2.51338 -1.85981,7.48216 -3.51761,7.48216c-4.11489,0 -1.67521,-5.27787 -1.20788,-7.1069c0.03922,-0.15351 0.06153,-0.3855 0.09215,-0.63446c0.00387,-0.03757 0.00863,-0.07487 0.01428,-0.11189c0.17001,-1.11541 1.13334,-1.96997 2.29625,-1.96997c0.87579,0 1.63838,0.48469 2.03418,1.20044c0.05725,0.07882 0.10529,0.165 0.14217,0.26011z" fill="#000000" stroke-width="0.5"/><path d="M435.17273,138.84938c0.4389,-2.68346 3.80871,-2.896 4.62044,-0.34422c0.98773,3.10509 0.08294,6.5164 0.15808,9.77393c0.01428,0.61939 0.25932,1.71501 0.26551,2.51824c0.0155,2.00784 0.6478,10.81921 -2.8539,10.81921c-3.32366,0 -2.13528,-3.34811 -1.9093,-5.03002c0.38306,-2.85101 0.06604,-15.46369 -0.24202,-17.31209c-0.02548,-0.1378 -0.0388,-0.27987 -0.0388,-0.42504c0,-1.28289 1.03999,-2.32288 2.32288,-2.32288c1.28289,0 2.32289,1.03999 2.32289,2.32288c0,1.28289 -1.03999,2.32288 -2.32289,2.32288c-1.13772,0 -2.08439,-0.81793 -2.28408,-1.89784z" fill="#000000" stroke-width="0.5"/><path d="M436.87303,166.49578c0.91698,1.63016 0.56402,7.73426 -1.33375,9.33485c-1.45578,1.2278 -3.85276,-0.13296 -3.90583,-2.00938c-0.0371,-1.31195 0.81404,-1.94637 0.88418,-3.26386c0.0725,-1.36198 -0.86321,-3.40242 0.32099,-4.0791c0.40407,-0.68465 1.14934,-1.14395 2.00189,-1.14395c0.75594,0 1.42753,0.36109 1.85172,0.9202c0.06923,0.07152 0.13018,0.15125 0.18081,0.24124z" fill="#000000" stroke-width="0.5"/><path d="M443.91276,160.57644c-0.1632,-2.49514 0.24557,-4.26699 0.33507,-6.68726c0.19491,-5.27039 -0.18072,-10.54159 -0.18072,-15.80933c0,0 0,-2.32288 2.32288,-2.32288c2.32288,0 2.32288,2.32288 2.32288,2.32288c0,5.32949 0.40374,10.67076 0.17671,16.0024c-0.08007,1.88038 -0.44912,3.33961 -0.41499,5.11426c0.02013,0.07933 0.02795,0.12629 0.02795,0.12629l0.35024,2.10144c0.02548,0.1378 0.0388,0.27987 0.0388,0.42505c0,1.28289 -1.03999,2.32288 -2.32288,2.32288c-1.12568,0 -2.06434,-0.80071 -2.27749,-1.86364l-0.34751,-1.5638l0.08292,-0.01843l-0.00399,-0.02389z" fill="#000000" stroke-width="0.5"/><path d="M445.66324,176.25394l-4.08398,-0.18505c0.20315,-1.82363 0.345,-3.62685 0.34323,-5.46245c0,0 0,-2.32288 2.32288,-2.32288c2.32288,0 2.32288,2.32288 2.32288,2.32288c-0.00099,1.13711 -0.0492,2.26367 -0.131,3.3893c0.68971,1.04576 0.06449,2.29618 0.06449,2.29618l-0.27216,-0.01234c-0.01079,0.10073 -0.02179,0.20151 -0.03296,0.30233z" fill="#000000" stroke-width="0.5"/><path d="M173.42585,219.4279c0,1.96583 -1.66367,2.268 -2.17511,2.31445c-4.47983,1.0386 -9.15457,0.56074 -13.72601,0.96106c0,0 -2.31415,0.20123 -2.51538,-2.11292c-0.20123,-2.31415 2.11292,-2.51538 2.11292,-2.51538c4.36401,-0.37695 9.00479,0.18706 13.25709,-0.90073l0.72361,-0.06936c0,0 2.32288,0 2.32288,2.32288z" fill="#000000" stroke-width="0.5"/><path d="M192.13971,218.89653c-1.23112,1.9698 -3.20092,0.73868 -3.20092,0.73868l-1.42435,-0.89775c-1.51548,-1.11634 -2.90926,-2.3907 -4.31418,-3.64334c-0.55583,-0.49558 -1.10939,-0.88794 -1.60437,-1.27264c-0.04793,2.25728 0.0015,4.52539 0.0015,6.728c0,0 0,2.32289 -2.32288,2.32289c-2.32288,0 -2.32288,-2.32289 -2.32288,-2.32289c0,-4.39378 -0.13302,-8.96273 0.5053,-13.31564c0.24601,-1.67762 0.63017,-3.25724 0.78442,-4.98153c0.3486,-3.89677 0.359,-7.90639 0.63889,-11.83066l-0.0059,-0.31518c0,0 0,-2.32288 2.32288,-2.32288c2.32288,0 2.32289,2.32288 2.32289,2.32288l-0.00591,0.64617c-0.28238,3.94761 -0.31043,7.95744 -0.64291,11.88285c-0.11826,1.39622 -0.3793,2.72695 -0.61696,4.07147c0.97789,-0.84204 1.98259,-1.65472 2.37347,-1.99956c3.42544,-3.02197 6.29567,-6.38941 7.65107,-10.80745c0,0 0.69286,-2.21715 2.91,-1.52429c2.21714,0.69286 1.52429,2.91001 1.52429,2.91001c-1.66378,5.24391 -4.92721,9.30084 -9.01247,12.90605c-1.08678,0.95908 -1.83707,2.08312 -3.23479,2.35738c0.0845,-0.0095 0.18668,-0.01332 0.23367,0.01194c0.54395,0.29254 1.07223,0.62551 1.5446,1.02342c1.34288,1.13118 2.59919,2.37172 4.0176,3.40663l1.13926,0.70451c0,0 1.9698,1.23112 0.73868,3.20092z" fill="#000000" stroke-width="0.5"/><path d="M203.74764,202.06349c-1.81717,3.87661 -2.62587,7.82981 -2.64908,12.2451c-0.00063,0.11865 0.05421,-0.25089 0.14782,-0.32382c0.51753,-0.40321 1.12534,-0.67943 1.64832,-1.07555c0.55574,-0.42094 2.07953,-1.91845 2.5178,-2.38903c2.14177,-2.29964 1.69778,-5.8088 0.98113,-8.59965c-1.17255,-0.29401 -1.69847,-0.40459 -2.64598,0.14294zM204.03301,197.19387c1.7377,-0.24235 3.22907,0.33137 5.48344,1.28705c2.36561,4.24454 2.80542,8.55953 0.83668,13.17335c-0.42776,1.00248 -2.26067,2.7947 -3.0477,3.53531c-2.08363,1.96075 -5.66381,5.04394 -8.83702,2.94857c-1.67227,-1.10426 -1.9566,-4.29706 -1.96917,-6.08066c-0.02896,-4.10941 1.13768,-8.00761 2.86918,-11.64944c-0.07065,-1.00799 0.47804,-1.60434 0.98346,-1.93626c0.09397,-0.17422 0.18903,-0.34779 0.28511,-0.52072c0,0 1.12809,-2.03056 3.15865,-0.90248c0.08449,0.04693 0.1635,0.09544 0.23736,0.14529z" fill="#000000" stroke-width="0.5"/><path d="M210.82875,219.19015c-0.56338,-2.25352 1.69014,-2.81691 1.69014,-2.81691l0.46973,-0.11038c0.87872,-0.28752 1.78636,-0.49836 2.63616,-0.86256c1.68868,-0.72373 2.50724,-1.62259 2.67817,-3.4273c0.05815,-0.61393 0.46313,-1.39631 0.04489,-1.8495c-0.27133,-0.29401 -0.75065,-0.30375 -1.06848,-0.54675c-2.20798,-1.68821 -3.33351,-2.50481 -3.63198,-5.55588c-0.45473,-4.64842 3.91923,-8.61249 7.35037,-10.76544c0,0 1.97831,-1.21741 3.19572,0.76089c1.21741,1.9783 -0.76089,3.19572 -0.76089,3.19572c-2.19082,1.31375 -5.16922,3.60886 -5.14728,6.53901c0.0141,1.88335 3.11897,2.55119 3.95176,3.8314c2.00663,3.08465 0.45165,8.18307 -2.01807,10.38981c-1.8268,1.63228 -3.50643,1.93473 -5.76127,2.69798l-0.81208,0.21007c0,0 -2.25352,0.56338 -2.8169,-1.69014z" fill="#000000" stroke-width="0.5"/><path d="M246.81033,212.80055c0,-2.68492 0,-5.36986 0,-8.05478l-0.52851,0.6539c-4.64347,0.38233 -8.72896,0.16156 -13.04132,2.05643c0,0 -0.57711,0.25249 -1.26176,0.19396c0.05319,1.9489 0.08997,3.89836 0.08997,5.84946v1.44204c0,0 -0.00001,2.32288 -2.32289,2.32288c-2.32288,0 -2.32288,-2.32288 -2.32288,-2.32288v-1.44204c0,-7.05408 -0.48068,-14.08796 -0.48068,-21.14987c0,0 0,-2.32289 2.32288,-2.32289c2.32288,0 2.32288,2.32289 2.32288,2.32289c0,3.5581 0.12203,7.10893 0.24311,10.65889c4.28726,-1.75543 8.308,-1.81643 12.82763,-2.14236c0.33515,-0.25164 0.79611,-0.4247 1.43014,-0.4247c0.27082,0 0.51008,0.03158 0.72143,0.08736c0,-3.52753 0,-7.05505 0,-10.58258c0,0 0,-2.32288 2.32288,-2.32288c2.32288,0 2.32288,2.32288 2.32288,2.32288c0,8.11813 0,16.23627 0,24.3544v1.60227c0,1.28289 -1.03999,2.32288 -2.32288,2.32288c-1.06909,0 -1.96949,-0.72223 -2.23991,-1.70539l-0.46568,-1.55228c0,0 -0.37787,-1.25955 0.38271,-2.16758z" fill="#000000" stroke-width="0.5"/><path d="M264.58874,214.39932c0.86269,2.15675 -1.29404,3.01943 -1.29404,3.01943l-0.80114,0.32046c-2.39778,0.90568 -4.40923,0.80704 -6.95129,0.80704c0,0 -2.32288,0 -2.32288,-2.32288c0,-2.32288 2.32288,-2.32288 2.32288,-2.32288c0.58132,0 1.13962,0.0268 1.68457,0.04128c0.0161,-6.78765 0.13558,-13.56937 0.15559,-20.35905c-0.24914,0.0697 -0.49854,0.13868 -0.74829,0.20682c0,0 -2.24104,0.6112 -2.85223,-1.62984c-0.61119,-2.24104 1.62984,-2.85222 1.62984,-2.85222c1.64607,-0.44875 3.27665,-0.9357 4.91074,-1.42592l1.30838,-0.09796c0,0 2.32288,0 2.32288,2.32288c0,1.71 -1.25884,2.16117 -1.9231,2.28021c-0.00774,6.88 -0.12979,13.75112 -0.15522,20.62753c0.62642,-0.14685 2.0511,-0.27043 2.71332,1.3851z" fill="#000000" stroke-width="0.5"/><path d="M286.51975,189.66046c2.30494,0.28812 2.01682,2.59306 2.01682,2.59306l-0.1463,1.1301c-0.26558,4.5066 -0.47455,8.96521 -0.47667,13.48284c-0.00103,2.18741 0.1103,5.12495 -0.86908,7.12699c-0.00825,0.01686 -0.01657,0.03368 -0.02496,0.05047l0.01106,0.00302l-0.4674,1.71381c-0.25148,1.0111 -1.16539,1.76037 -2.25431,1.76037c-0.95866,0 -1.78167,-0.58073 -2.13645,-1.40959l-0.77935,-1.71457l0.02393,-0.01088l-0.05157,-0.0524c-1.91057,-4.96886 -4.70438,-9.38726 -7.26302,-14.03787c-0.0285,-0.05181 -0.29413,-0.53846 -0.62254,-1.14081c-0.49515,2.3623 -0.87157,4.74669 -0.95042,7.17582c-0.11073,3.4109 0.08337,6.71639 -0.33601,10.1169c0,0 -0.28812,2.30494 -2.59306,2.01682c-2.30494,-0.28812 -2.01682,-2.59306 -2.01682,-2.59306c0.41517,-3.27246 0.19274,-6.46394 0.3049,-9.75118c0.15751,-4.61581 1.24413,-9.13478 2.40101,-13.57086v-1.38515v0c0,-1.28289 1.03999,-2.32288 2.32288,-2.32288c1.04492,0 1.9287,0.68995 2.22062,1.63914l0.9239,2.7717c0.64766,0.92155 0.91791,2.06021 1.45836,3.04855c1.35044,2.4696 2.72537,4.91254 4.023,7.40282c0.68934,1.32291 1.39479,2.58523 2.0732,3.8581c0.16327,-4.82296 0.15767,-9.62411 0.44106,-14.4509l0.17415,-1.43352c0,0 0.28812,-2.30494 2.59307,-2.01682z" fill="#000000" stroke-width="0.5"/><path d="M302.65035,193.1609c-4.0902,2.06104 -5.12324,7.33553 -5.28627,11.57809c-0.06767,1.76094 -0.31081,4.05686 0.58907,5.66848c0.35314,0.63246 0.97796,0.79889 1.64098,0.9303c3.67994,0.72931 5.53192,-0.94305 7.56736,-3.75917c0.71976,-1.42851 1.32594,-2.94402 1.62413,-4.51557c0.4426,-2.33258 0.63551,-2.85873 0.18812,-5.08518c-0.55939,-2.78379 -3.41299,-4.17783 -6.3234,-4.81694zM295.9731,193.16266c-0.36571,-0.17189 -0.72362,-0.48198 -1.02314,-1.00615c-1.15247,-2.01683 0.86436,-3.1693 0.86436,-3.1693l2.27405,-0.94696c7.53841,0.02451 15.9457,3.49949 15.78148,12.30132c-0.06529,3.4993 -1.22069,6.59587 -2.74336,9.65816c-1.49185,2.01405 -3.36233,4.61288 -5.88101,5.57394c-3.55396,1.35609 -8.95179,0.84314 -11.18777,-2.63466c-1.58236,-2.46117 -1.44874,-5.64369 -1.33363,-8.43144c0.16614,-4.02394 1.05486,-8.13658 3.24903,-11.34491z" fill="#000000" stroke-width="0.5"/><path d="M324.12477,215.19822c0,2.32288 -2.32288,2.32288 -2.32288,2.32288l-0.55158,-0.01153c-2.63033,-0.26816 -5.29783,-0.1487 -7.94041,-0.1487c0,0 -2.32288,0 -2.32288,-2.32288c0,-2.32288 2.32288,-2.32288 2.32288,-2.32288c2.80239,0 5.61236,-0.10257 8.40268,0.17175l0.08931,-0.01153c0,0 2.32288,0 2.32288,2.32288z" fill="#000000" stroke-width="0.5"/><path d="M364.67071,213.47066c-0.04143,1.63058 0.79144,5.51888 -2.32288,5.51888c-1.59679,0 -2.24329,-1.09964 -2.32288,-2.32288c-0.11189,-1.71976 -0.05545,-3.44326 0.04498,-5.16611c-0.9553,0.34558 -1.82242,0.88191 -2.32333,1.74636c-0.77242,1.33304 -0.53502,3.34156 -2.24515,3.9116c-3.13061,1.04354 -3.06234,-2.92544 -3.42426,-4.78372c-0.04298,-0.22063 -0.12464,-0.45417 -0.2262,-0.69367c-0.60613,0.36751 -1.2191,0.67237 -1.7921,0.82725c-2.33502,0.63114 -3.79547,-0.94964 -2.98662,-3.37618c0.31142,-0.93428 2.55326,-1.92052 3.95139,-2.63688c-0.36217,-0.13451 -0.6817,-0.35676 -0.93275,-0.64092c-2.18454,2.4655 -7.88174,-2.70412 -9.64812,-3.65685c-0.23695,-0.1278 -0.68663,-0.33732 -1.18354,-0.58275c0.02028,0.72928 0.02353,1.40998 0.06039,1.92872c0.25231,3.5503 0.12903,7.11953 0.04055,10.67768c-0.03042,1.22324 -0.82223,2.32288 -2.32288,2.32288c-1.5015,0 -2.29203,-1.09964 -2.32288,-2.32288c-0.09729,-3.85723 0.06674,-7.72454 -0.17144,-11.57479c-1.23741,1.18603 -2.50901,2.24205 -3.65537,3.13361c-0.72604,0.56466 -2.97114,2.60532 -4.12883,2.21943c-2.07765,-0.69255 -2.51049,-1.55824 -1.81794,-3.63589c0.19601,-0.58802 2.66951,-1.91055 3.0882,-2.23805c2.65288,-2.07509 7.39769,-5.91805 7.93761,-9.91867c-0.3116,0.00339 -0.60814,0.00455 -0.88572,0.00491c-2.73076,0.00355 -5.46272,0.08045 -8.1923,0c-0.0313,-0.00092 -0.06356,-0.00151 -0.09654,-0.00197c-1.23812,-0.05062 -2.22634,-1.07036 -2.22634,-2.32091c0,-1.07762 0.7338,-1.98384 1.72897,-2.24626c1.59808,-1.20084 3.38403,-0.02202 8.7432,-0.07662c2.3657,-0.0241 3.27984,-0.02432 5.47808,-0.5483c0.90084,-0.21473 2.99014,-1.36793 3.97995,-1.16352c1.94601,0.40188 3.08138,2.90607 1.16144,4.35541c-1.22706,0.92629 -3.06475,1.42428 -4.96855,1.6919c-0.07247,1.49194 -0.51078,2.94639 -1.19032,4.33643c0.03566,0.02251 0.07067,0.04597 0.10498,0.07035c0.47852,0.29308 1.03562,0.69488 1.72956,1.14032c1.83729,1.17936 3.66184,2.23624 5.45646,3.48155c0.88927,0.61708 2.52312,0.93203 3.40616,1.73858c0.01151,-0.01143 0.02315,-0.02274 0.0349,-0.03393c0.06467,-0.07805 0.13815,-0.14861 0.22296,-0.20952c0.95509,-0.68598 2.69545,-0.55148 3.76871,-0.76111c1.20432,-0.23523 2.40617,-0.47899 3.60726,-0.72548c0.4082,-0.51129 0.8262,-1.11944 1.16486,-1.70493c-0.58691,0.14611 -1.2079,0.20316 -1.7204,-0.05309c-3.56335,-1.78168 0.5384,-4.7719 1.58581,-6.02129c0.23663,-0.28226 0.47307,-0.57048 0.70812,-0.86283c-0.3012,-0.1897 -0.59378,-0.37261 -0.87584,-0.54501c-0.79523,-0.48606 -3.44512,-1.72108 -3.28416,-2.7472c-0.09798,-0.25699 -0.15163,-0.53585 -0.15163,-0.82725c0,-1.28289 1.03999,-2.32289 2.32288,-2.32289c0.62484,-0.54167 3.03978,1.65379 3.52134,1.94741c0.28666,0.17479 0.71348,0.38895 1.22908,0.63647c0.60091,-1.19298 0.83292,-2.37217 1.27794,-3.73118c0.02125,-0.1183 0.05145,-0.2335 0.08989,-0.34485c0.3143,-0.9106 1.17893,-1.56467 2.19633,-1.56467c0.92224,0 1.71895,0.53745 2.09402,1.31623c0.05249,0.0813 0.09541,0.16963 0.12682,0.26639c0.61683,1.89995 -0.29336,4.13748 -1.54291,6.1661c2.31135,1.29537 4.2898,2.83763 3.67973,4.3628c-0.67697,1.69242 -1.8112,1.56714 -3.01943,1.29405c-0.89017,-0.2012 -1.8273,-0.57138 -2.77075,-1.03119c0.51998,1.42459 0.28402,2.96196 -0.40132,4.49428c0.75276,-0.14921 1.50639,-0.29557 2.2613,-0.43766c1.07621,-0.20255 4.7452,-1.26929 5.77848,-0.75266c0.69794,0.34897 1.49782,0.82066 1.74458,1.56094c1.2273,3.6819 -4.88356,3.40951 -6.66493,3.75115c-0.75719,0.14521 -1.43543,0.27348 -2.08118,0.39479c0.05581,0.52163 0.07533,1.1285 0.07025,1.78003c3.17365,-0.01534 6.43294,0.75046 7.89333,3.18445c1.50102,2.5017 -0.52892,8.34781 -3.92726,7.15182c-2.39963,-0.84452 -5.00727,-3.52543 -2.30524,-5.49204c0.05973,-0.04347 -0.93987,-0.02727 -1.95615,0.0052c-0.09879,1.12148 -0.18772,2.08215 -0.20237,2.65866zM360.39177,205.95639c0.00799,-0.26659 -0.02583,-0.56582 -0.06661,-0.873c-0.1118,0.02209 -0.22355,0.04444 -0.33525,0.06703c-0.84071,0.84487 -1.70815,1.62892 -2.52479,2.32236c0.66318,-0.31055 1.42314,-0.52234 2.06951,-0.713c0.26164,-0.07718 0.54147,-0.1517 0.83647,-0.22212c0.00792,-0.19382 0.01486,-0.38758 0.02067,-0.58127z" fill="#000000" stroke-width="0.5"/><path d="M386.69539,195.92851c0.00396,0.28465 0.5192,-0.23369 0.77906,-0.34996c0.50275,-0.22497 0.95599,-0.94357 1.49507,-0.94357c2.19004,0 2.87442,0.68438 2.87442,2.87442c0,1.66535 -7.12703,5.26654 -8.63287,4.36303c-1.93223,-1.15933 -1.62586,-4.50014 -1.34711,-6.99992c-0.37682,0.07573 -0.75407,0.14992 -1.13187,0.22226c-0.5192,0.09941 -4.9735,1.47026 -5.58461,0.40082l-1.14394,-2.0019c0.33592,-0.58785 0.45128,-1.39776 0.9202,-1.85171c0.07151,-0.06923 0.15125,-0.13019 0.24125,-0.18081c1.12073,-0.63042 3.61227,-0.71697 4.68931,-0.92439c1.61676,-0.31136 3.21302,-0.68396 4.80863,-1.05798c-1.08512,-1.65401 -2.06362,-3.86257 -2.20397,-4.60106c-0.09717,-0.51131 -0.19979,-1.82434 0.25163,-2.0823l2.00189,-1.14393c0.58785,0.33592 1.39776,0.45128 1.85172,0.9202c0.06923,0.07152 0.13018,0.15125 0.18081,0.24124c0.38218,0.67943 0.3291,1.63421 0.71239,2.35468c0.48379,0.90937 1.52169,2.11613 2.07722,3.23156c0.02078,-0.00405 0.04156,-0.00811 0.06234,-0.01215c0.41515,-0.08068 4.10593,-1.45444 4.87802,-1.19708c2.07765,0.69255 2.51049,1.55824 1.81795,3.63589c-0.29228,0.87684 -2.80318,1.55852 -3.34547,1.66683c-2.07944,0.41533 -4.14254,0.878 -6.2059,1.33549c-0.01815,0.60181 -0.05752,1.28189 -0.04615,2.10035z" fill="#000000" stroke-width="0.5"/><path d="M404.54839,203.02736c0,2.32288 -2.32288,2.32289 -2.32288,2.32289h-1.28181c-1.20817,0 -2.43017,-0.04536 -3.65259,-0.072c0,0.57095 0,1.1419 0,1.71285c1.69406,-0.15933 3.38959,-0.39908 5.1228,-0.75737c0.44355,-0.35507 1.78814,-1.21188 3.13272,0.13271c1.64252,1.64253 0,3.28506 0,3.28506l-1.49606,0.98247c-2.29111,0.50895 -4.52305,0.82492 -6.75947,1.01829c0,1.58548 0,3.17096 0,4.75644l-0.18539,0.61059c3.61095,-0.00939 7.21884,0.04549 10.80748,0.28473l1.53116,-0.00129c0,0 2.32288,0.00001 2.32288,2.32289c0,2.32288 -2.32288,2.32288 -2.32288,2.32288l-1.68576,-0.00128c-7.62406,-0.50827 -15.33562,-0.17743 -22.97726,-0.17743c0,0 -2.32288,0 -2.32288,-2.32288c0,-2.32288 2.32288,-2.32288 2.32288,-2.32288c2.55294,0 5.11364,-0.03653 7.67631,-0.06664c-0.03442,-0.50134 0.10138,-0.94744 0.18771,-1.1735c0,-1.32788 0,-2.65575 0,-3.98363c-1.17573,0.02996 -2.3644,0.04006 -3.5748,0.04006c0,0 -2.32288,0 -2.32288,-2.32288c0,-2.32288 2.32288,-2.32288 2.32288,-2.32288c1.21389,0 2.40166,-0.00917 3.5748,-0.03957c0,-0.61832 0,-1.23664 0,-1.85497c-0.94567,0.09838 -1.88106,0.25887 -2.79965,0.51271c0,0 -2.24445,0.59852 -2.84297,-1.64593c-0.59852,-2.24445 1.64593,-2.84296 1.64593,-2.84296c1.75599,-0.45501 3.5248,-0.65027 5.30505,-0.72566c-0.03521,-0.33315 -0.05385,-0.70995 -0.05385,-1.13424c0,-0.68914 1.33274,-1.96775 1.69851,-2.67507c0.97017,-1.87611 2.07587,-4.17217 2.3168,-6.28761c0.14835,-1.30262 0.05052,-2.74524 -0.18344,-4.10829c-0.41062,-0.26555 -0.73212,-0.65715 -0.90973,-1.12004c-0.14869,-0.23478 -0.21475,-0.49113 -0.15262,-0.77075c-0.00052,-0.02033 -0.00079,-0.04071 -0.00079,-0.06117c0,-0.2709 0.04637,-0.53097 0.13161,-0.77269c-0.19151,-0.38075 -0.33022,-0.73396 -0.24142,-0.91155c-0.00234,-0.04269 -0.00352,-0.08569 -0.00352,-0.12896c0,-1.28289 1.03999,-2.32288 2.32288,-2.32288c0.6238,-0.3912 1.18409,-0.05857 1.66538,0.61963c1.71916,-0.44212 3.70523,-0.44533 5.36873,-0.5063c1.86244,-0.06826 3.7398,-1.29433 5.3743,0.00041c2.4157,1.91356 1.92872,7.50806 2.01973,10.05979c0.00072,0.02014 0.66906,5.26677 -0.26983,6.90982c-1.34776,2.35858 -7.35213,0.55981 -6.80345,-2.18362c0.15303,-0.76516 0.90989,-1.30159 1.5375,-1.76528c0.24439,-0.18056 0.81646,0.24557 0.91055,-0.04335c0.01714,-0.05263 -0.03335,-2.49857 -0.14851,-4.77404c-0.43347,0.61356 -1.12671,0.8255 -1.5539,0.89871c0.14729,0.29143 0.22862,0.63667 0.22862,1.03988c0,1.36945 -3.17181,2.78945 -5.30838,3.21665c-0.52535,1.92264 -1.32878,3.77298 -2.33454,5.438c-0.23599,0.39067 -0.58663,0.87758 -0.99986,1.36532c0.79114,0.012 1.58427,0.02396 2.37926,0.02396h1.28181c0,0 2.32288,0 2.32288,2.32288zM408.13058,184.89609c-0.25835,-0.4067 -0.84419,-0.08055 -1.3904,0.12506c0.3005,0.02619 1.02868,0.14266 1.56204,0.66068c-0.05203,-0.40544 -0.10927,-0.68756 -0.17164,-0.78574zM402.17903,185.36426c0.05061,0.21768 0.09393,0.41727 0.12965,0.59173c0.94421,-0.2769 1.89354,-0.5369 2.85051,-0.76397c-0.99358,0.01048 -2.00607,-0.01545 -2.98016,0.17224z" fill="#000000" stroke-width="0.5"/><path d="M431.80882,203.07859c1.93275,1.2885 0.64425,3.22126 0.64425,3.22126l-0.25094,0.35996c-1.06391,1.92477 -2.75208,4.81737 -4.40149,6.26372l-0.82945,1.32712c-0.40645,0.67464 -1.14609,1.12586 -1.99112,1.12586c-1.28289,0 -2.32288,-1.04 -2.32288,-2.32289c0,-0.1577 0.01572,-0.31173 0.04567,-0.46061l0.34344,-1.88891c0.35267,-2.4363 0.23296,-4.21516 0.14818,-6.69259c-0.01929,-0.56367 -0.12942,-1.1536 -0.20855,-1.73757c-1.0609,0.89544 -2.05399,1.8161 -2.91852,3.03135c0,0 -1.36625,1.8786 -3.24485,0.51234c-1.8786,-1.36625 -0.51234,-3.24486 -0.51234,-3.24486c1.60325,-2.16766 3.38676,-3.55217 5.42043,-5.28529l1.88872,-2.06043c0.22984,-0.25247 0.51457,-0.45408 0.83533,-0.58597c-2.15493,-0.10918 -2.15493,-2.31869 -2.15493,-2.31869l0.20021,0.04982c-0.52682,-1.19322 -0.97557,-2.42311 -1.35327,-3.67157c0,0 -0.66747,-2.22492 1.55745,-2.89239c2.22492,-0.66747 2.89239,1.55744 2.89239,1.55744c0.31554,1.06229 0.69579,2.10836 1.14878,3.1197l0.20021,1.837c0,0 0,1.62745 -1.36223,2.1579c1.12808,0.11864 2.0156,1.04471 2.07403,2.1897l0.17777,3.02213l-0.01369,0.0008c0.00561,0.02245 0.01118,0.0449 0.0167,0.06737c0.3266,1.32922 -0.04766,2.73832 -0.00013,4.10625c0.01205,0.34658 0.02384,0.68401 0.03447,1.01457c0.08666,-0.14697 0.17053,-0.29555 0.25119,-0.44594l0.46393,-0.71234c0,0 1.2885,-1.93275 3.22125,-0.64425z" fill="#000000" stroke-width="0.5"/><path d="M453.50508,211.23923c0.56338,2.25352 -1.69014,2.81691 -1.69014,2.81691l-0.77435,0.19276c-5.24738,1.14477 -10.88159,0.59146 -16.23105,0.59146c0,0 -2.32288,0 -2.32288,-2.32288c0,-2.32288 2.32288,-2.32289 2.32288,-2.32289c1.08407,0 2.18725,0.02972 3.30013,0.06476c-0.09528,-0.39793 -0.28254,-1.59789 0.67219,-2.36585c1.08576,-7.09855 2.26597,-14.2559 -0.0996,-21.27039c0,0 -0.73456,-2.20368 1.46912,-2.93824c2.20368,-0.73456 2.93824,1.46912 2.93824,1.46912c1.28242,3.88495 1.64405,7.76332 1.54067,11.64911c0.11674,-0.01234 0.18744,-0.01233 0.18744,-0.01233c2.97863,0 5.95725,0 8.93587,0l0.19841,4.70528c0,0 -0.90153,0.30051 -1.74354,-0.05952c-2.46359,0 -4.92716,0 -7.39074,0c0,0 -0.20619,0 -0.49572,-0.06143c-0.30536,2.98882 -0.77947,5.98525 -1.21621,8.99563c2.35728,-0.00644 4.69549,-0.14977 6.92698,-0.65698l0.65539,-0.16468c0,0 2.25352,-0.56338 2.8169,1.69015z" fill="#000000" stroke-width="0.5"/><path d="M472.49918,191.9852c0.13329,2.51691 0.69017,9.84048 -0.16809,10.69874c-5.78046,5.78046 -4.35237,-7.23843 -4.3554,-7.45138c-0.01198,-0.84088 -0.03985,-1.71465 -0.13783,-2.57001c-0.2842,0.16243 -0.55541,0.30584 -0.80776,0.42828c-0.44337,0.21513 -3.60904,1.99858 -4.44231,1.72082c-2.42654,-0.80885 -2.81489,-2.92567 -0.90897,-4.41501c1.62514,-1.26994 3.969,-1.48887 5.59188,-2.94817c0.65549,-0.58942 1.83467,-1.54507 2.14732,-2.39947c0.09176,-0.25075 0.33829,-2.4108 0.88262,-2.584l1.70975,-0.75043c0.66183,0.47724 1.69599,0.68807 2.10775,1.34525c0.05131,0.08189 0.09296,0.17072 0.12301,0.26784c0.66514,2.14945 -0.58013,4.36712 -2.33544,6.18821c0.13412,0.28007 0.21376,0.59119 0.22521,0.91965c0.20652,0.48813 0.33995,1.01534 0.36825,1.54968z" fill="#000000" stroke-width="0.5"/><path d="M490.12496,182.97788c0.70781,0.38575 2.26934,0.96854 2.50345,1.73222c0.58936,1.92254 -0.86879,9.70396 -4.4789,8.50059c-1.61513,-0.53838 -1.81079,-1.95898 -1.40164,-3.18644c0.15728,-0.47183 1.90566,-3.01844 1.00371,-3.05255c-2.19804,-0.08311 -3.94741,1.81045 -5.77212,2.45225c-0.03695,0.01299 -0.07758,0.02872 -0.12126,0.04638c-0.1861,0.10827 -0.38861,0.19142 -0.60289,0.24482c-0.01276,0.00318 -0.02555,0.00625 -0.03838,0.00922c-0.28355,0.63067 -0.5806,1.20712 -0.86621,1.69928c-0.48041,0.82783 -1.85055,3.43139 -3.078,3.43139c-2.19004,0 -2.87442,-0.68438 -2.87442,-2.87442c0,-1.27667 2.41201,-3.55451 2.8882,-4.83911c0.36422,-0.98254 0.383,-3.2459 0.48995,-4.76256c-0.01249,-0.09752 -0.01892,-0.19694 -0.01892,-0.29787c0,-0.29854 0.05632,-0.58392 0.15891,-0.84611c0.33827,-0.86449 1.17962,-1.47677 2.16397,-1.47677c0.75594,0 1.42753,0.36109 1.85171,0.9202c0.06923,0.07152 0.13018,0.15125 0.18081,0.24124c0.39661,0.70506 0.5831,1.54145 0.61615,2.44085c2.47291,-1.14116 5.40885,-1.46553 7.39587,-0.38261z" fill="#000000" stroke-width="0.5"/><path d="M464.55174,204.21281c0.73167,0.73167 2.13817,1.25071 2.31932,2.19311c0.01781,0.09265 0.02377,0.1894 0.01609,0.29084c-0.00787,0.10391 -0.03056,0.21786 -0.06669,0.33993c-0.07374,0.33547 -0.22,0.64376 -0.4215,0.9076c-1.15094,1.92657 -4.04603,4.50338 -5.66012,3.53493c-0.66912,-0.40147 -1.43047,-0.93312 -1.61973,-1.69015c-0.18926,-0.75702 0.23233,-1.58441 0.6338,-2.25352c0.31782,-0.5297 1.37107,-0.49679 1.79763,-1.03918c0.28062,-0.35681 1.53556,-2.08338 1.98915,-2.0521z" fill="#000000" stroke-width="0.5"/><path d="M475.73988,203.76953c0.92865,-0.52238 1.80248,-0.19158 2.75737,-0.16808c1.28614,0.03163 2.59441,-0.3614 3.86039,-0.16759c-1.27711,-0.35793 -2.64374,0.22763 -2.64374,-2.27818c0,-0.78032 0.60967,-1.48075 1.16144,-2.03252c0.45195,-0.45195 1.89167,0.34887 1.89538,-0.29028c0.0029,-0.49973 -0.10546,-1.0658 -0.27188,-1.65036c-0.43886,0.44851 -0.89416,0.8293 -1.05176,1.00061c-1.3572,1.47536 -2.70009,5.16067 -5.46746,3.31576c-2.91237,-1.94158 1.36603,-5.75537 2.83885,-7.25725c0.41493,-0.42311 1.36806,-1.64598 2.11115,-1.27443c0.04269,-0.00233 0.08569,-0.00352 0.12896,-0.00352c0.0001,0 0.00021,0 0.00031,0c0,-0.0001 0,-0.0002 0,-0.0003c0,-1.28289 1.03999,-2.32288 2.32288,-2.32288c0.22285,0 0.43837,0.03138 0.64238,0.08997c0.28515,0.06631 0.56154,0.19613 0.81342,0.39968c0.71756,0.57987 1.27342,1.63849 1.68309,2.86861c0.11649,-0.04875 0.2378,-0.08829 0.36302,-0.11769c0.43137,-0.2397 0.82954,-0.17799 1.28611,0.06331c0.38896,0.13322 0.73137,0.36677 0.99631,0.66978c0.34122,0.25294 0.72451,0.54142 1.16931,0.83959c0.53641,0.35959 1.61003,0.81152 1.74291,1.47592c0.70593,3.52965 -2.60952,3.73662 -4.65346,2.41763c0.01301,0.48596 0.00198,0.92164 -0.03175,1.28097c-0.28814,3.06956 -1.67964,3.7902 -4.0945,3.11019c0.97661,0.53943 1.32598,1.63912 1.08012,2.6541c1.9285,0.6573 3.79465,3.76703 2.14543,5.69112c-0.65512,0.76431 -1.92722,0.75306 -2.85109,1.00148c-4.13622,1.11221 -9.3197,1.56475 -13.19062,-0.68135c-1.20826,-0.7011 -3.23664,-3.56259 -2.80002,-5.16354c-0.04804,-0.18608 -0.07359,-0.3812 -0.07359,-0.58229c0,-1.28289 1.03999,-2.32289 2.32288,-2.32289c0.00232,0 0.00465,0.00001 0.00698,0.00002c0.17854,-0.01896 0.37868,-0.00017 0.60897,0.06439c2.78404,0.78046 0.94373,3.86106 3.71771,4.52038c0.33333,0.07923 0.66879,0.174 1.01126,0.18386c1.79003,0.05156 3.58166,0.02119 5.3723,0c0.24496,-0.0029 0.70953,0.09717 0.71996,-0.14758c0.00637,-0.14931 0.02626,-0.30104 0.05851,-0.45256c-1.04044,0.01662 -2.17845,-0.23231 -3.18574,-0.2881c-0.1923,-0.01065 -0.85398,-0.02528 -1.45331,-0.09325c-0.1519,-0.00727 -0.29998,-0.02913 -0.44286,-0.06421c-1.0145,-0.24909 -1.7671,-1.16464 -1.7671,-2.25597c0,-0.75593 0.36109,-1.42753 0.9202,-1.85172c0.07151,-0.06923 0.15125,-0.13019 0.24124,-0.18081z" fill="#000000" stroke-width="0.5"/><path d="M486.0721,205.80205c0.7142,-0.7142 1.1731,-2.09067 2.08514,-2.31087c0.09109,-0.022 0.1867,-0.03245 0.28754,-0.02956c1.79947,0.05152 5.44794,2.64336 5.01601,4.37108c-0.81034,3.24139 -4.25942,1.26386 -5.75231,0.26637c-0.39557,-0.26431 -1.36488,-0.69453 -1.3544,-1.18682z" fill="#000000" stroke-width="0.5"/><path d="M235.47408,266.36085c-1.2885,1.93275 -3.22126,0.64426 -3.22126,0.64426l-0.44736,-0.3198c-1.97054,-0.98757 -4.43143,-1.49974 -6.25975,-2.68044c-1.5093,-0.97468 -2.11363,-2.28686 -3.03569,-3.74239c0,0 -0.05925,-0.0948 -0.13096,-0.2558c-0.15082,0.33981 -0.30919,0.67605 -0.47621,1.00813c-0.65363,1.29953 -1.6633,2.38693 -2.49228,3.58226l-1.94507,1.43611c0,0 -1.8902,1.35014 -3.24035,-0.54006c-1.35015,-1.8902 0.54006,-3.24036 0.54006,-3.24036l1.30777,-0.88735c0.85084,-1.36063 1.53912,-2.74421 2.13161,-4.15129c-0.64641,0.42257 -1.3922,0.42257 -1.3922,0.42257l-2.55523,-2.32289c0,-4.16481 -0.6868,-7.94842 -1.14752,-12.05783c0,0 -0.25652,-2.30867 2.05215,-2.56519c2.30867,-0.25652 2.56519,2.05215 2.56519,2.05215c0.00475,0.04321 0.00953,0.08638 0.01433,0.12952c0.33409,-0.57854 0.84447,-0.90334 0.84447,-0.90334c0.42862,-0.27217 0.88737,-0.56515 1.36978,-0.863c-0.46075,-1.09016 0.26803,-2.18332 0.26803,-2.18332l0.92938,-1.39407c0.40084,-0.58078 0.89053,-1.10938 1.20252,-1.74235c0.14874,-0.30177 0.19433,-0.64535 0.25957,-0.98014c-1.25668,0.78436 -3.65415,1.30793 -4.31181,1.54709c0,0 -1.2206,0.44386 -2.16828,-0.24492c-0.83122,0.53855 -1.68631,1.02149 -2.53901,1.446l-1.47443,1.06191c0,0 -1.02788,0.73419 -2.10909,0.36178c0.09314,0.47847 0.03797,0.86467 0.03797,0.86467c-0.74076,4.68603 -3.50831,7.52858 -6.27996,11.09534c-0.28436,0.36593 -0.5693,0.72605 -0.85538,1.08067c0.27046,3.57733 0.00486,7.32551 -0.86265,10.77464c-0.48109,1.13245 -1.5014,3.92068 -2.62477,4.3893c-1.0827,0.45165 -3.84401,-0.4495 -5.14233,-0.82063l-2.13917,-0.71247c0,0 -1.66955,-0.55651 -1.61785,-2.15395c-2.36197,1.88525 -4.41125,3.60404 -7.87082,3.66723h-0.23234c0,0 -2.32289,0 -2.32289,-2.32288c0,-2.32288 2.32289,-2.32288 2.32289,-2.32288h0.23234c2.40305,0.07391 4.06143,-1.72391 5.82584,-3.26078c-4.17496,0.74135 -8.38117,1.31307 -12.50625,2.27075c0,0 -2.2634,0.52232 -2.78572,-1.74108c-0.52232,-2.2634 1.74107,-2.78572 1.74107,-2.78572c1.88899,-0.43351 3.79435,-0.78724 5.70539,-1.11482c-0.04628,-0.18288 -0.07087,-0.3744 -0.07087,-0.57167v-1.62642c0,0 0,-0.66157 0.35306,-1.27859c0.58986,-4.65095 0.38873,-9.1984 -0.12094,-13.81567c-0.0828,-0.06686 -0.1658,-0.14148 -0.24881,-0.22448c-1.64253,-1.64253 0,-3.28505 0,-3.28505l0.83605,-0.66747c2.95686,-1.47176 5.63191,-3.42665 8.48411,-5.05133c0.75499,-0.43006 1.64926,-0.59017 2.38424,-1.0536c1.26247,-0.79604 2.57924,-2.63196 3.63046,-3.68318c0,0 1.64252,-1.64253 3.28505,0c1.64253,1.64253 0,3.28505 0,3.28505c-1.27897,1.27897 -2.77221,3.22862 -4.26931,4.21659c-0.83701,0.55236 -1.85733,0.77119 -2.72738,1.26987c-2.30342,1.32022 -4.50543,2.82815 -6.81815,4.15217c0.02418,0.21255 0.04775,0.42492 0.07069,0.63714c1.55571,-0.92244 3.06376,-1.60539 5.10846,-2.10744c1.52523,-0.3745 3.08978,-0.88657 4.65333,-0.7387c0.90711,0.08578 1.74895,0.55063 2.54963,0.9855c3.83058,2.08048 4.15001,5.56137 4.36721,9.34498c1.58877,-1.8992 3.03231,-3.8423 3.34669,-6.48739c0,0 0.32851,-2.29954 2.62804,-1.97103c0.14563,0.0208 0.28073,0.04952 0.40603,0.08505c-0.45176,-1.47275 0.93582,-2.46387 0.93582,-2.46387l1.77841,-1.26155c3.10554,-1.55917 7.88379,-4.64084 7.70443,-8.46555c0,0 0,-2.32288 2.32288,-2.32288c2.32288,0 2.32288,2.32288 2.32288,2.32288c-0.04582,1.76423 -0.55067,3.39647 -1.3702,4.88122c1.33426,-0.32794 2.59094,-0.41507 3.44646,0.06882c3.27591,1.85289 1.91101,5.65147 0.4317,8.32899c1.85726,-0.35491 3.70616,-0.12085 5.32015,1.25885c1.74732,1.49367 1.44612,3.26742 1.46574,5.21155c0.02622,2.5977 -0.23764,4.66619 -0.74215,7.1936l-0.80971,1.52999c0,0 -1.2885,1.93275 -3.22126,0.64425c-1.93275,-1.2885 -0.64425,-3.22126 -0.64425,-3.22126l0.11967,0.13591c0.45991,-2.29493 0.62024,-3.92924 0.65193,-6.28249c0.0079,-0.58671 0.58797,-1.48003 0.07167,-1.75883c-1.9933,-1.07639 -5.8092,1.90867 -7.18962,2.78918c0,0 -1.78426,1.13544 -3.03117,-0.46302c0.36891,2.91647 0.75556,5.75265 0.83805,8.74118c0.10195,0.20007 0.17852,0.43419 0.21814,0.70815c0.88637,-2.50322 1.59242,-5.07911 2.47409,-7.73072c0,0 0.73456,-2.20368 2.93823,-1.46912c2.20368,0.73456 1.46912,2.93824 1.46912,2.93824c-0.89952,2.69128 -1.54049,5.53966 -2.43167,8.2791c1.79041,-0.85923 2.89482,0.90783 2.89482,0.90783c0.04781,0.07782 1.08963,2.00833 1.61124,2.29861c1.78909,0.99566 3.95661,1.50032 5.82225,2.43118l0.94672,0.60958c0,0 1.93275,1.2885 0.64425,3.22125zM193.61529,261.24224l2.04307,0.6816c0.393,0.11223 1.04756,0.22945 1.46765,0.43437c0.12762,-0.3615 0.36999,-0.69322 0.52379,-1.04793c0.33946,-1.36953 0.51432,-2.74151 0.58205,-4.11523c-1.45697,1.41818 -3.00099,2.75053 -4.68733,4.02657c0.0457,0.01226 0.07078,0.02062 0.07078,0.02062zM197.53112,245.43863c-0.08243,-1.48062 -0.25799,-5.50735 -2.77525,-5.47032c-1.82762,0.02688 -3.61162,0.57402 -5.28489,1.36041c0.34561,0.01789 0.70616,0.0486 1.0861,0.09181l1.80007,0.50715c0,0 2.23351,0.63815 1.59536,2.87165c-0.63815,2.23351 -2.87165,1.59536 -2.87165,1.59536l-1.45279,-0.42223c-1.57849,-0.231 -2.43633,0.0376 -3.71154,0.66403c-0.00215,0.79185 -0.02014,1.58456 -0.05587,2.37898c1.47103,-0.18254 2.88996,-0.20678 4.46426,-0.20678l2.12864,0.5839c0,0 2.20368,0.73456 1.46912,2.93824c-0.20793,0.6238 -0.53358,1.01215 -0.89364,1.24838c0.07259,-0.01794 0.14516,-0.03602 0.2177,-0.05423l0.92938,-0.23235c0,0 0.6574,-0.16435 1.35082,0.03956c0.84188,-0.84653 1.65393,-1.72705 2.45104,-2.64955c-0.16151,-1.74739 -0.34955,-3.49586 -0.44687,-5.244zM190.98444,253.79994l-0.65952,-0.34549c-1.74092,0 -3.2281,-0.01216 -4.90205,0.3228l-0.16756,1.34046c2.12947,-0.35643 4.25534,-0.73393 6.36286,-1.20645c-0.37253,-0.02426 -0.63373,-0.11132 -0.63373,-0.11132z" fill="#000000" stroke-width="0.5"/><path d="M245.96841,233.26831c1.88032,-0.34223 4.12755,-0.7859 5.99595,-0.95036c0.66487,-0.05852 1.33923,-0.06817 2.00231,0.00803c0.22581,0.02595 0.51328,0.49571 0.61579,0.29285c0.13533,-0.26782 -0.33259,-0.53231 -0.34324,-0.83219c-0.02093,-0.58909 0.12699,-1.17424 0.2515,-1.75039c0.1062,-0.49146 0.29185,-0.96231 0.4386,-1.44321c0.03817,-0.1251 0.24696,-0.37387 0.11617,-0.37479c-0.20176,-0.0014 -0.28051,0.32767 -0.47729,0.37228c-3.31649,0.75167 -6.61099,1.24026 -9.90382,2.22839c0,0 -0.04039,0.01211 -0.11191,0.02764c0.24792,0.82881 0.47976,1.66339 0.68526,2.51273zM243.32943,226.36907c3.4928,-1.04755 7.3151,-2.49155 11.00734,-2.41854c1.08697,0.02149 2.3919,-0.30763 3.24025,0.37228c2.87806,2.30662 1.86599,5.22135 1.27097,8.04892c-0.23654,1.12408 -0.01385,2.52002 -0.80794,3.35003c-0.86874,0.90804 -2.3376,0.95915 -3.56644,1.22224c-0.71054,0.15213 -1.45593,-0.05412 -2.17991,0.00803c-1.50894,0.12954 -4.07836,0.62815 -5.62136,0.90841l-1.92262,0.24123c0,0 -1.69974,0.21247 -2.36241,-1.18715l-1.15463,0.1401c-0.55996,-4.00536 -1.98778,-7.42884 -3.17347,-11.26269c0,0 -0.68312,-2.22017 1.53704,-2.90329c2.22016,-0.68312 2.90328,1.53704 2.90328,1.53704c0.2084,0.68114 0.4233,1.35135 0.63956,2.01515c0.11661,-0.04961 0.19035,-0.07174 0.19035,-0.07174z" fill="#000000" stroke-width="0.5"/><path d="M262.35284,262.74888c0,-2.32288 2.32288,-2.32288 2.32288,-2.32288l2.27954,0.43268c0.04958,0.11527 0.09519,0.2159 0.13574,0.30266c0.65314,-1.0983 1.09923,-2.31245 1.35971,-3.57022c0.19108,-0.92262 0.25279,-1.87009 0.46469,-2.78815c0.22305,-0.96632 0.46262,-1.93377 0.79237,-2.86896c-1.68587,0.42072 -3.97684,-0.43597 -5.62412,-0.13061c-2.87681,0.53328 -5.67786,1.47442 -8.61481,1.86134c-0.86967,0.11458 -1.77298,0.47245 -2.62014,0.24491c-1.52341,-0.40917 -3.36535,-0.7805 -4.24612,-2.0891c-0.30346,-0.45087 1.04349,-4.29523 1.32275,-5.14109c0,0 0.73456,-2.20368 2.93824,-1.46912c2.20368,0.73456 1.46912,2.93824 1.46912,2.93824c-0.11012,0.32767 -0.17384,0.68068 -0.2521,1.02575c0.27283,-0.04641 0.54214,-0.07863 0.74961,-0.11125c0.89759,-0.14115 1.79521,-0.28353 2.6887,-0.44869c1.98502,-0.36693 3.89995,-1.06961 5.89012,-1.40751c0.65623,-0.11142 1.37781,-0.15037 2.11814,-0.15288c0.16857,-0.40315 0.38457,-0.66235 0.38457,-0.66235l0.91695,-1.03742c0.2428,-0.76906 0.46722,-1.54417 0.72841,-2.30719c0.19855,-0.58003 1.29435,-1.86011 0.70265,-1.6997c-1.80389,0.48901 -3.79834,0.2682 -5.64791,0.47525c-4.23298,0.47385 -8.29683,1.40016 -12.57392,1.40863c0,0 -2.32288,0 -2.32288,-2.32288c0,-2.32288 2.32288,-2.32288 2.32288,-2.32288c4.49337,0.01001 8.90602,-1.16618 13.37024,-1.54371l-1.05531,-1.94207c0,-3.58166 0.07265,-7.04129 -0.44135,-10.59176c0,0 -0.3285,-2.29953 1.97103,-2.62804c2.29953,-0.32851 2.62804,1.97103 2.62804,1.97103c0.02709,0.19195 0.05268,0.3836 0.07687,0.57499c3.11539,-1.02361 7.11983,-2.213 10.19141,-1.62611c1.23436,0.23585 2.72202,0.29154 3.56644,1.22224c0.83153,0.91649 0.75482,2.38392 0.82632,3.61935c0.15895,2.74649 -0.39973,4.66107 -2.8493,6.25144c-0.72855,0.47301 -1.71076,0.30329 -2.56221,0.47517c-2.82171,0.56961 -5.5632,0.91868 -8.31608,1.7668c-0.07262,0.26359 -0.20774,0.53752 -0.42902,0.8139c0.07216,0.00311 0.14433,0.00656 0.21653,0.01036c2.82774,0.14883 4.65773,-0.31617 5.53496,3.516c0.27762,1.21276 -1.15319,5.10554 -1.73939,6.74437c1.35469,0.08688 2.49092,0.46376 3.43662,2.267c0.47375,0.90333 0.08038,2.05184 -0.08112,3.059c-0.32861,2.04942 -0.96624,4.03759 -1.39986,6.06738c-0.49152,2.30079 -1.39828,4.08883 -2.71461,6.01097c-1.02468,0.53648 -1.91743,1.60648 -3.07405,1.60943c-1.11453,0.00284 -1.95941,-1.06273 -2.93912,-1.5941l0.42076,0.43268c0,0 -2.32288,-0.00001 -2.32288,-2.32289zM274.96718,229.79038c0.38142,-0.05331 0.78788,0.12581 1.15533,0.01047c0.68417,-0.21474 0.27137,-1.40825 0.40355,-2.11303c0.04111,-0.21919 0.51448,-0.40048 0.36163,-0.56287c-0.15578,-0.1655 -0.39013,0.26568 -0.61579,0.29285c-0.60117,0.07238 -1.21519,-0.071 -1.81653,0c-2.51051,0.2964 -5.02439,0.95318 -7.41868,1.75343c0,0 -0.03238,0.0108 -0.09059,0.02584c0.02486,0.74846 0.03838,1.49724 0.04559,2.24842c2.5779,-0.8282 5.30201,-1.28145 7.97549,-1.65512z" fill="#000000" stroke-width="0.5"/><path d="M260.4613,257.72008c0.38188,2.29127 -1.9094,2.67316 -1.9094,2.67316l-1.3204,0.21884c-2.36654,0.47005 -2.73131,0.63137 -5.22957,0.73976c-2.6361,0.11437 -5.28319,-0.39582 -7.83158,0.3777c0,0 -2.23351,0.63815 -2.87166,-1.59536c-0.63815,-2.2335 1.59537,-2.87166 1.59537,-2.87166c4.34285,-1.1886 8.96683,-0.30726 13.42632,-1.20599l1.46776,-0.24585c0,0 2.29127,-0.38188 2.67316,1.9094z" fill="#000000" stroke-width="0.5"/><path d="M295.37562,258.96723c-0.09692,-0.58153 -0.02165,-1.04006 0.14465,-1.40058c-0.93775,-0.5827 -1.05831,-1.78836 -1.05831,-1.78836l-0.11962,-1.44986c-0.78623,-1.83476 -1.77708,-3.39304 -2.91299,-4.98884c-3.46749,1.11923 -7.08187,1.86027 -10.66282,2.26112l-1.50755,0.01421c0,0 -2.32288,0 -2.32288,-2.32288c0,-2.32288 2.32288,-2.32288 2.32288,-2.32288l0.99451,0.01421c3.00171,-0.33077 5.87844,-0.96759 8.68443,-1.83759c-1.07885,-0.27518 -2.16777,-0.51098 -3.30319,-0.71703c0,0 -2.28542,-0.41553 -1.86989,-2.70094c0.41553,-2.28542 2.70095,-1.86988 2.70095,-1.86988c2.51971,0.45894 4.85451,1.05982 7.28902,1.86891l1.26217,1.15805c0.90548,-0.38878 1.80756,-0.79732 2.70821,-1.22296c1.83587,-0.86763 3.16028,-2.06859 4.09942,-3.91253c0.31041,-0.60949 0.2232,-1.35372 0.37534,-2.02097c-0.42332,0.03404 -0.98289,-0.02022 -1.31612,-0.01937c-1.83655,0.00467 -3.67057,0.17155 -5.49874,0.34698c0,0 -0.49998,0.04761 -1.05711,-0.13392c-2.51249,1.58041 -5.38125,2.69949 -8.07931,3.59953l-2.00527,-0.17872c0,0 -2.20368,-0.73456 -1.46912,-2.93824c0.58696,-1.76088 2.11196,-1.64569 2.70112,-1.5283c5.40738,-1.89855 9.44611,-4.53222 12.07975,-9.85646c0,0 1.03883,-2.07765 3.11648,-1.03883c2.07765,1.03883 1.03882,3.11648 1.03882,3.11648c-0.64633,1.28111 -1.35422,2.61052 -2.18233,3.8458c1.20725,-0.07898 2.39221,-0.07457 3.37177,0.13121c1.12552,0.23644 2.4775,0.26624 3.27048,1.09924c0.7498,0.78764 0.67838,2.08367 0.78937,3.16547c0.37256,3.6311 -2.3484,7.26239 -5.01553,9.35675c2.90683,-0.44268 5.8424,-0.08508 8.57783,1.73721c0.85967,0.57269 1.80466,1.13921 2.35656,2.01237c0.50425,0.79776 0.46101,1.83085 0.65625,2.7542c0.26139,1.23627 0.83493,3.92273 0.13237,5.06261c-1.7324,2.81076 -4.79985,2.69805 -7.5824,3.18547c-2.27265,0.3981 -4.50639,0.5855 -6.73442,1.19974l-1.30162,0.22897c0,0 -2.29127,0.38187 -2.67316,-1.9094zM305.33356,254.8633c1.40902,-0.22058 3.38378,0.41406 4.21296,-0.74631c0.08016,-0.11218 -0.21607,-0.19433 -0.25315,-0.32712c-0.16043,-0.57453 -0.25122,-1.1676 -0.32935,-1.75897c-0.21589,-1.63411 -0.81484,-1.89734 -2.59398,-2.51281c-2.90371,-1.00451 -5.98697,0.08019 -8.5953,1.33357c0.38043,0.74524 0.73609,1.51877 1.07211,2.33988l0.23782,2.12449c0,0 0.02608,0.26082 -0.0269,0.61599c2.07539,-0.48436 4.15511,-0.73672 6.27579,-1.06871z" fill="#000000" stroke-width="0.5"/><path d="M321.71094,253.4284c-2.32288,0 -2.32288,-2.32288 -2.32288,-2.32288c0,-7.1667 0,-14.91448 0,-22.08117c0,0 0,-2.32289 2.32288,-2.32289c2.32288,0 2.32288,2.32289 2.32288,2.32289c0,7.1667 0,14.33339 0,21.50009v0.58109c0,0 0,2.32288 -2.32288,2.32288z" fill="#000000" stroke-width="0.5"/><path d="M323.32867,268.49147c-2.27778,0.45556 -2.73333,-1.82222 -2.73333,-1.82222l-0.61489,-3.13208c-0.00377,-0.65738 -0.00754,-1.31476 -0.0113,-1.97214c0,0 0,-2.32288 2.32288,-2.32288c2.32288,0 2.32288,2.32288 2.32288,2.32288c-0.00377,0.50479 -0.00754,1.00957 -0.0113,1.51436l0.54728,2.67876c0,0 0.45556,2.27777 -1.82222,2.73332z" fill="#000000" stroke-width="0.5"/><path d="M70.83616,315.76746l2.03071,0.03769c1.20622,0.22025 2.551,0.05777 3.61867,0.66075c5.09931,2.87989 4.80239,5.85142 4.0927,10.81927c0.01323,5.41253 0.02951,10.82576 0.00943,16.23829c-0.01011,2.72492 0.21145,5.93331 -1.54442,8.3093c-2.81598,3.81049 -9.5204,2.9404 -13.4584,2.94258c-1.95965,0.00108 -3.94841,-0.37028 -5.87884,-0.03318c-6.21621,1.08551 -14.78268,3.86323 -18.59095,-3.40704c-0.19913,-0.38015 -0.2631,-2.25511 -0.28183,-4.02186c-0.4974,0.12181 -0.89468,0.21285 -1.11642,0.25673c-6.81165,1.3479 -15.00669,2.51935 -17.87166,-5.63837c-1.15275,-3.28233 0.45309,-7.35539 0.6143,-10.67699c0.17005,-3.50371 0.37485,-7.1013 0.36566,-10.61188c0,0 0,-3.75 3.75,-3.75c0.98675,0 1.71385,0.25964 2.24963,0.64229c1.61766,-0.58573 3.19718,-1.10368 4.79241,-1.57804c-0.27066,-2.33027 -1.04522,-4.50502 -1.36201,-7.06597c-0.19134,-1.54685 -1.21762,-3.17006 -0.6668,-4.62813c2.2977,-6.08224 4.44467,-3.79399 8.94633,-4.5643c1.05297,-0.18018 1.94729,-0.94803 3.00075,-1.12528c0.47923,-0.08063 7.73588,-0.06018 8.17097,-0.06018c5.07151,0 11.39099,-0.19241 14.94937,4.43096c1.64467,2.1369 1.54555,5.19008 1.90082,7.86311c0.24083,1.81195 0.55535,3.52394 0.79512,5.25865c0.79072,-0.2984 1.48447,-0.29839 1.48447,-0.29839zM48.32961,344.27364c0,1.40035 -0.23503,2.7919 -0.28545,4.19134c-0.03046,0.84537 1.6917,-0.03062 2.53695,-0.06437c3.89992,-0.15569 7.37257,-1.10656 11.25281,-1.12529c2.68839,-0.01297 5.37818,0.08938 8.06527,0.00466c1.07718,-0.03397 2.97987,0.98486 3.23253,-0.06282c0.44974,-1.86496 -0.04404,-4.83193 -0.04404,-6.69446c0,-4.58976 -0.00043,-9.17946 0.00943,-13.76921c0.1636,-1.14515 0.76735,-2.23909 0.7197,-3.39489c-0.02766,-0.671 -1.34003,-0.0921 -2.01059,-0.12884l-0.97004,0.03769c0,0 -0.50476,0 -1.1439,-0.18519c0.00276,0.90834 -0.07588,1.78824 -0.54238,2.53271c-2.58128,4.11937 -8.17296,2.93126 -11.96661,3.60555c-2.0535,0.365 -4.00865,1.20569 -6.07185,1.51111l-0.90608,0.01419c-0.00014,0.63329 -0.00028,1.26659 -0.00028,1.8999c0,4.28179 0.72208,7.97482 -1.90362,11.25287c0.02815,0.23125 0.02815,0.37504 0.02815,0.37504zM59.24659,321.78411c1.10242,-0.10215 2.16528,-0.53627 3.27173,-0.57273c-0.10285,-0.18951 -0.20531,-0.37924 -0.30837,-0.56864c0.00487,-2.36953 0.11074,-3.34331 -0.31596,-5.71328c-0.20341,-1.12977 -0.31334,-6.36939 -1.13097,-7.34577c-1.38443,-1.65322 -4.63565,-1.5908 -6.43098,-1.57054c-3.0124,0.034 -6.51991,-0.60855 -9.45844,-0.06018c-1.79818,0.33557 -3.65571,1.15638 -5.44896,1.04532c0.10278,0.20486 0.17784,0.42437 0.22512,0.63999c0.44755,2.04104 0.87228,4.00483 1.16551,6.00272c0.15376,-0.03433 0.31001,-0.05687 0.46957,-0.06392c2.25372,-0.09958 4.88048,-0.56073 6.72783,0.73406c1.61293,1.13049 1.44286,3.66555 2.16429,5.49833c0.00941,1.15914 0.0158,2.31825 0.02009,3.47735c3.1326,-0.43876 5.88476,-1.20945 9.04953,-1.5027zM30.2545,325.05118c-0.09968,3.20493 -0.3147,6.42462 -0.70944,9.56721c-0.12726,1.0131 -1.26584,5.30023 0.03547,6.28409c1.21307,0.91713 3.04784,0.14792 4.56224,0.00903c2.00463,-0.18385 6.30131,-0.64479 8.27501,-1.57749c0.89713,-0.42395 0.29841,-2.19038 0.2873,-2.56225c-0.04111,-1.37473 0,-2.75069 0,-4.12604c0,-3.97343 -0.01581,-7.94669 0.0281,-11.9199c1.79151,-1.35773 -2.6875,1.25833 -2.8829,1.30746c-3.25326,0.81797 -6.13601,1.67181 -9.3328,2.87086z" fill="#00ceff" stroke-width="0.5"/><path d="M132.7257,309.01482c0,3.75 -3.75,3.75 -3.75,3.75l-1.41034,-0.02896c-3.33291,0.40909 -6.6691,0.17163 -9.97796,0.72843c-4.19615,0.7061 -8.00552,1.91285 -12.09462,2.4301c0.21137,0.752 0.41264,1.50622 0.55285,2.2722c0.83366,4.55437 0.42613,9.65626 0.41777,14.27177l0.3579,3.1691c0,0 0.41412,3.72706 -3.31295,4.14119h0.00001c-3.72706,0.41412 -4.14118,-3.31295 -4.14118,-3.31295l-0.3923,-3.58258c-0.00693,-4.32718 0.48813,-9.23327 -0.33241,-13.48516c-0.17995,-0.93246 -0.43009,-1.85122 -0.68025,-2.76962c-2.02792,0.43941 -4.06493,0.81787 -6.12275,1.0241c0,0 -3.73139,0.37314 -4.10453,-3.35825c-0.37314,-3.73139 3.35825,-4.10452 3.35825,-4.10452c7.75412,-0.77364 15.07127,-3.74408 22.87877,-3.76955h0.37509c0,0 0.08522,0 0.22997,0.01285c0.58836,-0.12392 1.18144,-0.23808 1.78099,-0.33723c3.43269,-0.56765 6.83774,-0.33296 10.27711,-0.77195l2.3406,-0.02896c0,0 3.75,0 3.75,3.75z" fill="#000000" stroke-width="0.5"/><path d="M113.29601,325.27572l-0.16042,-0.40105l-0.01524,-0.11173l-0.06054,-0.09514l-0.13004,-0.39012l-0.41434,-0.82868l-0.03657,-0.0209l-0.02612,-0.10449l-0.04673,-0.09346l-0.18692,-0.84113l-0.20898,-0.83592v-0.10449l-0.02336,-0.10514l0.02336,-0.03505v-0.39828l0.46875,-1.875l0.12857,-0.07346l0.00821,-0.14784l1.2366,-1.05994l0.01631,-0.04117l0.06045,-0.02463l0.15406,-0.13205l0.42863,-0.21431l0.58845,-0.13077l0.55827,-0.22744l1.39717,-0.19959l0.96952,-0.1939l0.37308,0.01776l0.36236,-0.09059h7.71539l0.50744,0.12686l0.52276,0.01743l1.50021,0.42863l1.67409,0.96582l0.12434,0.50626l0.45262,0.25864l0.46875,1.875v2.39189l0.14352,0.43053l0.03069,0.01754l0.02612,0.10449l0.04673,0.09346l0.18691,0.84113l0.20898,0.83592v0.10449l0.02336,0.10514l-0.02336,0.03505v1.68417l-0.46875,1.875l-0.3792,0.21668l-0.08565,0.42825l-0.58937,0.37506l-0.05358,0.2679l-1.63055,1.03762l-0.39012,0.13004l-0.40005,0.20002l-0.0209,0.03657l-0.10449,0.02613l-0.09346,0.04672l-0.84113,0.18692l-0.83592,0.20898h-0.10449l-0.10515,0.02337l-0.03504,-0.02337h-5.43524v1.50128h2.03654l0.44787,0.11196h0.46164l0.4094,0.10236h4.36048l0.7501,-0.42864l1.33353,0.76202l0.54147,0.13537l0.14767,0.25843l1.25858,0.71918l0.46875,1.875v0.42864l-0.46875,1.875l-0.89488,0.51136l-0.51137,0.89489l-1.875,0.46875h-5.57223l-0.44786,-0.11197h-0.46165l-0.4094,-0.10235h-5.3249l-1.875,-0.46875l-0.51136,-0.89488l-0.89489,-0.51137l-0.46875,-1.875zM124.41807,324.87555l-0.04573,-0.59446l-0.06597,-0.26388h-3.64445l0.13408,0.53633v0.32201z" fill="#000000" stroke-width="0.5"/><path d="M147.42162,322.30268c-0.12598,0.00255 -2.56661,0.25401 -2.62218,0.40197c-0.45174,1.20285 0.38934,2.96859 0.42863,4.20636c0.04131,1.30168 0.14618,2.58071 0.21432,3.85769c0.01714,0.32119 -0.31635,0.90683 0,0.96496c2.28401,0.4197 15.06903,-0.9115 7.12628,7.03125c-1.61568,1.61568 -4.55576,0.37369 -6.83868,0.46875c-2.32584,0.09685 -4.16289,1.0226 -6.42652,-0.60733c-0.69915,-0.50342 -1.30558,-2.15434 -1.36107,-2.92836c-0.29996,-4.18357 -1.57034,-12.1148 -0.64295,-16.28804c1.04505,-4.70276 5.53392,-4.55274 9.75086,-4.60726c0.16498,-0.00214 4.32396,-0.24203 6.78936,0.00277c0.23138,0.00883 0.4574,0.03862 0.6762,0.08754c1.6758,0.37465 2.92825,1.87091 2.92825,3.65969c0,1.36978 -0.73443,2.56803 -1.83099,3.22245c-0.27098,0.20961 -0.61963,0.35395 -1.11574,0.44131c-0.25878,0.05647 -0.52755,0.08623 -0.80327,0.08623c-2.08767,0.11475 -4.18208,-0.04237 -6.27248,0z" fill="#000000" stroke-width="0.5"/><path d="M177.42563,315.50921c2.86478,3.62534 1.72369,15.51507 1.66442,17.18835c-0.16946,4.7842 -7.31857,4.78024 -7.5,0c-0.13243,-3.48928 0.10811,-6.98526 0,-10.47538c-0.00342,-0.11059 -0.21246,0.06505 -0.32201,0.08051c-0.85828,0.12106 -3.76567,1.11749 -5.15446,0.60395c-0.04405,2.27038 -0.05103,4.54077 -0.33763,6.8138c-0.29584,2.3463 -0.01418,4.51914 -0.58373,6.79734c-0.14181,0.56721 -0.4753,1.04041 -0.92642,1.41285c-0.67784,0.67296 -1.61137,1.08873 -2.642,1.08873c-0.33335,0 -0.65653,-0.04349 -0.96419,-0.12511c-1.77506,-0.19216 -3.27579,-1.31547 -2.78453,-3.52613c-0.00085,-0.03282 -0.00128,-0.06574 -0.00128,-0.09876c0,-0.41323 0.06684,-0.81086 0.1903,-1.18264c1.24496,-8.24056 0.87616,-16.61244 2.45714,-24.8709c0.65188,-3.40519 0.43982,-8.12541 4.74594,-8.98664c1.61434,-0.32286 3.98532,2.54743 3.75,4.17863c-0.53079,3.6793 -1.57721,7.32048 -2.23915,10.9851c3.1135,-1.03671 9.20535,-1.70884 10.6476,0.11631z" fill="#000000" stroke-width="0.5"/><path d="M199.17103,319.34927c2.73035,-0.42532 5.81846,-1.45324 7.95088,-1.98794c4.58632,-1.15001 7.45584,2.13822 5.46828,6.11334c-1.12265,2.24529 -11.53997,3.50297 -14.5326,3.54296c-0.71949,0.00961 -1.56661,0.17004 -2.40253,0.29054c0.03885,1.94504 0.08613,3.88543 0.15167,5.81802c0.04788,1.41169 -1.72323,6.83595 -4.43639,5.02718c-1.95084,-0.13243 -3.49224,-1.75685 -3.49224,-3.74128c0,-0.51136 0.10236,-0.99882 0.28769,-1.443c1.36632,-8.06147 -0.89659,-17.30764 -0.50201,-25.56086c0.06461,-1.35136 0.62091,-2.6093 1.77044,-3.26884c0.09679,-0.08513 0.20252,-0.16128 0.31887,-0.22673c1.56537,-0.88054 3.04373,-0.2731 4.65449,-0.25443c4.93115,0.05714 9.86492,-0.13862 14.79445,0c1.97476,0.05553 3.75,1.31482 3.75,3.75c0,2.43384 -1.77524,3.69515 -3.75,3.75c-4.62574,0.12847 -9.25482,0.03359 -13.88256,0.00538c0.09411,2.72713 0.15152,5.4622 0.19926,8.19657c1.23729,0.02878 2.50088,0.16845 3.65229,-0.01091z" fill="#00ceff" stroke-width="0.5"/><path d="M221.66104,315.59119c3.1747,2.88783 0.49928,9.99066 1.6801,13.05667c0.28206,0.73235 1.52388,-0.37739 2.2918,-0.53924c1.54405,-0.32544 3.12084,-0.08392 4.67656,-0.32583c1.38262,-0.21499 0.27439,-2.7926 0.23312,-4.19123c-0.05357,-1.81518 -1.38511,-6.40522 0.01871,-7.80903c2.84386,-2.84386 6.37033,-2.02321 7.03125,1.875c0.70719,4.17111 2.11843,14.85996 -3.27307,16.85545c-2.37224,0.87801 -4.76049,0.48145 -7.20898,0.95279c-3.39413,0.65339 -8.6127,2.26476 -10.80062,-1.38179c-2.2933,-3.82216 -0.76878,-9.98983 -0.76878,-14.62285c-0.09764,-0.33422 -0.15001,-0.68776 -0.15001,-1.05353c0,-2.07107 1.67893,-3.75 3.75,-3.75c0.28847,0 0.56932,0.03257 0.83909,0.09423c0.58779,0.10165 1.1639,0.36912 1.68085,0.83936z" fill="#00ceff" stroke-width="0.5"/><path d="M258.43003,318.0244l-0.14702,-0.73505c-1.6244,1.33207 -4.71746,2.05883 -7.3676,2.43005c-0.09894,1.88901 -0.30272,3.82591 -0.27788,5.25844c0.02771,1.59825 0.87195,3.46542 -0.01474,4.79544c-0.69877,1.04816 -1.61455,2.23504 -2.84982,2.4821c-5.92465,1.18493 -5.09675,-11.00454 -4.93548,-14.62828c0.0381,-0.85613 0.73081,-3.90666 1.52749,-4.13072l2.67255,-1.11942c0.08417,0.0629 0.17226,0.12314 0.26342,0.1813c0.10509,-0.01362 0.21155,-0.02288 0.31918,-0.02761c3.40424,-1.76711 8.22301,-2.35529 9.99327,-0.58503c0.12405,0.12405 0.24103,0.24626 0.35113,0.36667v-2.08141l0.14621,-0.58482l0.04624,-0.60104l0.09598,-0.28794l0.10659,-0.42637l0.90951,-1.70533l0.56324,-0.15841l0.29029,-0.50801l1.875,-0.46875h11.07714l0.03505,-0.02336l0.10514,0.02336h0.10449l0.83592,0.20898l0.84113,0.18692l0.09346,0.04673l0.10449,0.02612l0.0209,0.03657l0.06419,0.0321l1.46742,1.25779l0.00822,0.14785l0.12856,0.07346l0.46875,1.875v0.33629l0.0687,0.3435l-0.01776,0.37309l0.09059,0.36235v3.02156l0.08447,0.67582l0.22813,0.9125v0.19687l0.07428,0.18232l0.14152,0.99066l-0.02777,0.26848l0.06547,0.26185v3.82112l-0.14621,0.58481l-0.04624,0.60104l-0.09598,0.28794l-0.10659,0.42638l-0.47735,0.89504l-0.01621,0.29176l-0.25679,0.2201l-0.15915,0.29842l-0.2813,0.07912l-0.77017,0.66015l-0.0642,0.0321l-0.02089,0.03657l-0.10449,0.02612l-0.09346,0.04673l-0.84113,0.18691l-0.83592,0.20898h-0.10449l-0.10514,0.02337l-0.03505,-0.02337h-7.32714v1.41594h2.10568l0.3435,-0.0687l0.37309,0.01777l0.36235,-0.09059h2.68893l1.875,0.46875l1.875,3.28125l-1.875,3.28125l-1.875,0.46875h-2.31761l-0.3435,0.0687l-0.37309,-0.01776l-0.36235,0.09059h-4.67026l-0.40065,-0.10017l-0.41284,0.01087l-1.27371,-0.28305l-0.41291,-0.20646l-0.45065,-0.10014l-0.28305,-0.14153l-0.35051,-0.30043l-0.23155,-0.11577l-0.03489,-0.1126l-0.85047,-0.72897l-0.00822,-0.14785l-0.12856,-0.07346l-0.46875,-1.875v-4.74561l-0.11858,-1.06728l0.02828,-0.20926l-0.05122,-0.20486v-5.59474zM270.56008,318.51031v-0.93679l-0.07648,-0.53533l-0.23613,-0.94451v-0.22994l-0.08301,-0.21443l-0.14153,-1.13219l0.02852,-0.23524l-0.05747,-0.22989v-1.06178h-4.52944v1.5617l0.10062,0.90554l0.25113,1.25565l-0.0079,0.16576l0.05778,0.15556l0.14152,1.27371l-0.02732,0.20218z" fill="#00ceff" stroke-width="0.5"/><path d="M96.06681,120.08281c3.75,0 3.75,3.75 3.75,3.75v0.4413c0,11.12109 0.93126,22.73375 -0.44855,33.77229c-0.09441,3.32382 0.33889,4.64529 -2.31522,7.6106c-4.30486,4.80962 -17.30121,3.94815 -21.73144,-0.33759c-2.41089,-2.33227 -3.29279,-6.56483 -4.07232,-9.67291c-2.24833,-8.96448 -2.32171,-17.30384 -2.32171,-26.51802c0,0 0,-3.75 3.75,-3.75c3.75,0 3.75,3.75 3.75,3.75c0,8.61086 0.00753,16.30983 2.09135,24.6735c0.40018,1.60618 0.90869,4.85582 2.10598,6.21412c0.64888,0.73613 2.78894,0.65023 3.21748,0.71098c3.82184,0.54179 8.26981,1.83145 8.04037,-3.14672c1.36086,-10.88689 0.43406,-22.33794 0.43406,-33.30626v-0.4413c0,0 0,-3.75 3.75,-3.75z" fill="#000000" stroke-width="0.5"/><path d="M131.50938,120.71656c3.55756,-1.18586 4.74341,2.37171 4.74341,2.37171l0.63375,2.50977c0,9.78028 -0.36243,19.5467 -0.48973,29.28559c-0.41239,1.29906 -2.20978,7.17688 -2.75817,7.72972c-1.21028,1.22009 -3.08077,1.60642 -4.75579,1.99077c-1.34225,0.308 -2.75403,0.03858 -4.13113,0.04842c-3.56466,0.02546 -8.79198,0.65904 -11.61086,-2.12109c-1.99731,-1.96985 -1.84266,-9.13404 -1.84788,-11.77895c-0.01272,-6.45882 -0.8003,-13.43718 0.02239,-19.82666c0.28551,-2.2174 0.8789,-4.41609 0.86022,-6.65171c0,0 0,-3.75 3.75,-3.75c3.75,0 3.75,3.75 3.75,3.75c-0.01605,2.50818 -0.56087,4.98558 -0.90501,7.47009c-0.72383,5.22574 0.0224,11.06832 0.0224,16.36045c0,2.72502 0.44981,5.59132 0.3972,8.25267c-0.00822,0.41562 -0.75437,0.83892 -0.47985,1.15107c0.27466,0.31232 0.79026,-0.28439 1.2039,-0.32777c0.36849,-0.03864 4.72889,-0.02904 4.83749,-0.0281c0.97669,0.00848 1.95608,-0.02846 2.92977,0.04843c0.19443,0.01535 0.46777,0.40675 0.53989,0.22554c0.47126,-1.18401 0.34409,-2.54398 0.77228,-3.74424c-0.15652,-9.28597 0.39289,-18.74314 0.39289,-28.08423l-0.24887,-0.13806c0,0 -1.18585,-3.55756 2.37171,-4.74341z" fill="#000000" stroke-width="0.5"/><path d="M113.4973,179.4374c0,3.75 -3.75,3.75 -3.75,3.75l-1.49911,-0.05102c-4.13946,-0.71282 -8.42799,-0.39028 -12.62269,-0.39028c0,0 -3.75,0 -3.75,-3.75c0,-3.75 3.75,-3.75 3.75,-3.75c4.63834,0 9.27047,-0.25177 13.85568,0.49233l0.26612,-0.05102c0,0 3.75,0 3.75,3.75z" fill="#000000" stroke-width="0.5"/><path d="M80.37664,175.00009c2.70006,4.15927 0.37865,12.42687 -4.79617,13.033c-2.53863,0.29735 -4.56321,-2.71829 -5.90148,-4.89593c-3.29498,-5.36162 1.13975,-9.48983 4.8902,-12.11562c0,0 3.12019,-2.08013 5.20031,1.04006c0.75555,1.13333 0.82502,2.12944 0.60712,2.93849z" fill="#ffb9b9" stroke-width="0.5"/><path d="M130.63891,170.84794c1.41969,-1.45556 3.11628,-2.62726 4.92616,-2.16231c5.99658,1.54049 4.47257,7.37952 3.24255,10.86291c-2.24836,6.3673 -8.5505,8.38401 -13.71539,2.74296c-1.27598,-1.39362 -0.30132,-6.89601 -0.0898,-8.61491c0,0 0.46513,-3.72104 4.18617,-3.25591c0.57893,0.07237 1.05653,0.22354 1.45031,0.42726z" fill="#ffb9b9" stroke-width="0.5"/></g></g></svg>