<svg version="1.1" xmlns="http://www.w3.org/2000/svg" xmlns:xlink="http://www.w3.org/1999/xlink" width="96.59573" height="55.74468" viewBox="0,0,96.59573,55.74468"><defs><radialGradient cx="296.80851" cy="179.76875" r="25.10638" gradientUnits="userSpaceOnUse" id="color-1"><stop offset="0" stop-color="#c0fc72" stop-opacity="0.50196"/><stop offset="1" stop-color="#c0fc72" stop-opacity="0"/></radialGradient><radialGradient cx="315.10639" cy="179.76875" r="25.10638" gradientUnits="userSpaceOnUse" id="color-2"><stop offset="0" stop-color="#a9f797" stop-opacity="0.50196"/><stop offset="1" stop-color="#a9f797" stop-opacity="0"/></radialGradient><radialGradient cx="324.89362" cy="179.76875" r="25.10638" gradientUnits="userSpaceOnUse" id="color-3"><stop offset="0" stop-color="#93f5ba" stop-opacity="0.50196"/><stop offset="1" stop-color="#93f5ba" stop-opacity="0"/></radialGradient><radialGradient cx="343.19149" cy="179.76875" r="25.10638" gradientUnits="userSpaceOnUse" id="color-4"><stop offset="0" stop-color="#69ebfa" stop-opacity="0.50196"/><stop offset="1" stop-color="#69ebfa" stop-opacity="0"/></radialGradient><linearGradient x1="280" y1="180" x2="360" y2="180" gradientTransform="translate(-560,-371.5375) scale(2,2)" gradientUnits="userSpaceOnUse" id="color-5"><stop offset="0" stop-color="#c9ff66"/><stop offset="1" stop-color="#66ebff"/></linearGradient></defs><g transform="translate(-271.70214,-151.89641)"><g data-paper-data="{&quot;isPaintingLayer&quot;:true}" fill-rule="nonzero" stroke="none" stroke-linecap="butt" stroke-linejoin="miter" stroke-miterlimit="10" stroke-dasharray="" stroke-dashoffset="0" style="mix-blend-mode: normal"><path d="M321.9149,179.76875c0,15.39347 -11.24051,27.87234 -25.10638,27.87234c-13.86587,0 -25.10638,-12.47887 -25.10638,-27.87234c0,-15.39347 11.24051,-27.87234 25.10638,-27.87234c13.86587,0 25.10638,12.47887 25.10638,27.87234z" fill="url(#color-1)" stroke-width="0"/><path d="M340.21277,179.76875c0,15.39347 -11.24051,27.87234 -25.10638,27.87234c-13.86587,0 -25.10638,-12.47887 -25.10638,-27.87234c0,-15.39347 11.24052,-27.87234 25.10638,-27.87234c13.86587,0 25.10638,12.47887 25.10638,27.87234z" fill="url(#color-2)" stroke-width="0"/><path d="M350,179.76875c0,15.39347 -11.24051,27.87234 -25.10638,27.87234c-13.86587,0 -25.10638,-12.47887 -25.10638,-27.87234c0,-15.39347 11.24052,-27.87234 25.10638,-27.87234c13.86587,0 25.10638,12.47887 25.10638,27.87234z" fill="url(#color-3)" stroke-width="0"/><path d="M368.29787,179.76875c0,15.39347 -11.24051,27.87234 -25.10638,27.87234c-13.86587,0 -25.10638,-12.47887 -25.10638,-27.87234c0,-15.39347 11.24052,-27.87234 25.10638,-27.87234c13.86587,0 25.10638,12.47887 25.10638,27.87234z" fill="url(#color-4)" stroke-width="0"/><text transform="translate(280,185.76875) scale(0.5,0.5)" font-size="40" xml:space="preserve" fill="url(#color-5)" fill-rule="nonzero" stroke="none" stroke-width="1" stroke-linecap="butt" stroke-linejoin="miter" stroke-miterlimit="10" stroke-dasharray="" stroke-dashoffset="0" font-family="&quot;MiSans-Heavy&quot;, Sans Serif" font-weight="normal" text-anchor="start" style="mix-blend-mode: normal"><tspan x="0" dy="0">五彩缤纷</tspan></text></g></g></svg>