<svg version="1.1" xmlns="http://www.w3.org/2000/svg" xmlns:xlink="http://www.w3.org/1999/xlink" width="480.56252" height="416.56037" viewBox="0,0,480.56252,416.56037"><defs><radialGradient cx="33.68479" cy="224.55202" r="0.00125" gradientUnits="userSpaceOnUse" id="color-1"><stop offset="0" stop-color="#000000" stop-opacity="0.51765"/><stop offset="1" stop-color="#000000" stop-opacity="0"/></radialGradient></defs><g transform="translate(158.08211,-176.10936)"><g stroke="none" stroke-width="0" stroke-miterlimit="10"><path d="M-158.08211,586.433v-404.0869h480.56252v404.0869z" fill="#dadada"/><path d="M300.98061,182.34609c0,-3.44444 4.81288,-6.23673 10.74989,-6.23673c5.93701,0 10.74989,2.79228 10.74989,6.23673c0,3.44446 -4.81288,6.23673 -10.74989,6.23673c-5.93701,0 -10.74989,-2.79228 -10.74989,-6.23673z" fill="#dadada"/><path d="M300.98061,586.433c0,-3.44446 4.81288,-6.23673 10.74989,-6.23673c5.93701,0 10.74989,2.79228 10.74989,6.23673c0,3.44446 -4.81288,6.23673 -10.74989,6.23673c-5.93701,0 -10.74989,-2.79228 -10.74989,-6.23673z" fill="#dadada"/><path d="M-158.08211,182.34609c0,-3.44444 4.81288,-6.23673 10.74989,-6.23673c5.93701,0 10.74989,2.79228 10.74989,6.23673c0,3.44446 -4.81288,6.23673 -10.74989,6.23673c-5.93701,0 -10.74989,-2.79228 -10.74989,-6.23673z" fill="#dadada"/><path d="M-158.08211,586.433c0,-3.44446 4.81288,-6.23673 10.74989,-6.23673c5.93701,0 10.74989,2.79228 10.74989,6.23673c0,3.44446 -4.81288,6.23673 -10.74989,6.23673c-5.93701,0 -10.74989,-2.79228 -10.74989,-6.23673z" fill="#dadada"/><path d="M-147.33222,592.66973v-416.56036h459.06273v416.56036z" fill="#dadada"/><path d="M64.88916,272.99467z" fill="url(#color-1)"/></g></g></svg>