<svg version="1.1" xmlns="http://www.w3.org/2000/svg" xmlns:xlink="http://www.w3.org/1999/xlink" width="960" height="540" viewBox="0,0,960,540"><defs><clipPath id="clip-1"><rect x="-320" y="-180" transform="scale(0.5,0.5)" width="1920" height="1080" fill="none" fill-rule="nonzero" stroke-width="0.5"/></clipPath></defs><g transform="translate(160,90)"><g clip-path="url(#clip-1)" stroke="none" stroke-miterlimit="10"><path d="M124.42414,92.39099c0,-12.12346 9.83264,-21.95834 21.96134,-21.95834h346.48413c12.12346,0 21.95834,9.83489 21.95834,21.95834v175.21802c0,12.12346 -9.83489,21.95834 -21.95834,21.95834h-346.48413c-12.12869,0 -21.96134,-9.83489 -21.96134,-21.95834z" fill="#009cff" fill-rule="evenodd" stroke-width="1"/><path d="M163.50332,111.3326c2.12204,0 3.95601,0.39697 5.50302,1.20222c1.54588,0.80527 2.72883,1.93944 3.54656,3.40252c0.81775,1.46308 1.22718,3.14166 1.22718,5.03574c0,1.67858 -0.39016,3.30045 -1.16933,4.85427c-0.78032,1.55382 -1.8986,3.10765 -3.35489,4.66146l-5.36805,5.72759h10.50587v6.87309h-21.51076v-4.85427l10.81323,-11.42114c1.04798,-1.13417 1.77612,-2.10956 2.18443,-2.92617c0.40943,-0.81661 0.61358,-1.65589 0.61358,-2.51787c0,-1.00941 -0.27447,-1.80334 -0.82342,-2.4158c-0.55007,-0.60112 -1.34853,-0.90734 -2.39651,-0.90734c-1.10015,0 -2.04491,0.34025 -2.83771,1.00941c-0.79279,0.66916 -1.46989,1.68992 -2.03245,3.06227l-5.55973,-3.91291c0.84383,-1.95078 2.14699,-3.57266 3.91064,-4.87695c1.76364,-1.30431 4.01385,-1.97347 6.74835,-1.99614z" fill="#ffffff" fill-rule="evenodd" stroke-width="1"/><path d="M222.48156,111.3326c2.1209,0 3.95487,0.39697 5.50188,1.20222c1.54702,0.80527 2.72883,1.93944 3.54656,3.40252c0.81887,1.46308 1.22718,3.14166 1.22718,5.03574c0,1.67858 -0.39016,3.30045 -1.16933,4.85427c-0.77918,1.55382 -1.89748,3.10765 -3.35489,4.66146l-5.36805,5.72759h10.50587v6.87309h-21.51076v-4.85427l10.81323,-11.42114c1.04798,-1.13417 1.77612,-2.10956 2.18555,-2.92617c0.4083,-0.81661 0.61358,-1.65589 0.61358,-2.51787c0,-1.00941 -0.2756,-1.80334 -0.82454,-2.4158c-0.55007,-0.60112 -1.34853,-0.90734 -2.39651,-0.90734c-1.09902,0 -2.04491,0.34025 -2.83771,1.00941c-0.79279,0.66916 -1.46989,1.68992 -2.03245,3.06227l-5.55973,-3.91291c0.84383,-1.95078 2.14699,-3.57266 3.91064,-4.87695c1.76364,-1.30431 4.01385,-1.97347 6.74947,-1.99614z" fill="#ffffff" fill-rule="evenodd" stroke-width="1"/><path d="M282.59283,111.3326c2.1209,0 3.95487,0.39697 5.50188,1.20222c1.54702,0.80527 2.72883,1.93944 3.54656,3.40252c0.81887,1.46308 1.22718,3.14166 1.22718,5.03574c0,1.67858 -0.39016,3.30045 -1.16933,4.85427c-0.77918,1.55382 -1.89748,3.10765 -3.35489,4.66146l-5.36805,5.72759h10.50587v6.87309h-21.51076v-4.85427l10.81323,-11.42114c1.04798,-1.13417 1.77612,-2.10956 2.18555,-2.92617c0.4083,-0.81661 0.61358,-1.65589 0.61358,-2.51787c0,-1.00941 -0.2756,-1.80334 -0.82454,-2.4158c-0.55007,-0.60112 -1.34853,-0.90734 -2.39651,-0.90734c-1.09902,0 -2.04491,0.34025 -2.83771,1.00941c-0.79279,0.66916 -1.46989,1.68992 -2.03245,3.06227l-5.55973,-3.91291c0.84383,-1.95078 2.14699,-3.57266 3.91177,-4.87695c1.76364,-1.30431 4.01271,-1.97347 6.74835,-1.99614z" fill="#ffffff" fill-rule="evenodd" stroke-width="1"/><path d="M308.22632,111.3326c3.66792,0 6.475,1.34967 8.42125,4.06034c1.94737,2.69933 2.9205,6.6576 2.9205,11.85214c0,5.18317 -0.97312,9.11877 -2.9205,11.80676c-1.94625,2.68799 -4.75333,4.03766 -8.42125,4.03766c-3.66679,0 -6.475,-1.34967 -8.42125,-4.03766c-1.94625,-2.68799 -2.9205,-6.62359 -2.9205,-11.80676c0,-5.19452 0.97426,-9.15279 2.9205,-11.85214c1.94625,-2.71068 4.75447,-4.06034 8.42125,-4.06034zM308.22632,118.09228c-1.35648,0 -2.39197,0.75989 -3.10877,2.30238c-0.71566,1.54247 -1.07406,3.82217 -1.07406,6.85042c0,3.00557 0.3584,5.27392 1.07406,6.79371c0.71679,1.53114 1.75231,2.29104 3.10877,2.29104c1.35648,0 2.39311,-0.75989 3.10877,-2.29104c0.71566,-1.5198 1.07406,-3.78815 1.07406,-6.79371c0,-3.02824 -0.3584,-5.30794 -1.07406,-6.85042c-0.71566,-1.54247 -1.75231,-2.30238 -3.10877,-2.30238z" fill="#ffffff" fill-rule="evenodd" stroke-width="1"/><path d="M177.81434,112.46678h19.01444v5.75026l-6.87651,5.55746l0.07713,0.19281c1.48577,0 2.85585,0.38563 4.11025,1.1682c1.2544,0.77124 2.2468,1.84871 2.97721,3.23241c0.72927,1.3837 1.09447,2.92617 1.09447,4.62743c0,1.95078 -0.46727,3.6974 -1.40183,5.2172c-0.93456,1.5198 -2.22865,2.72202 -3.88002,3.58399c-1.65136,0.86197 -3.52729,1.29297 -5.62778,1.29297c-2.68799,0 -4.92912,-0.6238 -6.72113,-1.8714c-1.79313,-1.23625 -3.0997,-2.82409 -3.91857,-4.75219l5.56994,-3.73143c0.53759,1.31564 1.20336,2.30238 1.99728,2.97154c0.79392,0.65782 1.79313,0.98673 2.99649,0.98673c1.17727,0 2.12544,-0.32891 2.84225,-0.98673c0.71679,-0.66916 1.0752,-1.56516 1.0752,-2.71068c0,-1.1682 -0.3652,-2.09823 -1.09447,-2.80141c-0.73041,-0.69185 -1.70921,-1.04344 -2.93865,-1.04344c-0.46048,0 -0.88352,0.06804 -1.268,0.20415c-0.38335,0.14745 -0.84497,0.37428 -1.38256,0.70319l-3.91745,-4.83158l6.68369,-6.13589h-9.41138z" fill="#ffffff" fill-rule="evenodd" stroke-width="1"/><path d="M237.30522,112.46678h18.48252v6.39675h-11.8544l-0.45481,4.72951c1.26233,-0.61246 2.6381,-0.91868 4.1284,-0.91868c1.96892,0 3.6736,0.4083 5.11286,1.23625c1.43928,0.82795 2.54395,1.99614 3.31405,3.5046c0.7701,1.50846 1.15459,3.26642 1.15459,5.27392c0,2.13225 -0.45481,3.98096 -1.36328,5.54611c-0.90848,1.56516 -2.21618,2.75605 -3.9197,3.59533c-1.70466,0.8393 -3.71783,1.25894 -6.04062,1.25894c-2.37382,0 -4.46298,-0.5444 -6.26858,-1.62187c-1.80447,-1.07747 -3.12352,-2.59726 -3.95713,-4.54804l5.71851,-3.89022c1.01055,2.43848 2.58819,3.66339 4.73404,3.66339c1.23739,0 2.23432,-0.34025 2.99195,-1.00941c0.75763,-0.66916 1.13645,-1.61053 1.13645,-2.80141c0,-1.24759 -0.35953,-2.20031 -1.07973,-2.88081c-0.71907,-0.66916 -1.73529,-1.00941 -3.04867,-1.00941c-0.90848,0 -1.72281,0.23818 -2.44302,0.69185c-0.71907,0.45367 -1.268,1.13417 -1.64682,2.01883l-5.94648,-2.71068z" fill="#ffffff" fill-rule="evenodd" stroke-width="1"/><path d="M201.61388,119.27183h6.80505v7.93922h-6.80505z" fill="#ffffff" fill-rule="evenodd" stroke-width="1"/><path d="M261.72515,119.27183h7.93922v7.93922h-7.93922z" fill="#ffffff" fill-rule="evenodd" stroke-width="1"/><path d="M201.61388,135.15028h6.80505v7.93922h-6.80505z" fill="#ffffff" fill-rule="evenodd" stroke-width="1"/><path d="M261.72515,135.15028h7.93922v7.93922h-7.93922z" fill="#ffffff" fill-rule="evenodd" stroke-width="1"/><path d="M192.58435,97.2116l0.75489,0.22135c-0.22135,0.5114 -0.47781,1.01519 -0.77016,1.52659h9.09392v0.72515h-4.96984v2.90052h4.59199v0.70988h-4.59199v3.3127h5.39268v0.74803h-5.39268v3.59513h-0.78543v-3.59513h-6.79792v-0.74803h2.20516v-4.02257h4.59275v-2.90052h-3.76152c-0.75566,1.19837 -1.60139,2.28226 -2.53796,3.26691l-0.48317,-0.64117c0.72513,-0.73276 1.38922,-1.54949 1.99373,-2.43492c0.60453,-0.89305 1.09303,-1.77848 1.46553,-2.66391zM192.05537,103.29508v3.31272h3.85236v-3.31272z" fill="#ffffff" fill-rule="evenodd" stroke-width="1"/><path d="M221.76977,97.9749h8.55808v10.79301c0,0.48852 -0.05801,0.8549 -0.17326,1.09916c-0.11601,0.24426 -0.31447,0.41982 -0.5969,0.51905c-0.28166,0.0916 -0.69383,0.13739 -1.23731,0.13739h-1.76627l-0.15037,-0.75568h1.75023c0.41294,0 0.71444,-0.03054 0.90604,-0.08397c0.19082,-0.05343 0.3221,-0.16031 0.39233,-0.32058c0.07023,-0.15266 0.10533,-0.39691 0.10533,-0.73275v-2.50362h-7.13913c-0.11067,1.00756 -0.31905,1.84718 -0.6259,2.53416c-0.30686,0.68697 -0.80299,1.45027 -1.48689,2.2899l-0.66407,-0.48852c0.62361,-0.74041 1.08158,-1.40447 1.37317,-1.98457c0.29235,-0.57247 0.49081,-1.24417 0.59614,-2.00747c0.10609,-0.7633 0.15876,-1.83191 0.15876,-3.22111zM222.52467,98.7153v3.03792h7.03302v-3.03792zM222.52467,102.47835v0.86253c0,0.77858 -0.01526,1.47317 -0.04578,2.07618h7.0788v-2.93869z" fill="#ffffff" fill-rule="evenodd" stroke-width="1"/><path d="M253.22677,98.73819h9.92286v12.19748h-0.83657v-1.13731h-8.23445v1.15259h-0.85184zM254.07859,99.50913v4.28973h8.23445v-4.28973zM254.07859,104.56979v4.45766h8.23445v-4.45766z" fill="#ffffff" fill-rule="evenodd" stroke-width="1"/><path d="M156.66208,98.73819c0.63507,0 1.20143,0.12212 1.69834,0.36638c0.4969,0.24426 0.88314,0.59537 1.16021,1.04572c0.27632,0.45035 0.41447,0.98465 0.41447,1.59529c0,0.63354 -0.13815,1.19838 -0.41447,1.7098c-0.27708,0.5114 -0.75337,1.13731 -1.42966,1.89298l-3.67297,4.01494h5.68657v0.82436h-6.86968v-0.7633l4.0722,-4.48817c0.63581,-0.70224 1.07852,-1.27471 1.32965,-1.7098c0.25113,-0.43508 0.3763,-0.90833 0.3763,-1.41973c0,-0.67932 -0.21983,-1.22891 -0.66024,-1.63346c-0.44119,-0.40455 -1.00984,-0.61063 -1.70596,-0.61063c-0.59461,0 -1.12433,0.16029 -1.59071,0.48088c-0.46638,0.32058 -0.83276,0.79383 -1.09916,1.4121l-0.69154,-0.47325c0.2664,-0.69459 0.69919,-1.23655 1.29914,-1.6411c0.59919,-0.40455 1.29838,-0.603 2.09755,-0.603z" fill="#ffffff" fill-rule="evenodd" stroke-width="1"/><path d="M166.20328,98.73819c1.23272,0 2.17845,0.48852 2.83642,1.46553c0.65873,0.98465 0.9877,2.40438 0.9877,4.2592c0,1.85482 -0.32897,3.27455 -0.9877,4.2592c-0.65797,0.97702 -1.60369,1.46553 -2.83642,1.46553c-1.21212,0 -2.1502,-0.48852 -2.81351,-1.47317c-0.66331,-0.98465 -0.99534,-2.40439 -0.99534,-4.25156c0,-1.84718 0.33203,-3.26691 0.99534,-4.25156c0.66331,-0.98465 1.60139,-1.47317 2.81351,-1.47317zM166.20328,99.54728c-0.91978,0 -1.6304,0.41982 -2.13188,1.26706c-0.50148,0.84726 -0.75261,2.0609 -0.75261,3.64856c0,1.59529 0.25113,2.81657 0.75261,3.6562c0.50148,0.83963 1.21212,1.25944 2.13188,1.25944c0.92969,0 1.64567,-0.41981 2.14715,-1.25944c0.50148,-0.83963 0.75261,-2.06091 0.75261,-3.6562c0,-1.58766 -0.25418,-2.8013 -0.76024,-3.64856c-0.50684,-0.84726 -1.22051,-1.26706 -2.13951,-1.26706z" fill="#ffffff" fill-rule="evenodd" stroke-width="1"/><path d="M174.98121,98.73819c0.63507,0 1.20142,0.12212 1.69834,0.36638c0.4969,0.24426 0.88314,0.59537 1.16021,1.04572c0.27632,0.45035 0.41447,0.98465 0.41447,1.59529c0,0.63354 -0.13815,1.19838 -0.41447,1.7098c-0.27708,0.5114 -0.75337,1.13731 -1.42966,1.89298l-3.67297,4.01494h5.68657v0.82436h-6.86967v-0.7633l4.07296,-4.48817c0.63507,-0.70224 1.07776,-1.27471 1.32889,-1.7098c0.25113,-0.43508 0.3763,-0.90833 0.3763,-1.41973c0,-0.67932 -0.21983,-1.22891 -0.66024,-1.63346c-0.44119,-0.40455 -1.00984,-0.61063 -1.70596,-0.61063c-0.59461,0 -1.12433,0.16029 -1.59071,0.48088c-0.46638,0.32058 -0.83276,0.79383 -1.09916,1.4121l-0.69154,-0.47325c0.2664,-0.69459 0.69919,-1.23655 1.29914,-1.6411c0.59919,-0.40455 1.29838,-0.603 2.09755,-0.603z" fill="#ffffff" fill-rule="evenodd" stroke-width="1"/><path d="M213.52769,98.73819c1.23272,0 2.17844,0.48852 2.83641,1.46553c0.65873,0.98465 0.98771,2.40438 0.98771,4.2592c0,1.85482 -0.32899,3.27455 -0.98771,4.2592c-0.65797,0.97702 -1.60368,1.46553 -2.83641,1.46553c-1.21212,0 -2.15022,-0.48852 -2.81352,-1.47317c-0.66407,-0.98465 -0.99534,-2.40439 -0.99534,-4.25156c0,-1.84718 0.33127,-3.26691 0.99534,-4.25156c0.66331,-0.98465 1.6014,-1.47317 2.81352,-1.47317zM213.52769,99.54728c-0.91978,0 -1.6304,0.41982 -2.13188,1.26706c-0.50148,0.84726 -0.75261,2.0609 -0.75261,3.64856c0,1.59529 0.25111,2.81657 0.75261,3.6562c0.50148,0.83963 1.21214,1.25944 2.13188,1.25944c0.92969,0 1.64565,-0.41981 2.14714,-1.25944c0.50148,-0.83963 0.75261,-2.06091 0.75261,-3.6562c0,-1.58766 -0.2534,-2.8013 -0.76024,-3.64856c-0.50684,-0.84726 -1.22051,-1.26706 -2.13951,-1.26706z" fill="#ffffff" fill-rule="evenodd" stroke-width="1"/><path d="M237.57155,98.73819c0.63507,0 1.20143,0.12212 1.69834,0.36638c0.4969,0.24426 0.88391,0.59537 1.16021,1.04572c0.27632,0.45035 0.41524,0.98465 0.41524,1.59529c0,0.63354 -0.13892,1.19838 -0.41524,1.7098c-0.27632,0.5114 -0.75337,1.13731 -1.42889,1.89298l-3.67375,4.01494h5.68657v0.82436h-6.86967v-0.7633l4.07295,-4.48817c0.63507,-0.70224 1.07776,-1.27471 1.32891,-1.7098c0.25113,-0.43508 0.37707,-0.90833 0.37707,-1.41973c0,-0.67932 -0.22059,-1.22891 -0.66102,-1.63346c-0.44042,-0.40455 -1.00907,-0.61063 -1.70596,-0.61063c-0.59461,0 -1.12433,0.16029 -1.59071,0.48088c-0.46638,0.32058 -0.83276,0.79383 -1.09839,1.4121l-0.69232,-0.47325c0.2664,-0.69459 0.69995,-1.23655 1.29914,-1.6411c0.59919,-0.40455 1.29836,-0.603 2.09753,-0.603z" fill="#ffffff" fill-rule="evenodd" stroke-width="1"/><path d="M184.94909,98.73819h1.19762v7.93066h1.43653v0.80909h-1.43653v2.70971h-0.86862v-2.70971h-5.32782v-0.70986zM185.27807,99.79918l-4.29508,6.86967h4.29508z" fill="#ffffff" fill-rule="evenodd" stroke-width="1"/><path d="M206.78626,98.73819h0.64268v11.44945h-0.86175v-10.3732l-2.19143,1.27469v-0.96938z" fill="#ffffff" fill-rule="evenodd" stroke-width="1"/><path d="M243.59473,98.73819h5.99646v0.76329l-3.49285,3.98441l0.02901,0.0458c0.30073,-0.0916 0.60682,-0.13739 0.91671,-0.13739c0.54346,0 1.05565,0.12977 1.53575,0.39692c0.48012,0.26716 0.86635,0.64881 1.15716,1.15259c0.29157,0.50377 0.43661,1.09916 0.43661,1.79375c0,0.67932 -0.14275,1.28233 -0.42898,1.80138c-0.28624,0.51903 -0.68924,0.9236 -1.2083,1.21365c-0.51903,0.29006 -1.1083,0.43508 -1.76855,0.43508c-0.77627,0 -1.46554,-0.19846 -2.06701,-0.58774c-0.60148,-0.38928 -1.06709,-0.93122 -1.39684,-1.61055l0.68392,-0.50377c0.31067,0.603 0.69154,1.06097 1.14265,1.3892c0.45111,0.32823 1.00679,0.48852 1.66628,0.48852c0.73734,0 1.33957,-0.24426 1.80519,-0.73276c0.46562,-0.48852 0.69841,-1.12204 0.69841,-1.89298c0,-0.78619 -0.23739,-1.41971 -0.71291,-1.9006c-0.47552,-0.48088 -1.08694,-0.72515 -1.8342,-0.72515c-0.50455,0 -0.99916,0.14504 -1.48462,0.42745l-0.4656,-0.67169l3.68213,-4.305h-4.89045z" fill="#ffffff" fill-rule="evenodd" stroke-width="1"/><path d="M286.80425,97.59325h0.72894v1.72504h3.27378v-1.72504h0.72894v1.72504h1.23197v0.67934h-1.23197v6.8544h1.36172v0.66407h-7.63297v-0.66407h1.53958v-6.8544h-1.11824v-0.67934h1.11824zM287.5332,99.99763v1.84718h3.27378v-1.84718zM287.5332,102.53177v1.81665h3.27378v-1.81665zM287.5332,105.01251v1.83955h3.27378v-1.83955z" fill="#ffffff" fill-rule="evenodd" stroke-width="1"/><path d="M272.40314,98.35654h9.11988v5.00722h-4.06608v1.76323h5.03853v0.66407h-5.03853v1.62583h4.50117v0.64881h-4.50117v1.83955h5.51788v0.66407h-12.06773v-0.66407h5.80869v-1.83955h-4.15311v-0.64881h4.15311v-1.62583h-3.73177c-0.50377,0.78619 -1.07473,1.52659 -1.71361,2.22883l-0.50835,-0.49615c0.51293,-0.56484 0.9877,-1.16786 1.42355,-1.80902c0.43508,-0.64117 0.80299,-1.28233 1.10297,-1.91587l0.68314,0.21372c-0.2038,0.42743 -0.39692,0.80147 -0.58087,1.11442h3.32493v-1.76323h-4.31264zM273.12903,98.99008v1.54949h7.66732v-1.54949zM273.12903,101.17311v1.55714h7.66732v-1.55714z" fill="#ffffff" fill-rule="evenodd" stroke-width="1"/><path d="M293.477,99.11985h4.76373v10.30452c0,0.57247 -0.1267,0.96938 -0.38088,1.18311c-0.2534,0.21372 -0.72056,0.32058 -1.40141,0.32058h-1.34494l-0.14579,-0.70224h1.34494c0.32441,0 0.57018,-0.02291 0.73734,-0.07634c0.16716,-0.05343 0.28319,-0.14502 0.34806,-0.27479c0.06487,-0.13739 0.09769,-0.32823 0.09769,-0.59537v-2.60284h-3.36997c-0.07557,1.02282 -0.26181,1.86245 -0.55949,2.51887c-0.29693,0.65644 -0.79612,1.37393 -1.49834,2.13724l-0.69688,-0.43508c0.64804,-0.67171 1.11517,-1.27471 1.40141,-1.82428c0.28624,-0.54957 0.47554,-1.18311 0.56713,-1.9006c0.0916,-0.71749 0.13739,-1.75558 0.13739,-3.12189zM294.2067,99.82971v2.72496h3.28905v-2.72496zM294.2067,103.21875v1.12204c0,0.43508 -0.01069,0.98465 -0.03283,1.64109h3.32188v-2.76313z" fill="#ffffff" fill-rule="evenodd" stroke-width="1"/><path d="M301.29392,99.11985h11.44947v0.7633h-11.44947z" fill="#ffffff" fill-rule="evenodd" stroke-width="1"/><path d="M302.05721,103.69963h9.92287v0.76329h-9.92287z" fill="#ffffff" fill-rule="evenodd" stroke-width="1"/><path d="M287.76677,108.27941l0.5511,0.41982c-0.31754,0.41982 -0.71522,0.87017 -1.19151,1.35867c-0.47705,0.48852 -0.9335,0.90831 -1.37011,1.27469l-0.49157,-0.50377c0.42668,-0.32823 0.87398,-0.72513 1.34034,-1.19837c0.46638,-0.47325 0.85413,-0.9236 1.16174,-1.35105z" fill="#ffffff" fill-rule="evenodd" stroke-width="1"/><path d="M290.3139,108.27941c0.29386,0.28241 0.54346,0.52667 0.74879,0.73276c0.39157,0.39692 0.74879,0.74803 1.07167,1.04572l-0.46943,0.5114l-0.52896,-0.52667c-0.61598,-0.6259 -1.04725,-1.05336 -1.29151,-1.26708z" fill="#ffffff" fill-rule="evenodd" stroke-width="1"/><path d="M300.53062,109.0427h12.97606v1.52659h-12.97606z" fill="#ffffff" fill-rule="evenodd" stroke-width="1"/><path d="M484.91196,70.43265h8.29421c11.94396,0 21.62178,9.83489 21.62178,21.95835v175.218c0,12.12346 -9.67782,21.95835 -21.62178,21.95835h-8.29421z" fill="#ffffff" fill-rule="evenodd" stroke-width="1"/></g></g></svg>