<svg version="1.1" xmlns="http://www.w3.org/2000/svg" xmlns:xlink="http://www.w3.org/1999/xlink" width="936.93694" height="509.00901" viewBox="0,0,936.93694,509.00901"><g transform="translate(148.46847,74.5045)"><g data-paper-data="{&quot;isPaintingLayer&quot;:true}" fill-rule="nonzero" stroke-linejoin="miter" stroke-miterlimit="10" stroke-dasharray="" stroke-dashoffset="0" style="mix-blend-mode: normal"><path d="M-148.46847,434.50451v-509.00901h936.93694v509.00901z" fill="#0e0e0e" stroke="none" stroke-width="0" stroke-linecap="butt"/><path d="M260.03431,161.92938h21.62556v26.61276h-37.96231v-16.53707" fill="none" stroke="#ffffff" stroke-width="5" stroke-linecap="butt"/><path d="M243.69755,179.6719c0.17512,-0.59284 0.4451,-1.12882 0.79647,-1.61341c4.40958,-6.08151 21.63636,-4.06767 25.0225,-4.71518c2.46748,-0.47184 8.83206,-5.8449 10.83035,-4.41754c1.55903,1.1136 1.69823,1.94879 0.58463,3.50781c-0.36876,0.51626 -2.42471,0.75805 -3.0595,1.10309c-2.99027,1.62545 -5.88985,4.08579 -9.49878,4.1031c-4.13651,0.01984 -8.27314,-0.00589 -12.4097,0c-2.68325,0.00382 -5.36361,1.30599 -7.60189,2.60492c-0.47837,0.2776 -2.0504,1.93542 -2.77166,1.45458z" fill="#ffffff" stroke="#ffffff" stroke-width="0.5" stroke-linecap="butt"/><path d="M241.56479,155.11054l10.99424,10.99424" fill="#ffffff" stroke="#ffffff" stroke-width="5" stroke-linecap="round"/><path d="M252.55903,155.11054l-10.99424,10.99425" data-paper-data="{&quot;index&quot;:null}" fill="#ffffff" stroke="#ffffff" stroke-width="5" stroke-linecap="round"/><text transform="translate(241.21928,202.89244) scale(0.17883,0.17883)" font-size="40" xml:space="preserve" fill="#ffffff" fill-rule="nonzero" stroke-opacity="0" stroke="#000000" stroke-width="0" stroke-linecap="butt" stroke-linejoin="miter" stroke-miterlimit="10" stroke-dasharray="" stroke-dashoffset="0" font-family="&quot;MiSans-Bold&quot;, &quot;Microsoft YaHei&quot;, &quot;微软雅黑&quot;, STXihei, &quot;华文细黑&quot;" font-weight="normal" text-anchor="start" style="mix-blend-mode: normal"><tspan x="0" dy="0">无法获取壁纸</tspan></text><text transform="translate(296.04739,163.52046) scale(0.23775,0.23775)" font-size="40" xml:space="preserve" fill="#ffffff" fill-rule="nonzero" stroke="none" stroke-width="1" stroke-linecap="butt" stroke-linejoin="miter" stroke-miterlimit="10" stroke-dasharray="" stroke-dashoffset="0" font-family="&quot;MiSans-Medium&quot;, Sans Serif" font-weight="normal" text-anchor="start" style="mix-blend-mode: normal"><tspan x="0" dy="0">这可能由于以下原因：</tspan></text><text transform="translate(296.04739,174.56347) scale(0.11249,0.11249)" font-size="40" xml:space="preserve" fill="#ffffff" fill-rule="nonzero" stroke="none" stroke-width="1" stroke-linecap="butt" stroke-linejoin="miter" stroke-miterlimit="10" stroke-dasharray="" stroke-dashoffset="0" font-family="&quot;MiSans-Medium&quot;, Sans Serif" font-weight="normal" text-anchor="start" style="mix-blend-mode: normal"><tspan x="0" dy="0">1.bug，您可以反馈给@_KOSHINO_并贴上触发条件</tspan><tspan x="0" dy="46.15px">  在未来修复时会特别感谢！</tspan><tspan x="0" dy="46.15px"> </tspan><tspan x="0" dy="46.15px">2.网络原因，可能你的网络掉了，或者路由器屏蔽了</tspan><tspan x="0" dy="46.15px">   必应的域名（https://bing.img.run/rand.php）</tspan><tspan x="0" dy="46.15px">   您需要检查路由器&amp;后台后再次尝试</tspan></text><text transform="translate(0,9.14184) scale(0.26412,0.26412)" font-size="40" xml:space="preserve" fill="#1a1a1a" fill-rule="nonzero" stroke="none" stroke-width="1" stroke-linecap="butt" stroke-linejoin="miter" stroke-miterlimit="10" stroke-dasharray="" stroke-dashoffset="0" font-family="&quot;MiSans-Medium&quot;, Sans Serif" font-weight="normal" text-anchor="start" style="mix-blend-mode: normal"><tspan x="0" dy="0">这可不是我的错！</tspan><tspan x="0" dy="46.15px">一定是你的电脑有问题</tspan><tspan x="0" dy="46.15px">一    定    是</tspan><tspan x="0" dy="46.15px">~❤~ZAKO~怎么连背景的加载不出来呢？</tspan></text></g></g></svg>