<svg version="1.1" xmlns="http://www.w3.org/2000/svg" xmlns:xlink="http://www.w3.org/1999/xlink" width="58.00082" height="58.00082" viewBox="0,0,58.00082,58.00082"><g transform="translate(-290.99959,-150.99959)"><g data-paper-data="{&quot;isPaintingLayer&quot;:true}" fill="#67aeff" fill-rule="nonzero" stroke="none" stroke-width="0" stroke-linecap="butt" stroke-linejoin="miter" stroke-miterlimit="10" stroke-dasharray="" stroke-dashoffset="0" style="mix-blend-mode: normal"><path d="M290.9996,187.61719v-15.23439h58.0008v15.23439z"/><path d="M302.67404,185.83721c0,-12.79269 10.37049,-23.16318 23.16318,-23.16318c12.79269,0 23.16318,10.37052 23.16318,23.16318c0,12.79269 -10.37049,23.16318 -23.16318,23.16318c-12.79269,0 -23.16318,-10.37052 -23.16318,-23.16318z"/><path d="M302.67404,174.16278c0,-12.7927 10.37049,-23.16318 23.16319,-23.16318c12.79269,0 23.16319,10.37052 23.16319,23.16319c0,12.7927 -10.37049,23.16319 -23.16318,23.16319c-12.79269,0 -23.16318,-10.37053 -23.16318,-23.16319z"/><path d="M290.9996,185.83721c0,-12.7927 10.37049,-23.16318 23.16319,-23.16318c12.79269,0 23.16319,10.37052 23.16319,23.16319c0,12.7927 -10.37049,23.16319 -23.16318,23.16319c-12.79269,0 -23.16318,-10.37053 -23.16318,-23.16319z"/><path d="M290.9996,174.16278c0,-12.7927 10.37049,-23.16319 23.16319,-23.16319c12.79269,0 23.16319,10.37053 23.16319,23.16319c0,12.7927 -10.37049,23.16319 -23.16318,23.16319c-12.79269,0 -23.16318,-10.37052 -23.16318,-23.16318z"/><path d="M313.58627,209.00039v-58.0008h12.82747v58.0008z"/></g></g></svg>