<svg version="1.1" xmlns="http://www.w3.org/2000/svg" xmlns:xlink="http://www.w3.org/1999/xlink" width="78.24325" height="28.23098" viewBox="0,0,78.24325,28.23098"><g transform="translate(-280.87837,-165.82307)"><g stroke-miterlimit="10"><path d="M280.87838,194.05405v-28.1081h78.24325v28.1081z" fill-opacity="0.00392" fill="#ffffff" stroke="none" stroke-width="0" stroke-linecap="butt"/><text transform="translate(312.4662,187.07307) scale(0.5,0.5)" font-size="40" xml:space="preserve" fill="#ffffff" stroke="none" stroke-width="1" stroke-linecap="butt" font-family="&quot;MiSans-Medium&quot;, Sans Serif" font-weight="normal" text-anchor="start"><tspan x="0" dy="0">关机</tspan></text><path d="M287.69972,179.79757c0,-5.02469 4.07332,-9.09802 9.098,-9.09802c5.02469,0 9.098,4.07333 9.098,9.09802c0,5.02469 -4.07332,9.098 -9.098,9.098c-5.02469,0 -9.098,-4.07332 -9.098,-9.098z" fill="none" stroke="#ffffff" stroke-width="1.5" stroke-linecap="butt"/><path d="M291.02876,176.41336l11.08371,-0.85574v8.71605" fill="none" stroke="#ffffff" stroke-width="1.5" stroke-linecap="round"/><g fill="none" stroke="#ffffff" stroke-width="1.5"><path d="M296.65268,179.86106c0.71365,0.43938 1.18944,1.22781 1.18944,2.12737c0,1.37874 -1.11769,2.49644 -2.49644,2.49644c-1.37874,0 -2.49644,-1.11769 -2.49644,-2.49644c0,-0.89956 0.47579,-1.68799 1.18944,-2.12737" stroke-linecap="butt"/><path d="M295.32677,181.95061v-3.57444" stroke-linecap="round"/></g></g></g></svg>