<svg version="1.1" xmlns="http://www.w3.org/2000/svg" xmlns:xlink="http://www.w3.org/1999/xlink" width="400.40381" height="229.1347" viewBox="0,0,400.40381,229.1347"><g transform="translate(-119.42414,-65.43265)"><g data-paper-data="{&quot;isPaintingLayer&quot;:true}" fill-rule="evenodd" stroke-linecap="butt" stroke-linejoin="miter" stroke-miterlimit="10" stroke-dasharray="" stroke-dashoffset="0" style="mix-blend-mode: normal"><path d="M124.42414,92.39099c0,-12.12346 9.83264,-21.95834 21.96134,-21.95834h346.48413c12.12346,0 21.95834,9.83489 21.95834,21.95834v175.21802c0,12.12346 -9.83489,21.95834 -21.95834,21.95834h-346.48413c-12.12869,0 -21.96134,-9.83489 -21.96134,-21.95834z" fill="none" stroke="#0084ff" stroke-width="10"/><path d="M475.74529,81.05764h7.4899c10.78573,0 19.52507,8.88118 19.52507,19.829v158.22672c0,10.94782 -8.73934,19.829 -19.52507,19.829h-7.4899z" fill="#0084ff" stroke="none" stroke-width="1"/><path d="M152.84435,92.06856c0,-0.99024 4.20053,-1.79354 9.38195,-1.79354h148.01907c5.17918,0 9.38067,0.80331 9.38067,1.79354v14.31169c0,0.99024 -4.20149,1.79354 -9.38067,1.79354h-148.01907c-5.18141,0 -9.38195,-0.80331 -9.38195,-1.79354z" fill="#0084ff" stroke="none" stroke-width="1"/><path d="M152.84435,117.47074c0,-0.99023 2.5169,-1.79354 5.62153,-1.79354h88.69084c3.10329,0 5.62076,0.80331 5.62076,1.79354v14.31169c0,0.99024 -2.51747,1.79354 -5.62076,1.79354h-88.69084c-3.10463,0 -5.62153,-0.80331 -5.62153,-1.79354z" fill="#0084ff" stroke="none" stroke-width="1"/></g></g></svg>