<svg version="1.1" xmlns="http://www.w3.org/2000/svg" xmlns:xlink="http://www.w3.org/1999/xlink" width="102.07642" height="86.61146" viewBox="0,0,102.07642,86.61146"><g transform="translate(-269.59972,-136.69435)"><g data-paper-data="{&quot;isPaintingLayer&quot;:true}" fill-rule="nonzero" stroke-linejoin="miter" stroke-miterlimit="10" stroke-dasharray="" stroke-dashoffset="0" style="mix-blend-mode: normal"><path d="M269.59972,223.30582v-86.61146h102.07642v86.61146z" fill-opacity="0.00392" fill="#00b7ff" stroke="none" stroke-width="0" stroke-linecap="butt"/><text transform="translate(320.00001,174.00005) scale(0.5,0.5)" font-size="40" xml:space="preserve" fill="#009cff" fill-rule="nonzero" stroke="none" stroke-width="1" stroke-linecap="butt" stroke-linejoin="miter" stroke-miterlimit="10" stroke-dasharray="" stroke-dashoffset="0" font-family="&quot;MiSans-Heavy&quot;, Sans Serif" font-weight="normal" text-anchor="start" style="mix-blend-mode: normal"><tspan x="0" dy="0">切换</tspan><tspan x="0" dy="48px">模式</tspan></text><path d="M284.99064,204.80924c-8.53274,-8.2607 -8.75327,-21.87447 -0.49258,-30.4072c8.2607,-8.53274 3.48083,9.96866 12.01356,18.22935c8.53274,8.2607 27.1469,3.15252 18.88621,11.68526c-8.2607,8.53274 -21.87447,8.75327 -30.4072,0.49258z" fill="none" stroke-opacity="0.36471" stroke="#00b3ff" stroke-width="5" stroke-linecap="butt"/><path d="M305.65653,180.22006c0,-2.04514 1.65792,-3.70306 3.70306,-3.70306c2.04514,0 3.70306,1.65792 3.70306,3.70306c0,2.04514 -1.65792,3.70306 -3.70306,3.70306c-2.04514,0 -3.70306,-1.65792 -3.70306,-3.70306z" fill="none" stroke-opacity="0.36471" stroke="#00b3ff" stroke-width="2" stroke-linecap="butt"/><path d="M313.78305,176.12299l1.71459,-2.10173" fill="none" stroke-opacity="0.36471" stroke="#00b3ff" stroke-width="2" stroke-linecap="round"/><path d="M315.49764,186.41886l-1.71459,-2.10173" data-paper-data="{&quot;index&quot;:null}" fill="none" stroke-opacity="0.36471" stroke="#00b3ff" stroke-width="2" stroke-linecap="round"/><path d="M315.16532,180.22006l2.29832,0.00835" data-paper-data="{&quot;index&quot;:null}" fill="none" stroke-opacity="0.36471" stroke="#00b3ff" stroke-width="2" stroke-linecap="round"/><path d="M303.22153,186.41886l1.71459,-2.10173" data-paper-data="{&quot;index&quot;:null}" fill="none" stroke-opacity="0.36471" stroke="#00b3ff" stroke-width="2" stroke-linecap="round"/><path d="M309.35958,185.85426v2.38952" data-paper-data="{&quot;index&quot;:null}" fill="none" stroke-opacity="0.36471" stroke="#00b3ff" stroke-width="2" stroke-linecap="round"/><path d="M304.93612,176.13134l-1.71459,-2.10173" data-paper-data="{&quot;index&quot;:null}" fill="none" stroke-opacity="0.36471" stroke="#00b3ff" stroke-width="2" stroke-linecap="round"/><path d="M309.35958,172.20469v2.38952" data-paper-data="{&quot;index&quot;:null}" fill="none" stroke-opacity="0.36471" stroke="#00b3ff" stroke-width="2" stroke-linecap="round"/><path d="M301.25553,180.22006l2.29832,0.00835" data-paper-data="{&quot;index&quot;:null}" fill="none" stroke-opacity="0.36471" stroke="#00b3ff" stroke-width="2" stroke-linecap="round"/></g></g></svg>