<svg version="1.1" xmlns="http://www.w3.org/2000/svg" xmlns:xlink="http://www.w3.org/1999/xlink" width="42.50839" height="13.43202" viewBox="0,0,42.50839,13.43202"><defs><linearGradient x1="334.45917" y1="183.39751" x2="341.2542" y2="183.39751" gradientUnits="userSpaceOnUse" id="color-1"><stop offset="0" stop-color="#0084ff"/><stop offset="1" stop-color="#0081ff"/></linearGradient><linearGradient x1="334.45917" y1="176.6815" x2="341.2542" y2="176.6815" gradientUnits="userSpaceOnUse" id="color-2"><stop offset="0" stop-color="#0085ff"/><stop offset="1" stop-color="#0081ff"/></linearGradient><linearGradient x1="302.0643" y1="180" x2="337.9357" y2="180" gradientUnits="userSpaceOnUse" id="color-3"><stop offset="0" stop-color="#00b5ff"/><stop offset="1" stop-color="#0081ff"/></linearGradient><linearGradient x1="298.7458" y1="180" x2="341.2542" y2="180" gradientUnits="userSpaceOnUse" id="color-4"><stop offset="0" stop-color="#00b5ff"/><stop offset="1" stop-color="#0081ff"/></linearGradient></defs><g transform="translate(-298.7458,-173.28399)"><g stroke="none" stroke-miterlimit="10"><path d="M298.7458,183.39751c0,-1.83308 1.48542,-3.3185 3.3185,-3.3185c1.83308,0 3.3185,1.48542 3.3185,3.3185c0,1.83308 -1.48542,3.3185 -3.3185,3.3185c-1.83308,0 -3.3185,-1.48542 -3.3185,-3.3185z" fill="#00b2ff" fill-rule="evenodd"/><path d="M334.45917,183.39751c0,-1.83308 1.52019,-3.3185 3.39751,-3.3185c1.87574,0 3.39751,1.48542 3.39751,3.3185c0,1.83308 -1.52177,3.3185 -3.39751,3.3185c-1.87732,0 -3.39751,-1.48542 -3.39751,-3.3185z" fill="url(#color-1)" fill-rule="evenodd"/><path d="M334.45917,176.6815c0,-1.87574 1.52019,-3.39751 3.39751,-3.39751c1.87574,0 3.39751,1.52177 3.39751,3.39751c0,1.87574 -1.52177,3.39751 -3.39751,3.39751c-1.87732,0 -3.39751,-1.52177 -3.39751,-3.39751z" fill="url(#color-2)" fill-rule="evenodd"/><path d="M298.7458,176.6815c0,-1.87574 1.48542,-3.39751 3.3185,-3.39751c1.83308,0 3.3185,1.52177 3.3185,3.39751c0,1.87574 -1.48542,3.39751 -3.3185,3.39751c-1.83308,0 -3.3185,-1.52177 -3.3185,-3.39751z" fill="#00b3ff" fill-rule="evenodd"/><path d="M302.0643,186.71601v-13.43202h35.8714v13.43202z" fill="url(#color-3)" fill-rule="evenodd"/><path d="M298.7458,183.39751v-6.79502h42.50839v6.79502z" fill="url(#color-4)" fill-rule="evenodd"/><text transform="translate(314.3912,181.68264) scale(0.14022,0.14022)" font-size="40" xml:space="preserve" fill="#ffffff" fill-rule="nonzero" font-family="&quot;MiSans-Medium&quot;, Sans Serif" font-weight="normal" text-anchor="start"><tspan x="0" dy="0">完成</tspan></text></g></g></svg>