<svg version="1.1" xmlns="http://www.w3.org/2000/svg" xmlns:xlink="http://www.w3.org/1999/xlink" width="76.19012" height="76.19012" viewBox="0,0,76.19012,76.19012"><defs><radialGradient cx="320" cy="180" r="38.09506" gradientUnits="userSpaceOnUse" id="color-1"><stop offset="0" stop-color="#ffffff" stop-opacity="0.21569"/><stop offset="1" stop-color="#ffffff" stop-opacity="0"/></radialGradient><linearGradient x1="311.49329" y1="180" x2="321.9201" y2="180" gradientUnits="userSpaceOnUse" id="color-2"><stop offset="0" stop-color="#ffffff" stop-opacity="0.58039"/><stop offset="1" stop-color="#ffffff"/></linearGradient><linearGradient x1="314.99888" y1="176.99877" x2="321.92008" y2="176.99877" gradientUnits="userSpaceOnUse" id="color-3"><stop offset="0" stop-color="#ffffff" stop-opacity="0.58039"/><stop offset="1" stop-color="#ffffff"/></linearGradient><linearGradient x1="314.99888" y1="183.00124" x2="321.9201" y2="183.00124" gradientUnits="userSpaceOnUse" id="color-4"><stop offset="0" stop-color="#ffffff" stop-opacity="0.58039"/><stop offset="1" stop-color="#ffffff"/></linearGradient></defs><g transform="translate(-281.90494,-141.90494)"><g data-paper-data="{&quot;isPaintingLayer&quot;:true}" fill-rule="nonzero" stroke-linejoin="miter" stroke-miterlimit="10" stroke-dasharray="" stroke-dashoffset="0" style="mix-blend-mode: normal"><path d="M281.90494,180c0,-21.03931 17.05575,-38.09506 38.09506,-38.09506c21.03931,0 38.09506,17.05575 38.09506,38.09506c0,21.03931 -17.05575,38.09506 -38.09506,38.09506c-21.03931,0 -38.09506,-17.05575 -38.09506,-38.09506z" fill="url(#color-1)" stroke="none" stroke-width="0" stroke-linecap="butt"/><path d="M301.02373,161.02373c0,-10.48031 8.49597,-18.97627 18.97627,-18.97627c10.48031,0 18.97627,8.49597 18.97627,18.97627c0,10.48031 -8.49597,18.97627 -18.97627,18.97627c-10.48031,0 -18.97627,-8.49597 -18.97627,-18.97627z" fill="#0043e5" stroke="none" stroke-width="0" stroke-linecap="butt"/><path d="M301.02373,198.97627c0,-10.48031 8.49597,-18.97627 18.97627,-18.97627c10.48031,0 18.97627,8.49597 18.97627,18.97627c0,10.48031 -8.49597,18.97627 -18.97627,18.97627c-10.48031,0 -18.97627,-8.49597 -18.97627,-18.97627z" fill="#0043e5" stroke="none" stroke-width="0" stroke-linecap="butt"/><path d="M301.02373,198.97627v-37.95254h37.95254v37.95254z" fill="#0043e5" stroke="none" stroke-width="0" stroke-linecap="butt"/><path d="M326.92121,165.7111v28.57781" fill="none" stroke="#ffffff" stroke-width="3" stroke-linecap="round"/><g fill="none" stroke-width="3" stroke-linecap="round"><path d="M321.9201,180h-10.42681" stroke="url(#color-2)"/><path d="M314.99888,173.99753l6.92121,6.00247" stroke="url(#color-3)"/><path d="M321.9201,180l-6.92121,6.00247" data-paper-data="{&quot;index&quot;:null}" stroke="url(#color-4)"/></g></g></g></svg>