<svg version="1.1" xmlns="http://www.w3.org/2000/svg" xmlns:xlink="http://www.w3.org/1999/xlink" width="42.5084" height="13.43202" viewBox="0,0,42.5084,13.43202"><defs><linearGradient x1="355.71337" y1="203.54554" x2="362.5084" y2="203.54554" gradientUnits="userSpaceOnUse" id="color-1"><stop offset="0" stop-color="#0084ff"/><stop offset="1" stop-color="#0081ff"/></linearGradient><linearGradient x1="355.71337" y1="196.82953" x2="362.5084" y2="196.82953" gradientUnits="userSpaceOnUse" id="color-2"><stop offset="0" stop-color="#0085ff"/><stop offset="1" stop-color="#0081ff"/></linearGradient><linearGradient x1="323.3185" y1="200.14803" x2="359.1899" y2="200.14803" gradientUnits="userSpaceOnUse" id="color-3"><stop offset="0" stop-color="#00b5ff"/><stop offset="1" stop-color="#0081ff"/></linearGradient><linearGradient x1="320" y1="200.14803" x2="362.50841" y2="200.14803" gradientUnits="userSpaceOnUse" id="color-4"><stop offset="0" stop-color="#00b5ff"/><stop offset="1" stop-color="#0081ff"/></linearGradient><linearGradient x1="358.0498" y1="204.63909" x2="362.50839" y2="204.63909" gradientUnits="userSpaceOnUse" id="color-5"><stop offset="0" stop-color="#0084ff"/><stop offset="1" stop-color="#0081ff"/></linearGradient><linearGradient x1="358.0498" y1="195.65697" x2="362.50839" y2="195.65697" gradientUnits="userSpaceOnUse" id="color-6"><stop offset="0" stop-color="#0084ff"/><stop offset="1" stop-color="#0081ff"/></linearGradient></defs><g transform="translate(-320,-193.43202)"><g stroke-miterlimit="10"><path d="M320,203.54554c0,-1.83308 1.48542,-3.3185 3.3185,-3.3185c1.83308,0 3.3185,1.48542 3.3185,3.3185c0,1.83308 -1.48542,3.3185 -3.3185,3.3185c-1.83308,0 -3.3185,-1.48542 -3.3185,-3.3185z" fill="#00b2ff" fill-rule="evenodd" stroke="none" stroke-width="1" stroke-linecap="butt"/><path d="M355.71337,203.54554c0,-1.83308 1.52019,-3.3185 3.39751,-3.3185c1.87574,0 3.39751,1.48542 3.39751,3.3185c0,1.83308 -1.52177,3.3185 -3.39751,3.3185c-1.87732,0 -3.39751,-1.48542 -3.39751,-3.3185z" fill="url(#color-1)" fill-rule="evenodd" stroke="none" stroke-width="1" stroke-linecap="butt"/><path d="M355.71337,196.82953c0,-1.87574 1.52019,-3.39751 3.39751,-3.39751c1.87574,0 3.39751,1.52177 3.39751,3.39751c0,1.87574 -1.52177,3.39751 -3.39751,3.39751c-1.87732,0 -3.39751,-1.52177 -3.39751,-3.39751z" fill="url(#color-2)" fill-rule="evenodd" stroke="none" stroke-width="1" stroke-linecap="butt"/><path d="M320,196.82953c0,-1.87574 1.48542,-3.39751 3.3185,-3.39751c1.83308,0 3.3185,1.52177 3.3185,3.39751c0,1.87574 -1.48542,3.39751 -3.3185,3.39751c-1.83308,0 -3.3185,-1.52177 -3.3185,-3.39751z" fill="#00b3ff" fill-rule="evenodd" stroke="none" stroke-width="1" stroke-linecap="butt"/><path d="M323.3185,206.86404v-13.43202h35.8714v13.43202z" fill="url(#color-3)" fill-rule="evenodd" stroke="none" stroke-width="1" stroke-linecap="butt"/><path d="M320,203.54554v-6.79502h42.50839v6.79502z" fill="url(#color-4)" fill-rule="evenodd" stroke="none" stroke-width="1" stroke-linecap="butt"/><text transform="translate(334.40677,201.83067) scale(0.14022,0.14022)" font-size="40" xml:space="preserve" fill="#ffffff" fill-rule="nonzero" stroke="none" stroke-width="1" stroke-linecap="butt" font-family="&quot;MiSans-Medium&quot;, Sans Serif" font-weight="normal" text-anchor="start"><tspan x="0" dy="0">设为锁屏</tspan></text><path d="M325.66642,202.4569v-4.84299h7.15186v4.84299z" fill="none" fill-rule="nonzero" stroke="#ffffff" stroke-width="1" stroke-linecap="butt"/><path d="M329.00444,201.05296h-1.92895" fill="none" fill-rule="nonzero" stroke="#ffffff" stroke-width="1" stroke-linecap="round"/><path d="M330.71083,201.31263h1.22414" fill="none" fill-rule="nonzero" stroke="#ffffff" stroke-width="0.15" stroke-linecap="round"/><path d="M320,206.86404v-3.7486h3.3185v3.7486z" fill="#00b2ff" fill-rule="nonzero" stroke="none" stroke-width="0" stroke-linecap="butt"/><path d="M358.0498,206.86404v-4.44991h4.4586v4.44991z" fill="url(#color-5)" fill-rule="nonzero" stroke="none" stroke-width="0" stroke-linecap="butt"/><path d="M320,197.18062v-3.7486h3.3185v3.7486z" fill="#00b2ff" fill-rule="nonzero" stroke="none" stroke-width="0" stroke-linecap="butt"/><path d="M358.0498,197.88193v-4.44991h4.4586v4.44991z" fill="url(#color-6)" fill-rule="nonzero" stroke="none" stroke-width="0" stroke-linecap="butt"/></g></g></svg>