<svg version="1.1" xmlns="http://www.w3.org/2000/svg" xmlns:xlink="http://www.w3.org/1999/xlink" width="39.68897" height="24.62061" viewBox="0,0,39.68897,24.62061"><g transform="translate(-263.46512,-156.77252)"><g data-paper-data="{&quot;isPaintingLayer&quot;:true}" fill="#3e3e3e" fill-rule="nonzero" stroke="none" stroke-width="0.5" stroke-linecap="butt" stroke-linejoin="miter" stroke-miterlimit="10" stroke-dasharray="" stroke-dashoffset="0" style="mix-blend-mode: normal"><path d="M270.98501,164.62567c2.18238,1.1751 9.00473,1.91399 9.19574,5.35211c0.10511,1.89199 -2.58568,2.79304 -3.72061,3.702c-2.36295,1.89249 -5.1464,8.5963 -8.7407,7.61604c-3.58484,-0.97768 0.75183,-6.30181 1.69632,-7.40762c0.55869,-0.65411 1.11082,-1.40552 1.6965,-2.02175c0.35563,-0.37418 1.56033,-0.8569 1.09986,-1.09027c-1.28246,-0.64997 -9.08325,-4.24724 -8.66779,-5.77059c-0.0517,-0.20027 -0.0792,-0.41027 -0.0792,-0.6267c0,-1.38071 1.11929,-2.5 2.5,-2.5c0.66164,0 1.26325,0.25703 1.71043,0.67669c0.81131,0.40694 1.74019,1.22512 3.30945,2.07008z"/><path d="M298.94385,156.77252c1.64229,1.40999 2.30472,2.47137 2.2248,3.64144c-0.07319,1.0716 -0.76904,2.23438 -1.90509,3.83963c-0.09764,0.13796 -1.76467,2.40095 -1.74654,2.47427c0.421,1.70243 5.33172,1.81658 5.60704,4.41367c0.67747,6.3904 -10.31528,-0.20986 -11.73559,-2.64385c-1.25568,-2.15187 2.79072,-5.67237 3.78576,-7.12218c0.38079,-0.55483 1.58418,-3.98967 2.24096,-4.08131z"/></g></g></svg>