<svg version="1.1" xmlns="http://www.w3.org/2000/svg" xmlns:xlink="http://www.w3.org/1999/xlink" width="76.85716" height="24.28572" viewBox="0,0,76.85716,24.28572"><defs><linearGradient x1="346.14287" y1="186.14286" x2="358.42859" y2="186.14286" gradientUnits="userSpaceOnUse" id="color-1"><stop offset="0" stop-color="#0084ff"/><stop offset="1" stop-color="#0081ff"/></linearGradient><linearGradient x1="346.14287" y1="174" x2="358.42859" y2="174" gradientUnits="userSpaceOnUse" id="color-2"><stop offset="0" stop-color="#0085ff"/><stop offset="1" stop-color="#0081ff"/></linearGradient><linearGradient x1="287.57142" y1="180" x2="352.42859" y2="180" gradientUnits="userSpaceOnUse" id="color-3"><stop offset="0" stop-color="#00b5ff"/><stop offset="1" stop-color="#0081ff"/></linearGradient><linearGradient x1="281.57142" y1="180" x2="358.42859" y2="180" gradientUnits="userSpaceOnUse" id="color-4"><stop offset="0" stop-color="#00b5ff"/><stop offset="1" stop-color="#0081ff"/></linearGradient></defs><g transform="translate(-281.57142,-167.85714)"><g data-paper-data="{&quot;isPaintingLayer&quot;:true}" fill-rule="evenodd" stroke="none" stroke-width="1" stroke-linecap="butt" stroke-linejoin="miter" stroke-miterlimit="10" stroke-dasharray="" stroke-dashoffset="0" style="mix-blend-mode: normal"><path d="M281.57142,186.14286c0,-3.31429 2.68571,-6 6,-6c3.31429,0 6,2.68571 6,6c0,3.31429 -2.68571,6 -6,6c-3.31429,0 -6,-2.68571 -6,-6z" fill="#00b2ff"/><path d="M346.14287,186.14286c0,-3.31429 2.74857,-6 6.14286,-6c3.39143,0 6.14286,2.68571 6.14286,6c0,3.31429 -2.75143,6 -6.14286,6c-3.39429,0 -6.14286,-2.68571 -6.14286,-6z" fill="url(#color-1)"/><path d="M346.14287,174c0,-3.39143 2.74857,-6.14286 6.14286,-6.14286c3.39143,0 6.14286,2.75143 6.14286,6.14286c0,3.39143 -2.75143,6.14286 -6.14286,6.14286c-3.39429,0 -6.14286,-2.75143 -6.14286,-6.14286z" fill="url(#color-2)"/><path d="M281.57142,174c0,-3.39143 2.68571,-6.14286 6,-6.14286c3.31429,0 6,2.75143 6,6.14286c0,3.39143 -2.68571,6.14286 -6,6.14286c-3.31429,0 -6,-2.75143 -6,-6.14286z" fill="#00b3ff"/><path d="M287.57142,192.14286v-24.28572h64.85715v24.28572z" fill="url(#color-3)"/><path d="M281.57142,186.14286v-12.28572h76.85715v12.28572z" fill="url(#color-4)"/></g></g></svg>