<svg version="1.1" xmlns="http://www.w3.org/2000/svg" xmlns:xlink="http://www.w3.org/1999/xlink" width="78.24324" height="29.17906" viewBox="0,0,78.24324,29.17906"><g transform="translate(-286.62838,-164.6438)"><g stroke-miterlimit="10"><path d="M286.62838,193.82286v-28.10811h78.24324v28.10811z" fill-opacity="0.00392" fill="#ffffff" fill-rule="nonzero" stroke="none" stroke-width="0" stroke-linecap="butt"/><text transform="translate(320.12504,185.8938) scale(0.5,0.5)" font-size="40" xml:space="preserve" fill="#0089ff" fill-rule="nonzero" stroke="none" stroke-width="1" stroke-linecap="butt" font-family="&quot;MiSans-Medium&quot;, Sans Serif" font-weight="normal" text-anchor="start"><tspan x="0" dy="0">文件</tspan></text><path d="M310.58321,178.89568z" fill="none" fill-rule="nonzero" stroke="#0089ff" stroke-width="1.5" stroke-linecap="butt"/><path d="M294.98357,178.4933c0,-5.02469 4.07332,-9.09802 9.098,-9.09802c5.02469,0 9.098,4.07333 9.098,9.09802c0,5.02469 -4.07332,9.098 -9.098,9.098c-5.02469,0 -9.098,-4.07332 -9.098,-9.098z" fill="none" fill-rule="nonzero" stroke="#0089ff" stroke-width="1.5" stroke-linecap="butt"/><g fill="none" stroke="#0089ff" stroke-width="1.5"><path d="M308.31565,184.98752c-0.06842,0.09864 -0.16032,0.15902 -0.26137,0.15902h-9.4466c-0.21146,0 -0.38284,-0.26444 -0.38284,-0.59064v-10.07334c0,-0.3262 0.17138,-0.59064 0.38284,-0.59064h9.4466c0.21146,0 0.38288,0.26444 0.38288,0.59064v2.43109" fill-rule="evenodd" stroke-linecap="butt"/><path d="M309.27156,184.67979c-0.06971,0.29022 -0.20267,0.47675 -0.39905,0.46632l-10.43721,-0.01028c-0.15407,0.01028 -0.27017,-0.19696 -0.1773,-0.46633c0.38211,-1.79973 0.7705,-3.59933 1.15261,-5.39893c0.04861,-0.29022 0.19851,-0.44562 0.41174,-0.43519l3.14758,0.01029c0.1098,0.03114 0.27026,-0.06213 0.29137,-0.24866c0.10555,-0.51817 0.22378,-1.01549 0.32933,-1.53366c0.03166,-0.21424 0.11397,-0.29365 0.30397,-0.30051h6.78929c0.15407,-0.00686 0.18786,0.25566 0.1773,0.38334c-0.23221,1.31956 -1.30835,6.20032 -1.58962,7.5336z" fill-rule="evenodd" stroke-linecap="butt"/><path d="M300.16033,178.66331v-1.48654h3.09719" fill-rule="nonzero" stroke-linecap="round"/></g></g></g></svg>