<svg version="1.1" xmlns="http://www.w3.org/2000/svg" xmlns:xlink="http://www.w3.org/1999/xlink" width="102.07642" height="86.61146" viewBox="0,0,102.07642,86.61146"><g transform="translate(-269.59972,-136.69437)"><g stroke-miterlimit="10"><path d="M269.59972,223.30584v-86.61146h102.07642v86.61146z" fill-opacity="0.00392" fill="#00b7ff" stroke="none" stroke-width="0" stroke-linecap="butt"/><text transform="translate(320.00003,174.00007) scale(0.5,0.5)" font-size="40" xml:space="preserve" fill="#009cff" stroke="none" stroke-width="1" stroke-linecap="butt" font-family="&quot;MiSans-Heavy&quot;, Sans Serif" font-weight="normal" text-anchor="start"><tspan x="0" dy="0">触摸</tspan><tspan x="0" dy="48px">键盘</tspan></text><path d="M272.48678,202.04886h24.74525" fill="none" stroke-opacity="0.36471" stroke="#00b3ff" stroke-width="5" stroke-linecap="butt"/><path d="M272.48679,165.96892h38.66318v16.43071" fill="none" stroke-opacity="0.36471" stroke="#00b3ff" stroke-width="5" stroke-linecap="butt"/><path d="M272.48679,195.28248v-3.27851h20.41621v3.27851z" fill-opacity="0.36863" fill="#00b3ff" stroke="none" stroke-width="0" stroke-linecap="butt"/><path d="M296.33054,175.82353v-3.27851h3.72558v3.27851z" fill-opacity="0.36863" fill="#00b3ff" stroke="none" stroke-width="0" stroke-linecap="butt"/><path d="M288.51205,175.82353v-3.27851h3.72559v3.27851z" fill-opacity="0.36863" fill="#00b3ff" stroke="none" stroke-width="0" stroke-linecap="butt"/><path d="M281.03191,175.82353v-3.27851h3.72558v3.27851z" fill-opacity="0.36863" fill="#00b3ff" stroke="none" stroke-width="0" stroke-linecap="butt"/><path d="M273.21342,175.82353v-3.27851h3.72559v3.27851z" fill-opacity="0.36863" fill="#00b3ff" stroke="none" stroke-width="0" stroke-linecap="butt"/><path d="M292.71684,182.39963v-3.27851h3.72559v3.27851z" fill-opacity="0.36863" fill="#00b3ff" stroke="none" stroke-width="0" stroke-linecap="butt"/><path d="M284.89837,182.39963v-3.27851h3.72558v3.27851z" fill-opacity="0.36863" fill="#00b3ff" stroke="none" stroke-width="0" stroke-linecap="butt"/><path d="M277.41821,182.39963v-3.27851h3.72559v3.27851z" fill-opacity="0.36863" fill="#00b3ff" stroke="none" stroke-width="0" stroke-linecap="butt"/><path d="M288.63845,188.50959v-3.27851h3.72558v3.27851z" fill-opacity="0.36863" fill="#00b3ff" stroke="none" stroke-width="0" stroke-linecap="butt"/><path d="M281.15828,188.50959v-3.27851h3.72559v3.27851z" fill-opacity="0.36863" fill="#00b3ff" stroke="none" stroke-width="0" stroke-linecap="butt"/><path d="M273.33981,188.50959v-3.27851h3.72559v3.27851z" fill-opacity="0.36863" fill="#00b3ff" stroke="none" stroke-width="0" stroke-linecap="butt"/><path d="M323.5195,206.84298c0.6364,3.29983 1.63947,5.18219 -0.45922,8.03641c-2.09868,2.85422 -5.19683,2.75394 -8.26602,3.09976c-3.0692,0.34582 -4.76988,-1.74231 -8.61045,-2.06651c-3.84057,-0.3242 -7.05537,1.82152 -8.95486,1.14806c-1.89949,-0.67346 -2.65362,-2.36611 -2.75534,-4.24782c-0.10172,-1.8817 1.97168,-2.62025 4.93665,-4.47743c2.96497,-1.85718 7.38016,0.7384 2.18131,-10.44734c-1.44724,-3.11385 -2.22025,-6.19798 -2.18131,-8.49563c0.03895,-2.29765 0.16785,-4.2824 2.41093,-5.05146c2.24308,-0.76906 2.88455,-1.44447 5.62549,2.29611c2.74094,3.74058 2.84657,10.36396 6.31432,10.21773c7.40188,-0.31212 9.12211,6.68829 9.7585,9.98812z" fill="none" stroke-opacity="0.37255" stroke="#00b4ff" stroke-width="5" stroke-linecap="round"/></g></g></svg>