<svg version="1.1" xmlns="http://www.w3.org/2000/svg" xmlns:xlink="http://www.w3.org/1999/xlink" width="200.00002" height="84.12835" viewBox="0,0,200.00002,84.12835"><defs><radialGradient cx="455.58404" cy="180.00536" r="42.05883" gradientUnits="userSpaceOnUse" id="color-1"><stop offset="0" stop-color="#000000" stop-opacity="0.21569"/><stop offset="1" stop-color="#000000" stop-opacity="0"/></radialGradient><radialGradient cx="375.28571" cy="179.99467" r="42.05883" gradientUnits="userSpaceOnUse" id="color-2"><stop offset="0" stop-color="#000000" stop-opacity="0.21569"/><stop offset="1" stop-color="#000000" stop-opacity="0"/></radialGradient><radialGradient cx="413.52521" cy="180.00536" r="42.05883" gradientUnits="userSpaceOnUse" id="color-3"><stop offset="0" stop-color="#000000" stop-opacity="0.21569"/><stop offset="1" stop-color="#000000" stop-opacity="0"/></radialGradient><radialGradient cx="339.70168" cy="180.00536" r="42.05883" gradientUnits="userSpaceOnUse" id="color-4"><stop offset="0" stop-color="#000000" stop-opacity="0.21569"/><stop offset="1" stop-color="#000000" stop-opacity="0"/></radialGradient></defs><g transform="translate(-297.64285,-137.93584)"><g data-paper-data="{&quot;isPaintingLayer&quot;:true}" fill-rule="nonzero" stroke="none" stroke-width="0" stroke-linecap="butt" stroke-linejoin="miter" stroke-miterlimit="10" stroke-dasharray="" stroke-dashoffset="0" style="mix-blend-mode: normal"><path d="M413.52521,180.00536c0,-23.22844 18.83038,-42.05883 42.05883,-42.05883c23.22845,0 42.05883,18.83038 42.05883,42.05883c0,23.22844 -18.83038,42.05883 -42.05883,42.05883c-23.22845,0 -42.05883,-18.83038 -42.05883,-42.05883z" fill="url(#color-1)"/><path d="M333.22689,179.99467c0,-23.22844 18.83038,-42.05883 42.05883,-42.05883c23.22845,0 42.05883,18.83038 42.05883,42.05883c0,23.22844 -18.83038,42.05883 -42.05883,42.05883c-23.22845,0 -42.05883,-18.83038 -42.05883,-42.05883z" fill="url(#color-2)"/><path d="M371.46638,180.00536c0,-23.22844 18.83038,-42.05883 42.05883,-42.05883c23.22845,0 42.05883,18.83038 42.05883,42.05883c0,23.22844 -18.83038,42.05883 -42.05883,42.05883c-23.22845,0 -42.05883,-18.83038 -42.05883,-42.05883z" fill="url(#color-3)"/><path d="M297.64285,180.00536c0,-23.22844 18.83038,-42.05883 42.05883,-42.05883c23.22845,0 42.05883,18.83038 42.05883,42.05883c0,23.22844 -18.83038,42.05883 -42.05883,42.05883c-23.22845,0 -42.05883,-18.83038 -42.05883,-42.05883z" fill="url(#color-4)"/><path d="M465.06832,202.63419c0,-2.82146 2.28724,-5.1087 5.1087,-5.1087c2.82146,0 5.1087,2.28724 5.1087,5.1087c0,2.82146 -2.28724,5.1087 -5.1087,5.1087c-2.82146,0 -5.1087,-2.28724 -5.1087,-5.1087z" fill="#ffffff"/><path d="M320,202.63419c0,-2.82146 2.28724,-5.1087 5.1087,-5.1087c2.82146,0 5.1087,2.28724 5.1087,5.1087c0,2.82146 -2.28724,5.1087 -5.1087,5.1087c-2.82146,0 -5.1087,-2.28724 -5.1087,-5.1087z" fill="#ffffff"/><path d="M320.00001,202.63419v-45.28975h155.28571v45.28975z" fill="#ffffff"/><path d="M320.00001,157.34445c0,-2.80964 2.28724,-5.08731 5.1087,-5.08731c2.82146,0 5.1087,2.27766 5.1087,5.08731c0,2.80965 -2.28724,5.08731 -5.1087,5.08731c-2.82146,0 -5.1087,-2.27766 -5.1087,-5.08731z" fill="#ffffff"/><path d="M465.06833,157.34445c0,-2.80964 2.28724,-5.08731 5.1087,-5.08731c2.82146,0 5.1087,2.27766 5.1087,5.08731c0,2.80965 -2.28724,5.08731 -5.1087,5.08731c-2.82146,0 -5.1087,-2.27766 -5.1087,-5.08731z" fill="#ffffff"/><path d="M325.1087,207.7429v-55.48577h145.06832v55.48577z" fill="#ffffff"/></g></g></svg>