<svg version="1.1" xmlns="http://www.w3.org/2000/svg" xmlns:xlink="http://www.w3.org/1999/xlink" width="31.75567" height="24.21353" viewBox="0,0,31.75567,24.21353"><g transform="translate(-304.12217,-167.89325)"><g stroke-miterlimit="10"><path d="M304.34576,184.86459c0.14442,-0.48892 0.36709,-0.93097 0.65687,-1.33062c3.6367,-5.01558 17.84407,-3.35472 20.6367,-3.88873c2.035,-0.38914 7.28404,-4.82044 8.93207,-3.64326c1.28578,0.91841 1.40057,1.60722 0.48216,2.89299c-0.30412,0.42578 -1.99973,0.62517 -2.52325,0.90974c-2.46616,1.34054 -4.85751,3.36967 -7.83388,3.38394c-3.41149,0.01636 -6.82307,-0.00485 -10.2346,0c-2.21294,0.00315 -4.42352,1.07709 -6.26947,2.14835c-0.39452,0.22895 -1.69102,1.59618 -2.28586,1.19964z" fill="#0084ff" stroke="none" stroke-width="0.5"/><path d="M305.87217,190.35678v-20.71353h28.25567v20.71353z" fill="none" stroke="#0084ff" stroke-width="3.5"/></g></g></svg>