<svg version="1.1" xmlns="http://www.w3.org/2000/svg" xmlns:xlink="http://www.w3.org/1999/xlink" width="71.1863" height="26.75" viewBox="0,0,71.1863,26.75"><g transform="translate(-307.54247,-165.67925)"><g stroke-miterlimit="10"><path d="M307.54247,192.42925v-26.75h70.61507v26.75z" fill-opacity="0.00392" fill="#0077ff" stroke="none" stroke-width="0" stroke-linecap="butt"/><path d="M310.32787,180c0,-5.34177 4.33036,-9.67213 9.67213,-9.67213c5.34177,0 9.67213,4.33036 9.67213,9.67213c0,5.34177 -4.33036,9.67213 -9.67213,9.67213c-5.34177,0 -9.67213,-4.33036 -9.67213,-9.67213z" fill-opacity="0.00392" fill="#ffffff" stroke="#0077ff" stroke-width="1.5" stroke-linecap="butt"/><text transform="translate(332.45914,184.39375) scale(0.38082,0.38082)" font-size="40" xml:space="preserve" fill="#0077ff" stroke="none" stroke-width="1" stroke-linecap="butt" font-family="&quot;MiSans-Medium&quot;, Sans Serif" font-weight="normal" text-anchor="start"><tspan x="0" dy="0">重命名</tspan></text><path d="M314.95928,184.38689v-8.06451h13.19832c0,0 1.57165,-0.11631 1.56424,4.05182c-0.00646,3.63063 -1.50742,4.01269 -1.50742,4.01269z" fill="none" stroke="#0077ff" stroke-width="1.5" stroke-linecap="butt"/><path d="M320.05276,182.08247h1.76136" fill="none" stroke="#0077ff" stroke-width="1.5" stroke-linecap="round"/><path d="M317.45447,181.97513l1.09465,-3.34834" fill="none" stroke="#0077ff" stroke-width="1.5" stroke-linecap="round"/></g></g></svg>