<svg version="1.1" xmlns="http://www.w3.org/2000/svg" xmlns:xlink="http://www.w3.org/1999/xlink" width="54.57648" height="54.57648" viewBox="0,0,54.57648,54.57648"><defs><linearGradient x1="298.17586" y1="166.26806" x2="341.82414" y2="193.73194" gradientUnits="userSpaceOnUse" id="color-1"><stop offset="0" stop-color="#ffffff" stop-opacity="0.4902"/><stop offset="1" stop-color="#ffffff" stop-opacity="0"/></linearGradient></defs><g transform="translate(-292.71176,-152.71176)"><g data-paper-data="{&quot;isPaintingLayer&quot;:true}" fill-rule="nonzero" stroke-width="3" stroke-linecap="butt" stroke-linejoin="miter" stroke-miterlimit="10" stroke-dasharray="" stroke-dashoffset="0" style="mix-blend-mode: normal"><path d="M296.0274,180c0,-13.2397 10.7329,-23.9726 23.9726,-23.9726c13.2397,0 23.9726,10.7329 23.9726,23.9726c0,13.2397 -10.7329,23.9726 -23.9726,23.9726c-13.2397,0 -23.9726,-10.7329 -23.9726,-23.9726z" fill="#0073ff" stroke="#ffffff"/><path d="M298.17586,166.26806c7.58394,-12.05314 23.50294,-15.67614 35.55607,-8.0922c12.05314,7.58394 15.67614,23.50294 8.0922,35.55607c-7.58394,12.05314 -23.50294,15.67614 -35.55607,8.0922c-12.05314,-7.58394 -15.67614,-23.50294 -8.0922,-35.55607z" fill="url(#color-1)" stroke="#cecece"/></g></g></svg>