<svg version="1.1" xmlns="http://www.w3.org/2000/svg" xmlns:xlink="http://www.w3.org/1999/xlink" width="43.04348" height="44.67391" viewBox="0,0,43.04348,44.67391"><g transform="translate(-298.99809,-157.36284)"><g stroke="none" stroke-width="0" stroke-miterlimit="10"><path d="M298.99809,202.03676v-44.67391h43.04348v44.67391z" fill-opacity="0.00392" fill="#00ffff" stroke-linecap="butt"/><path d="M308.40921,185.05379v-11.63902c0,0 3.46158,0 5.30903,0c2.01728,0 6.32999,-5.30902 6.32999,-5.30902c0,0 1.08108,7.47855 1.08108,11.34816c0,4.05154 -1.08108,12.44036 -1.08108,12.44036c0,0 -4.67069,-6.84047 -6.73838,-6.84047c-1.76332,0 -4.90064,0 -4.90064,0z" fill="#ffffff" stroke-linecap="butt"/><path d="M323.95153,175.37443c0,0 2.68126,1.36432 2.64188,4.33089c-0.04273,3.21911 -2.64188,4.92026 -2.64188,4.92026" fill="#ffffff" stroke-linecap="round"/><path d="M328.38356,170.86571c0,0 5.29478,2.69417 5.21702,8.55237c-0.08438,6.35689 -5.21702,9.71623 -5.21702,9.71623" fill="#ffffff" stroke-linecap="round"/></g></g></svg>