<svg version="1.1" xmlns="http://www.w3.org/2000/svg" xmlns:xlink="http://www.w3.org/1999/xlink" width="960" height="540" viewBox="0,0,960,540"><defs><linearGradient x1="223.75274" y1="346.69943" x2="416.24725" y2="13.30056" gradientUnits="userSpaceOnUse" id="color-1"><stop offset="0" stop-color="#000000"/><stop offset="0.01053" stop-color="#000001"/><stop offset="0.02105" stop-color="#000103"/><stop offset="0.03158" stop-color="#000105"/><stop offset="0.04211" stop-color="#000207"/><stop offset="0.05263" stop-color="#000309"/><stop offset="0.06316" stop-color="#00030b"/><stop offset="0.07368" stop-color="#00040c"/><stop offset="0.08421" stop-color="#00040e"/><stop offset="0.09474" stop-color="#000510"/><stop offset="0.10526" stop-color="#000612"/><stop offset="0.11579" stop-color="#000613"/><stop offset="0.12632" stop-color="#000715"/><stop offset="0.13684" stop-color="#000717"/><stop offset="0.14737" stop-color="#000818"/><stop offset="0.1579" stop-color="#00081a"/><stop offset="0.16842" stop-color="#00091c"/><stop offset="0.17895" stop-color="#00091d"/><stop offset="0.18947" stop-color="#000a1f"/><stop offset="0.2" stop-color="#000a20"/><stop offset="0.21053" stop-color="#000b22"/><stop offset="0.22105" stop-color="#000b23"/><stop offset="0.23158" stop-color="#000c25"/><stop offset="0.24211" stop-color="#000c26"/><stop offset="0.25263" stop-color="#000d28"/><stop offset="0.26316" stop-color="#000d29"/><stop offset="0.27368" stop-color="#000e2b"/><stop offset="0.28421" stop-color="#000e2c"/><stop offset="0.29474" stop-color="#000f2e"/><stop offset="0.30526" stop-color="#000f2f"/><stop offset="0.31579" stop-color="#001030"/><stop offset="0.32632" stop-color="#001032"/><stop offset="0.33684" stop-color="#001133"/><stop offset="0.34737" stop-color="#001134"/><stop offset="0.3579" stop-color="#001236"/><stop offset="0.36842" stop-color="#001237"/><stop offset="0.37895" stop-color="#001238"/><stop offset="0.38947" stop-color="#001339"/><stop offset="0.4" stop-color="#00133b"/><stop offset="0.41053" stop-color="#00143c"/><stop offset="0.42105" stop-color="#00143d"/><stop offset="0.43158" stop-color="#00143e"/><stop offset="0.44211" stop-color="#00153f"/><stop offset="0.45263" stop-color="#001540"/><stop offset="0.46316" stop-color="#001642"/><stop offset="0.47368" stop-color="#001643"/><stop offset="0.48421" stop-color="#001644"/><stop offset="0.49474" stop-color="#001745"/><stop offset="0.50526" stop-color="#001746"/><stop offset="0.51579" stop-color="#001747"/><stop offset="0.52632" stop-color="#001848"/><stop offset="0.53684" stop-color="#001849"/><stop offset="0.54737" stop-color="#00184a"/><stop offset="0.5579" stop-color="#00194b"/><stop offset="0.56842" stop-color="#00194c"/><stop offset="0.57895" stop-color="#00194d"/><stop offset="0.58947" stop-color="#00194d"/><stop offset="0.6" stop-color="#001a4e"/><stop offset="0.61053" stop-color="#001a4f"/><stop offset="0.62105" stop-color="#001a50"/><stop offset="0.63158" stop-color="#001b51"/><stop offset="0.64211" stop-color="#001b52"/><stop offset="0.65263" stop-color="#001b52"/><stop offset="0.66316" stop-color="#001b53"/><stop offset="0.67368" stop-color="#001c54"/><stop offset="0.68421" stop-color="#001c54"/><stop offset="0.69474" stop-color="#001c55"/><stop offset="0.70526" stop-color="#001c56"/><stop offset="0.71579" stop-color="#001c56"/><stop offset="0.72632" stop-color="#001d57"/><stop offset="0.73684" stop-color="#001d58"/><stop offset="0.74737" stop-color="#001d58"/><stop offset="0.7579" stop-color="#001d59"/><stop offset="0.76842" stop-color="#001d59"/><stop offset="0.77895" stop-color="#001e5a"/><stop offset="0.78947" stop-color="#001e5a"/><stop offset="0.8" stop-color="#001e5b"/><stop offset="0.81053" stop-color="#001e5b"/><stop offset="0.82105" stop-color="#001e5c"/><stop offset="0.83158" stop-color="#001e5c"/><stop offset="0.84211" stop-color="#001e5c"/><stop offset="0.85263" stop-color="#001f5d"/><stop offset="0.86316" stop-color="#001f5d"/><stop offset="0.87368" stop-color="#001f5e"/><stop offset="0.88421" stop-color="#001f5e"/><stop offset="0.89474" stop-color="#001f5e"/><stop offset="0.90526" stop-color="#001f5e"/><stop offset="0.91579" stop-color="#001f5f"/><stop offset="0.92632" stop-color="#001f5f"/><stop offset="0.93684" stop-color="#001f5f"/><stop offset="0.94737" stop-color="#001f5f"/><stop offset="0.9579" stop-color="#001f5f"/><stop offset="0.96842" stop-color="#001f5f"/><stop offset="0.97895" stop-color="#001f5f"/><stop offset="0.98947" stop-color="#001f5f"/><stop offset="1" stop-color="#002060"/></linearGradient><clipPath id="clip-1"><rect x="-320" y="-180" transform="scale(0.5,0.5)" width="1920" height="1080" fill="none" fill-rule="nonzero" stroke-width="0.5"/></clipPath></defs><g transform="translate(160,90)"><g clip-path="url(#clip-1)" data-paper-data="{&quot;isPaintingLayer&quot;:true}" stroke="none" stroke-linecap="butt" stroke-linejoin="miter" stroke-miterlimit="10" stroke-dasharray="" stroke-dashoffset="0" style="mix-blend-mode: normal"><path d="M124.79809,92.39099c0,-12.12346 9.83489,-21.95835 21.95835,-21.95835h346.48712c12.12346,0 21.95835,9.83489 21.95835,21.95835v175.21802c0,12.12346 -9.83488,21.95835 -21.95835,21.95835h-346.48712c-12.12346,0 -21.95835,-9.83488 -21.95835,-21.95835z" fill="url(#color-1)" fill-rule="evenodd" stroke-width="1"/><path d="M159.8746,98.85285c1.39857,0 2.61017,0.26176 3.62732,0.79277c1.01714,0.53101 1.80244,1.27891 2.34093,2.2437c0.53849,0.96479 0.80773,2.07168 0.80773,3.32067c0,1.10689 -0.25429,2.17639 -0.77034,3.20102c-0.51605,1.02463 -1.25647,2.04924 -2.21378,3.07386l-3.53757,3.77689h6.92556v4.53227h-14.18766v-3.20101l7.13496,-7.53136c0.68807,-0.7479 1.16672,-1.39109 1.43597,-1.92958c0.27672,-0.53849 0.41134,-1.09193 0.41134,-1.66034c0,-0.66563 -0.18697,-1.18916 -0.54596,-1.59303c-0.36647,-0.39638 -0.89,-0.59832 -1.57807,-0.59832c-0.72547,0 -1.3537,0.22437 -1.87723,0.66563c-0.51605,0.44126 -0.96479,1.11437 -1.33874,2.01933l-3.66471,-2.58025c0.55345,-1.28639 1.41353,-2.35589 2.58026,-3.21597c1.15924,-0.86008 2.64756,-1.30134 4.45,-1.3163z" fill="#ffffff" fill-rule="evenodd" stroke-width="1"/><path d="M198.7654,98.85285c1.39857,0 2.61017,0.26176 3.62732,0.79277c1.01714,0.53101 1.80244,1.27891 2.34093,2.2437c0.53849,0.96479 0.80773,2.07168 0.80773,3.32067c0,1.10689 -0.25428,2.17639 -0.77033,3.20102c-0.51605,1.02463 -1.25647,2.04924 -2.21379,3.07386l-3.53757,3.77689h6.92555v4.53227h-14.18766v-3.20101l7.13497,-7.53136c0.68807,-0.7479 1.16672,-1.39109 1.43597,-1.92958c0.27672,-0.53849 0.41134,-1.09193 0.41134,-1.66034c0,-0.66563 -0.18698,-1.18916 -0.54597,-1.59303c-0.36647,-0.39638 -0.89,-0.59832 -1.57807,-0.59832c-0.72547,0 -1.3537,0.22437 -1.87723,0.66563c-0.51605,0.44126 -0.9648,1.11437 -1.33875,2.01933l-3.66471,-2.58025c0.55345,-1.28639 1.41353,-2.35589 2.58025,-3.21597c1.15924,-0.86008 2.64757,-1.30134 4.45001,-1.3163z" fill="#ffffff" fill-rule="evenodd" stroke-width="1"/><path d="M238.40411,98.85285c1.39857,0 2.61017,0.26176 3.62732,0.79277c1.01714,0.53101 1.80244,1.27891 2.34092,2.2437c0.53849,0.96479 0.80773,2.07168 0.80773,3.32067c0,1.10689 -0.25428,2.17639 -0.77033,3.20102c-0.51605,1.02463 -1.25647,2.04924 -2.21379,3.07386l-3.53757,3.77689h6.92556v4.53227h-14.18767v-3.20101l7.13497,-7.53136c0.68807,-0.7479 1.16672,-1.39109 1.43597,-1.92958c0.27672,-0.53849 0.41134,-1.09193 0.41134,-1.66034c0,-0.66563 -0.18698,-1.18916 -0.54597,-1.59303c-0.36647,-0.39638 -0.88999,-0.59832 -1.57807,-0.59832c-0.72547,0 -1.3537,0.22437 -1.87723,0.66563c-0.51605,0.44126 -0.96479,1.11437 -1.33874,2.01933l-3.66471,-2.58025c0.55345,-1.28639 1.41353,-2.35589 2.58026,-3.21597c1.15924,-0.86008 2.64756,-1.30134 4.45,-1.3163z" fill="#ffffff" fill-rule="evenodd" stroke-width="1"/><path d="M255.30665,98.85285c2.41571,0 4.27051,0.89 5.55689,2.67748c1.27891,1.78 1.9221,4.39017 1.9221,7.81556c0,3.41791 -0.64319,6.01311 -1.9221,7.78563c-1.28639,1.77253 -3.14118,2.66253 -5.55689,2.66253c-2.41572,0 -4.27051,-0.89 -5.5569,-2.66253c-1.27891,-1.77253 -1.9221,-4.36773 -1.9221,-7.78563c0,-3.42538 0.64319,-6.03556 1.9221,-7.81556c1.28639,-1.78748 3.14119,-2.67748 5.5569,-2.67748zM255.30665,103.31034c-0.89748,0 -1.57808,0.50109 -2.04925,1.51824c-0.47117,1.01714 -0.71051,2.52043 -0.71051,4.51732c0,1.98193 0.23933,3.47774 0.71051,4.47992c0.47117,1.00966 1.15177,1.51075 2.04925,1.51075c0.89748,0 1.57807,-0.50109 2.04924,-1.51075c0.47118,-1.00218 0.71051,-2.49799 0.71051,-4.47992c0,-1.99689 -0.23933,-3.50017 -0.71051,-4.51732c-0.47118,-1.01714 -1.15177,-1.51824 -2.04924,-1.51824z" fill="#ffffff" fill-rule="evenodd" stroke-width="1"/><path d="M169.3131,99.60075h12.53481v3.79185l-4.53227,3.66471l0.05236,0.12714c0.97975,0 1.87722,0.25429 2.70739,0.77034c0.83017,0.50857 1.48084,1.21907 1.9595,2.13151c0.48613,0.91244 0.72546,1.92958 0.72546,3.05143c0,1.28639 -0.30664,2.43816 -0.9274,3.44034c-0.61328,1.00218 -1.46588,1.79496 -2.55782,2.36337c-1.08445,0.5684 -2.32597,0.8526 -3.70959,0.8526c-1.77253,0 -3.24589,-0.41134 -4.43505,-1.23403c-1.18168,-0.81521 -2.04176,-1.86227 -2.58025,-3.1337l3.67219,-2.46059c0.35899,0.86756 0.79278,1.51823 1.3163,1.95949c0.52353,0.43378 1.18168,0.65068 1.97446,0.65068c0.77782,0 1.40606,-0.2169 1.87723,-0.65068c0.47117,-0.44126 0.7105,-1.0321 0.7105,-1.78748c0,-0.77034 -0.23933,-1.38361 -0.72546,-1.84731c-0.47866,-0.45622 -1.12185,-0.68807 -1.93706,-0.68807c-0.29916,0 -0.58336,0.04487 -0.83765,0.13462c-0.2468,0.09722 -0.55344,0.24681 -0.90496,0.4637l-2.58774,-3.18606l4.40513,-4.04614h-6.20009z" fill="#ffffff" fill-rule="evenodd" stroke-width="1"/><path d="M208.54046,99.60075h12.18329v4.21815h-7.81556l-0.29916,3.11875c0.83765,-0.40386 1.74261,-0.6058 2.72236,-0.6058c1.30134,0 2.42319,0.26924 3.37303,0.81521c0.94984,0.54596 1.6753,1.31631 2.18387,2.31101c0.50857,0.9947 0.76286,2.15395 0.76286,3.47774c0,1.40605 -0.29916,2.62513 -0.89748,3.65723c-0.59832,1.0321 -1.46589,1.8174 -2.58774,2.37084c-1.12185,0.55344 -2.45312,0.83017 -3.97883,0.83017c-1.57059,0 -2.94672,-0.35899 -4.13588,-1.0695c-1.18916,-0.7105 -2.06421,-1.71269 -2.61018,-2.99908l3.76942,-2.5653c0.66563,1.60798 1.70521,2.41572 3.12622,2.41572c0.81521,0 1.47336,-0.22437 1.96697,-0.66563c0.50109,-0.44126 0.75538,-1.06202 0.75538,-1.84731c0,-0.82269 -0.23933,-1.45092 -0.71798,-1.89966c-0.47117,-0.44126 -1.14428,-0.66563 -2.00437,-0.66563c-0.6058,0 -1.13681,0.15706 -1.61547,0.45622c-0.47117,0.29916 -0.83765,0.7479 -1.08445,1.33126l-3.91899,-1.78748z" fill="#ffffff" fill-rule="evenodd" stroke-width="1"/><path d="M185.00404,104.08815h4.4874v5.2353h-4.4874z" fill="#ffffff" fill-rule="evenodd" stroke-width="1"/><path d="M224.64275,104.08815h5.2353v5.2353h-5.2353z" fill="#ffffff" fill-rule="evenodd" stroke-width="1"/><path d="M185.00404,114.55875h4.4874v5.2353h-4.4874z" fill="#ffffff" fill-rule="evenodd" stroke-width="1"/><path d="M224.64275,114.55875h5.2353v5.2353h-5.2353z" fill="#ffffff" fill-rule="evenodd" stroke-width="1"/><path d="M190.65069,122.78565l0.74042,0.21689c-0.21689,0.5011 -0.47118,0.9947 -0.75538,1.4958h8.91496v0.7105h-4.87631v2.84202h4.50236v0.69555h-4.50236v3.24588h5.28765v0.73295h-5.28765v3.5226h-0.76286v-3.5226h-6.66379v-0.73295h2.16144v-3.94143h4.50235v-2.84202h-3.68714c-0.74042,1.17421 -1.57059,2.23622 -2.49051,3.20101l-0.47118,-0.62824c0.71051,-0.71798 1.36118,-1.51824 1.95202,-2.3858c0.59084,-0.87504 1.0695,-1.74261 1.43597,-2.61017zM190.13464,128.74642v3.24588h3.77689v-3.24588z" fill="#ffffff" fill-rule="evenodd" stroke-width="1"/><path d="M219.25039,123.53355h8.38396v10.57531c0,0.47866 -0.05983,0.83765 -0.17202,1.07698c-0.11219,0.23933 -0.30663,0.41134 -0.58336,0.50857c-0.27672,0.08975 -0.68059,0.13462 -1.2116,0.13462h-1.72765l-0.14958,-0.74042h1.71269c0.40386,0 0.70303,-0.02991 0.89,-0.08227c0.18697,-0.05236 0.31412,-0.15706 0.38143,-0.31412c0.07479,-0.14958 0.1047,-0.38891 0.1047,-0.71798v-2.45311h-6.99286c-0.11219,0.98723 -0.31412,1.80991 -0.61328,2.48302c-0.29916,0.67311 -0.78529,1.42101 -1.4584,2.2437l-0.65068,-0.47866c0.61328,-0.72547 1.06203,-1.37613 1.34623,-1.94454c0.2842,-0.56092 0.47866,-1.21908 0.58336,-1.96698c0.1047,-0.7479 0.15706,-1.79496 0.15706,-3.15614zM219.99081,124.25902v2.97664h6.88816v-2.97664zM219.99081,127.94616v0.84513c0,0.76286 -0.01496,1.44344 -0.04487,2.03428h6.93303v-2.87941z" fill="#ffffff" fill-rule="evenodd" stroke-width="1"/><path d="M250.07135,124.28145h9.7227v11.95145h-0.82269v-1.11437h-8.06237v1.12932h-0.83764zM250.90899,125.03683v4.2032h8.06237v-4.2032zM250.90899,129.99541v4.36774h8.06237v-4.36774z" fill="#ffffff" fill-rule="evenodd" stroke-width="1"/><path d="M155.45451,124.28145c0.62076,0 1.17421,0.11966 1.66034,0.35899c0.49362,0.23933 0.86756,0.58336 1.13681,1.02462c0.27672,0.44126 0.41135,0.96479 0.41135,1.56311c0,0.62076 -0.13462,1.1742 -0.41135,1.67529c-0.26925,0.50109 -0.73295,1.11437 -1.39857,1.85479l-3.5974,3.93395h5.57185v0.80773h-6.7311v-0.7479l3.99379,-4.39765c0.62076,-0.68807 1.05454,-1.24899 1.30135,-1.6753c0.2468,-0.42631 0.36647,-0.89 0.36647,-1.39109c0,-0.66563 -0.21689,-1.20412 -0.65068,-1.6005c-0.42631,-0.39638 -0.98722,-0.59832 -1.66781,-0.59832c-0.58336,0 -1.09942,0.15705 -1.55564,0.47118c-0.45622,0.31412 -0.81521,0.77781 -1.07697,1.38361l-0.68059,-0.4637c0.26176,-0.68059 0.68807,-1.2116 1.27143,-1.60798c0.59084,-0.39638 1.27143,-0.59084 2.05673,-0.59084z" fill="#ffffff" fill-rule="evenodd" stroke-width="1"/><path d="M164.80326,124.28145c1.2116,0 2.13152,0.47866 2.78219,1.43597c0.64319,0.96479 0.96479,2.35589 0.96479,4.17328c0,1.8174 -0.3216,3.20849 -0.96479,4.17328c-0.65068,0.95731 -1.57059,1.43597 -2.78219,1.43597c-1.18916,0 -2.10907,-0.47866 -2.75975,-1.44345c-0.65068,-0.96479 -0.97227,-2.35588 -0.97227,-4.1658c0,-1.80992 0.3216,-3.20101 0.97227,-4.1658c0.65068,-0.96479 1.57059,-1.44345 2.75975,-1.44345zM164.80326,125.07423c-0.89748,0 -1.6005,0.41135 -2.08664,1.24152c-0.49362,0.83017 -0.74042,2.01933 -0.74042,3.57496c0,1.56311 0.2468,2.75975 0.74042,3.58244c0.48613,0.82269 1.18916,1.23404 2.08664,1.23404c0.91244,0 1.61547,-0.41135 2.1016,-1.23404c0.49362,-0.82269 0.74042,-2.01933 0.74042,-3.58244c0,-1.55563 -0.24681,-2.74479 -0.7479,-3.57496c-0.49362,-0.83017 -1.19664,-1.24152 -2.09412,-1.24152z" fill="#ffffff" fill-rule="evenodd" stroke-width="1"/><path d="M173.40411,124.28145c0.62076,0 1.17421,0.11966 1.66034,0.35899c0.49362,0.23933 0.86756,0.58336 1.13681,1.02462c0.27672,0.44126 0.41135,0.96479 0.41135,1.56311c0,0.62076 -0.13462,1.1742 -0.41135,1.67529c-0.26925,0.50109 -0.73295,1.11437 -1.39857,1.85479l-3.5974,3.93395h5.57185v0.80773h-6.7311v-0.7479l3.99379,-4.39765c0.62076,-0.68807 1.05454,-1.24899 1.30135,-1.6753c0.2468,-0.42631 0.36647,-0.89 0.36647,-1.39109c0,-0.66563 -0.21689,-1.20412 -0.65068,-1.6005c-0.42631,-0.39638 -0.98723,-0.59832 -1.66782,-0.59832c-0.58336,0 -1.09941,0.15705 -1.55563,0.47118c-0.45622,0.31412 -0.81521,0.77781 -1.07698,1.38361l-0.68059,-0.4637c0.26176,-0.68059 0.68807,-1.2116 1.27143,-1.60798c0.59084,-0.39638 1.27143,-0.59084 2.05673,-0.59084z" fill="#ffffff" fill-rule="evenodd" stroke-width="1"/><path d="M211.17307,124.28145c1.20412,0 2.13151,0.47866 2.78218,1.43597c0.64319,0.96479 0.96479,2.35589 0.96479,4.17328c0,1.8174 -0.3216,3.20849 -0.96479,4.17328c-0.65068,0.95731 -1.57807,1.43597 -2.78218,1.43597c-1.18916,0 -2.10908,-0.47866 -2.75976,-1.44345c-0.65068,-0.96479 -0.97227,-2.35588 -0.97227,-4.1658c0,-1.80992 0.3216,-3.20101 0.97227,-4.1658c0.65068,-0.96479 1.5706,-1.44345 2.75976,-1.44345zM211.17307,125.07423c-0.89748,0 -1.60051,0.41135 -2.08665,1.24152c-0.49362,0.83017 -0.74042,2.01933 -0.74042,3.57496c0,1.56311 0.2468,2.75975 0.74042,3.58244c0.48613,0.82269 1.18917,1.23404 2.08665,1.23404c0.91244,0 1.61546,-0.41135 2.1016,-1.23404c0.49362,-0.82269 0.74042,-2.01933 0.74042,-3.58244c0,-1.55563 -0.2468,-2.74479 -0.7479,-3.57496c-0.49362,-0.83017 -1.19664,-1.24152 -2.09412,-1.24152z" fill="#ffffff" fill-rule="evenodd" stroke-width="1"/><path d="M234.73192,124.28145c0.62076,0 1.1742,0.11966 1.66034,0.35899c0.49362,0.23933 0.86756,0.58336 1.13681,1.02462c0.27672,0.44126 0.41135,0.96479 0.41135,1.56311c0,0.62076 -0.13462,1.1742 -0.41135,1.67529c-0.26925,0.50109 -0.73295,1.11437 -1.39857,1.85479l-3.5974,3.93395h5.57185v0.80773h-6.7311v-0.7479l3.99379,-4.39765c0.62076,-0.68807 1.05454,-1.24899 1.30134,-1.6753c0.2468,-0.42631 0.36647,-0.89 0.36647,-1.39109c0,-0.66563 -0.21689,-1.20412 -0.65067,-1.6005c-0.42631,-0.39638 -0.98723,-0.59832 -1.66782,-0.59832c-0.58336,0 -1.09941,0.15705 -1.55563,0.47118c-0.45622,0.31412 -0.81521,0.77781 -1.07698,1.38361l-0.68059,-0.4637c0.26176,-0.68059 0.68807,-1.2116 1.27143,-1.60798c0.59084,-0.39638 1.27143,-0.59084 2.05673,-0.59084z" fill="#ffffff" fill-rule="evenodd" stroke-width="1"/><path d="M183.17169,124.28145h1.17421v7.77068h1.40605v0.79277h-1.40605v2.65505h-0.85261v-2.65505h-5.22034v-0.69555zM183.49329,125.32104l-4.21068,6.7311h4.21068z" fill="#ffffff" fill-rule="evenodd" stroke-width="1"/><path d="M204.56911,124.28145h0.62823v11.2185h-0.84512v-10.16396l-2.14648,1.249v-0.94984z" fill="#ffffff" fill-rule="evenodd" stroke-width="1"/><path d="M239.91486,124.28145h6.52917v0.7479l-3.79933,3.90404l0.02991,0.04487c0.32907,-0.08975 0.65815,-0.13462 0.99471,-0.13462c0.59832,0 1.15177,0.12715 1.6753,0.38891c0.52353,0.26176 0.94235,0.63572 1.25647,1.12933c0.3216,0.49362 0.47866,1.07698 0.47866,1.75756c0,0.66563 -0.15706,1.25647 -0.4637,1.76504c-0.31412,0.50857 -0.75538,0.90496 -1.3163,1.18916c-0.56841,0.2842 -1.2116,0.4263 -1.92958,0.4263c-0.84512,0 -1.59303,-0.19445 -2.25118,-0.57588c-0.65068,-0.38143 -1.15924,-0.91244 -1.51824,-1.57807l0.7479,-0.49362c0.33656,0.59084 0.74789,1.03958 1.24151,1.36118c0.49362,0.3216 1.09193,0.47866 1.80992,0.47866c0.80773,0 1.45841,-0.23933 1.96698,-0.71798c0.50857,-0.47866 0.76286,-1.09941 0.76286,-1.85479c0,-0.77033 -0.26176,-1.3911 -0.77782,-1.86227c-0.51605,-0.47117 -1.18168,-0.7105 -1.99689,-0.7105c-0.54596,0 -1.08445,0.14209 -1.61547,0.41882l-0.50857,-0.65815l4.00875,-4.21816h-5.32505z" fill="#ffffff" fill-rule="evenodd" stroke-width="1"/><path d="M168.5652,140.73525h0.7105v1.69025h3.20849v-1.69025h0.71798v1.69025h1.20412v0.66563h-1.20412v6.71614h1.33126v0.65067h-7.479v-0.65067h1.51076v-6.71614h-1.09941v-0.66563h1.09941zM169.27571,143.09114v1.80992h3.20849v-1.80992zM169.27571,145.57417v1.78h3.20849v-1.78zM169.27571,148.00484v1.80244h3.20849v-1.80244z" fill="#ffffff" fill-rule="evenodd" stroke-width="1"/><path d="M154.45233,141.48315h8.9374v4.90623h-3.9863v1.72765h4.93614v0.65067h-4.93614v1.59303h4.41261v0.63572h-4.41261v1.80244h5.40732v0.65067h-11.8243v-0.65067h5.69152v-1.80244h-4.06858v-0.63572h4.06858v-1.59303h-3.65723c-0.49362,0.77033 -1.05454,1.49579 -1.67529,2.18386l-0.5011,-0.48613c0.50109,-0.55345 0.96479,-1.14428 1.3911,-1.77252c0.43378,-0.62823 0.79277,-1.25648 1.08445,-1.87723l0.66563,0.20941c-0.19446,0.41882 -0.38891,0.7853 -0.56841,1.09194h3.26085v-1.72765h-4.22564zM155.16283,142.10391v1.51823h7.51639v-1.51823zM155.16283,144.24291v1.52571h7.51639v-1.52571z" fill="#ffffff" fill-rule="evenodd" stroke-width="1"/><path d="M175.10185,142.23105h4.6669v10.09665c0,0.56092 -0.12715,0.94984 -0.37395,1.15924c-0.2468,0.20941 -0.70302,0.31412 -1.36865,0.31412h-1.32379l-0.1421,-0.68807h1.3163c0.3216,0 0.56093,-0.02244 0.72547,-0.07479c0.16454,-0.05236 0.27672,-0.14209 0.34403,-0.26924c0.05983,-0.13462 0.08975,-0.3216 0.08975,-0.58337v-2.55034h-3.29824c-0.07479,1.00218 -0.25428,1.82488 -0.54596,2.46807c-0.29168,0.64319 -0.78529,1.34622 -1.47337,2.09412l-0.68059,-0.4263c0.63572,-0.65815 1.09193,-1.24899 1.37613,-1.78748c0.27672,-0.53849 0.4637,-1.15925 0.55345,-1.86227c0.08975,-0.70302 0.13462,-1.72017 0.13462,-3.05891zM175.81235,142.9266v2.67h3.22345v-2.67zM175.81235,146.24728v1.09941c0,0.42631 -0.00748,0.96479 -0.02992,1.60799h3.25337v-2.7074z" fill="#ffffff" fill-rule="evenodd" stroke-width="1"/><path d="M182.76034,142.23105h11.2185v0.7479h-11.2185z" fill="#ffffff" fill-rule="evenodd" stroke-width="1"/><path d="M183.50824,146.71845h9.7227v0.7479h-9.7227z" fill="#ffffff" fill-rule="evenodd" stroke-width="1"/><path d="M169.50756,151.20585l0.53849,0.41135c-0.31412,0.41135 -0.70303,0.85261 -1.16673,1.33127c-0.47117,0.47866 -0.91244,0.89 -1.34622,1.24899l-0.47866,-0.49361c0.41882,-0.3216 0.85261,-0.71051 1.3163,-1.17421c0.45622,-0.4637 0.83017,-0.90496 1.13681,-1.32379z" fill="#ffffff" fill-rule="evenodd" stroke-width="1"/><path d="M172.00554,151.20585c0.2842,0.27672 0.53101,0.51605 0.73294,0.71798c0.38143,0.38891 0.73294,0.73295 1.04706,1.02463l-0.4637,0.50109l-0.51605,-0.51605c-0.6058,-0.61328 -1.02462,-1.03211 -1.26395,-1.24152z" fill="#ffffff" fill-rule="evenodd" stroke-width="1"/><path d="M182.01244,151.95375h12.7143v1.4958h-12.7143z" fill="#ffffff" fill-rule="evenodd" stroke-width="1"/><path d="M477.41195,81.05764h7.4899c10.78573,0 19.52507,8.88118 19.52507,19.829v158.22672c0,10.94782 -8.73934,19.829 -19.52507,19.829h-7.4899z" fill="#000000" fill-rule="evenodd" stroke-width="1"/></g></g></svg>