<svg version="1.1" xmlns="http://www.w3.org/2000/svg" xmlns:xlink="http://www.w3.org/1999/xlink" width="46.70295" height="48.95233" viewBox="0,0,46.70295,48.95233"><g transform="translate(-300.47093,-150.73333)"><g data-paper-data="{&quot;isPaintingLayer&quot;:true}" fill-rule="nonzero" stroke-linejoin="miter" stroke-miterlimit="10" stroke-dasharray="" stroke-dashoffset="0" style="mix-blend-mode: normal"><path d="M320.9266,168.04279h23.68152v29.14286h-41.57143v-18.10926" fill="none" stroke="#0084ff" stroke-width="5" stroke-linecap="butt"/><path d="M303.03669,173.34444v-11.44445h12.11111v11.44445z" fill="none" stroke="#0084ff" stroke-width="5" stroke-linecap="butt"/><path d="M304.25891,161.34444v-8.11111h9.77778v2" fill="none" stroke="#0084ff" stroke-width="5" stroke-linecap="round"/><path d="M300.47093,188.07176c0.21544,-0.72933 0.54759,-1.38873 0.97986,-1.98489c5.42487,-7.48175 26.61803,-5.00423 30.78381,-5.80082c3.03561,-0.58048 10.8656,-7.19066 13.32399,-5.43466c1.91799,1.36999 2.08924,2.39749 0.71925,4.31547c-0.45366,0.63513 -2.983,0.93258 -3.76394,1.35708c-3.67877,1.9997 -7.24596,5.02653 -11.68582,5.04782c-5.08893,0.0244 -10.17799,-0.00724 -15.26697,0c-3.30106,0.0047 -6.59856,1.60669 -9.35219,3.20469c-0.58851,0.34152 -2.5225,2.38104 -3.40982,1.7895z" fill="#0084ff" stroke="none" stroke-width="0.5" stroke-linecap="butt"/></g></g></svg>