<svg version="1.1" xmlns="http://www.w3.org/2000/svg" xmlns:xlink="http://www.w3.org/1999/xlink" width="700.75047" height="417.44841" viewBox="0,0,700.75047,417.44841"><defs><radialGradient cx="320.00001" cy="180.00002" r="350.37524" gradientUnits="userSpaceOnUse" id="color-1"><stop offset="0" stop-color="#000000"/><stop offset="1" stop-color="#000000" stop-opacity="0"/></radialGradient><linearGradient x1="17" y1="124.02528" x2="320.00001" y2="124.02528" gradientUnits="userSpaceOnUse" id="color-2"><stop offset="0" stop-color="#00b5ff"/><stop offset="1" stop-color="#0079ff"/></linearGradient><linearGradient x1="87.75931" y1="160.5887" x2="111.82464" y2="160.5887" gradientTransform="translate(-93.79488,-183.1595) scale(1.06867,1.06867)" gradientUnits="userSpaceOnUse" id="color-3"><stop offset="0" stop-color="#ffffff" stop-opacity="0"/><stop offset="1" stop-color="#ffffff"/></linearGradient><linearGradient x1="320.00001" y1="241.21183" x2="623.00001" y2="241.21183" gradientUnits="userSpaceOnUse" id="color-4"><stop offset="0" stop-color="#ffffff"/><stop offset="1" stop-color="#0079ff"/></linearGradient></defs><g transform="translate(30.37523,28.7242)"><g data-paper-data="{&quot;isPaintingLayer&quot;:true}" stroke="none" stroke-linecap="butt" stroke-linejoin="miter" stroke-miterlimit="10" stroke-dasharray="" stroke-dashoffset="0" style="mix-blend-mode: normal"><path d="M-30.37523,388.72422v-417.44841h700.75047v417.44841z" fill="url(#color-1)" fill-rule="nonzero" stroke-width="0"/><path d="M17,182.61857v-117.18655h303v117.18655z" fill="url(#color-2)" fill-rule="nonzero" stroke-width="0"/><text transform="translate(30.92631,93.08652) scale(0.5,0.5)" font-size="40" xml:space="preserve" fill="#ffffff" fill-rule="nonzero" stroke="none" stroke-width="1" stroke-linecap="butt" stroke-linejoin="miter" stroke-miterlimit="10" stroke-dasharray="" stroke-dashoffset="0" font-family="&quot;MiSans-Heavy&quot;, Sans Serif" font-weight="normal" text-anchor="start" style="mix-blend-mode: normal"><tspan x="0" dy="0">错误报告</tspan></text><text transform="translate(30.92631,109.42315) scale(0.2279,0.2279)" font-size="40" xml:space="preserve" fill="#ffffff" fill-rule="nonzero" stroke="none" stroke-width="1" stroke-linecap="butt" stroke-linejoin="miter" stroke-miterlimit="10" stroke-dasharray="" stroke-dashoffset="0" font-family="&quot;MiSans-Medium&quot;, Sans Serif" font-weight="normal" text-anchor="start" style="mix-blend-mode: normal"><tspan x="0" dy="0">TechFure 因“克隆体溢出”而关闭，您可以尝试重启</tspan><tspan x="0" dy="46.150000000000006px">如果是在应用内触发，请联系应用开发者</tspan><tspan x="0" dy="46.150000000000006px">如果是在系统内触发，请联系@_KOSHINO_</tspan></text><text transform="translate(234.89681,174.53413) scale(3.17609,3.17609)" font-size="40" xml:space="preserve" fill-opacity="0.32941" fill="#ffffff" fill-rule="nonzero" stroke="none" stroke-width="1" stroke-linecap="butt" stroke-linejoin="miter" stroke-miterlimit="10" stroke-dasharray="" stroke-dashoffset="0" font-family="&quot;MiSans-Medium&quot;, Sans Serif" font-weight="normal" text-anchor="start" style="mix-blend-mode: normal"><tspan x="0" dy="0">:(</tspan></text><text transform="translate(87.76762,171.38968) scale(0.93574,0.93574)" font-size="40" xml:space="preserve" fill="url(#color-3)" fill-rule="nonzero" stroke="none" stroke-width="1" stroke-linecap="butt" stroke-linejoin="miter" stroke-miterlimit="10" stroke-dasharray="" stroke-dashoffset="0" font-family="&quot;MiSans-Heavy&quot;, Sans Serif" font-weight="normal" text-anchor="start" style="mix-blend-mode: normal"><tspan x="0" dy="0">3</tspan></text><path d="M61.86083,150.65256v4.01903c0,0.1722 0.13969,0.31179 0.3118,0.31179h5.21631c0.17211,0 0.3118,0.13959 0.3118,0.3118v9.33512c0,0.1722 -0.13969,0.31179 -0.3118,0.31179h-3.28007c-0.17211,0 -0.3118,-0.13959 -0.3118,-0.31179v-6.56638c0,-0.1722 -0.13968,-0.3118 -0.31179,-0.3118h-1.31265c-0.17211,0 -0.3118,0.13959 -0.3118,0.3118v6.56638c0,0.1722 -0.13968,0.31179 -0.31179,0.31179h-3.28008c-0.1722,0 -0.31179,-0.13959 -0.31179,-0.31179v-6.56638c0,-0.1722 -0.13959,-0.3118 -0.31179,-0.3118h-3.41103c-0.1722,0 -0.31179,0.13959 -0.31179,0.3118v3.80077c0,0.1722 0.13959,0.31179 0.31179,0.31179h2.42264c0.2957,0 0.42534,0.37172 0.19331,0.55499l-2.71261,2.14203c-0.05503,0.0435 -0.12319,0.06859 -0.19331,0.06859h-3.6137c-0.1722,0 -0.31179,-0.13959 -0.31179,-0.31179v-6.71917c0,-0.10106 0.04852,-0.19409 0.13096,-0.25255l3.69164,-2.61907c0.05273,-0.03739 0.11621,-0.05612 0.18084,-0.05612h3.62305c0.1722,0 0.31179,-0.13959 0.31179,-0.31179v-3.49521c0,-0.15321 0.11059,-0.28451 0.2619,-0.30868l3.28008,-0.52381c0.18926,-0.03026 0.36168,0.11686 0.36168,0.30867zM31.40166,151.11403l20.89333,-0.00624c0.30381,0 0.42859,0.38853 0.18084,0.56435l-3.01816,2.14202c-0.05275,0.03742 -0.11618,0.05924 -0.18084,0.05924l-10.98451,0.00624c-0.1722,0 -0.31179,0.13959 -0.31179,0.31179v10.43886c0,0.1722 -0.13959,0.3118 -0.3118,0.3118h-3.28007c-0.1722,0 -0.3118,-0.13959 -0.3118,-0.3118v-10.43886c0,-0.1722 -0.13959,-0.31179 -0.31179,-0.31179h-2.3634c-0.1722,0 -0.31179,-0.13959 -0.31179,-0.3118v-2.14202c0,-0.1722 0.13959,-0.31179 0.31179,-0.31179zM43.42445,154.96468h5.72142c0.1722,0 0.3118,0.13959 0.3118,0.3118v4.19052c0,0.1722 -0.13959,0.31179 -0.3118,0.31179h-5.82119l2.32287,-1.47167c0.26384,-0.16709 0.14393,-0.5737 -0.16837,-0.5737h-1.84271c-0.1722,0 -0.31179,0.13959 -0.31179,0.31179v3.80077c0,0.1722 0.13959,0.31179 0.31179,0.31179h4.84217c0.30394,0 0.42884,0.38862 0.18084,0.56435l-3.02441,2.14203c-0.05269,0.03733 -0.11627,0.05924 -0.18084,0.05924h-5.72142c-0.1722,0 -0.3118,-0.13959 -0.3118,-0.31179v-6.71917c0,-0.10106 0.04852,-0.19409 0.13095,-0.25255l3.69164,-2.61907c0.05273,-0.03739 0.1162,-0.05613 0.18084,-0.05613z" fill="#ffffff" fill-rule="evenodd" stroke-width="0"/><path d="M69.03854,151.08497c-0.17211,0 -0.31179,0.13959 -0.31179,0.31179v2.14203c0,0.1722 0.13968,0.31179 0.31179,0.31179h9.39748c0.06454,0 0.12814,-0.02191 0.18084,-0.05924l3.02441,-2.14203c0.24788,-0.17569 0.12285,-0.56435 -0.18084,-0.56435h-12.42188zM78.59191,161.49266c0,0.1722 0.13968,0.31179 0.31179,0.31179h1.48414v-6.55703c0,-0.1722 0.13968,-0.31179 0.31179,-0.31179h6.04881c0.30244,0 0.4256,0.38703 0.18084,0.56435l-2.50994,1.81776c-0.08076,0.05865 -0.12784,0.15259 -0.12784,0.25255v7.03096c0,0.1722 -0.13968,0.31179 -0.31179,0.31179h-3.28008c-0.17211,0 -0.31179,-0.13959 -0.31179,-0.31179v-2.7968l-1.76164,2.95581c-0.05643,0.09441 -0.15839,0.15277 -0.26814,0.15277h-3.43286c-0.17211,0 -0.31179,-0.13959 -0.31179,-0.31179v-6.56638c0,-0.1722 -0.13968,-0.31179 -0.31179,-0.31179h-1.35942c-0.17211,0 -0.3118,0.13959 -0.3118,0.31179v6.56638c0,0.1722 -0.13968,0.31179 -0.31179,0.31179h-3.28631c-0.17243,0 -0.31179,-0.13952 -0.31179,-0.31179l0.00624,-9.33512c0,-0.17214 0.13968,-0.3118 0.31179,-0.3118h9.24158c0.17211,0 0.3118,0.13959 0.3118,0.3118zM89.23033,155.01045l-3.69164,2.61907c-0.08231,0.05846 -0.13095,0.1515 -0.13095,0.25256v6.71917c0,0.1722 0.13969,0.31179 0.3118,0.31179h5.72142c0.06454,0 0.12814,-0.02191 0.18084,-0.05924l3.02441,-2.14203c0.24788,-0.17572 0.12285,-0.56435 -0.18084,-0.56435h-4.84216c-0.17211,0 -0.3118,-0.13959 -0.3118,-0.31179v-3.80077c0,-0.1722 0.13969,-0.3118 0.3118,-0.3118h1.8427c0.31241,0 0.43246,0.40661 0.16837,0.5737l-2.32287,1.47167h5.8212c0.17211,0 0.31179,-0.13959 0.31179,-0.3118v-4.19052c0,-0.1722 -0.13968,-0.31179 -0.31179,-0.31179h-5.72142c-0.06485,0 -0.12815,0.01874 -0.18084,0.05612z" fill="#c1fffb" fill-rule="evenodd" stroke-width="1"/><text transform="translate(67.26954,166.91536) scale(0.05562,0.05562)" font-size="40" xml:space="preserve" fill="#ffffff" fill-rule="nonzero" stroke="none" stroke-width="1" stroke-linecap="butt" stroke-linejoin="miter" stroke-miterlimit="10" stroke-dasharray="" stroke-dashoffset="0" font-family="&quot;MiSans-Heavy&quot;, Sans Serif" font-weight="normal" text-anchor="start" style="mix-blend-mode: normal"><tspan x="0" dy="0">TechFure by _KOSHINO_</tspan></text><path d="M320.00001,299.80512v-117.18655h303v117.18655z" fill="url(#color-4)" fill-rule="nonzero" stroke-width="0"/><path d="M363.13736,244.32406c0,-1.00825 0.40662,-1.60987 0.89189,-1.96886c2.58423,-5.58422 3.73905,-13.34423 3.39787,-19.33174c-0.18822,-3.30325 -1.05645,-6.26084 -1.07502,-9.56096c0,0 0,-2.5 2.5,-2.5c2.5,0 2.5,2.5 2.5,2.5c-0.02236,3.18669 0.88383,6.08118 1.06815,9.29888c0.41291,7.20824 -1.14744,16.19918 -4.33251,22.6807l-2.45038,1.38197c0,0 -2.5,0 -2.5,-2.5z" fill="#000000" fill-rule="nonzero" stroke-width="0.5"/><path d="M388.92663,247.07388c-2.32119,-0.92847 -1.39272,-3.24966 -1.39272,-3.24966l0.40035,-0.99747c2.34746,-6.43522 2.19438,-12.79373 1.78298,-19.56752c-0.22757,-3.74698 0.02596,-7.22444 -1.84256,-10.52844c0,0 -1.19713,-2.19474 0.99761,-3.39187c2.19474,-1.19713 3.39187,0.99761 3.39187,0.99761c2.19351,4.1311 2.16515,8.01105 2.44377,12.61772c0.45224,7.47735 0.50302,14.47194 -2.07471,21.58121l-0.45693,1.1457c0,0 -0.92848,2.32119 -3.24967,1.39271z" fill="#000000" fill-rule="nonzero" stroke-width="0.5"/><path d="M352.27382,246.33438c0.14646,-0.50493 0.50104,-1.01792 1.23627,-1.41895c1.09596,-0.5978 1.94315,-0.34981 2.51675,0.04834l0.62056,-0.20685c0.2642,-0.09499 0.54902,-0.14675 0.84593,-0.14675c1.38071,0 2.5,1.11929 2.5,2.5c0,0.5074 -0.15116,0.9795 -0.41091,1.37372l-1.48016,2.32595l-1.14531,-0.72884l-1.04805,1.88523c-0.71035,-0.76524 -1.42068,-1.53049 -2.13103,-2.29574l-1.05274,-0.36392c0,0 -1.41088,-1.41088 -0.45132,-2.97219z" fill="#ffc8c8" fill-rule="nonzero" stroke-width="0.5"/><path d="M389.75082,255.9543l1.9527,-0.05046c-0.18378,2.60839 0.73602,9.74906 -6.60553,4.98682c-1.38519,-0.89853 -0.1904,-3.29669 -0.28561,-4.94503c0,0 0.38014,-2.47093 2.85107,-2.09079c1.5788,0.24289 1.99363,1.33936 2.08737,2.09946z" fill="#ffc8c8" fill-rule="nonzero" stroke-width="0.5"/><path d="M425.27969,256.3409c0,2.5 -2.5,2.5 -2.5,2.5l-0.03471,-0.05953c-2.20426,0.48834 -3.68413,0.81626 -5.2212,0.96295l-0.12801,0.064l0.11562,0.34687l-2.54129,0.8471c-0.2642,0.09498 -0.54902,0.14675 -0.84593,0.14675c-1.38071,0 -2.5,-1.11929 -2.5,-2.5c0,-0.99801 0.58479,-1.85943 1.43041,-2.26029l1.5387,-0.76935c-0.18192,-0.53352 -0.29827,-1.09055 -0.36599,-1.65785c-0.29618,0.12324 -0.59378,0.24575 -0.89293,0.36762c-2.81989,1.14878 -10.37162,5.90902 -13.46124,2.83338c-1.22803,-1.22247 -0.10472,-3.46594 -0.05531,-5.198c0.18644,-6.53478 2.59979,-12.74052 2.57382,-19.28204c0,0 0,-0.59932 0.29344,-1.21109c-0.02641,-0.57272 0.12336,-1.02207 0.12336,-1.02207l1.5422,-2.31105c6.12569,-3.05081 11.68276,-6.70156 18.06094,-9.31093c4.17663,-1.7087 7.94217,-5.13635 11.29491,0.40426c0.62962,1.04049 0.18793,2.42582 0.22872,3.6413c0.14161,4.21944 0,8.4726 0,12.69475c-0.02526,3.24845 0.41004,5.8037 -1.6673,8.73041c-0.75634,1.06559 -4.6727,3.12969 -5.97445,3.84628c-2.38332,1.31198 -4.73071,2.5103 -7.12336,3.63255c-0.08243,0.8968 -0.11057,1.7982 -0.10422,2.70067c1.19799,-0.27992 2.34172,-0.52083 2.59445,-0.57715l1.11936,-0.05954c0,0 2.5,0 2.5,2.5zM407.50824,232.14287c-0.0294,0.06989 -0.07424,0.16803 -0.13633,0.28187c0.01972,0.15869 0.01972,0.25776 0.01972,0.25776c-0.02003,5.75195 -1.48844,11.16766 -2.33798,16.8306c-0.09726,0.64834 0.07169,1.94333 -0.22451,2.95159c0.8185,-0.40294 1.71057,-0.66356 2.55151,-1.02326c1.3574,-0.5806 2.70389,-1.18727 4.07113,-1.74432c4.34132,-1.76879 8.3156,-3.67182 12.43041,-5.93291c1.48163,-0.81416 3.40031,-1.14675 4.41217,-2.50108c1.00125,-1.34014 0.65345,-4.38613 0.64084,-5.69545c0,-3.17368 0,-6.34738 0,-9.52106c0,-1.05789 -0.05114,-2.11703 0,-3.17369c0.03001,-0.62018 0.64653,-2.09695 0.07207,-1.86133c-7.48773,3.07119 -14.31592,7.44794 -21.49903,11.13127z" fill="#000000" fill-rule="nonzero" stroke-width="0.5"/><path d="M379.10942,252.9853c-0.54233,2.44047 -2.98279,1.89814 -2.98279,1.89814l-2.54919,-0.56697c-1.54686,-0.31053 -3.20122,-0.38741 -4.73315,-0.01007c0,0 -2.44047,0.54233 -2.98279,-1.89814c-0.54233,-2.44047 1.89814,-2.98279 1.89814,-2.98279c2.22259,-0.45746 4.56986,-0.38693 6.80753,-0.01007l2.64412,0.5871c0,0 2.44047,0.54233 1.89814,2.98279z" fill="#000000" fill-rule="nonzero" stroke-width="0.5"/><path d="M373.74935,267.93158c-0.68383,0.20955 -1.31956,0.09397 -1.31956,0.09397c-0.76612,-0.16319 -2.82119,-1.01733 -3.80564,-0.18439c-1.80544,1.52758 -1.30255,4.73286 0.92872,5.53311c1.6813,0.603 5.54256,1.04799 7.36603,0.72213c2.82601,-0.50501 2.69669,-2.74832 0.73379,-4.27822c-0.53767,-0.41907 -1.23632,-0.57478 -1.85448,-0.86217zM373.64924,263.1962c1.02266,-0.39352 2.0769,0.1336 2.0769,0.1336l2.30814,1.15407c0.9206,0.48199 2.00089,0.73827 2.7618,1.44597c1.23488,1.14854 2.50819,2.42095 3.09551,4.00182c3.47793,9.36133 -11.0211,10.51347 -16.34595,8.02201c-5.41219,-2.53232 -6.97573,-10.14738 -1.95645,-14.08605c2.77374,-2.17657 4.75528,-1.24083 7.73504,-0.76143c0,0 0.1301,0.02366 0.32502,0.09001z" fill="#000000" fill-rule="nonzero" stroke-width="0.5"/><text transform="translate(471.50001,249.10004) scale(0.6837,0.6837)" font-size="40" xml:space="preserve" fill="#000000" fill-rule="nonzero" stroke="none" stroke-width="1" stroke-linecap="butt" stroke-linejoin="miter" stroke-miterlimit="10" stroke-dasharray="" stroke-dashoffset="0" font-family="&quot;MiSans-Heavy&quot;, Sans Serif" font-weight="normal" text-anchor="start" style="mix-blend-mode: normal"><tspan x="0" dy="0">怎么回事？</tspan></text><path d="M402.19513,202.94948c0,-2.5 2.5,-2.5 2.5,-2.5h0.32616c1.28803,0.11257 2.76594,-0.34475 3.86408,0.33772c1.82142,1.13199 3.4399,5.68338 3.1834,7.68626c-0.35401,2.76421 -6.35448,6.56152 -0.52432,6.0008c0,0 2.5,0 2.5,2.5c0,2.5 -2.5,2.5 -2.5,2.5c-1.29738,-0.06343 -2.7168,0.3627 -3.89213,-0.1903c-2.95678,-1.39119 -4.54368,-4.58771 -3.65188,-7.79357c0.23792,-0.85529 2.97522,-2.18784 3.1058,-3.62785c0.18036,-1.989 -0.56676,-2.79162 -2.08494,-2.41307h-0.32616c0,0 -2.5,0 -2.5,-2.5z" fill="#000000" fill-rule="nonzero" stroke-width="0.5"/><path d="M412.38594,197.92013c1.76777,-1.76777 3.53553,0 3.53553,0l-0.83937,-0.06463c3.76701,0.61833 5.97576,0.02239 7.11146,5.26479c0.06378,0.29443 -3.87943,6.811 -0.99179,7.26324c0.68818,0.10778 1.38957,-0.09955 2.08436,-0.14932c0,0 2.5,0 2.5,2.5c0,2.5 -2.5,2.5 -2.5,2.5c-4.76839,-0.18804 -7.91236,-1.54484 -8.04447,-7.0991c-0.08446,-3.55116 4.03088,-5.28068 -0.71172,-5.31019l-2.144,-1.36926c0,0 -1.76777,-1.76777 0,-3.53553z" fill="#000000" fill-rule="nonzero" stroke-width="0.5"/></g></g></svg>