<svg version="1.1" xmlns="http://www.w3.org/2000/svg" xmlns:xlink="http://www.w3.org/1999/xlink" width="480.56252" height="416.56037" viewBox="0,0,480.56252,416.56037"><defs><radialGradient cx="31.20438" cy="48.44266" r="0.00125" gradientUnits="userSpaceOnUse" id="color-1"><stop offset="0" stop-color="#000000" stop-opacity="0.51765"/><stop offset="1" stop-color="#000000" stop-opacity="0"/></radialGradient></defs><g transform="translate(160.56252,0)"><g data-paper-data="{&quot;isPaintingLayer&quot;:true}" fill-rule="nonzero" stroke="none" stroke-width="0" stroke-linecap="butt" stroke-linejoin="miter" stroke-miterlimit="10" stroke-dasharray="" stroke-dashoffset="0" style="mix-blend-mode: normal"><path d="M-160.56252,410.32364v-404.0869h480.56252v404.0869z" fill="#dadada"/><path d="M298.5002,6.23673c0,-3.44444 4.81288,-6.23673 10.74989,-6.23673c5.93701,0 10.74989,2.79228 10.74989,6.23673c0,3.44446 -4.81288,6.23673 -10.74989,6.23673c-5.93701,0 -10.74989,-2.79228 -10.74989,-6.23673z" fill="#dadada"/><path d="M298.5002,410.32364c0,-3.44446 4.81288,-6.23673 10.74989,-6.23673c5.93701,0 10.74989,2.79228 10.74989,6.23673c0,3.44446 -4.81288,6.23673 -10.74989,6.23673c-5.93701,0 -10.74989,-2.79228 -10.74989,-6.23673z" fill="#dadada"/><path d="M-160.56252,6.23673c0,-3.44444 4.81288,-6.23673 10.74989,-6.23673c5.93701,0 10.74989,2.79228 10.74989,6.23673c0,3.44446 -4.81288,6.23673 -10.74989,6.23673c-5.93701,0 -10.74989,-2.79228 -10.74989,-6.23673z" fill="#dadada"/><path d="M-160.56252,410.32364c0,-3.44446 4.81288,-6.23673 10.74989,-6.23673c5.93701,0 10.74989,2.79228 10.74989,6.23673c0,3.44446 -4.81288,6.23673 -10.74989,6.23673c-5.93701,0 -10.74989,-2.79228 -10.74989,-6.23673z" fill="#dadada"/><path d="M-149.81263,416.56037v-416.56036h459.06273v416.56036z" fill="#dadada"/><path d="M62.40875,96.88531z" fill="url(#color-1)"/></g></g></svg>