<svg version="1.1" xmlns="http://www.w3.org/2000/svg" xmlns:xlink="http://www.w3.org/1999/xlink" width="534.81673" height="470.61441" viewBox="0,0,534.81673,470.61441"><g transform="translate(214.81673,52.85728)"><g data-paper-data="{&quot;isPaintingLayer&quot;:true}" fill-rule="nonzero" stroke="none" stroke-width="0" stroke-linecap="butt" stroke-linejoin="miter" stroke-miterlimit="10" stroke-dasharray="" stroke-dashoffset="0" style="mix-blend-mode: normal"><path d="M-204.06683,411.5204v-404.0869h480.56252v404.0869z" fill="#efefef"/><path d="M254.99589,7.43349c0,-3.44444 4.81288,-6.23673 10.74989,-6.23673c5.93701,0 10.74989,2.79228 10.74989,6.23673c0,3.44446 -4.81288,6.23673 -10.74989,6.23673c-5.93701,0 -10.74989,-2.79228 -10.74989,-6.23673z" fill="#dadada"/><path d="M254.99589,411.5204c0,-3.44446 4.81288,-6.23673 10.74989,-6.23673c5.93701,0 10.74989,2.79228 10.74989,6.23673c0,3.44446 -4.81288,6.23673 -10.74989,6.23673c-5.93701,0 -10.74989,-2.79228 -10.74989,-6.23673z" fill="#dadada"/><path d="M-204.06683,7.43349c0,-3.44444 4.81288,-6.23673 10.74989,-6.23673c5.93701,0 10.74989,2.79228 10.74989,6.23673c0,3.44446 -4.81288,6.23673 -10.74989,6.23673c-5.93701,0 -10.74989,-2.79228 -10.74989,-6.23673z" fill="#efefef"/><path d="M-204.06683,411.5204c0,-3.44446 4.81288,-6.23673 10.74989,-6.23673c5.93701,0 10.74989,2.79228 10.74989,6.23673c0,3.44446 -4.81288,6.23673 -10.74989,6.23673c-5.93701,0 -10.74989,-2.79228 -10.74989,-6.23673z" fill="#efefef"/><path d="M-214.81673,417.75713v-470.61441h491.31242v470.61441z" fill="#efefef"/><path d="M206.08246,411.5204v-404.0869h70.41323v404.0869z" fill="#ffffff"/><path d="M254.99589,7.43349c0,-3.44444 4.81288,-6.23673 10.74989,-6.23673c5.93701,0 10.74989,2.79228 10.74989,6.23673c0,3.44446 -4.81288,6.23673 -10.74989,6.23673c-5.93701,0 -10.74989,-2.79228 -10.74989,-6.23673z" fill="#ffffff"/><path d="M254.99589,411.5204c0,-3.44446 4.81288,-6.23673 10.74989,-6.23673c5.93701,0 10.74989,2.79228 10.74989,6.23673c0,3.44446 -4.81288,6.23673 -10.74989,6.23673c-5.93701,0 -10.74989,-2.79228 -10.74989,-6.23673z" fill="#ffffff"/><path d="M177.31454,417.75713v-470.61441h142.68546v470.61441z" fill="#ffffff"/></g></g></svg>