<svg version="1.1" xmlns="http://www.w3.org/2000/svg" xmlns:xlink="http://www.w3.org/1999/xlink" width="98.12202" height="38.04348" viewBox="0,0,98.12202,38.04348"><g transform="translate(-276.24185,-160.97826)"><g data-paper-data="{&quot;isPaintingLayer&quot;:true}" fill-rule="nonzero" stroke-linecap="butt" stroke-linejoin="miter" stroke-miterlimit="10" stroke-dasharray="" stroke-dashoffset="0" style="mix-blend-mode: normal"><path d="M278.74187,180c0,-0.44208 0.01736,-0.8801 0.05144,-1.31343c0.66936,-8.51067 7.78767,-15.20831 16.4703,-15.20831c0.31162,0 60.69975,0.00863 61.00711,0.02566c8.69273,0.48159 15.59315,7.683 15.59315,16.49608c0,9.01598 -7.22181,16.34522 -16.19632,16.5186c-0.10822,0.00209 -60.29523,0.00314 -60.40396,0.00314c-9.12471,0 -16.52174,-7.39704 -16.52174,-16.52174z" fill-opacity="0.00392" fill="#ffffff" stroke="#0090ff" stroke-width="5"/><path d="M280.24584,190.76026c-5.81415,-3.32237 -1.80083,-13.49334 0.00252,-18.25882c0.17597,-0.46501 0.38614,-0.99573 0.63275,-1.5463c0.04555,-0.71895 0.39498,-1.35537 0.92129,-1.78222c0.86299,-1.42499 1.99605,-2.64641 3.44031,-2.82397c0.53838,-0.06619 0.92411,0.57213 1.41288,0.80736c0.24113,0.11605 0.14035,-0.52124 0.26628,-0.75736c0.31395,-0.58865 1.54407,-1.06904 2.1875,-1.25c0.39705,-0.11167 1.43517,0.83244 1.44468,0.82553c0.80418,-0.58416 1.25837,-1.6977 2.29241,-1.95621c2.64238,-0.6606 5.44803,0.00109 8.17082,-0.06932c6.11819,-0.15821 12.41171,-1.48953 18.58064,-1.86031c10.41337,-0.6259 21.61262,-0.0155 32.04478,-0.00635c7.9284,0.00695 17.45813,4.45763 18.74736,12.72325c4.08677,26.20138 -32.09805,22.53745 -47.34046,22.67675c-7.07924,0.0647 -13.92778,1.11018 -21.14024,1.06667c-6.55182,-0.03953 -11.75332,-3.17925 -17.0533,-6.57035c-1.24834,-0.79873 -3.38204,2.59568 -4.25908,-0.91249z" fill="#0090ff" stroke="none" stroke-width="0.5"/></g></g></svg>