<svg version="1.1" xmlns="http://www.w3.org/2000/svg" xmlns:xlink="http://www.w3.org/1999/xlink" width="30.67858" height="24.4423" viewBox="0,0,30.67858,24.4423"><g transform="translate(-304.65596,-167.77885)"><g fill="none" stroke="#0084ff" stroke-width="2.5" stroke-miterlimit="10"><g><path d="M328.41252,190.66113c-0.15262,0.19231 -0.35759,0.31002 -0.58295,0.31002h-21.06971c-0.47166,0 -0.8539,-0.51556 -0.8539,-1.15152v-19.63925c0,-0.63597 0.38224,-1.15153 0.8539,-1.15153h21.06971c0.47164,0 0.85399,0.51556 0.85399,1.15153v4.73971" fill-rule="evenodd" stroke-linecap="butt"/><path d="M330.54459,190.06118c-0.1555,0.56582 -0.45203,0.92948 -0.89004,0.90915l-23.2792,-0.02005c-0.34362,0.02005 -0.60259,-0.38399 -0.39546,-0.90915c0.85225,-3.50882 1.71854,-7.01736 2.5708,-10.5259c0.10841,-0.56582 0.44274,-0.86878 0.91833,-0.84846l7.02037,0.02005c0.24491,0.0607 0.60279,-0.12113 0.64987,-0.48479c0.23542,-1.01023 0.49912,-1.97982 0.73454,-2.99006c0.07063,-0.41768 0.25421,-0.5725 0.67796,-0.58587h15.14287c0.34362,-0.01336 0.419,0.49844 0.39546,0.74738c-0.51791,2.57265 -2.91814,12.08831 -3.5455,14.6877z" fill-rule="evenodd" stroke-linecap="butt"/><path d="M310.22287,178.33128v-2.8982h6.90798" fill-rule="nonzero" stroke-linecap="round"/></g></g></g></svg>