<svg version="1.1" xmlns="http://www.w3.org/2000/svg" xmlns:xlink="http://www.w3.org/1999/xlink" width="20.84426" height="20.84426" viewBox="0,0,20.84426,20.84426"><g transform="translate(-309.57787,-169.57787)"><g stroke-miterlimit="10"><path d="M310.32787,180c0,-5.34177 4.33036,-9.67213 9.67213,-9.67213c5.34177,0 9.67213,4.33036 9.67213,9.67213c0,5.34177 -4.33036,9.67213 -9.67213,9.67213c-5.34177,0 -9.67213,-4.33036 -9.67213,-9.67213z" fill-opacity="0.00392" fill="#ffffff" fill-rule="nonzero" stroke="#0077ff" stroke-width="1.5" stroke-linecap="butt"/><path d="M316.11512,177.54796v4.90408" fill="none" fill-rule="nonzero" stroke="#0077ff" stroke-width="1.5" stroke-linecap="round"/><path d="M313.73366,180h4.76295" fill="none" fill-rule="nonzero" stroke="#0077ff" stroke-width="1.5" stroke-linecap="round"/><path d="M325.70632,182.48486c-0.03557,0.04482 -0.08335,0.07226 -0.13587,0.07226h-4.91086c-0.10993,0 -0.19902,-0.12017 -0.19902,-0.26839v-4.57745c0,-0.14823 0.08909,-0.26839 0.19902,-0.26839h4.91086c0.10993,0 0.19905,0.12017 0.19905,0.26839v1.10472" fill="none" fill-rule="evenodd" stroke="#0084ff" stroke-width="1" stroke-linecap="butt"/><path d="M326.0992,182.27984c-0.03558,0.12949 -0.10345,0.21271 -0.20369,0.20806l-5.32752,-0.00459c-0.07864,0.00459 -0.13791,-0.08788 -0.0905,-0.20806c0.19504,-0.803 0.39329,-1.60594 0.58833,-2.40889c0.02481,-0.12949 0.10132,-0.19882 0.21016,-0.19418l1.60663,0.00459c0.05605,0.01389 0.13795,-0.02772 0.14873,-0.11094c0.05388,-0.23119 0.11422,-0.45309 0.1681,-0.68428c0.01616,-0.09559 0.05818,-0.13102 0.15516,-0.13408h3.4655c0.07864,-0.00305 0.09589,0.11407 0.0905,0.17104c-0.11852,0.58875 -0.66783,2.76645 -0.8114,3.36133z" fill="none" fill-rule="evenodd" stroke="#0084ff" stroke-width="1" stroke-linecap="butt"/></g></g></svg>