<svg version="1.1" xmlns="http://www.w3.org/2000/svg" xmlns:xlink="http://www.w3.org/1999/xlink" width="98.98542" height="48.36269" viewBox="0,0,98.98542,48.36269"><defs><radialGradient cx="292.28896" cy="180" r="21.78167" gradientUnits="userSpaceOnUse" id="color-1"><stop offset="0" stop-color="#ffffff" stop-opacity="0.20784"/><stop offset="1" stop-color="#ffffff" stop-opacity="0"/></radialGradient><radialGradient cx="314.07063" cy="180" r="21.78167" gradientUnits="userSpaceOnUse" id="color-2"><stop offset="0" stop-color="#ffffff" stop-opacity="0.20784"/><stop offset="1" stop-color="#ffffff" stop-opacity="0"/></radialGradient><radialGradient cx="331.88313" cy="180" r="21.78167" gradientUnits="userSpaceOnUse" id="color-3"><stop offset="0" stop-color="#ffffff" stop-opacity="0.20784"/><stop offset="1" stop-color="#ffffff" stop-opacity="0"/></radialGradient><radialGradient cx="343.75813" cy="180" r="21.78167" gradientUnits="userSpaceOnUse" id="color-4"><stop offset="0" stop-color="#ffffff" stop-opacity="0.20784"/><stop offset="1" stop-color="#ffffff" stop-opacity="0"/></radialGradient><radialGradient cx="296.24187" cy="180" r="21.78167" gradientUnits="userSpaceOnUse" id="color-5"><stop offset="0" stop-color="#ffffff" stop-opacity="0.20784"/><stop offset="1" stop-color="#ffffff" stop-opacity="0"/></radialGradient><radialGradient cx="318.02354" cy="180" r="21.78167" gradientUnits="userSpaceOnUse" id="color-6"><stop offset="0" stop-color="#ffffff" stop-opacity="0.20784"/><stop offset="1" stop-color="#ffffff" stop-opacity="0"/></radialGradient><radialGradient cx="335.83604" cy="180" r="21.78167" gradientUnits="userSpaceOnUse" id="color-7"><stop offset="0" stop-color="#ffffff" stop-opacity="0.20784"/><stop offset="1" stop-color="#ffffff" stop-opacity="0"/></radialGradient><radialGradient cx="347.71104" cy="180" r="21.78167" gradientUnits="userSpaceOnUse" id="color-8"><stop offset="0" stop-color="#ffffff" stop-opacity="0.20784"/><stop offset="1" stop-color="#ffffff" stop-opacity="0"/></radialGradient></defs><g transform="translate(-270.50729,-155.81865)"><g data-paper-data="{&quot;isPaintingLayer&quot;:true}" fill-rule="nonzero" stroke="none" stroke-linecap="butt" stroke-linejoin="miter" stroke-miterlimit="10" stroke-dasharray="" stroke-dashoffset="0" style="mix-blend-mode: normal"><text transform="translate(276.0056,184.39944) scale(0.36662,0.36662)" font-size="40" xml:space="preserve" fill="#ffffff" fill-rule="nonzero" stroke="none" stroke-width="1" stroke-linecap="butt" stroke-linejoin="miter" stroke-miterlimit="10" stroke-dasharray="" stroke-dashoffset="0" font-family="&quot;MiSans-Heavy&quot;, Sans Serif" font-weight="normal" text-anchor="start" style="mix-blend-mode: normal"><tspan x="0" dy="0">正在下载壁纸</tspan></text><path d="M314.07063,180c0,13.35499 -9.75199,24.18135 -21.78167,24.18135c-12.02968,0 -21.78167,-10.82635 -21.78167,-24.18134c0,-13.35499 9.75199,-24.18135 21.78167,-24.18135c12.02968,0 21.78167,10.82636 21.78167,24.18135z" fill="url(#color-1)" stroke-width="0"/><path d="M335.8523,180c0,13.35499 -9.75199,24.18135 -21.78167,24.18135c-12.02968,0 -21.78167,-10.82635 -21.78167,-24.18134c0,-13.35499 9.75199,-24.18135 21.78167,-24.18135c12.02968,0 21.78167,10.82636 21.78167,24.18135z" fill="url(#color-2)" stroke-width="0"/><path d="M353.6648,180c0,13.35499 -9.75199,24.18135 -21.78167,24.18135c-12.02968,0 -21.78167,-10.82635 -21.78167,-24.18134c0,-13.35499 9.75199,-24.18135 21.78167,-24.18135c12.02968,0 21.78167,10.82636 21.78167,24.18135z" fill="url(#color-3)" stroke-width="0"/><path d="M365.5398,180c0,13.35499 -9.75199,24.18135 -21.78167,24.18135c-12.02968,0 -21.78167,-10.82635 -21.78167,-24.18134c0,-13.35499 9.75199,-24.18135 21.78167,-24.18135c12.02968,0 21.78167,10.82636 21.78167,24.18135z" fill="url(#color-4)" stroke-width="0"/><path d="M318.02354,180c0,13.35499 -9.75199,24.18135 -21.78167,24.18135c-12.02968,0 -21.78167,-10.82635 -21.78167,-24.18134c0,-13.35499 9.75199,-24.18135 21.78167,-24.18135c12.02968,0 21.78167,10.82636 21.78167,24.18135z" fill="url(#color-5)" stroke-width="0"/><path d="M339.80521,180c0,13.35499 -9.75199,24.18135 -21.78167,24.18135c-12.02968,0 -21.78167,-10.82635 -21.78167,-24.18134c0,-13.35499 9.75199,-24.18135 21.78167,-24.18135c12.02968,0 21.78167,10.82636 21.78167,24.18135z" fill="url(#color-6)" stroke-width="0"/><path d="M357.61771,180c0,13.35499 -9.75199,24.18135 -21.78167,24.18135c-12.02968,0 -21.78167,-10.82635 -21.78167,-24.18134c0,-13.35499 9.75199,-24.18135 21.78167,-24.18135c12.02968,0 21.78167,10.82636 21.78167,24.18135z" fill="url(#color-7)" stroke-width="0"/><path d="M369.49271,180c0,13.35499 -9.75199,24.18135 -21.78167,24.18135c-12.02968,0 -21.78167,-10.82635 -21.78167,-24.18134c0,-13.35499 9.75199,-24.18135 21.78167,-24.18135c12.02968,0 21.78167,10.82636 21.78167,24.18135z" fill="url(#color-8)" stroke-width="0"/></g></g></svg>