<svg version="1.1" xmlns="http://www.w3.org/2000/svg" xmlns:xlink="http://www.w3.org/1999/xlink" width="459.25809" height="470.05628" viewBox="0,0,459.25809,470.05628"><defs><linearGradient x1="373.6633" y1="-45.3544" x2="373.71641" y2="405.35451" gradientUnits="userSpaceOnUse" id="color-1"><stop offset="0" stop-color="#0bb0de" stop-opacity="0"/><stop offset="1" stop-color="#0bb0de" stop-opacity="0.0902"/></linearGradient><radialGradient cx="443.25871" cy="163.25871" r="196.74129" gradientUnits="userSpaceOnUse" id="color-2"><stop offset="0" stop-color="#216ef5" stop-opacity="0.13725"/><stop offset="1" stop-color="#216ef5" stop-opacity="0"/></radialGradient><radialGradient cx="90.37096" cy="-6.76426" r="0.00125" gradientUnits="userSpaceOnUse" id="color-3"><stop offset="0" stop-color="#216ef5" stop-opacity="0.13725"/><stop offset="1" stop-color="#216ef5" stop-opacity="0"/></radialGradient><linearGradient x1="394.47401" y1="-15.88605" x2="394.47401" y2="415.02814" gradientUnits="userSpaceOnUse" id="color-4"><stop offset="0" stop-color="#00bfff" stop-opacity="0.31373"/><stop offset="1" stop-color="#5996ff" stop-opacity="0.12549"/></linearGradient><linearGradient x1="516.22292" y1="3.34835" x2="516.22292" y2="4.50672" gradientUnits="userSpaceOnUse" id="color-5"><stop offset="0" stop-color="#005eff" stop-opacity="0.31373"/><stop offset="1" stop-color="#5996ff" stop-opacity="0.12549"/></linearGradient></defs><g transform="translate(-180.74191,55.02814)"><g stroke="none" stroke-width="0" stroke-miterlimit="10"><path d="M302.96266,-35.68067l141.40128,-19.34747l0.05314,450.70881l-141.40128,19.34747z" fill="url(#color-1)"/><path d="M246.51742,163.25871c0,-108.65721 88.08408,-196.74129 196.74129,-196.74129c108.65722,0 196.74129,88.08408 196.74129,196.74129c0,108.65722 -88.08407,196.74129 -196.74129,196.74129c-108.65721,0 -196.74129,-88.08407 -196.74129,-196.74129z" fill="url(#color-2)"/><path d="M180.74191,-13.52852v0v0z" fill="url(#color-3)"/><path d="M302.96266,415.02814v-430.91419h183.02269v430.91419z" fill="url(#color-4)"/><path d="M515.64374,4.50672v-1.15837h1.15837v1.15837z" fill="url(#color-5)"/></g></g></svg>