<svg version="1.1" xmlns="http://www.w3.org/2000/svg" xmlns:xlink="http://www.w3.org/1999/xlink" width="70.61507" height="26.75" viewBox="0,0,70.61507,26.75"><g transform="translate(-307.54247,-165.67925)"><g stroke-miterlimit="10"><path d="M307.54247,192.42925v-26.75h70.61507v26.75z" fill-opacity="0.00392" fill="#0077ff" stroke="none" stroke-width="0" stroke-linecap="butt"/><text transform="translate(332.45914,184.39375) scale(0.38082,0.38082)" font-size="40" xml:space="preserve" fill="#0077ff" stroke="none" stroke-width="1" stroke-linecap="butt" font-family="&quot;MiSans-Medium&quot;, Sans Serif" font-weight="normal" text-anchor="start"><tspan x="0" dy="0">剪切</tspan></text><path d="M310.32787,180c0,-5.34177 4.33036,-9.67213 9.67213,-9.67213c5.34177,0 9.67213,4.33036 9.67213,9.67213c0,5.34177 -4.33036,9.67213 -9.67213,9.67213c-5.34177,0 -9.67213,-4.33036 -9.67213,-9.67213z" fill-opacity="0.00392" fill="#ffffff" stroke="#0077ff" stroke-width="1.5" stroke-linecap="butt"/><path d="M315.35582,178.71369l12.70403,6.12676" fill="none" stroke="#0077ff" stroke-width="1.5" stroke-linecap="round"/><path d="M322.50275,174.9813l0.26509,13.87324" fill="none" stroke="#0077ff" stroke-width="1.5" stroke-linecap="round"/><path d="M322.21477,183.00946l-2.53521,2.46479l2.88732,2.8169" fill="none" stroke="#0077ff" stroke-width="1.5" stroke-linecap="round"/><path d="M323.42795,181.70957l3.39322,-0.99424l1.03156,3.89967" fill="none" stroke="#0077ff" stroke-width="1.5" stroke-linecap="round"/></g></g></svg>