<svg version="1.1" xmlns="http://www.w3.org/2000/svg" xmlns:xlink="http://www.w3.org/1999/xlink" width="42.50839" height="13.43202" viewBox="0,0,42.50839,13.43202"><defs><linearGradient x1="355.71338" y1="190.11352" x2="362.50841" y2="190.11352" gradientUnits="userSpaceOnUse" id="color-1"><stop offset="0" stop-color="#0084ff"/><stop offset="1" stop-color="#0081ff"/></linearGradient><linearGradient x1="355.71338" y1="183.39751" x2="362.50841" y2="183.39751" gradientUnits="userSpaceOnUse" id="color-2"><stop offset="0" stop-color="#0085ff"/><stop offset="1" stop-color="#0081ff"/></linearGradient><linearGradient x1="323.31851" y1="186.71601" x2="359.18991" y2="186.71601" gradientUnits="userSpaceOnUse" id="color-3"><stop offset="0" stop-color="#00b5ff"/><stop offset="1" stop-color="#0081ff"/></linearGradient><linearGradient x1="320.00001" y1="186.71601" x2="362.50842" y2="186.71601" gradientUnits="userSpaceOnUse" id="color-4"><stop offset="0" stop-color="#00b5ff"/><stop offset="1" stop-color="#0081ff"/></linearGradient><linearGradient x1="358.04981" y1="191.20707" x2="362.5084" y2="191.20707" gradientUnits="userSpaceOnUse" id="color-5"><stop offset="0" stop-color="#0084ff"/><stop offset="1" stop-color="#0081ff"/></linearGradient></defs><g transform="translate(-320.00001,-180)"><g stroke-miterlimit="10"><path d="M320.00001,190.11352c0,-1.83308 1.48542,-3.3185 3.3185,-3.3185c1.83308,0 3.3185,1.48542 3.3185,3.3185c0,1.83308 -1.48542,3.3185 -3.3185,3.3185c-1.83308,0 -3.3185,-1.48542 -3.3185,-3.3185z" fill="#00b2ff" fill-rule="evenodd" stroke="none" stroke-width="1" stroke-linecap="butt"/><path d="M355.71338,190.11352c0,-1.83308 1.52019,-3.3185 3.39751,-3.3185c1.87574,0 3.39751,1.48542 3.39751,3.3185c0,1.83308 -1.52177,3.3185 -3.39751,3.3185c-1.87732,0 -3.39751,-1.48542 -3.39751,-3.3185z" fill="url(#color-1)" fill-rule="evenodd" stroke="none" stroke-width="1" stroke-linecap="butt"/><path d="M355.71338,183.39751c0,-1.87574 1.52019,-3.39751 3.39751,-3.39751c1.87574,0 3.39751,1.52177 3.39751,3.39751c0,1.87574 -1.52177,3.39751 -3.39751,3.39751c-1.87732,0 -3.39751,-1.52177 -3.39751,-3.39751z" fill="url(#color-2)" fill-rule="evenodd" stroke="none" stroke-width="1" stroke-linecap="butt"/><path d="M320.00001,183.39751c0,-1.87574 1.48542,-3.39751 3.3185,-3.39751c1.83308,0 3.3185,1.52177 3.3185,3.39751c0,1.87574 -1.48542,3.39751 -3.3185,3.39751c-1.83308,0 -3.3185,-1.52177 -3.3185,-3.39751z" fill="#00b3ff" fill-rule="evenodd" stroke="none" stroke-width="1" stroke-linecap="butt"/><path d="M323.31851,193.43202v-13.43202h35.8714v13.43202z" fill="url(#color-3)" fill-rule="evenodd" stroke="none" stroke-width="1" stroke-linecap="butt"/><path d="M320.00001,190.11352v-6.79502h42.50839v6.79502z" fill="url(#color-4)" fill-rule="evenodd" stroke="none" stroke-width="1" stroke-linecap="butt"/><text transform="translate(334.40678,188.39865) scale(0.14022,0.14022)" font-size="40" xml:space="preserve" fill="#ffffff" fill-rule="nonzero" stroke="none" stroke-width="1" stroke-linecap="butt" font-family="&quot;MiSans-Medium&quot;, Sans Serif" font-weight="normal" text-anchor="start"><tspan x="0" dy="0">设为桌面</tspan></text><path d="M325.66643,189.02488v-4.84299h7.15186v4.84299z" fill="none" fill-rule="nonzero" stroke="#ffffff" stroke-width="1" stroke-linecap="butt"/><path d="M331.48984,185.32103v2.26281" fill="none" fill-rule="nonzero" stroke="#ffffff" stroke-width="1" stroke-linecap="round"/><path d="M320.00001,193.43202v-3.7486h3.3185v3.7486z" fill="#00b2ff" fill-rule="nonzero" stroke="none" stroke-width="0" stroke-linecap="butt"/><path d="M358.04981,193.43202v-4.44991h4.45859v4.44991z" fill="url(#color-5)" fill-rule="nonzero" stroke="none" stroke-width="0" stroke-linecap="butt"/></g></g></svg>