<svg version="1.1" xmlns="http://www.w3.org/2000/svg" xmlns:xlink="http://www.w3.org/1999/xlink" width="61.14307" height="16.46336" viewBox="0,0,61.14307,16.46336"><g transform="translate(-284.55693,-184.50979)"><g stroke="none" stroke-width="0.5" stroke-miterlimit="10"><path d="M293.1592,188.57188c6.82888,4.09733 2.91372,14.20629 -5.32125,12.12126c-4.39057,-1.11166 -3.9197,-6.49819 -1.25199,-9.79192c0.35999,-0.57753 0.85809,-1.06009 1.44809,-1.40145c1.43343,-1.0644 3.19923,-1.54263 5.0802,-0.91564z" fill="#ffafaf"/><path d="M344.26675,186.50124c4.1244,3.83996 -1.57055,9.25604 -5.5225,9.25604c-5.47534,0 -7.36227,-9.85448 -3.58081,-10.38212c0.70108,-0.54251 1.58074,-0.86536 2.5358,-0.86536c0.34989,0 0.68967,0.04333 1.01424,0.12491c2.25674,0.21353 3.50106,-0.04414 5.55326,1.86652z" fill="#ffafaf"/><path d="M304.7495,195.04566c1.18532,-1.66775 2.05066,-2.23397 3.05713,-2.43769c1.25027,-0.25306 2.71832,0.05326 5.28808,-0.49761c1.93812,-0.41547 3.5566,-1.12734 5.27714,-1.98767c2.32443,-1.1623 6.49573,-2.53807 5.54288,2.22618c-0.4608,2.30398 -10.34196,4.82709 -12.14879,5.04888c-0.17391,0.02135 -5.73212,0.86495 -6.18341,-0.48894z" fill="#000000"/></g></g></svg>