<svg version="1.1" xmlns="http://www.w3.org/2000/svg" xmlns:xlink="http://www.w3.org/1999/xlink" width="237.33705" height="116.09022" viewBox="0,0,237.33705,116.09022"><defs><radialGradient cx="369.03421" cy="180.00001" r="58.04512" gradientUnits="userSpaceOnUse" id="color-1"><stop offset="0" stop-color="#009bff" stop-opacity="0.26667"/><stop offset="1" stop-color="#009bff" stop-opacity="0"/></radialGradient><radialGradient cx="319.96904" cy="180" r="58.04511" gradientUnits="userSpaceOnUse" id="color-2"><stop offset="0" stop-color="#009bff" stop-opacity="0.26667"/><stop offset="1" stop-color="#009bff" stop-opacity="0"/></radialGradient><radialGradient cx="340.67593" cy="180.00001" r="58.04511" gradientUnits="userSpaceOnUse" id="color-3"><stop offset="0" stop-color="#009bff" stop-opacity="0.26667"/><stop offset="1" stop-color="#009bff" stop-opacity="0"/></radialGradient><radialGradient cx="378.01415" cy="180" r="58.04511" gradientUnits="userSpaceOnUse" id="color-4"><stop offset="0" stop-color="#009bff" stop-opacity="0.26667"/><stop offset="1" stop-color="#009bff" stop-opacity="0"/></radialGradient><radialGradient cx="304.38637" cy="180.00001" r="58.04511" gradientUnits="userSpaceOnUse" id="color-5"><stop offset="0" stop-color="#009bff" stop-opacity="0.26667"/><stop offset="1" stop-color="#009bff" stop-opacity="0"/></radialGradient><radialGradient cx="321.41516" cy="180" r="58.04512" gradientUnits="userSpaceOnUse" id="color-6"><stop offset="0" stop-color="#009bff" stop-opacity="0.26667"/><stop offset="1" stop-color="#009bff" stop-opacity="0"/></radialGradient><radialGradient cx="272.34999" cy="180" r="58.04512" gradientUnits="userSpaceOnUse" id="color-7"><stop offset="0" stop-color="#009bff" stop-opacity="0.26667"/><stop offset="1" stop-color="#009bff" stop-opacity="0"/></radialGradient><radialGradient cx="293.05688" cy="180" r="58.04511" gradientUnits="userSpaceOnUse" id="color-8"><stop offset="0" stop-color="#009bff" stop-opacity="0.26667"/><stop offset="1" stop-color="#009bff" stop-opacity="0"/></radialGradient><radialGradient cx="330.3951" cy="180" r="58.04511" gradientUnits="userSpaceOnUse" id="color-9"><stop offset="0" stop-color="#009bff" stop-opacity="0.26667"/><stop offset="1" stop-color="#009bff" stop-opacity="0"/></radialGradient><radialGradient cx="256.76732" cy="180" r="58.04511" gradientUnits="userSpaceOnUse" id="color-10"><stop offset="0" stop-color="#009bff" stop-opacity="0.26667"/><stop offset="1" stop-color="#009bff" stop-opacity="0"/></radialGradient></defs><g transform="translate(-198.72221,-121.95489)"><g stroke="none" stroke-width="0" stroke-miterlimit="10"><path d="M310.9891,180.00001c0,-32.05743 25.98768,-58.04511 58.04511,-58.04511c32.05743,0 58.04512,25.98768 58.04512,58.04511c0,32.05743 -25.98768,58.04511 -58.04512,58.04511c-32.05743,0 -58.04511,-25.98767 -58.04511,-58.04511z" fill="url(#color-1)"/><path d="M261.92393,180c0,-32.05743 25.98768,-58.04511 58.04511,-58.04511c32.05743,0 58.04511,25.98767 58.04511,58.04511c0,32.05743 -25.98768,58.04511 -58.04511,58.04511c-32.05743,0 -58.04511,-25.98768 -58.04511,-58.04511z" fill="url(#color-2)"/><path d="M282.63082,180.00001c0,-32.05743 25.98767,-58.04511 58.0451,-58.04511c32.05743,0 58.04511,25.98768 58.04511,58.04511c0,32.05743 -25.98768,58.04511 -58.04511,58.04511c-32.05743,0 -58.0451,-25.98767 -58.0451,-58.04511z" fill="url(#color-3)"/><path d="M319.96904,180c0,-32.05743 25.98767,-58.04511 58.0451,-58.04511c32.05743,0 58.04511,25.98767 58.04511,58.04511c0,32.05743 -25.98768,58.04511 -58.04511,58.04511c-32.05743,0 -58.0451,-25.98768 -58.0451,-58.04511z" fill="url(#color-4)"/><path d="M246.34126,180.00001c0,-32.05743 25.98768,-58.04511 58.04511,-58.04511c32.05743,0 58.04511,25.98768 58.04511,58.04511c0,32.05743 -25.98768,58.04511 -58.04511,58.04511c-32.05743,0 -58.04511,-25.98767 -58.04511,-58.04511z" fill="url(#color-5)"/><path d="M263.37006,180c0,-32.05743 25.98768,-58.04511 58.04511,-58.04511c32.05743,0 58.04512,25.98768 58.04512,58.04511c0,32.05743 -25.98769,58.04511 -58.04512,58.04511c-32.05743,0 -58.04511,-25.98768 -58.04511,-58.04511z" fill="url(#color-6)"/><path d="M214.30488,180c0,-32.05743 25.98768,-58.04511 58.04511,-58.04511c32.05743,0 58.04512,25.98768 58.04512,58.04511c0,32.05743 -25.98769,58.04511 -58.04512,58.04511c-32.05743,0 -58.04511,-25.98768 -58.04511,-58.04511z" fill="url(#color-7)"/><path d="M235.01177,180c0,-32.05743 25.98768,-58.04511 58.04511,-58.04511c32.05743,0 58.04511,25.98768 58.04511,58.04511c0,32.05743 -25.98768,58.04511 -58.04511,58.04511c-32.05743,0 -58.04511,-25.98768 -58.04511,-58.04511z" fill="url(#color-8)"/><path d="M272.34999,180c0,-32.05743 25.98768,-58.04511 58.04511,-58.04511c32.05743,0 58.04511,25.98768 58.04511,58.04511c0,32.05743 -25.98768,58.04511 -58.04511,58.04511c-32.05743,0 -58.04511,-25.98768 -58.04511,-58.04511z" fill="url(#color-9)"/><path d="M198.72221,180c0,-32.05743 25.98768,-58.04511 58.04511,-58.04511c32.05743,0 58.04511,25.98768 58.04511,58.04511c0,32.05743 -25.98768,58.04511 -58.04511,58.04511c-32.05743,0 -58.04511,-25.98768 -58.04511,-58.04511z" fill="url(#color-10)"/><path d="M237.78645,214.54064v-69.08127h164.42711v69.08127z" fill="#ffffff"/><path d="M391.99616,145.45936c0,-2.97676 2.28724,-5.38991 5.1087,-5.38991c2.82146,0 5.1087,2.41314 5.1087,5.38991c0,2.97677 -2.28724,5.38991 -5.1087,5.38991c-2.82146,0 -5.1087,-2.41314 -5.1087,-5.38991z" fill="#ffffff"/><path d="M391.99616,214.54064c0,-2.97677 2.28724,-5.38991 5.1087,-5.38991c2.82146,0 5.1087,2.41314 5.1087,5.38991c0,2.97677 -2.28724,5.38991 -5.1087,5.38991c-2.82146,0 -5.1087,-2.41314 -5.1087,-5.38991z" fill="#ffffff"/><path d="M237.78644,145.45936c0,-2.97676 2.28724,-5.38991 5.1087,-5.38991c2.82146,0 5.1087,2.41314 5.1087,5.38991c0,2.97677 -2.28724,5.38991 -5.1087,5.38991c-2.82146,0 -5.1087,-2.41314 -5.1087,-5.38991z" fill="#ffffff"/><path d="M237.78645,214.54064c0,-2.97677 2.28724,-5.38991 5.1087,-5.38991c2.82146,0 5.1087,2.41314 5.1087,5.38991c0,2.97677 -2.28724,5.38991 -5.1087,5.38991c-2.82146,0 -5.1087,-2.41314 -5.1087,-5.38991z" fill="#ffffff"/><path d="M242.89514,219.93055v-79.86109h154.20972v79.86109z" fill="#ffffff"/></g></g></svg>