<svg version="1.1" xmlns="http://www.w3.org/2000/svg" xmlns:xlink="http://www.w3.org/1999/xlink" width="42.50839" height="13.43202" viewBox="0,0,42.50839,13.43202"><defs><linearGradient x1="334.45917" y1="183.39751" x2="341.2542" y2="183.39751" gradientUnits="userSpaceOnUse" id="color-1"><stop offset="0" stop-color="#0084ff"/><stop offset="1" stop-color="#0081ff"/></linearGradient><linearGradient x1="334.45917" y1="176.6815" x2="341.2542" y2="176.6815" gradientUnits="userSpaceOnUse" id="color-2"><stop offset="0" stop-color="#0085ff"/><stop offset="1" stop-color="#0081ff"/></linearGradient><linearGradient x1="302.0643" y1="180" x2="337.9357" y2="180" gradientUnits="userSpaceOnUse" id="color-3"><stop offset="0" stop-color="#00b5ff"/><stop offset="1" stop-color="#0081ff"/></linearGradient><linearGradient x1="298.7458" y1="180" x2="341.2542" y2="180" gradientUnits="userSpaceOnUse" id="color-4"><stop offset="0" stop-color="#00b5ff"/><stop offset="1" stop-color="#0081ff"/></linearGradient></defs><g transform="translate(-298.7458,-173.28399)"><g stroke-miterlimit="10"><path d="M298.7458,183.39751c0,-1.83308 1.48542,-3.3185 3.3185,-3.3185c1.83308,0 3.3185,1.48542 3.3185,3.3185c0,1.83308 -1.48542,3.3185 -3.3185,3.3185c-1.83308,0 -3.3185,-1.48542 -3.3185,-3.3185z" fill="#00b2ff" fill-rule="evenodd" stroke="none" stroke-width="1"/><path d="M334.45917,183.39751c0,-1.83308 1.52019,-3.3185 3.39751,-3.3185c1.87574,0 3.39751,1.48542 3.39751,3.3185c0,1.83308 -1.52177,3.3185 -3.39751,3.3185c-1.87732,0 -3.39751,-1.48542 -3.39751,-3.3185z" fill="url(#color-1)" fill-rule="evenodd" stroke="none" stroke-width="1"/><path d="M334.45917,176.6815c0,-1.87574 1.52019,-3.39751 3.39751,-3.39751c1.87574,0 3.39751,1.52177 3.39751,3.39751c0,1.87574 -1.52177,3.39751 -3.39751,3.39751c-1.87732,0 -3.39751,-1.52177 -3.39751,-3.39751z" fill="url(#color-2)" fill-rule="evenodd" stroke="none" stroke-width="1"/><path d="M298.7458,176.6815c0,-1.87574 1.48542,-3.39751 3.3185,-3.39751c1.83308,0 3.3185,1.52177 3.3185,3.39751c0,1.87574 -1.48542,3.39751 -3.3185,3.39751c-1.83308,0 -3.3185,-1.52177 -3.3185,-3.39751z" fill="#00b3ff" fill-rule="evenodd" stroke="none" stroke-width="1"/><path d="M302.0643,186.71601v-13.43202h35.8714v13.43202z" fill="url(#color-3)" fill-rule="evenodd" stroke="none" stroke-width="1"/><path d="M298.7458,183.39751v-6.79502h42.50839v6.79502z" fill="url(#color-4)" fill-rule="evenodd" stroke="none" stroke-width="1"/><text transform="translate(312.0324,181.68264) scale(0.14022,0.14022)" font-size="40" xml:space="preserve" fill="#ffffff" fill-rule="nonzero" stroke="none" stroke-width="1" font-family="&quot;MiSans-Medium&quot;, Sans Serif" font-weight="normal" text-anchor="start"><tspan x="0" dy="0">高级设置</tspan></text><path d="M305.25213,179.73294l-0.89563,-1.42006c0,0 0.3883,0.4227 0.62492,0.27848c0.15186,-0.09256 0.01476,-0.42884 0.07297,-0.67809c0.0084,-0.03597 0.83201,-0.53685 1.05844,-0.67965c0.42031,-0.26509 0.53647,0.06574 0.83182,0.16323c0.38796,0.12806 0.99436,-0.56009 1.14363,-0.32342c0.14927,0.23668 0.37319,0.6354 0.37319,0.6354c0,0 -0.55359,0.34915 -1.12103,0.70703c-0.13657,0.08614 2.57572,3.98457 2.56791,4.02802c-0.00734,0.04082 -0.86072,0.55496 -0.95013,0.61136c-0.10786,0.06803 -2.51441,-4.07387 -2.59443,-4.0234c-0.16084,0.10144 -0.50493,0.53112 -0.67672,0.36699c-0.01628,-0.01555 -0.30062,-0.21761 -0.37249,-0.13009c-0.02559,0.03116 -0.06243,0.46421 -0.06243,0.46421z" fill="#ffffff" fill-rule="nonzero" stroke="#ffffff" stroke-width="0.5"/></g></g></svg>