<svg version="1.1" xmlns="http://www.w3.org/2000/svg" xmlns:xlink="http://www.w3.org/1999/xlink" width="376.83784" height="486.46339" viewBox="0,0,376.83784,486.46339"><g transform="translate(-92.79054,190.04072)"><g fill="#ffffff" fill-rule="evenodd" stroke="none" stroke-miterlimit="10"><path d="M184.14516,-93.5474c0,-53.29171 43.19932,-96.49332 96.49332,-96.49332c53.294,0 96.49332,43.20161 96.49332,96.49332c0,53.29171 -43.19932,96.49332 -96.49332,96.49332c-53.294,0 -96.49332,-43.20158 -96.49332,-96.49332z"/><path d="M92.79054,147.97138c0,-60.54414 49.08028,-109.62555 109.62555,-109.62555h157.58672c60.54526,0 109.62555,49.0814 109.62555,109.62555v0c0,60.54414 -49.08028,109.62555 -109.62555,109.62555h-157.58672c-60.54526,0 -109.62555,-49.0814 -109.62555,-109.62555z"/><path d="M94.51264,128.23934l374.6704,0.31918l0.44534,3.8312c0,90.59296 -84.35458,164.03295 -188.41892,164.03295c-104.06434,0 -187.46137,-73.43998 -187.46137,-164.03295z"/></g></g></svg>