<svg version="1.1" xmlns="http://www.w3.org/2000/svg" xmlns:xlink="http://www.w3.org/1999/xlink" width="259.72656" height="83.95301" viewBox="0,0,259.72656,83.95301"><defs><linearGradient x1="265.26901" y1="176.56248" x2="315.21417" y2="176.56248" gradientUnits="userSpaceOnUse" id="color-1"><stop offset="0" stop-color="#00b5ff" stop-opacity="0"/><stop offset="1" stop-color="#00b5ff" stop-opacity="0"/></linearGradient></defs><g transform="translate(-205.22394,-141.06526)"><g stroke-miterlimit="10"><text transform="translate(353.2409,195.31864) scale(1.27655,1.27655)" font-size="40" xml:space="preserve" fill-opacity="0.61176" fill="#848484" fill-rule="nonzero" stroke="none" stroke-width="1" font-family="&quot;MiSans-Heavy&quot;, Sans Serif" font-weight="normal" text-anchor="start"><tspan x="0" dy="0">3</tspan></text><path d="M307.24728,167.02873v5.48282c0,0.23492 0.19056,0.42536 0.42536,0.42536h7.11618c0.2348,0 0.42536,0.19043 0.42536,0.42536v12.73512c0,0.23492 -0.19056,0.42536 -0.42536,0.42536h-4.47473c-0.2348,0 -0.42536,-0.19043 -0.42536,-0.42536v-8.95797c0,-0.23492 -0.19056,-0.42536 -0.42536,-0.42536h-1.79074c-0.2348,0 -0.42536,0.19043 -0.42536,0.42536v8.95797c0,0.23492 -0.19056,0.42536 -0.42536,0.42536h-4.47473c-0.23492,0 -0.42536,-0.19043 -0.42536,-0.42536v-8.95797c0,-0.23492 -0.19043,-0.42536 -0.42536,-0.42536h-4.65338c-0.23492,0 -0.42536,0.19043 -0.42536,0.42536v5.18507c0,0.23492 0.19043,0.42536 0.42536,0.42536h3.30501c0.40341,0 0.58027,0.50711 0.26372,0.75713l-3.70059,2.92219c-0.07508,0.05934 -0.16806,0.09358 -0.26372,0.09358h-4.92986c-0.23492,0 -0.42536,-0.19043 -0.42536,-0.42536v-9.16639c0,-0.13786 0.06619,-0.26478 0.17865,-0.34454l5.0362,-3.57298c0.07193,-0.051 0.15853,-0.07656 0.2467,-0.07656h4.94262c0.23492,0 0.42536,-0.19043 0.42536,-0.42536v-4.76823c0,-0.20902 0.15087,-0.38814 0.3573,-0.4211l4.47473,-0.7146c0.25819,-0.04128 0.49341,0.15942 0.49341,0.4211zM265.69437,167.65825l28.50302,-0.00851c0.41447,0 0.58469,0.53003 0.2467,0.76989l-4.11743,2.92219c-0.07197,0.05104 -0.15849,0.08082 -0.2467,0.08082l-14.98525,0.00851c-0.23492,0 -0.42536,0.19043 -0.42536,0.42536v14.24087c0,0.23492 -0.19043,0.42536 -0.42536,0.42536h-4.47473c-0.23492,0 -0.42536,-0.19043 -0.42536,-0.42536v-14.24087c0,-0.23492 -0.19043,-0.42536 -0.42536,-0.42536h-3.22419c-0.23492,0 -0.42536,-0.19043 -0.42536,-0.42536v-2.92219c0,-0.23492 0.19043,-0.42536 0.42536,-0.42536zM282.09605,172.91138h7.80526c0.23492,0 0.42536,0.19043 0.42536,0.42536v5.71677c0,0.23492 -0.19043,0.42536 -0.42536,0.42536h-7.94137l3.16889,-2.00767c0.35994,-0.22795 0.19634,-0.78265 -0.22969,-0.78265h-2.51385c-0.23492,0 -0.42536,0.19043 -0.42536,0.42536v5.18507c0,0.23492 0.19043,0.42536 0.42536,0.42536h6.60576c0.41464,0 0.58503,0.53016 0.2467,0.76989l-4.12594,2.92219c-0.07189,0.05092 -0.15861,0.08082 -0.2467,0.08082h-7.80526c-0.23492,0 -0.42536,-0.19043 -0.42536,-0.42536v-9.16639c0,-0.13786 0.06619,-0.26478 0.17865,-0.34454l5.0362,-3.57298c0.07193,-0.051 0.15853,-0.07656 0.2467,-0.07656z" fill-opacity="0.61176" fill="#848484" fill-rule="evenodd" stroke="url(#color-1)" stroke-width="0"/><path d="M317.03922,167.61863c-0.2348,0 -0.42536,0.19043 -0.42536,0.42536v2.92219c0,0.23492 0.19056,0.42536 0.42536,0.42536h12.82019c0.08805,0 0.17482,-0.0299 0.2467,-0.08082l4.12594,-2.92219c0.33816,-0.23969 0.16759,-0.76989 -0.2467,-0.76989h-16.94613zM330.07209,181.81698c0,0.23492 0.19056,0.42536 0.42536,0.42536h2.02469v-8.94521c0,-0.23492 0.19056,-0.42536 0.42536,-0.42536h8.25188c0.41259,0 0.58061,0.52799 0.2467,0.76989l-3.42411,2.47982c-0.11017,0.08001 -0.1744,0.20817 -0.1744,0.34454v9.59175c0,0.23492 -0.19056,0.42536 -0.42536,0.42536h-4.47473c-0.2348,0 -0.42536,-0.19043 -0.42536,-0.42536v-3.81543l-2.40325,4.03236c-0.07699,0.1288 -0.21608,0.20842 -0.3658,0.20842h-4.68316c-0.2348,0 -0.42536,-0.19043 -0.42536,-0.42536v-8.95797c0,-0.23492 -0.19056,-0.42536 -0.42536,-0.42536h-1.85455c-0.2348,0 -0.42536,0.19043 -0.42536,0.42536v8.95797c0,0.23492 -0.19056,0.42536 -0.42536,0.42536h-4.48324c-0.23522,0 -0.42536,-0.19035 -0.42536,-0.42536l0.00851,-12.73512c0,-0.23484 0.19056,-0.42536 0.42536,-0.42536h12.60751c0.2348,0 0.42536,0.19043 0.42536,0.42536zM344.58519,172.97385l-5.0362,3.57298c-0.11229,0.07975 -0.17865,0.20668 -0.17865,0.34454v9.16639c0,0.23492 0.19056,0.42536 0.42536,0.42536h7.80526c0.08805,0 0.17482,-0.0299 0.2467,-0.08082l4.12594,-2.92219c0.33816,-0.23973 0.16759,-0.76989 -0.2467,-0.76989h-6.60576c-0.2348,0 -0.42536,-0.19043 -0.42536,-0.42536v-5.18507c0,-0.23492 0.19056,-0.42536 0.42536,-0.42536h2.51385c0.4262,0 0.58997,0.5547 0.22969,0.78265l-3.16889,2.00767h7.94137c0.2348,0 0.42536,-0.19043 0.42536,-0.42536v-5.71677c0,-0.23492 -0.19056,-0.42536 -0.42536,-0.42536h-7.80526c-0.08847,0 -0.17482,0.02556 -0.2467,0.07656z" fill-opacity="0.61176" fill="#848484" fill-rule="evenodd" stroke="none" stroke-width="1"/><text transform="translate(318.17569,189.21482) scale(0.07588,0.07588)" font-size="40" xml:space="preserve" fill-opacity="0.61176" fill="#848484" fill-rule="nonzero" stroke="none" stroke-width="1" font-family="&quot;MiSans-Light&quot;, Sans Serif" font-weight="normal" text-anchor="start"><tspan x="0" dy="0">Technology create Future</tspan></text><text transform="translate(205.47394,219.26827) scale(0.5,0.5)" font-size="40" xml:space="preserve" fill-opacity="0.60392" fill="#707070" fill-rule="nonzero" stroke="none" stroke-width="1" font-family="&quot;MiSans-Light&quot;, Sans Serif" font-weight="400" text-anchor="start"><tspan x="0" dy="0">空空如也...是时候创建文件了!</tspan></text></g></g></svg>