<svg version="1.1" xmlns="http://www.w3.org/2000/svg" xmlns:xlink="http://www.w3.org/1999/xlink" width="31" height="29.75486" viewBox="0,0,31,29.75486"><g transform="translate(-304.5,-165.12257)"><g data-paper-data="{&quot;isPaintingLayer&quot;:true}" fill="#ffffff" fill-rule="nonzero" stroke="none" stroke-width="0" stroke-linecap="butt" stroke-linejoin="miter" stroke-miterlimit="10" stroke-dasharray="" stroke-dashoffset="0" style="mix-blend-mode: normal"><path d="M304.5,187.12743c0,-4.28021 3.46979,-7.75 7.75,-7.75c4.28021,0 7.75,3.46979 7.75,7.75c0,4.28021 -3.46979,7.75 -7.75,7.75c-4.28021,0 -7.75,-3.46979 -7.75,-7.75z"/><path d="M304.5,187.12743v-15.5h31v15.5z"/><path d="M312.25,194.87743v-29.75486h15.5v29.75486z"/><path d="M304.5,172.87257c0,-4.28021 3.46979,-7.75 7.75,-7.75c4.28021,0 7.75,3.46979 7.75,7.75c0,4.28021 -3.46979,7.75 -7.75,7.75c-4.28021,0 -7.75,-3.46979 -7.75,-7.75z"/><path d="M320,187.12743c0,-4.28021 3.46979,-7.75 7.75,-7.75c4.28021,0 7.75,3.46979 7.75,7.75c0,4.28021 -3.46979,7.75 -7.75,7.75c-4.28021,0 -7.75,-3.46979 -7.75,-7.75z"/><path d="M320,172.87257c0,-4.28021 3.46979,-7.75 7.75,-7.75c4.28021,0 7.75,3.46979 7.75,7.75c0,4.28021 -3.46979,7.75 -7.75,7.75c-4.28021,0 -7.75,-3.46979 -7.75,-7.75z"/></g></g></svg>