<svg version="1.1" xmlns="http://www.w3.org/2000/svg" xmlns:xlink="http://www.w3.org/1999/xlink" width="78.24325" height="28.1323" viewBox="0,0,78.24325,28.1323"><g transform="translate(-319.94509,-165.92175)"><g stroke-miterlimit="10"><path d="M319.94509,194.05405v-28.1081h78.24325v28.1081z" fill-opacity="0.00392" fill="#ffffff" stroke="none" stroke-width="0" stroke-linecap="butt"/><text transform="translate(351.50006,187.17175) scale(0.5,0.5)" font-size="40" xml:space="preserve" fill="#0089ff" stroke="none" stroke-width="1" stroke-linecap="butt" font-family="&quot;MiSans-Medium&quot;, Sans Serif" font-weight="normal" text-anchor="start"><tspan x="0" dy="0">感谢</tspan></text><path d="M326.73357,179.89625c0,-5.02469 4.07332,-9.09802 9.098,-9.09802c5.02469,0 9.098,4.07333 9.098,9.09802c0,5.02469 -4.07332,9.098 -9.098,9.098c-5.02469,0 -9.098,-4.07332 -9.098,-9.098z" fill="none" stroke="#0089ff" stroke-width="1.5" stroke-linecap="butt"/><path d="M335.73962,176.0629l-2.75735,6.50735l-4.375,1.98529" fill="none" stroke="#0089ff" stroke-width="1.5" stroke-linecap="round"/><path d="M342.87198,184.55554l-4.375,-1.98529l-2.75735,-6.50735" fill="none" stroke="#0089ff" stroke-width="1.5" stroke-linecap="round"/><path d="M335.77638,177.71731v6.91177" fill="none" stroke="#0089ff" stroke-width="1.5" stroke-linecap="round"/><path d="M335.84991,184.7026l3.45588,3.45588" fill="none" stroke="#0089ff" stroke-width="1.5" stroke-linecap="round"/><path d="M332.28373,188.01142l3.45588,-3.45588" fill="none" stroke="#0089ff" stroke-width="1.5" stroke-linecap="round"/></g></g></svg>