<svg version="1.1" xmlns="http://www.w3.org/2000/svg" xmlns:xlink="http://www.w3.org/1999/xlink" width="334.38707" height="99.96352" viewBox="0,0,334.38707,99.96352"><defs><linearGradient x1="231.59429" y1="97.76123" x2="281.88773" y2="97.76123" gradientUnits="userSpaceOnUse" id="color-1"><stop offset="0" stop-color="#00b5ff" stop-opacity="0"/><stop offset="1" stop-color="#00b5ff" stop-opacity="0"/></linearGradient></defs><g transform="translate(-130.32032,-84.73034)"><g data-paper-data="{&quot;isPaintingLayer&quot;:true}" stroke-linecap="butt" stroke-linejoin="miter" stroke-miterlimit="10" stroke-dasharray="" stroke-dashoffset="0" style="mix-blend-mode: normal"><text transform="translate(130.57287,105.91538) scale(0.50511,0.50511)" font-size="40" xml:space="preserve" fill="#00aaff" fill-rule="nonzero" stroke="none" stroke-width="1" stroke-linecap="butt" stroke-linejoin="miter" stroke-miterlimit="10" stroke-dasharray="" stroke-dashoffset="0" font-family="&quot;MiSans-Heavy&quot;, Sans Serif" font-weight="normal" text-anchor="start" style="mix-blend-mode: normal"><tspan x="0" dy="0">感谢这些为               提供过帮助的人</tspan></text><path d="M273.86528,88.16099v5.52106c0,0.23656 0.19189,0.42832 0.42832,0.42832h7.16581c0.23643,0 0.42832,0.19176 0.42832,0.42832v12.82393c0,0.23656 -0.19189,0.42832 -0.42832,0.42832h-4.50594c-0.23643,0 -0.42832,-0.19176 -0.42832,-0.42832v-9.02044c0,-0.23656 -0.19189,-0.42832 -0.42832,-0.42832h-1.80323c-0.23643,0 -0.42832,0.19176 -0.42832,0.42832v9.02044c0,0.23656 -0.19189,0.42832 -0.42832,0.42832h-4.50594c-0.23656,0 -0.42832,-0.19176 -0.42832,-0.42832v-9.02044c0,-0.23656 -0.19176,-0.42832 -0.42832,-0.42832h-4.68583c-0.23656,0 -0.42832,0.19176 -0.42832,0.42832v5.22123c0,0.23656 0.19176,0.42832 0.42832,0.42832h3.32805c0.40622,0 0.58431,0.51064 0.26556,0.76241l-3.72639,2.94256c-0.0756,0.05975 -0.16923,0.09423 -0.26556,0.09423h-4.96424c-0.23656,0 -0.42832,-0.19176 -0.42832,-0.42832v-9.23031c0,-0.13882 0.06665,-0.26663 0.17989,-0.34694l5.07132,-3.5979c0.07243,-0.05135 0.15963,-0.0771 0.24842,-0.0771h4.97709c0.23656,0 0.42832,-0.19176 0.42832,-0.42832v-4.80148c0,-0.21048 0.15193,-0.39084 0.35979,-0.42404l4.50594,-0.71958c0.25999,-0.04157 0.49685,0.16053 0.49685,0.42404zM232.02261,88.79491l28.70178,-0.00857c0.41736,0 0.58877,0.53373 0.24842,0.77526l-4.14615,2.94256c-0.07247,0.0514 -0.15959,0.08138 -0.24842,0.08138l-15.08974,0.00857c-0.23656,0 -0.42832,0.19176 -0.42832,0.42832v14.34018c0,0.23656 -0.19176,0.42832 -0.42832,0.42832h-4.50594c-0.23656,0 -0.42832,-0.19176 -0.42832,-0.42832v-14.34018c0,-0.23656 -0.19176,-0.42832 -0.42832,-0.42832h-3.24667c-0.23656,0 -0.42832,-0.19176 -0.42832,-0.42832v-2.94256c0,-0.23656 0.19176,-0.42832 0.42832,-0.42832zM248.53867,94.08467h7.85969c0.23656,0 0.42832,0.19176 0.42832,0.42832v5.75663c0,0.23656 -0.19176,0.42832 -0.42832,0.42832h-7.99675l3.19099,-2.02167c0.36245,-0.22954 0.19771,-0.78811 -0.23129,-0.78811h-2.53138c-0.23656,0 -0.42832,0.19176 -0.42832,0.42832v5.22123c0,0.23656 0.19176,0.42832 0.42832,0.42832h6.65182c0.41753,0 0.58911,0.53386 0.24842,0.77526l-4.15471,2.94256c-0.07239,0.05127 -0.15972,0.08138 -0.24842,0.08138h-7.85969c-0.23656,0 -0.42832,-0.19176 -0.42832,-0.42832v-9.23031c0,-0.13882 0.06665,-0.26663 0.17989,-0.34694l5.07132,-3.5979c0.07243,-0.05135 0.15963,-0.0771 0.24842,-0.0771z" fill="#00b5ff" fill-rule="evenodd" stroke="url(#color-1)" stroke-width="0"/><path d="M283.72551,88.75501c-0.23643,0 -0.42832,0.19176 -0.42832,0.42832v2.94256c0,0.23656 0.19189,0.42832 0.42832,0.42832h12.90959c0.08866,0 0.17604,-0.03011 0.24842,-0.08138l4.15471,-2.94256c0.34052,-0.24136 0.16876,-0.77526 -0.24842,-0.77526zM296.84926,103.05237c0,0.23656 0.19189,0.42832 0.42832,0.42832h2.03881v-9.00759c0,-0.23656 0.19189,-0.42832 0.42832,-0.42832h8.30943c0.41547,0 0.58466,0.53167 0.24842,0.77526l-3.44798,2.49711c-0.11093,0.08057 -0.17561,0.20962 -0.17561,0.34694v9.65864c0,0.23656 -0.19189,0.42832 -0.42832,0.42832h-4.50594c-0.23643,0 -0.42832,-0.19176 -0.42832,-0.42832v-3.84204l-2.42001,4.06048c-0.07752,0.1297 -0.21759,0.20988 -0.36836,0.20988h-4.71581c-0.23643,0 -0.42832,-0.19176 -0.42832,-0.42832v-9.02044c0,-0.23656 -0.19189,-0.42832 -0.42832,-0.42832h-1.86748c-0.23643,0 -0.42832,0.19176 -0.42832,0.42832v9.02044c0,0.23656 -0.19189,0.42832 -0.42832,0.42832h-4.5145c-0.23686,0 -0.42832,-0.19167 -0.42832,-0.42832l0.00857,-12.82393c0,-0.23648 0.19189,-0.42832 0.42832,-0.42832h12.69543c0.23643,0 0.42832,0.19176 0.42832,0.42832zM311.46357,94.14757l-5.07132,3.5979c-0.11308,0.08031 -0.17989,0.20812 -0.17989,0.34694v9.23031c0,0.23656 0.19189,0.42832 0.42832,0.42832h7.85969c0.08866,0 0.17604,-0.03011 0.24842,-0.08138l4.15471,-2.94256c0.34052,-0.2414 0.16876,-0.77526 -0.24842,-0.77526h-6.65182c-0.23643,0 -0.42832,-0.19176 -0.42832,-0.42832v-5.22123c0,-0.23656 0.19189,-0.42832 0.42832,-0.42832h2.53138c0.42918,0 0.59408,0.55857 0.23129,0.78811l-3.19099,2.02167h7.99675c0.23643,0 0.42832,-0.19176 0.42832,-0.42832v-5.75663c0,-0.23656 -0.19189,-0.42832 -0.42832,-0.42832h-7.85969c-0.08909,0 -0.17604,0.02574 -0.24842,0.0771z" fill="#00b5ff" fill-rule="evenodd" stroke="none" stroke-width="1"/><text transform="translate(153.3137,145.70297) scale(0.36032,0.36032)" font-size="40" xml:space="preserve" fill="#00aaff" fill-rule="nonzero" stroke="none" stroke-width="1" stroke-linecap="butt" stroke-linejoin="miter" stroke-miterlimit="10" stroke-dasharray="" stroke-dashoffset="0" font-family="&quot;MiSans-Heavy&quot;, Sans Serif" font-weight="normal" text-anchor="start" style="mix-blend-mode: normal"><tspan x="0" dy="0">_KOSHINO_</tspan></text><text transform="translate(153.3137,162.99836) scale(0.36032,0.36032)" font-size="40" xml:space="preserve" fill="#00aaff" fill-rule="nonzero" stroke="none" stroke-width="1" stroke-linecap="butt" stroke-linejoin="miter" stroke-miterlimit="10" stroke-dasharray="" stroke-dashoffset="0" font-family="&quot;MiSans-Heavy&quot;, Sans Serif" font-weight="normal" text-anchor="start" style="mix-blend-mode: normal"><tspan x="0" dy="0">Cyberexplorer</tspan></text><text transform="translate(153.3137,180.29373) scale(0.36032,0.36032)" font-size="40" xml:space="preserve" fill="#00aaff" fill-rule="nonzero" stroke="none" stroke-width="1" stroke-linecap="butt" stroke-linejoin="miter" stroke-miterlimit="10" stroke-dasharray="" stroke-dashoffset="0" font-family="&quot;MiSans-Heavy&quot;, Sans Serif" font-weight="normal" text-anchor="start" style="mix-blend-mode: normal"><tspan x="0" dy="0">亚克力</tspan></text></g></g></svg>