<svg version="1.1" xmlns="http://www.w3.org/2000/svg" xmlns:xlink="http://www.w3.org/1999/xlink" width="78.24325" height="28.1081" viewBox="0,0,78.24325,28.1081"><g transform="translate(-288.19509,-164.54297)"><g data-paper-data="{&quot;isPaintingLayer&quot;:true}" fill-rule="nonzero" stroke-linecap="butt" stroke-linejoin="miter" stroke-miterlimit="10" stroke-dasharray="" stroke-dashoffset="0" style="mix-blend-mode: normal"><path d="M288.19509,192.65107v-28.1081h78.24325v28.1081z" fill-opacity="0.00392" fill="#ffffff" stroke="none" stroke-width="0"/><text transform="translate(319.75001,185.76877) scale(0.5,0.5)" font-size="40" xml:space="preserve" fill="#0089ff" fill-rule="nonzero" stroke="none" stroke-width="1" stroke-linecap="butt" stroke-linejoin="miter" stroke-miterlimit="10" stroke-dasharray="" stroke-dashoffset="0" font-family="&quot;MiSans-Heavy&quot;, Sans Serif" font-weight="normal" text-anchor="start" style="mix-blend-mode: normal"><tspan x="0" dy="0">主题</tspan></text><path d="M302.26804,171.25367c7.32266,0.98832 13.01544,5.67239 11.06126,11.04225c-1.95418,5.36986 -8.36358,6.57994 -12.88848,5.97889c-4.52493,-0.60107 -9.91294,-3.64986 -6.39219,-5.62882c3.52076,-1.97896 0.08824,-4.16082 -0.87238,-5.83879c-0.96061,-1.67797 1.7691,-6.54187 9.09179,-5.55353zM297.93897,178.27475c1.21331,0 2.1969,-0.98358 2.1969,-2.1969c0,-1.21331 -0.98358,-2.1969 -2.1969,-2.1969c-1.21331,0 -2.1969,0.98358 -2.1969,2.1969c0,1.21331 0.98358,2.1969 2.1969,2.1969zM303.15533,177.49813c0.95852,0 1.73555,-0.77703 1.73555,-1.73555c0,-0.95852 -0.77703,-1.73555 -1.73555,-1.73555c-0.95852,0 -1.73555,0.77703 -1.73555,1.73555c0,0.95852 0.77703,1.73555 1.73555,1.73555zM307.59483,178.53285c0.84932,0 1.53783,-0.68851 1.53783,-1.53783c0,-0.84932 -0.68851,-1.53783 -1.53783,-1.53783c-0.84932,0 -1.53783,0.68851 -1.53783,1.53783c0,0.84932 0.68851,1.53783 1.53783,1.53783z" fill="none" stroke="#0089ff" stroke-width="1.5"/></g></g></svg>