<svg version="1.1" xmlns="http://www.w3.org/2000/svg" xmlns:xlink="http://www.w3.org/1999/xlink" width="78.24325" height="28.1081" viewBox="0,0,78.24325,28.1081"><g transform="translate(-288.19509,-164.54297)"><g data-paper-data="{&quot;isPaintingLayer&quot;:true}" fill-rule="nonzero" stroke-linejoin="miter" stroke-miterlimit="10" stroke-dasharray="" stroke-dashoffset="0" style="mix-blend-mode: normal"><path d="M288.19509,192.65107v-28.1081h78.24325v28.1081z" fill-opacity="0.00392" fill="#ffffff" stroke="none" stroke-width="0" stroke-linecap="butt"/><text transform="translate(319.75003,185.76877) scale(0.5,0.5)" font-size="40" xml:space="preserve" fill="#0089ff" fill-rule="nonzero" stroke="none" stroke-width="1" stroke-linecap="butt" stroke-linejoin="miter" stroke-miterlimit="10" stroke-dasharray="" stroke-dashoffset="0" font-family="&quot;MiSans-Heavy&quot;, Sans Serif" font-weight="normal" text-anchor="start" style="mix-blend-mode: normal"><tspan x="0" dy="0">感谢</tspan></text><path d="M294.98355,178.49327c0,-5.02469 4.07332,-9.09802 9.098,-9.09802c5.02469,0 9.098,4.07333 9.098,9.09802c0,5.02469 -4.07332,9.098 -9.098,9.098c-5.02469,0 -9.098,-4.07332 -9.098,-9.098z" fill="none" stroke="#0089ff" stroke-width="1.5" stroke-linecap="butt"/><path d="M295.65441,178.2907h8.77411v9.30057" data-paper-data="{&quot;index&quot;:null}" fill="none" stroke="#0089ff" stroke-width="1.5" stroke-linecap="round"/><path d="M304.57788,181.27552h7.48221" fill="none" stroke="#0089ff" stroke-width="1.5" stroke-linecap="round"/><path d="M300.8973,174.66286c-0.22361,-0.44721 0.22361,-0.67082 0.22361,-0.67082l0.12534,-0.0617c3.27609,-1.37535 6.89396,0.4876 7.88006,3.76996c0,0 0.14367,0.47891 -0.33524,0.62259c-0.47891,0.14368 -0.62259,-0.33524 -0.62259,-0.33524c-0.80442,-2.68539 -3.80711,-4.33397 -6.52831,-3.13816l-0.07204,0.03699c0,0 -0.44722,0.2236 -0.67083,-0.22361z" fill="#0089ff" stroke="none" stroke-width="0.5" stroke-linecap="butt"/></g></g></svg>