<svg fill="none" viewBox="0 0 238 137" height="137" width="238" xmlns:xlink="http://www.w3.org/1999/xlink" xmlns="http://www.w3.org/2000/svg">
<path fill="#000000" fill-rule="evenodd" d="M111.81 11L111.81 23.89C111.81 24.4423 112.258 24.89 112.81 24.89L129.54 24.89C130.092 24.89 130.54 25.3377 130.54 25.89L130.54 55.83C130.54 56.3823 130.092 56.83 129.54 56.83L119.02 56.83C118.468 56.83 118.02 56.3823 118.02 55.83L118.02 34.77C118.02 34.2177 117.572 33.77 117.02 33.77L112.81 33.77C112.258 33.77 111.81 34.2177 111.81 34.77L111.81 55.83C111.81 56.3823 111.362 56.83 110.81 56.83L100.29 56.83C99.7377 56.83 99.29 56.3823 99.29 55.83L99.29 34.77C99.29 34.2177 98.8423 33.77 98.29 33.77L87.35 33.77C86.7977 33.77 86.35 34.2177 86.35 34.77L86.35 46.96C86.35 47.5123 86.7977 47.96 87.35 47.96L95.12 47.96C96.0684 47.96 96.4842 49.1522 95.74 49.74L87.04 56.61C86.8635 56.7495 86.6449 56.83 86.42 56.83L74.83 56.83C74.2777 56.83 73.83 56.3823 73.83 55.83L73.83 34.28C73.83 33.9559 73.9856 33.6575 74.25 33.47L86.09 25.07C86.2591 24.9501 86.4627 24.89 86.67 24.89L98.29 24.89C98.8423 24.89 99.29 24.4423 99.29 23.89L99.29 12.68C99.29 12.1886 99.6447 11.7675 100.13 11.69L110.65 10.01C111.257 9.91295 111.81 10.3848 111.81 11ZM14.12 12.48L81.13 12.46C82.1044 12.46 82.5046 13.7061 81.71 14.27L72.03 21.14C71.8608 21.26 71.6574 21.33 71.45 21.33L36.22 21.35C35.6677 21.35 35.22 21.7977 35.22 22.35L35.22 55.83C35.22 56.3823 34.7723 56.83 34.22 56.83L23.7 56.83C23.1477 56.83 22.7 56.3823 22.7 55.83L22.7 22.35C22.7 21.7977 22.2523 21.35 21.7 21.35L14.12 21.35C13.5677 21.35 13.12 20.9023 13.12 20.35L13.12 13.48C13.12 12.9277 13.5677 12.48 14.12 12.48ZM135.12 12.48L174.96 12.48C175.934 12.48 176.335 13.7265 175.54 14.29L165.84 21.16C165.671 21.2797 165.467 21.35 165.26 21.35L135.12 21.35C134.568 21.35 134.12 20.9023 134.12 20.35L134.12 13.48C134.12 12.9277 134.568 12.48 135.12 12.48ZM52.68 24.83L71.03 24.83C71.5823 24.83 72.03 25.2777 72.03 25.83L72.03 39.27C72.03 39.8223 71.5823 40.27 71.03 40.27L52.36 40.27L59.81 35.55C60.6562 35.0141 60.2716 33.71 59.27 33.71L53.36 33.71C52.8077 33.71 52.36 34.1577 52.36 34.71L52.36 46.9C52.36 47.4523 52.8077 47.9 53.36 47.9L68.89 47.9C69.8648 47.9 70.2654 49.1464 69.47 49.71L59.77 56.58C59.601 56.6997 59.3971 56.77 59.19 56.77L40.84 56.77C40.2877 56.77 39.84 56.3223 39.84 55.77L39.84 34.22C39.84 33.8959 39.9956 33.5975 40.26 33.41L52.1 25.01C52.2691 24.8901 52.4727 24.83 52.68 24.83ZM165.76 25.89C165.76 25.3377 165.312 24.89 164.76 24.89L135.12 24.89C134.568 24.89 134.12 25.3379 134.12 25.89L134.1 55.83C134.1 56.3825 134.547 56.83 135.1 56.83L145.64 56.83C146.192 56.83 146.64 56.3823 146.64 55.83L146.64 34.77C146.64 34.2177 147.088 33.77 147.64 33.77L152 33.77C152.552 33.77 153 34.2177 153 34.77L153 55.83C153 56.3823 153.448 56.83 154 56.83L165.01 56.83C165.362 56.83 165.689 56.6428 165.87 56.34L171.52 46.86L171.52 55.83C171.52 56.3823 171.968 56.83 172.52 56.83L183.04 56.83C183.592 56.83 184.04 56.3823 184.04 55.83L184.04 33.28C184.04 32.9594 184.191 32.6581 184.45 32.47L192.5 26.64C193.285 26.0713 192.89 24.83 191.92 24.83L172.52 24.83C171.968 24.83 171.52 25.2777 171.52 25.83L171.52 46.86L166.76 46.86C166.208 46.86 165.76 46.4123 165.76 45.86L165.76 25.89ZM200.46 24.89L218.81 24.89C219.362 24.89 219.81 25.3377 219.81 25.89L219.81 39.33C219.81 39.8823 219.362 40.33 218.81 40.33L200.14 40.33L207.59 35.61C208.437 35.0741 208.052 33.77 207.05 33.77L201.14 33.77C200.588 33.77 200.14 34.2177 200.14 34.77L200.14 46.96C200.14 47.5123 200.588 47.96 201.14 47.96L216.67 47.96C217.644 47.96 218.045 49.2064 217.25 49.77L207.55 56.64C207.381 56.7597 207.177 56.83 206.97 56.83L188.62 56.83C188.068 56.83 187.62 56.3823 187.62 55.83L187.62 34.28C187.62 33.9559 187.776 33.6575 188.04 33.47L199.88 25.07C200.049 24.9501 200.252 24.89 200.46 24.89Z">
</path>
<path fill="#000000" fill-rule="evenodd" d="M111.69 85.3905L111.69 70.3305L99.17 72.3305L99.17 85.3905L86.23 85.3905L73.71 94.2705L73.71 117.331L86.65 117.331L97.88 108.461L86.23 108.461L86.23 94.2705L99.17 94.2705L99.17 117.331L111.69 117.331L111.69 94.2705L117.9 94.2705L117.9 117.331L130.42 117.331L130.42 85.3905L111.69 85.3905ZM84.41 72.9805L13 72.9805L13 81.8505L22.58 81.8505L22.58 117.331L35.1 117.331L35.1 81.8505L71.91 81.8505L84.41 72.9805ZM177.98 72.9805L134 72.9805L134 81.8505L165.46 81.8505L177.98 72.9805ZM71.91 85.3305L52.24 85.3305L39.72 94.2105L39.72 117.271L59.39 117.271L71.91 108.401L52.24 108.401L52.24 100.771L71.91 100.771L71.91 85.3305ZM52.24 100.771L52.24 94.2105L62.6 94.2105L52.24 100.771ZM134 85.3905L165.64 85.3905L165.64 107.361L171.4 107.361L165.46 117.331L152.88 117.331L152.88 94.2705L146.52 94.2705L146.52 117.331L133.98 117.331L134 85.3905ZM171.4 107.361L171.4 85.3305L194.88 85.3305L183.92 93.2705L183.92 117.331L171.4 117.331L171.4 107.361ZM219.69 85.3905L200.02 85.3905L187.5 94.2705L187.5 117.331L207.17 117.331L219.69 108.461L200.02 108.461L200.02 100.831L219.69 100.831L219.69 85.3905ZM200.02 100.831L200.02 94.2705L210.38 94.2705L200.02 100.831Z">
</path>
</svg>
