<svg version="1.1" xmlns="http://www.w3.org/2000/svg" xmlns:xlink="http://www.w3.org/1999/xlink" width="99.70174" height="29.75486" viewBox="0,0,99.70174,29.75486"><g transform="translate(-270.14913,-165.12257)"><g fill="#ffffff" stroke="none" stroke-width="0" stroke-miterlimit="10"><path d="M270.14913,187.12743c0,-4.28021 3.46979,-7.75 7.75,-7.75c4.28021,0 7.75,3.46979 7.75,7.75c0,4.28021 -3.46979,7.75 -7.75,7.75c-4.28021,0 -7.75,-3.46979 -7.75,-7.75z"/><path d="M270.14913,187.12743v-15.5h99.70174v15.5z"/><path d="M277.89913,194.87743v-29.75486h84.20174v29.75486z"/><path d="M270.14913,172.87257c0,-4.28021 3.46979,-7.75 7.75,-7.75c4.28021,0 7.75,3.46979 7.75,7.75c0,4.28021 -3.46979,7.75 -7.75,7.75c-4.28021,0 -7.75,-3.46979 -7.75,-7.75z"/><path d="M354.35087,187.12743c0,-4.28021 3.46979,-7.75 7.75,-7.75c4.28021,0 7.75,3.46979 7.75,7.75c0,4.28021 -3.46979,7.75 -7.75,7.75c-4.28021,0 -7.75,-3.46979 -7.75,-7.75z"/><path d="M354.35087,172.87257c0,-4.28021 3.46979,-7.75 7.75,-7.75c4.28021,0 7.75,3.46979 7.75,7.75c0,4.28021 -3.46979,7.75 -7.75,7.75c-4.28021,0 -7.75,-3.46979 -7.75,-7.75z"/></g></g></svg>