<svg version="1.1" xmlns="http://www.w3.org/2000/svg" xmlns:xlink="http://www.w3.org/1999/xlink" width="65.21998" height="65.21998" viewBox="0,0,65.21998,65.21998"><defs><radialGradient cx="320.00001" cy="180" r="32.60999" gradientUnits="userSpaceOnUse" id="color-1"><stop offset="0" stop-color="#0077ff" stop-opacity="0.32941"/><stop offset="1" stop-color="#0077ff" stop-opacity="0"/></radialGradient></defs><g transform="translate(-287.39001,-147.39001)"><g stroke-miterlimit="10"><path d="M287.39002,180c0,-18.00999 14.6,-32.60999 32.60999,-32.60999c18.00999,0 32.60999,14.6 32.60999,32.60999c0,18.00999 -14.6,32.60999 -32.60999,32.60999c-18.00999,0 -32.60999,-14.6 -32.60999,-32.60999z" fill="url(#color-1)" stroke="none" stroke-width="0" stroke-linecap="butt"/><g fill="#006bff" stroke="none" stroke-width="0" stroke-linecap="butt"><path d="M300.74427,181.96935c0,-9.12169 7.39458,-16.51629 16.51628,-16.51629c9.12169,0 16.51629,7.39459 16.51629,16.51629c0,9.12169 -7.39459,16.51628 -16.51629,16.51628c-9.12169,0 -16.51628,-7.39458 -16.51628,-16.51628z"/><path d="M317.26054,198.48563v-36.97125h5.47889v36.97125z"/><path d="M306.22317,181.96935c0,-9.12169 7.39459,-16.51629 16.51629,-16.51629c9.12169,0 16.51628,7.39459 16.51628,16.51629c0,9.12169 -7.39458,16.51628 -16.51628,16.51628c-9.12169,0 -16.51629,-7.39458 -16.51629,-16.51628z"/><path d="M300.74427,181.96935v-4.17871h38.51146v4.17871z"/><path d="M300.74427,178.03066c0,-9.12169 7.39458,-16.51628 16.51628,-16.51628c9.12169,0 16.51629,7.39458 16.51629,16.51628c0,9.12169 -7.39459,16.51629 -16.51629,16.51629c-9.12169,0 -16.51628,-7.39459 -16.51628,-16.51629z"/><path d="M306.22317,178.03066c0,-9.12169 7.39459,-16.51628 16.51629,-16.51628c9.12169,0 16.51628,7.39458 16.51628,16.51628c0,9.12169 -7.39458,16.51629 -16.51628,16.51629c-9.12169,0 -16.51629,-7.39459 -16.51629,-16.51629z"/></g><path d="M324.46056,184.46056l-8.92112,-8.92112" fill="none" stroke="#ffffff" stroke-width="3" stroke-linecap="round"/><path d="M324.46056,175.53944l-8.92112,8.92111" fill="none" stroke="#ffffff" stroke-width="3" stroke-linecap="round"/></g></g></svg>