<svg version="1.1" xmlns="http://www.w3.org/2000/svg" xmlns:xlink="http://www.w3.org/1999/xlink" width="78.24325" height="28.1081" viewBox="0,0,78.24325,28.1081"><g transform="translate(-288.19509,-164.54297)"><g stroke-miterlimit="10"><path d="M288.19509,192.65107v-28.1081h78.24325v28.1081z" fill-opacity="0.00392" fill="#ffffff" stroke="none" stroke-width="0" stroke-linecap="butt"/><text transform="translate(319.75005,185.76877) scale(0.5,0.5)" font-size="40" xml:space="preserve" fill="#0089ff" stroke="none" stroke-width="1" stroke-linecap="butt" font-family="&quot;MiSans-Medium&quot;, Sans Serif" font-weight="normal" text-anchor="start"><tspan x="0" dy="0">感谢</tspan></text><path d="M294.98357,178.49327c0,-5.02469 4.07332,-9.09802 9.098,-9.09802c5.02469,0 9.098,4.07333 9.098,9.09802c0,5.02469 -4.07332,9.098 -9.098,9.098c-5.02469,0 -9.098,-4.07332 -9.098,-9.098z" fill="none" stroke="#0089ff" stroke-width="1.5" stroke-linecap="butt"/><path d="M303.98961,174.65992l-2.75735,6.50735l-4.375,1.98529" fill="none" stroke="#0089ff" stroke-width="1.5" stroke-linecap="round"/><path d="M311.12197,183.15256l-4.375,-1.98529l-2.75735,-6.50735" fill="none" stroke="#0089ff" stroke-width="1.5" stroke-linecap="round"/><path d="M304.02637,176.31433v6.91177" fill="none" stroke="#0089ff" stroke-width="1.5" stroke-linecap="round"/><path d="M304.0999,183.29962l3.45588,3.45588" fill="none" stroke="#0089ff" stroke-width="1.5" stroke-linecap="round"/><path d="M300.53373,186.60844l3.45588,-3.45588" fill="none" stroke="#0089ff" stroke-width="1.5" stroke-linecap="round"/></g></g></svg>