<svg version="1.1" xmlns="http://www.w3.org/2000/svg" xmlns:xlink="http://www.w3.org/1999/xlink" width="96.67222" height="29.75486" viewBox="0,0,96.67222,29.75486"><g transform="translate(-271.66389,-165.12257)"><g data-paper-data="{&quot;isPaintingLayer&quot;:true}" fill-rule="nonzero" stroke="none" stroke-linecap="butt" stroke-linejoin="miter" stroke-miterlimit="10" stroke-dasharray="" stroke-dashoffset="0" style="mix-blend-mode: normal"><path d="M271.66389,187.12743c0,-4.28021 3.46979,-7.75 7.75,-7.75c4.28021,0 7.75,3.46979 7.75,7.75c0,4.28021 -3.46979,7.75 -7.75,7.75c-4.28021,0 -7.75,-3.46979 -7.75,-7.75z" fill="#ffffff" stroke-width="0"/><path d="M271.66389,187.12743v-15.5h96.67222v15.5z" fill="#ffffff" stroke-width="0"/><path d="M279.41389,194.87743v-29.75486h81.17222v29.75486z" fill="#ffffff" stroke-width="0"/><path d="M271.66389,172.87257c0,-4.28021 3.46979,-7.75 7.75,-7.75c4.28021,0 7.75,3.46979 7.75,7.75c0,4.28021 -3.46979,7.75 -7.75,7.75c-4.28021,0 -7.75,-3.46979 -7.75,-7.75z" fill="#ffffff" stroke-width="0"/><path d="M352.83611,187.12743c0,-4.28021 3.46979,-7.75 7.75,-7.75c4.28021,0 7.75,3.46979 7.75,7.75c0,4.28021 -3.46979,7.75 -7.75,7.75c-4.28021,0 -7.75,-3.46979 -7.75,-7.75z" fill="#ffffff" stroke-width="0"/><path d="M352.83611,172.87257c0,-4.28021 3.46979,-7.75 7.75,-7.75c4.28021,0 7.75,3.46979 7.75,7.75c0,4.28021 -3.46979,7.75 -7.75,7.75c-4.28021,0 -7.75,-3.46979 -7.75,-7.75z" fill="#ffffff" stroke-width="0"/><text transform="translate(282.1152,182.84136) scale(0.23678,0.23678)" font-size="40" xml:space="preserve" fill="#3e3e3e" fill-rule="nonzero" stroke="none" stroke-width="1" stroke-linecap="butt" stroke-linejoin="miter" stroke-miterlimit="10" stroke-dasharray="" stroke-dashoffset="0" font-family="&quot;MiSans-Medium&quot;, Sans Serif" font-weight="normal" text-anchor="start" style="mix-blend-mode: normal"><tspan x="0" dy="0">我想想还是算了吧</tspan></text></g></g></svg>