<svg version="1.1" xmlns="http://www.w3.org/2000/svg" xmlns:xlink="http://www.w3.org/1999/xlink" width="311.24008" height="152.92899" viewBox="0,0,311.24008,152.92899"><defs><linearGradient x1="272.18293" y1="97.76123" x2="322.47637" y2="97.76123" gradientUnits="userSpaceOnUse" id="color-1"><stop offset="0" stop-color="#00b5ff" stop-opacity="0"/><stop offset="1" stop-color="#00b5ff" stop-opacity="0"/></linearGradient><linearGradient x1="296.92876" y1="197.8041" x2="322.69357" y2="197.8041" gradientUnits="userSpaceOnUse" id="color-2"><stop offset="0" stop-color="#00b5ff" stop-opacity="0"/><stop offset="1" stop-color="#00b5ff" stop-opacity="0"/></linearGradient></defs><g transform="translate(-149.78061,-84.73042)"><g data-paper-data="{&quot;isPaintingLayer&quot;:true}" stroke-linecap="butt" stroke-linejoin="miter" stroke-miterlimit="10" stroke-dasharray="" stroke-dashoffset="0" style="mix-blend-mode: normal"><text transform="translate(150.03317,105.91546) scale(0.50511,0.50511)" font-size="40" xml:space="preserve" fill="#00aaff" fill-rule="nonzero" stroke="none" stroke-width="1" stroke-linecap="butt" stroke-linejoin="miter" stroke-miterlimit="10" stroke-dasharray="" stroke-dashoffset="0" font-family="&quot;MiSans-Heavy&quot;, Sans Serif" font-weight="normal" text-anchor="start" style="mix-blend-mode: normal"><tspan x="0" dy="0">敬这些帮助过               的人</tspan></text><path d="M314.45392,88.16099v5.52106c0,0.23656 0.19189,0.42832 0.42832,0.42832h7.16581c0.23643,0 0.42832,0.19176 0.42832,0.42832v12.82393c0,0.23656 -0.19189,0.42832 -0.42832,0.42832h-4.50594c-0.23643,0 -0.42832,-0.19176 -0.42832,-0.42832v-9.02044c0,-0.23656 -0.19189,-0.42832 -0.42832,-0.42832h-1.80323c-0.23643,0 -0.42832,0.19176 -0.42832,0.42832v9.02044c0,0.23656 -0.19189,0.42832 -0.42832,0.42832h-4.50594c-0.23656,0 -0.42832,-0.19176 -0.42832,-0.42832v-9.02044c0,-0.23656 -0.19176,-0.42832 -0.42832,-0.42832h-4.68583c-0.23656,0 -0.42832,0.19176 -0.42832,0.42832v5.22123c0,0.23656 0.19176,0.42832 0.42832,0.42832h3.32805c0.40622,0 0.58431,0.51064 0.26556,0.76241l-3.72639,2.94256c-0.0756,0.05975 -0.16923,0.09423 -0.26556,0.09423h-4.96424c-0.23656,0 -0.42832,-0.19176 -0.42832,-0.42832v-9.23031c0,-0.13882 0.06665,-0.26663 0.17989,-0.34694l5.07132,-3.5979c0.07243,-0.05135 0.15963,-0.0771 0.24842,-0.0771h4.97709c0.23656,0 0.42832,-0.19176 0.42832,-0.42832v-4.80148c0,-0.21048 0.15193,-0.39084 0.35979,-0.42404l4.50594,-0.71958c0.25999,-0.04157 0.49685,0.16053 0.49685,0.42404zM272.61125,88.79491l28.70178,-0.00857c0.41736,0 0.58877,0.53373 0.24842,0.77526l-4.14615,2.94256c-0.07247,0.0514 -0.15959,0.08138 -0.24842,0.08138l-15.08974,0.00857c-0.23656,0 -0.42832,0.19176 -0.42832,0.42832v14.34018c0,0.23656 -0.19176,0.42832 -0.42832,0.42832h-4.50594c-0.23656,0 -0.42832,-0.19176 -0.42832,-0.42832v-14.34018c0,-0.23656 -0.19176,-0.42832 -0.42832,-0.42832h-3.24667c-0.23656,0 -0.42832,-0.19176 -0.42832,-0.42832v-2.94256c0,-0.23656 0.19176,-0.42832 0.42832,-0.42832zM289.12731,94.08467h7.85969c0.23656,0 0.42832,0.19176 0.42832,0.42832v5.75663c0,0.23656 -0.19176,0.42832 -0.42832,0.42832h-7.99675l3.19099,-2.02167c0.36245,-0.22954 0.19771,-0.78811 -0.23129,-0.78811h-2.53138c-0.23656,0 -0.42832,0.19176 -0.42832,0.42832v5.22123c0,0.23656 0.19176,0.42832 0.42832,0.42832h6.65182c0.41753,0 0.58911,0.53386 0.24842,0.77526l-4.15471,2.94256c-0.07239,0.05127 -0.15972,0.08138 -0.24842,0.08138h-7.85969c-0.23656,0 -0.42832,-0.19176 -0.42832,-0.42832v-9.23031c0,-0.13882 0.06665,-0.26663 0.17989,-0.34694l5.07132,-3.5979c0.07243,-0.05135 0.15963,-0.0771 0.24842,-0.0771z" fill="#00b5ff" fill-rule="evenodd" stroke="url(#color-1)" stroke-width="0"/><path d="M324.31415,88.75501c-0.23643,0 -0.42832,0.19176 -0.42832,0.42832v2.94256c0,0.23656 0.19189,0.42832 0.42832,0.42832h12.90959c0.08866,0 0.17604,-0.03011 0.24842,-0.08138l4.15471,-2.94256c0.34052,-0.24136 0.16876,-0.77526 -0.24842,-0.77526zM337.4379,103.05237c0,0.23656 0.19189,0.42832 0.42832,0.42832h2.03881v-9.00759c0,-0.23656 0.19189,-0.42832 0.42832,-0.42832h8.30943c0.41547,0 0.58466,0.53167 0.24842,0.77526l-3.44798,2.49711c-0.11093,0.08057 -0.17561,0.20962 -0.17561,0.34694v9.65864c0,0.23656 -0.19189,0.42832 -0.42832,0.42832h-4.50594c-0.23643,0 -0.42832,-0.19176 -0.42832,-0.42832v-3.84204l-2.42001,4.06048c-0.07752,0.1297 -0.21759,0.20988 -0.36836,0.20988h-4.71581c-0.23643,0 -0.42832,-0.19176 -0.42832,-0.42832v-9.02044c0,-0.23656 -0.19189,-0.42832 -0.42832,-0.42832h-1.86748c-0.23643,0 -0.42832,0.19176 -0.42832,0.42832v9.02044c0,0.23656 -0.19189,0.42832 -0.42832,0.42832h-4.5145c-0.23686,0 -0.42832,-0.19167 -0.42832,-0.42832l0.00857,-12.82393c0,-0.23648 0.19189,-0.42832 0.42832,-0.42832h12.69543c0.23643,0 0.42832,0.19176 0.42832,0.42832zM352.05221,94.14757l-5.07132,3.5979c-0.11308,0.08031 -0.17989,0.20812 -0.17989,0.34694v9.23031c0,0.23656 0.19189,0.42832 0.42832,0.42832h7.85969c0.08866,0 0.17604,-0.03011 0.24842,-0.08138l4.15471,-2.94256c0.34052,-0.2414 0.16876,-0.77526 -0.24842,-0.77526h-6.65182c-0.23643,0 -0.42832,-0.19176 -0.42832,-0.42832v-5.22123c0,-0.23656 0.19189,-0.42832 0.42832,-0.42832h2.53138c0.42918,0 0.59408,0.55857 0.23129,0.78811l-3.19099,2.02167h7.99675c0.23643,0 0.42832,-0.19176 0.42832,-0.42832v-5.75663c0,-0.23656 -0.19189,-0.42832 -0.42832,-0.42832h-7.85969c-0.08909,0 -0.17604,0.02574 -0.24842,0.0771z" fill="#00b5ff" fill-rule="evenodd" stroke="none" stroke-width="1"/><text transform="translate(179.19436,131.43738) scale(0.27265,0.27265)" font-size="40" xml:space="preserve" fill="#00aaff" fill-rule="nonzero" stroke="none" stroke-width="1" stroke-linecap="butt" stroke-linejoin="miter" stroke-miterlimit="10" stroke-dasharray="" stroke-dashoffset="0" font-family="&quot;MiSans-Heavy&quot;, Sans Serif" font-weight="normal" text-anchor="start" style="mix-blend-mode: normal"><tspan x="0" dy="0">_KOSHINO_</tspan></text><text transform="translate(180.3076,163.11545) scale(0.27265,0.27265)" font-size="40" xml:space="preserve" fill="#00aaff" fill-rule="nonzero" stroke="none" stroke-width="1" stroke-linecap="butt" stroke-linejoin="miter" stroke-miterlimit="10" stroke-dasharray="" stroke-dashoffset="0" font-family="&quot;MiSans-Heavy&quot;, Sans Serif" font-weight="normal" text-anchor="start" style="mix-blend-mode: normal"><tspan x="0" dy="0">Cyberexplorer</tspan></text><text transform="translate(290.23205,129.30921) scale(0.27265,0.27265)" font-size="40" xml:space="preserve" fill="#00aaff" fill-rule="nonzero" stroke="none" stroke-width="1" stroke-linecap="butt" stroke-linejoin="miter" stroke-miterlimit="10" stroke-dasharray="" stroke-dashoffset="0" font-family="&quot;MiSans-Heavy&quot;, Sans Serif" font-weight="normal" text-anchor="start" style="mix-blend-mode: normal"><tspan x="0" dy="0">亚克力</tspan></text><text transform="translate(179.19436,142.4163) scale(0.21409,0.21409)" font-size="40" xml:space="preserve" fill="#00aaff" fill-rule="nonzero" stroke="none" stroke-width="1" stroke-linecap="butt" stroke-linejoin="miter" stroke-miterlimit="10" stroke-dasharray="" stroke-dashoffset="0" font-family="&quot;MiSans-Medium&quot;, Sans Serif" font-weight="normal" text-anchor="start" style="mix-blend-mode: normal"><tspan x="0" dy="0">程序提供</tspan></text><text transform="translate(180.3076,174.09444) scale(0.21409,0.21409)" font-size="40" xml:space="preserve" fill="#00aaff" fill-rule="nonzero" stroke="none" stroke-width="1" stroke-linecap="butt" stroke-linejoin="miter" stroke-miterlimit="10" stroke-dasharray="" stroke-dashoffset="0" font-family="&quot;MiSans-Medium&quot;, Sans Serif" font-weight="normal" text-anchor="start" style="mix-blend-mode: normal"><tspan x="0" dy="0">功能、想法提供</tspan></text><text transform="translate(290.23205,140.2882) scale(0.21409,0.21409)" font-size="40" xml:space="preserve" fill="#00aaff" fill-rule="nonzero" stroke="none" stroke-width="1" stroke-linecap="butt" stroke-linejoin="miter" stroke-miterlimit="10" stroke-dasharray="" stroke-dashoffset="0" font-family="&quot;MiSans-Medium&quot;, Sans Serif" font-weight="normal" text-anchor="start" style="mix-blend-mode: normal"><tspan x="0" dy="0">Logo制作</tspan></text><text transform="translate(291.67074,161.67612) scale(0.27265,0.27265)" font-size="40" xml:space="preserve" fill="#00aaff" fill-rule="nonzero" stroke="none" stroke-width="1" stroke-linecap="butt" stroke-linejoin="miter" stroke-miterlimit="10" stroke-dasharray="" stroke-dashoffset="0" font-family="&quot;MiSans-Heavy&quot;, Sans Serif" font-weight="normal" text-anchor="start" style="mix-blend-mode: normal"><tspan x="0" dy="0">你</tspan></text><text transform="translate(291.67074,172.65511) scale(0.21409,0.21409)" font-size="40" xml:space="preserve" fill="#00aaff" fill-rule="nonzero" stroke="none" stroke-width="1" stroke-linecap="butt" stroke-linejoin="miter" stroke-miterlimit="10" stroke-dasharray="" stroke-dashoffset="0" font-family="&quot;MiSans-Medium&quot;, Sans Serif" font-weight="normal" text-anchor="start" style="mix-blend-mode: normal"><tspan x="0" dy="0">感谢使用</tspan></text><text transform="translate(178.39364,202.4812) scale(0.27265,0.27265)" font-size="40" xml:space="preserve" fill="#00aaff" fill-rule="nonzero" stroke="none" stroke-width="1" stroke-linecap="butt" stroke-linejoin="miter" stroke-miterlimit="10" stroke-dasharray="" stroke-dashoffset="0" font-family="&quot;MiSans-Heavy&quot;, Sans Serif" font-weight="normal" text-anchor="start" style="mix-blend-mode: normal"><tspan x="0" dy="0">BTW，也感谢这些曾对                 提供过想法和 建议的人</tspan></text><path d="M318.58375,192.886v2.82838c0,0.12119 0.0983,0.21942 0.21942,0.21942h3.67097c0.12112,0 0.21942,0.09824 0.21942,0.21942v6.56956c0,0.12119 -0.0983,0.21942 -0.21942,0.21942h-2.30835c-0.12112,0 -0.21942,-0.09824 -0.21942,-0.21942v-4.62108c0,-0.12119 -0.0983,-0.21942 -0.21942,-0.21942h-0.92378c-0.12112,0 -0.21942,0.09824 -0.21942,0.21942v4.62108c0,0.12119 -0.0983,0.21942 -0.21942,0.21942h-2.30835c-0.12119,0 -0.21942,-0.09824 -0.21942,-0.21942v-4.62108c0,-0.12119 -0.09824,-0.21942 -0.21942,-0.21942h-2.4005c-0.12119,0 -0.21942,0.09824 -0.21942,0.21942v2.67478c0,0.12119 0.09824,0.21942 0.21942,0.21942h1.70493c0.2081,0 0.29934,0.2616 0.13604,0.39057l-1.90899,1.50744c-0.03873,0.03061 -0.08669,0.04827 -0.13604,0.04827h-2.54313c-0.12119,0 -0.21942,-0.09824 -0.21942,-0.21942v-4.72859c0,-0.07112 0.03414,-0.13659 0.09216,-0.17773l2.59798,-1.84317c0.03711,-0.02631 0.08178,-0.0395 0.12726,-0.0395h2.54971c0.12119,0 0.21942,-0.09824 0.21942,-0.21942v-2.45975c0,-0.10783 0.07783,-0.20022 0.18432,-0.21723l2.30835,-0.36863c0.13319,-0.0213 0.25453,0.08224 0.25453,0.21723zM297.14819,193.21075l14.70362,-0.00439c0.21381,0 0.30162,0.27342 0.12726,0.39716l-2.12403,1.50744c-0.03713,0.02633 -0.08176,0.04169 -0.12726,0.04169l-7.73032,0.00439c-0.12119,0 -0.21942,0.09824 -0.21942,0.21942v7.34632c0,0.12119 -0.09824,0.21942 -0.21942,0.21942h-2.30835c-0.12119,0 -0.21942,-0.09824 -0.21942,-0.21942v-7.34632c0,-0.12119 -0.09824,-0.21942 -0.21942,-0.21942h-1.66323c-0.12119,0 -0.21942,-0.09824 -0.21942,-0.21942v-1.50744c0,-0.12119 0.09824,-0.21942 0.21942,-0.21942zM305.60919,195.92064h4.02644c0.12119,0 0.21942,0.09824 0.21942,0.21942v2.94906c0,0.12119 -0.09824,0.21942 -0.21942,0.21942h-4.09665l1.63471,-1.03568c0.18568,-0.11759 0.10128,-0.40374 -0.11849,-0.40374h-1.2968c-0.12119,0 -0.21942,0.09824 -0.21942,0.21942v2.67478c0,0.12119 0.09824,0.21942 0.21942,0.21942h3.40766c0.2139,0 0.30179,0.27349 0.12726,0.39716l-2.12841,1.50744c-0.03708,0.02627 -0.08182,0.04169 -0.12726,0.04169h-4.02644c-0.12119,0 -0.21942,-0.09824 -0.21942,-0.21942v-4.72859c0,-0.07112 0.03414,-0.13659 0.09216,-0.17773l2.59798,-1.84317c0.03711,-0.02631 0.08178,-0.0395 0.12726,-0.0395z" fill="#00b5ff" fill-rule="evenodd" stroke="url(#color-2)" stroke-width="0"/><path d="M323.63504,193.19031c-0.12112,0 -0.21942,0.09824 -0.21942,0.21942v1.50744c0,0.12119 0.0983,0.21942 0.21942,0.21942h6.61345c0.04542,0 0.09018,-0.01543 0.12726,-0.04169l2.12841,-1.50744c0.17444,-0.12365 0.08645,-0.39716 -0.12726,-0.39716zM330.3582,200.5147c0,0.12119 0.0983,0.21942 0.21942,0.21942h1.04446v-4.61449c0,-0.12119 0.0983,-0.21942 0.21942,-0.21942h4.25683c0.21284,0 0.29952,0.27237 0.12726,0.39716l-1.76636,1.27924c-0.05683,0.04128 -0.08996,0.10739 -0.08996,0.17773v4.94802c0,0.12119 -0.0983,0.21942 -0.21942,0.21942h-2.30835c-0.12112,0 -0.21942,-0.09824 -0.21942,-0.21942v-1.96824l-1.23975,2.08014c-0.03971,0.06644 -0.11147,0.10752 -0.18871,0.10752h-2.41586c-0.12112,0 -0.21942,-0.09824 -0.21942,-0.21942v-4.62108c0,-0.12119 -0.0983,-0.21942 -0.21942,-0.21942h-0.95669c-0.12112,0 -0.21942,0.09824 -0.21942,0.21942v4.62108c0,0.12119 -0.0983,0.21942 -0.21942,0.21942h-2.31273c-0.12134,0 -0.21942,-0.09819 -0.21942,-0.21942l0.00439,-6.56956c0,-0.12115 0.0983,-0.21942 0.21942,-0.21942h6.50374c0.12112,0 0.21942,0.09824 0.21942,0.21942zM337.84496,195.95286l-2.59798,1.84317c-0.05793,0.04114 -0.09216,0.10662 -0.09216,0.17773v4.72859c0,0.12119 0.0983,0.21942 0.21942,0.21942h4.02644c0.04542,0 0.09018,-0.01543 0.12726,-0.04169l2.12841,-1.50744c0.17444,-0.12367 0.08645,-0.39716 -0.12726,-0.39716h-3.40766c-0.12112,0 -0.21942,-0.09824 -0.21942,-0.21942v-2.67478c0,-0.12119 0.0983,-0.21942 0.21942,-0.21942h1.2968c0.21986,0 0.30434,0.28615 0.11849,0.40374l-1.63471,1.03568h4.09665c0.12112,0 0.21942,-0.09824 0.21942,-0.21942v-2.94906c0,-0.12119 -0.0983,-0.21942 -0.21942,-0.21942h-4.02644c-0.04564,0 -0.09018,0.01319 -0.12726,0.0395z" fill="#00b5ff" fill-rule="evenodd" stroke="none" stroke-width="1"/><text transform="translate(179.97563,224.32191) scale(0.22151,0.22151)" font-size="40" xml:space="preserve" fill="#00aaff" fill-rule="nonzero" stroke="none" stroke-width="1" stroke-linecap="butt" stroke-linejoin="miter" stroke-miterlimit="10" stroke-dasharray="" stroke-dashoffset="0" font-family="&quot;MiSans-Medium&quot;, Sans Serif" font-weight="normal" text-anchor="start" style="mix-blend-mode: normal"><tspan x="0" dy="0">PPN-design、potaaato 、likele 、孤行的3044、山田S-A-M-A、</tspan><tspan x="0" dy="48px">Sc群的群友们...（不分前后)</tspan></text><text transform="translate(178.39364,209.15343) scale(0.14481,0.14481)" font-size="40" xml:space="preserve" fill="#00aaff" fill-rule="nonzero" stroke="none" stroke-width="1" stroke-linecap="butt" stroke-linejoin="miter" stroke-miterlimit="10" stroke-dasharray="" stroke-dashoffset="0" font-family="&quot;MiSans-Medium&quot;, Sans Serif" font-weight="normal" text-anchor="start" style="mix-blend-mode: normal"><tspan x="0" dy="0">*顺便一提</tspan></text></g></g></svg>