<svg version="1.1" xmlns="http://www.w3.org/2000/svg" xmlns:xlink="http://www.w3.org/1999/xlink" width="94.3386" height="79.8611" viewBox="0,0,94.3386,79.8611"><g transform="translate(-272.8307,-140.06945)"><g data-paper-data="{&quot;isPaintingLayer&quot;:true}" fill="#000000" fill-rule="nonzero" stroke="none" stroke-width="0" stroke-linecap="butt" stroke-linejoin="miter" stroke-miterlimit="10" stroke-dasharray="" stroke-dashoffset="0" style="mix-blend-mode: normal"><path d="M272.83071,214.54064v-69.08127h94.33858v69.08127z"/><path d="M356.9519,145.45936c0,-2.97676 2.28724,-5.38991 5.1087,-5.38991c2.82146,0 5.1087,2.41314 5.1087,5.38991c0,2.97677 -2.28724,5.38991 -5.1087,5.38991c-2.82146,0 -5.1087,-2.41314 -5.1087,-5.38991z"/><path d="M356.9519,214.54064c0,-2.97677 2.28724,-5.38991 5.1087,-5.38991c2.82146,0 5.1087,2.41314 5.1087,5.38991c0,2.97677 -2.28724,5.38991 -5.1087,5.38991c-2.82146,0 -5.1087,-2.41314 -5.1087,-5.38991z"/><path d="M272.8307,145.45936c0,-2.97676 2.28724,-5.38991 5.1087,-5.38991c2.82146,0 5.1087,2.41314 5.1087,5.38991c0,2.97677 -2.28724,5.38991 -5.1087,5.38991c-2.82146,0 -5.1087,-2.41314 -5.1087,-5.38991z"/><path d="M272.83071,214.54064c0,-2.97677 2.28724,-5.38991 5.1087,-5.38991c2.82146,0 5.1087,2.41314 5.1087,5.38991c0,2.97677 -2.28724,5.38991 -5.1087,5.38991c-2.82146,0 -5.1087,-2.41314 -5.1087,-5.38991z"/><path d="M277.9394,219.93055v-79.86109h84.12119v79.86109z"/></g></g></svg>