<svg version="1.1" xmlns="http://www.w3.org/2000/svg" xmlns:xlink="http://www.w3.org/1999/xlink" width="78.24325" height="28.23098" viewBox="0,0,78.24325,28.23098"><g transform="translate(-280.87837,-165.82307)"><g stroke-miterlimit="10"><path d="M280.87838,194.05405v-28.1081h78.24325v28.1081z" fill-opacity="0.00392" fill="#ffffff" stroke="none" stroke-width="0" stroke-linecap="butt"/><text transform="translate(312.4662,187.07307) scale(0.5,0.5)" font-size="40" xml:space="preserve" fill="#ffffff" stroke="none" stroke-width="1" stroke-linecap="butt" font-family="&quot;MiSans-Medium&quot;, Sans Serif" font-weight="normal" text-anchor="start"><tspan x="0" dy="0">睡眠</tspan></text><path d="M287.69972,179.79757c0,-5.02469 4.07332,-9.09802 9.098,-9.09802c5.02469,0 9.098,4.07333 9.098,9.09802c0,5.02469 -4.07332,9.098 -9.098,9.098c-5.02469,0 -9.098,-4.07332 -9.098,-9.098z" fill="none" stroke="#ffffff" stroke-width="1.5" stroke-linecap="butt"/><path d="M291.02876,176.41336l11.08371,-0.85574v8.71605" fill="none" stroke="#ffffff" stroke-width="1.5" stroke-linecap="round"/><path d="M293.83562,183.05869c-0.98467,-1.48968 -0.57528,-3.49553 0.9144,-4.4802c1.48968,-0.98467 0.40806,1.46553 1.39273,2.9552c0.98467,1.48968 3.66276,1.45472 2.17308,2.4394c-1.48968,0.98467 -3.49553,0.57528 -4.4802,-0.9144z" fill="none" stroke="#ffffff" stroke-width="1.5" stroke-linecap="butt"/></g></g></svg>