<svg version="1.1" xmlns="http://www.w3.org/2000/svg" xmlns:xlink="http://www.w3.org/1999/xlink" width="49.83872" height="50.00904" viewBox="0,0,49.83872,50.00904"><g transform="translate(-295.08063,-154.91033)"><g data-paper-data="{&quot;isPaintingLayer&quot;:true}" fill="none" fill-rule="nonzero" stroke-width="10" stroke-linecap="butt" stroke-linejoin="miter" stroke-miterlimit="10" stroke-dasharray="" stroke-dashoffset="0" style="mix-blend-mode: normal"><path d="M337.90413,171.25918c1.29073,2.63888 2.01522,5.60525 2.01522,8.74083c0,11.00116 -8.9182,19.91936 -19.91936,19.91936c-11.00116,0 -19.91936,-8.9182 -19.91936,-19.91936c0,-1.9081 0.26829,-3.75355 0.76921,-5.50066" stroke="#00c1ff"/><path d="M330.94561,163.35481c5.40598,3.56208 8.97374,9.68699 8.97374,16.6452c0,11.00116 -8.9182,19.91936 -19.91936,19.91936c-3.11032,0 -6.05413,-0.71287 -8.67698,-1.98413" stroke="#0075ff"/><path d="M307.05028,164.68959c5.43917,-4.64069 13.20241,-6.18985 20.30787,-3.36297c10.2219,4.06674 15.21164,15.64996 11.14491,25.87185c-0.70536,1.77294 -1.63684,3.38849 -2.74812,4.82667" stroke="#002dff"/></g></g></svg>