<svg version="1.1" xmlns="http://www.w3.org/2000/svg" xmlns:xlink="http://www.w3.org/1999/xlink" width="960" height="540" viewBox="0,0,960,540"><defs><linearGradient x1="223.38179" y1="346.69944" x2="415.8733" y2="13.30056" gradientUnits="userSpaceOnUse" id="color-1"><stop offset="0" stop-color="#ffffff"/><stop offset="0.01087" stop-color="#fefefe"/><stop offset="0.02174" stop-color="#fefefe"/><stop offset="0.03261" stop-color="#fefefe"/><stop offset="0.04348" stop-color="#fefefe"/><stop offset="0.05435" stop-color="#fefefe"/><stop offset="0.06522" stop-color="#fefefe"/><stop offset="0.07609" stop-color="#fefefe"/><stop offset="0.08696" stop-color="#fefefe"/><stop offset="0.09783" stop-color="#fdfefe"/><stop offset="0.1087" stop-color="#fdfefe"/><stop offset="0.11957" stop-color="#fdfefe"/><stop offset="0.13044" stop-color="#fcfefe"/><stop offset="0.1413" stop-color="#fcfefe"/><stop offset="0.15217" stop-color="#fcfdfe"/><stop offset="0.16304" stop-color="#fbfdfe"/><stop offset="0.17391" stop-color="#fbfdfe"/><stop offset="0.18478" stop-color="#fbfdfe"/><stop offset="0.19565" stop-color="#fafdfe"/><stop offset="0.20652" stop-color="#fafcfe"/><stop offset="0.21739" stop-color="#f9fcfe"/><stop offset="0.22826" stop-color="#f9fcfe"/><stop offset="0.23913" stop-color="#f8fcfd"/><stop offset="0.25" stop-color="#f8fcfd"/><stop offset="0.26087" stop-color="#f7fbfd"/><stop offset="0.27174" stop-color="#f6fbfd"/><stop offset="0.28261" stop-color="#f6fbfd"/><stop offset="0.29348" stop-color="#f5fbfd"/><stop offset="0.30435" stop-color="#f5fafd"/><stop offset="0.31522" stop-color="#f4fafd"/><stop offset="0.32609" stop-color="#f3fafd"/><stop offset="0.33696" stop-color="#f2f9fd"/><stop offset="0.34783" stop-color="#f2f9fc"/><stop offset="0.3587" stop-color="#f1f9fc"/><stop offset="0.36957" stop-color="#f0f8fc"/><stop offset="0.38044" stop-color="#eff8fc"/><stop offset="0.3913" stop-color="#eef8fc"/><stop offset="0.40217" stop-color="#eef7fc"/><stop offset="0.41304" stop-color="#edf7fc"/><stop offset="0.42391" stop-color="#ecf7fb"/><stop offset="0.43478" stop-color="#ebf6fb"/><stop offset="0.44565" stop-color="#eaf6fb"/><stop offset="0.45652" stop-color="#e9f6fb"/><stop offset="0.46739" stop-color="#e8f5fb"/><stop offset="0.47826" stop-color="#e7f5fb"/><stop offset="0.48913" stop-color="#e6f4fb"/><stop offset="0.5" stop-color="#e5f4fa"/><stop offset="0.51087" stop-color="#e4f3fa"/><stop offset="0.52174" stop-color="#e3f3fa"/><stop offset="0.53261" stop-color="#e2f3fa"/><stop offset="0.54348" stop-color="#e1f2fa"/><stop offset="0.55435" stop-color="#e0f2fa"/><stop offset="0.56522" stop-color="#dff1f9"/><stop offset="0.57609" stop-color="#ddf1f9"/><stop offset="0.58696" stop-color="#dcf0f9"/><stop offset="0.59783" stop-color="#dbf0f9"/><stop offset="0.6087" stop-color="#daeff9"/><stop offset="0.61957" stop-color="#d9eff8"/><stop offset="0.63044" stop-color="#d7eef8"/><stop offset="0.6413" stop-color="#d6eef8"/><stop offset="0.65217" stop-color="#d5edf8"/><stop offset="0.66304" stop-color="#d3ecf8"/><stop offset="0.67391" stop-color="#d2ecf7"/><stop offset="0.68478" stop-color="#d1ebf7"/><stop offset="0.69565" stop-color="#cfebf7"/><stop offset="0.70652" stop-color="#ceeaf7"/><stop offset="0.71739" stop-color="#cdeaf6"/><stop offset="0.72826" stop-color="#cbe9f6"/><stop offset="0.73913" stop-color="#cae8f6"/><stop offset="0.75" stop-color="#c8e8f6"/><stop offset="0.76087" stop-color="#c7e7f6"/><stop offset="0.77174" stop-color="#c5e7f5"/><stop offset="0.78261" stop-color="#c4e6f5"/><stop offset="0.79348" stop-color="#c2e5f5"/><stop offset="0.80435" stop-color="#c1e5f5"/><stop offset="0.81522" stop-color="#bfe4f4"/><stop offset="0.82609" stop-color="#bee3f4"/><stop offset="0.83696" stop-color="#bce3f4"/><stop offset="0.84783" stop-color="#bae2f3"/><stop offset="0.8587" stop-color="#b9e1f3"/><stop offset="0.86957" stop-color="#b7e0f3"/><stop offset="0.88044" stop-color="#b5e0f3"/><stop offset="0.8913" stop-color="#b4dff2"/><stop offset="0.90217" stop-color="#b2def2"/><stop offset="0.91304" stop-color="#b0def2"/><stop offset="0.92391" stop-color="#aeddf2"/><stop offset="0.93478" stop-color="#addcf1"/><stop offset="0.94565" stop-color="#abdbf1"/><stop offset="0.95652" stop-color="#a9dbf1"/><stop offset="0.96739" stop-color="#a7daf0"/><stop offset="0.97826" stop-color="#a5d9f0"/><stop offset="0.98913" stop-color="#a3d8f0"/><stop offset="1" stop-color="#a2d8f0"/></linearGradient><clipPath id="clip-1"><rect x="-320" y="-180" transform="scale(0.5,0.5)" width="1920" height="1080" fill="none" fill-rule="nonzero" stroke-width="0.5"/></clipPath></defs><g transform="translate(160,90)"><g clip-path="url(#clip-1)" stroke="none" stroke-miterlimit="10"><path d="M124.42414,92.39099c0,-12.12346 9.83264,-21.95834 21.96134,-21.95834h346.48413c12.12346,0 21.95834,9.83489 21.95834,21.95834v175.21802c0,12.12346 -9.83489,21.95834 -21.95834,21.95834h-346.48413c-12.12869,0 -21.96134,-9.83489 -21.96134,-21.95834z" fill="url(#color-1)" fill-rule="evenodd" stroke-width="1"/><path d="M159.87311,98.85285c1.39932,0 2.60868,0.26177 3.62881,0.79277c1.01939,0.53101 1.79945,1.27891 2.33868,2.2437c0.53924,0.96479 0.80923,2.07168 0.80923,3.32068c0,1.10689 -0.25728,2.17639 -0.77108,3.20101c-0.51456,1.02462 -1.25198,2.04925 -2.21229,3.07387l-3.53981,3.7769h6.9278v4.53227h-14.18467v-3.20101l7.13048,-7.53135c0.69106,-0.7479 1.17121,-1.39109 1.44046,-1.92958c0.26999,-0.53849 0.40461,-1.09193 0.40461,-1.66034c0,-0.66563 -0.18099,-1.18916 -0.54298,-1.59303c-0.36273,-0.39639 -0.88925,-0.59832 -1.58031,-0.59832c-0.72546,0 -1.34846,0.22437 -1.87125,0.66563c-0.52278,0.44126 -0.96928,1.11437 -1.34024,2.01933l-3.66621,-2.58026c0.55644,-1.28639 1.41577,-2.35589 2.57876,-3.21597c1.16298,-0.86009 2.64682,-1.30135 4.45001,-1.3163z" fill="#000000" fill-rule="evenodd" stroke-width="1"/><path d="M198.76466,98.85285c1.39857,0 2.60793,0.26177 3.62806,0.79277c1.02014,0.53101 1.79945,1.27891 2.33868,2.2437c0.53998,0.96479 0.80923,2.07168 0.80923,3.32068c0,1.10689 -0.25728,2.17639 -0.77108,3.20101c-0.51381,1.02462 -1.25124,2.04925 -2.21229,3.07387l-3.53981,3.7769h6.9278v4.53227h-14.18467v-3.20101l7.13048,-7.53135c0.69106,-0.7479 1.17121,-1.39109 1.4412,-1.92958c0.26924,-0.53849 0.40461,-1.09193 0.40461,-1.66034c0,-0.66563 -0.18174,-1.18916 -0.54372,-1.59303c-0.36273,-0.39639 -0.88925,-0.59832 -1.58031,-0.59832c-0.72472,0 -1.34846,0.22437 -1.87125,0.66563c-0.52278,0.44126 -0.96928,1.11437 -1.34024,2.01933l-3.66621,-2.58026c0.55644,-1.28639 1.41577,-2.35589 2.57876,-3.21597c1.16298,-0.86009 2.64682,-1.30135 4.45075,-1.3163z" fill="#000000" fill-rule="evenodd" stroke-width="1"/><path d="M238.40336,98.85285c1.39857,0 2.60793,0.26177 3.62806,0.79277c1.02014,0.53101 1.79945,1.27891 2.33868,2.2437c0.53998,0.96479 0.80923,2.07168 0.80923,3.32068c0,1.10689 -0.25728,2.17639 -0.77108,3.20101c-0.51381,1.02462 -1.25124,2.04925 -2.21229,3.07387l-3.53981,3.7769h6.9278v4.53227h-14.18467v-3.20101l7.13048,-7.53135c0.69106,-0.7479 1.17121,-1.39109 1.4412,-1.92958c0.26924,-0.53849 0.40461,-1.09193 0.40461,-1.66034c0,-0.66563 -0.18174,-1.18916 -0.54372,-1.59303c-0.36273,-0.39639 -0.88925,-0.59832 -1.58031,-0.59832c-0.72472,0 -1.34846,0.22437 -1.87125,0.66563c-0.52278,0.44126 -0.96928,1.11437 -1.34024,2.01933l-3.66621,-2.58026c0.55644,-1.28639 1.41577,-2.35589 2.57951,-3.21597c1.16298,-0.86009 2.64607,-1.30135 4.45001,-1.3163z" fill="#000000" fill-rule="evenodd" stroke-width="1"/><path d="M255.30665,98.85285c2.41871,0 4.26976,0.89 5.55316,2.67748c1.28414,1.78 1.92584,4.39017 1.92584,7.81556c0,3.4179 -0.6417,6.01312 -1.92584,7.78564c-1.2834,1.77252 -3.13445,2.66252 -5.55316,2.66252c-2.41796,0 -4.26976,-0.89 -5.55316,-2.66252c-1.2834,-1.77252 -1.92584,-4.36774 -1.92584,-7.78564c0,-3.42538 0.64245,-6.03555 1.92584,-7.81556c1.2834,-1.78748 3.1352,-2.67748 5.55316,-2.67748zM255.30665,103.31033c-0.89449,0 -1.57732,0.50109 -2.04999,1.51824c-0.47192,1.01714 -0.70826,2.52042 -0.70826,4.51732c0,1.98194 0.23634,3.47774 0.70826,4.47992c0.47267,1.00967 1.15551,1.51076 2.04999,1.51076c0.89449,0 1.57807,-0.50109 2.04999,-1.51076c0.47192,-1.00219 0.70826,-2.49799 0.70826,-4.47992c0,-1.99689 -0.23634,-3.50017 -0.70826,-4.51732c-0.47192,-1.01714 -1.15551,-1.51824 -2.04999,-1.51824z" fill="#000000" fill-rule="evenodd" stroke-width="1"/><path d="M169.31011,99.60075h12.53854v3.79185l-4.53452,3.66471l0.05086,0.12714c0.97975,0 1.88321,0.25429 2.71039,0.77034c0.82718,0.50857 1.48159,1.21908 1.96324,2.13152c0.4809,0.91244 0.72172,1.92958 0.72172,3.05143c0,1.28639 -0.30813,2.43815 -0.9244,3.44034c-0.61627,1.00219 -1.46962,1.79496 -2.55857,2.36336c-1.08894,0.5684 -2.32597,0.85261 -3.71108,0.85261c-1.77252,0 -3.25037,-0.41135 -4.43206,-1.23404c-1.18243,-0.81521 -2.04401,-1.86227 -2.58399,-3.1337l3.67294,-2.46059c0.3545,0.86756 0.79352,1.51824 1.31705,1.9595c0.52353,0.43378 1.18243,0.65067 1.97595,0.65067c0.77632,0 1.40156,-0.21689 1.87424,-0.65067c0.47267,-0.44126 0.70901,-1.0321 0.70901,-1.78748c0,-0.77034 -0.24082,-1.38362 -0.72172,-1.84731c-0.48165,-0.45622 -1.12709,-0.68807 -1.93781,-0.68807c-0.30365,0 -0.58261,0.04487 -0.83615,0.13462c-0.25279,0.09723 -0.55719,0.24681 -0.91169,0.4637l-2.58325,-3.18605l4.40737,-4.04614h-6.20607z" fill="#000000" fill-rule="evenodd" stroke-width="1"/><path d="M208.53971,99.60075h12.18778v4.21816h-7.81705l-0.29991,3.11874c0.83241,-0.40387 1.73962,-0.6058 2.72236,-0.6058c1.29835,0 2.42245,0.26924 3.37153,0.81521c0.94909,0.54597 1.67754,1.3163 2.18536,2.31101c0.50782,0.99471 0.76136,2.15395 0.76136,3.47774c0,1.40605 -0.29991,2.62513 -0.89898,3.65723c-0.59907,1.0321 -1.4614,1.8174 -2.58474,2.37084c-1.12409,0.55345 -2.45162,0.83017 -3.98332,0.83017c-1.56535,0 -2.94299,-0.35899 -4.13364,-1.0695c-1.18991,-0.71051 -2.05972,-1.71269 -2.60942,-2.99908l3.77091,-2.5653c0.66638,1.60799 1.70671,2.41572 3.12173,2.41572c0.81596,0 1.47336,-0.22437 1.97296,-0.66563c0.4996,-0.44126 0.7494,-1.06202 0.7494,-1.84731c0,-0.82269 -0.23708,-1.45093 -0.712,-1.89967c-0.47417,-0.44126 -1.14429,-0.66563 -2.01036,-0.66563c-0.59907,0 -1.13606,0.15706 -1.61098,0.45622c-0.47417,0.29916 -0.83615,0.7479 -1.08595,1.33126l-3.92124,-1.78748z" fill="#000000" fill-rule="evenodd" stroke-width="1"/><path d="M185.00405,104.08815h4.4874v5.2353h-4.4874z" fill="#000000" fill-rule="evenodd" stroke-width="1"/><path d="M224.64275,104.08815h5.2353v5.2353h-5.2353z" fill="#000000" fill-rule="evenodd" stroke-width="1"/><path d="M185.00405,114.55875h4.4874v5.2353h-4.4874z" fill="#000000" fill-rule="evenodd" stroke-width="1"/><path d="M224.64275,114.55875h5.2353v5.2353h-5.2353z" fill="#000000" fill-rule="evenodd" stroke-width="1"/><path d="M190.65219,122.78565l0.73967,0.21689c-0.21689,0.50109 -0.46819,0.99471 -0.75463,1.4958h8.91048v0.71051h-4.86958v2.84202h4.49937v0.69555h-4.49937v3.24589h5.28391v0.73294h-5.28391v3.52261h-0.76959v-3.52261h-6.6608v-0.73294h2.16068v-3.94143h4.50011v-2.84202h-3.68565c-0.74042,1.1742 -1.56909,2.23622 -2.48677,3.20101l-0.47342,-0.62824c0.71051,-0.71798 1.36118,-1.51824 1.95351,-2.3858c0.59234,-0.87504 1.07099,-1.74261 1.43597,-2.61017zM190.13389,128.74641v3.24589h3.77465v-3.24589z" fill="#000000" fill-rule="evenodd" stroke-width="1"/><path d="M219.24889,123.53355h8.38546v10.57531c0,0.47866 -0.05684,0.83765 -0.16977,1.07698c-0.11368,0.23933 -0.30813,0.41135 -0.58486,0.50857c-0.27598,0.08975 -0.67984,0.13462 -1.21235,0.13462h-1.73064l-0.14734,-0.74042h1.71493c0.40461,0 0.70003,-0.02992 0.88776,-0.08227c0.18698,-0.05235 0.31561,-0.15706 0.38442,-0.31412c0.06881,-0.14958 0.10321,-0.38891 0.10321,-0.71798v-2.45311h-6.99511c-0.10845,0.98723 -0.31262,1.80992 -0.61328,2.48303c-0.30066,0.67311 -0.78679,1.42101 -1.45691,2.2437l-0.65067,-0.47866c0.61103,-0.72546 1.05977,-1.37614 1.34547,-1.94454c0.28645,-0.56093 0.4809,-1.21908 0.58411,-1.96698c0.10396,-0.7479 0.15556,-1.79496 0.15556,-3.15614zM219.98857,124.25901v2.97664h6.89115v-2.97664zM219.98857,127.94616v0.84513c0,0.76286 -0.01496,1.44345 -0.04487,2.03429h6.93602v-2.87942z" fill="#000000" fill-rule="evenodd" stroke-width="1"/><path d="M250.07135,124.28145h9.7227v11.95144h-0.8197v-1.11437h-8.06835v1.12933h-0.83466zM250.906,125.03683v4.2032h8.06835v-4.2032zM250.906,129.9954v4.36774h8.06835v-4.36774z" fill="#000000" fill-rule="evenodd" stroke-width="1"/><path d="M155.45452,124.28145c0.62225,0 1.17719,0.11966 1.66408,0.35899c0.48688,0.23933 0.86532,0.58336 1.13681,1.02462c0.27074,0.44126 0.40611,0.96479 0.40611,1.56311c0,0.62076 -0.13537,1.1742 -0.40611,1.6753c-0.27149,0.50109 -0.73818,1.11437 -1.40082,1.85479l-3.59889,3.93395h5.57186v0.80773h-6.7311v-0.7479l3.99005,-4.39765c0.623,-0.68807 1.05678,-1.24899 1.30284,-1.6753c0.24606,-0.4263 0.36871,-0.89 0.36871,-1.39109c0,-0.66563 -0.2154,-1.20412 -0.64693,-1.60051c-0.43229,-0.39639 -0.98947,-0.59832 -1.67156,-0.59832c-0.58261,0 -1.10166,0.15706 -1.55862,0.47118c-0.45697,0.31412 -0.81596,0.77782 -1.07698,1.38362l-0.6776,-0.4637c0.26102,-0.68059 0.68508,-1.2116 1.27293,-1.60799c0.5871,-0.39639 1.27218,-0.59084 2.05523,-0.59084z" fill="#000000" fill-rule="evenodd" stroke-width="1"/><path d="M164.80327,124.28145c1.20786,0 2.13451,0.47866 2.7792,1.43597c0.64544,0.96479 0.96778,2.35589 0.96778,4.17328c0,1.8174 -0.32234,3.20849 -0.96778,4.17328c-0.64469,0.95731 -1.57134,1.43597 -2.7792,1.43597c-1.18767,0 -2.10683,-0.47866 -2.75676,-1.44345c-0.64993,-0.96479 -0.97526,-2.35589 -0.97526,-4.1658c0,-1.80992 0.32534,-3.20101 0.97526,-4.1658c0.64993,-0.96479 1.56909,-1.44345 2.75676,-1.44345zM164.80327,125.07422c-0.90122,0 -1.59751,0.41135 -2.08888,1.24151c-0.49137,0.83017 -0.73743,2.01933 -0.73743,3.57496c0,1.56311 0.24606,2.75975 0.73743,3.58244c0.49137,0.82269 1.18767,1.23404 2.08888,1.23404c0.91094,0 1.61247,-0.41135 2.10384,-1.23404c0.49137,-0.82269 0.73743,-2.01933 0.73743,-3.58244c0,-1.55563 -0.24905,-2.74479 -0.74491,-3.57496c-0.49661,-0.83017 -1.19589,-1.24151 -2.09636,-1.24151z" fill="#000000" fill-rule="evenodd" stroke-width="1"/><path d="M173.40412,124.28145c0.62225,0 1.17719,0.11966 1.66408,0.35899c0.48688,0.23933 0.86532,0.58336 1.13681,1.02462c0.27074,0.44126 0.40611,0.96479 0.40611,1.56311c0,0.62076 -0.13537,1.1742 -0.40611,1.6753c-0.27149,0.50109 -0.73818,1.11437 -1.40082,1.85479l-3.59889,3.93395h5.57186v0.80773h-6.7311v-0.7479l3.99079,-4.39765c0.62225,-0.68807 1.05603,-1.24899 1.30209,-1.6753c0.24606,-0.4263 0.36871,-0.89 0.36871,-1.39109c0,-0.66563 -0.2154,-1.20412 -0.64693,-1.60051c-0.43229,-0.39639 -0.98947,-0.59832 -1.67156,-0.59832c-0.58261,0 -1.10166,0.15706 -1.55862,0.47118c-0.45697,0.31412 -0.81596,0.77782 -1.07698,1.38362l-0.6776,-0.4637c0.26102,-0.68059 0.68508,-1.2116 1.27293,-1.60799c0.5871,-0.39639 1.27218,-0.59084 2.05523,-0.59084z" fill="#000000" fill-rule="evenodd" stroke-width="1"/><path d="M211.17307,124.28145c1.20786,0 2.13451,0.47866 2.7792,1.43597c0.64544,0.96479 0.96778,2.35589 0.96778,4.17328c0,1.8174 -0.32234,3.20849 -0.96778,4.17328c-0.64469,0.95731 -1.57134,1.43597 -2.7792,1.43597c-1.18767,0 -2.10683,-0.47866 -2.75676,-1.44345c-0.65067,-0.96479 -0.97526,-2.35589 -0.97526,-4.1658c0,-1.80992 0.32459,-3.20101 0.97526,-4.1658c0.64993,-0.96479 1.56909,-1.44345 2.75676,-1.44345zM211.17307,125.07422c-0.90122,0 -1.59751,0.41135 -2.08888,1.24151c-0.49137,0.83017 -0.73743,2.01933 -0.73743,3.57496c0,1.56311 0.24606,2.75975 0.73743,3.58244c0.49137,0.82269 1.18767,1.23404 2.08888,1.23404c0.91094,0 1.61247,-0.41135 2.10384,-1.23404c0.49137,-0.82269 0.73743,-2.01933 0.73743,-3.58244c0,-1.55563 -0.2483,-2.74479 -0.74491,-3.57496c-0.49661,-0.83017 -1.19589,-1.24151 -2.09636,-1.24151z" fill="#000000" fill-rule="evenodd" stroke-width="1"/><path d="M234.73192,124.28145c0.62225,0 1.17719,0.11966 1.66408,0.35899c0.48688,0.23933 0.86607,0.58336 1.13681,1.02462c0.27074,0.44126 0.40686,0.96479 0.40686,1.56311c0,0.62076 -0.13612,1.1742 -0.40686,1.6753c-0.27074,0.50109 -0.73818,1.11437 -1.40007,1.85479l-3.59964,3.93395h5.57186v0.80773h-6.7311v-0.7479l3.99079,-4.39765c0.62225,-0.68807 1.05603,-1.24899 1.30209,-1.6753c0.24606,-0.4263 0.36946,-0.89 0.36946,-1.39109c0,-0.66563 -0.21614,-1.20412 -0.64768,-1.60051c-0.43154,-0.39639 -0.98872,-0.59832 -1.67156,-0.59832c-0.58261,0 -1.10166,0.15706 -1.55862,0.47118c-0.45697,0.31412 -0.81596,0.77782 -1.07623,1.38362l-0.67835,-0.4637c0.26102,-0.68059 0.68582,-1.2116 1.27293,-1.60799c0.5871,-0.39639 1.27218,-0.59084 2.05523,-0.59084z" fill="#000000" fill-rule="evenodd" stroke-width="1"/><path d="M183.17094,124.28145h1.17346v7.77068h1.40755v0.79277h-1.40755v2.65505h-0.85111v-2.65505h-5.22034v-0.69555zM183.49329,125.32103l-4.20843,6.7311h4.20843z" fill="#000000" fill-rule="evenodd" stroke-width="1"/><path d="M204.56761,124.28145h0.62973v11.2185h-0.84438v-10.16396l-2.14722,1.24899v-0.94983z" fill="#000000" fill-rule="evenodd" stroke-width="1"/><path d="M240.6336,124.28145h5.8755v0.7479l-3.42239,3.90404l0.02842,0.04487c0.29467,-0.08975 0.59458,-0.13462 0.89823,-0.13462c0.5325,0 1.03435,0.12714 1.50477,0.38891c0.47043,0.26177 0.84887,0.63572 1.13382,1.12933c0.2857,0.49361 0.4278,1.07698 0.4278,1.75757c0,0.66563 -0.13986,1.25647 -0.42032,1.76504c-0.28046,0.50857 -0.67535,0.90496 -1.18393,1.18916c-0.50857,0.2842 -1.08595,0.4263 -1.73288,0.4263c-0.76061,0 -1.43597,-0.19445 -2.02531,-0.57588c-0.58935,-0.38143 -1.04556,-0.91244 -1.36866,-1.57807l0.67012,-0.49361c0.3044,0.59084 0.6776,1.03958 1.11961,1.36118c0.44201,0.3216 0.98648,0.47866 1.63267,0.47866c0.72247,0 1.31256,-0.23933 1.76878,-0.71798c0.45622,-0.47866 0.68433,-1.09941 0.68433,-1.85479c0,-0.77034 -0.2326,-1.39109 -0.69854,-1.86227c-0.46594,-0.47118 -1.06501,-0.71051 -1.7972,-0.71051c-0.49436,0 -0.979,0.1421 -1.45467,0.41882l-0.45622,-0.65815l3.60787,-4.21816h-4.7918z" fill="#000000" fill-rule="evenodd" stroke-width="1"/><path d="M168.56296,140.73525h0.71424v1.69025h3.20774v-1.69025h0.71424v1.69025h1.20711v0.66563h-1.20711v6.71614h1.33425v0.65067h-7.479v-0.65067h1.50851v-6.71614h-1.09567v-0.66563h1.09567zM169.2772,143.09113v1.80992h3.20774v-1.80992zM169.2772,145.57416v1.78h3.20774v-1.78zM169.2772,148.00484v1.80244h3.20774v-1.80244z" fill="#000000" fill-rule="evenodd" stroke-width="1"/><path d="M154.45233,141.48315h8.93591v4.90622h-3.98406v1.72765h4.93689v0.65067h-4.93689v1.59303h4.41037v0.63572h-4.41037v1.80244h5.40657v0.65067h-11.8243v-0.65067h5.69152v-1.80244h-4.06932v-0.63572h4.06932v-1.59303h-3.65648c-0.49361,0.77034 -1.05304,1.4958 -1.67904,2.18387l-0.4981,-0.48614c0.50259,-0.55345 0.96778,-1.14429 1.39483,-1.77252c0.4263,-0.62824 0.78679,-1.25647 1.08072,-1.87723l0.66937,0.20941c-0.19969,0.41882 -0.38891,0.7853 -0.56915,1.09193h3.25785v-1.72765h-4.22564zM155.16358,142.10391v1.51824h7.51266v-1.51824zM155.16358,144.2429v1.52572h7.51266v-1.52572z" fill="#000000" fill-rule="evenodd" stroke-width="1"/><path d="M175.1011,142.23105h4.66764v10.09665c0,0.56093 -0.12415,0.94983 -0.3732,1.15925c-0.2483,0.20941 -0.70602,0.31412 -1.37314,0.31412h-1.3178l-0.14285,-0.68807h1.3178c0.31786,0 0.55868,-0.02244 0.72247,-0.07479c0.16379,-0.05235 0.27747,-0.1421 0.34104,-0.26924c0.06357,-0.13462 0.09573,-0.3216 0.09573,-0.58336v-2.55034h-3.30198c-0.07404,1.00219 -0.25653,1.82488 -0.54821,2.46807c-0.29093,0.64319 -0.78006,1.34622 -1.46813,2.09412l-0.68283,-0.4263c0.63497,-0.65815 1.09268,-1.24899 1.37314,-1.78748c0.28046,-0.53849 0.46594,-1.15925 0.55569,-1.86227c0.08975,-0.70303 0.13462,-1.72017 0.13462,-3.05891zM175.81609,142.9266v2.67h3.2227v-2.67zM175.81609,146.24727v1.09941c0,0.4263 -0.01047,0.96479 -0.03216,1.60799h3.25486v-2.7074z" fill="#000000" fill-rule="evenodd" stroke-width="1"/><path d="M182.76035,142.23105h11.2185v0.7479h-11.2185z" fill="#000000" fill-rule="evenodd" stroke-width="1"/><path d="M183.50825,146.71845h9.7227v0.7479h-9.7227z" fill="#000000" fill-rule="evenodd" stroke-width="1"/><path d="M169.50606,151.20585l0.53998,0.41135c-0.31113,0.41135 -0.70078,0.85261 -1.16747,1.33126c-0.46744,0.47866 -0.91468,0.89 -1.34248,1.24899l-0.48165,-0.49361c0.41808,-0.3216 0.85635,-0.71051 1.31331,-1.1742c0.45697,-0.4637 0.8369,-0.90496 1.1383,-1.32378z" fill="#000000" fill-rule="evenodd" stroke-width="1"/><path d="M172.0018,151.20585c0.28794,0.27672 0.5325,0.51605 0.73369,0.71798c0.38367,0.38891 0.73369,0.73294 1.05005,1.02462l-0.45996,0.50109l-0.51829,-0.51605c-0.60356,-0.61328 -1.02612,-1.0321 -1.26545,-1.24151z" fill="#000000" fill-rule="evenodd" stroke-width="1"/><path d="M182.01245,151.95375h12.7143v1.4958h-12.7143z" fill="#000000" fill-rule="evenodd" stroke-width="1"/><path d="M484.91196,70.43265h8.29421c11.94396,0 21.62178,9.83489 21.62178,21.95835v175.218c0,12.12346 -9.67782,21.95835 -21.62178,21.95835h-8.29421z" fill="#ffffff" fill-rule="evenodd" stroke-width="1"/></g></g></svg>