<svg version="1.1" xmlns="http://www.w3.org/2000/svg" xmlns:xlink="http://www.w3.org/1999/xlink" width="78.24324" height="29.30406" viewBox="0,0,78.24324,29.30406"><g transform="translate(-286.62838,-164.51877)"><g stroke-miterlimit="10"><path d="M286.62838,193.82284v-28.10811h78.24324v28.10811z" fill-opacity="0.00392" fill="#ffffff" stroke="none" stroke-width="0"/><text transform="translate(320.00003,185.76878) scale(0.5,0.5)" font-size="40" xml:space="preserve" fill="#0089ff" stroke="none" stroke-width="1" font-family="&quot;MiSans-Medium&quot;, Sans Serif" font-weight="normal" text-anchor="start"><tspan x="0" dy="0">角色</tspan></text><path d="M310.5832,178.89566z" fill="none" stroke="#0089ff" stroke-width="1.5"/><g fill="none" stroke="#0089ff" stroke-width="1.5"><path d="M300.44461,171.0066c0.4951,-0.19549 0.48762,0.04916 2.18712,4.54509c0.04617,0.12216 0.04709,0.06519 -0.00823,0.07095c-0.09508,0.0099 -0.29279,0.11283 -0.43053,0.16776c-0.14801,0.05902 -0.24406,0.10877 -0.32135,0.14848c-0.04044,0.02077 -0.10017,0.02692 -0.14404,-0.09229c-1.5558,-4.22722 -1.86718,-4.62834 -1.28297,-4.83998z"/><path d="M303.00457,179.95538c-1.21835,0 -2.20601,-0.96579 -2.20601,-2.15717c0,-0.10473 -0.84133,-1.23435 -0.77722,-1.72007c0.05391,-0.36818 1.27319,-0.04002 1.53659,-0.07313c0.64777,-0.13351 0.72682,-0.36397 1.44664,-0.36397c0.21038,0 0.47132,-0.93732 0.80935,-0.73143c0.62519,0.3808 1.39666,2.11531 1.39666,2.8886c0,1.19137 -0.98767,2.15717 -2.20601,2.15717z"/><path d="M306.04739,182.47907c-0.52639,0.36595 -1.08482,0.57825 -1.67317,0.63452c-0.3234,0.03093 -0.61271,0.06752 -0.89791,0.02215c-0.2496,-0.03971 -0.49836,-0.14447 -0.73365,-0.34029c-0.88597,-0.73736 -1.07597,-2.19613 -0.52489,-3.00764c0.01112,-0.01637 0.15989,0.03314 0.28045,0.07892c0.72311,0.27455 1.96063,-0.27142 2.30061,-0.84882c0.01593,-0.02705 0.14026,-0.18914 0.1602,-0.18451c0.26403,0.06143 0.52693,0.18837 0.79631,0.41257c0.95086,0.79137 1.12106,2.14216 0.40307,3.11513c-0.03199,0.04335 -0.07552,0.07616 -0.11101,0.11798z"/><path d="M303.093,185.85878c-0.34129,-0.75747 -0.22506,-1.0857 -0.11514,-1.68755c0.10435,-0.48574 0.27339,-0.78921 0.54383,-1.02281c0.03571,-0.03085 0.18005,0.01326 0.25478,0.01856c0.35491,0.02519 0.86674,-0.11324 1.20501,-0.15136c0.0907,-0.00883 0.52687,-0.20386 0.83812,-0.37687c0.17867,-0.09931 0.2899,-0.22421 0.33792,-0.21879c0.31374,0.03544 0.58543,0.09038 0.83107,0.26622c0.31305,0.22409 0.40487,0.29077 0.84379,0.92056c0.34944,0.59685 0.5983,1.52392 0.09984,2.25279c-0.47988,0.70169 -1.469,0.79332 -2.47639,0.79332c-1.11012,0 -2.00471,-0.08382 -2.3628,-0.79409z"/></g><path d="M294.98356,178.49328c0,-5.02469 4.07332,-9.09802 9.098,-9.09802c5.02469,0 9.098,4.07333 9.098,9.09802c0,5.02469 -4.07332,9.098 -9.098,9.098c-5.02469,0 -9.098,-4.07332 -9.098,-9.098z" fill="none" stroke="#0089ff" stroke-width="1.5"/></g></g></svg>