<svg version="1.1" xmlns="http://www.w3.org/2000/svg" xmlns:xlink="http://www.w3.org/1999/xlink" width="18.12503" height="41.53258" viewBox="0,0,18.12503,41.53258"><g transform="translate(-306.08454,-148.11345)"><g fill="#000000" stroke="none" stroke-width="0.5" stroke-miterlimit="10"><path d="M320.8905,148.40907c1.83307,0 3.31907,1.48599 3.31907,3.31907c0,0.45302 -0.09076,0.88486 -0.25509,1.27829c0.11206,0.89642 -3.68087,6.43385 -4.19316,7.76596c-2.47137,6.42617 -4.65075,12.57961 -6.05678,19.30367c-0.3876,1.85363 -0.05277,6.78864 -1.17454,7.91042c-2.21273,2.21273 -3.59566,2.21273 -5.80837,0c-1.54225,-1.54225 0.15823,-7.23789 0.48882,-9.07751c1.44451,-8.03767 3.75794,-17.29798 7.9011,-24.39534c0.61207,-1.04852 3.78348,-7.88988 5.77896,-6.10458z"/></g></g></svg>