<svg version="1.1" xmlns="http://www.w3.org/2000/svg" xmlns:xlink="http://www.w3.org/1999/xlink" width="960" height="540" viewBox="0,0,960,540"><defs><clipPath id="clip-1"><rect x="-320" y="-180" transform="scale(0.5,0.5)" width="1920" height="1080" fill="none" fill-rule="nonzero" stroke-width="0.5"/></clipPath></defs><g transform="translate(160,90)"><g clip-path="url(#clip-1)" data-paper-data="{&quot;isPaintingLayer&quot;:true}" stroke="none" stroke-linecap="butt" stroke-linejoin="miter" stroke-miterlimit="10" stroke-dasharray="" stroke-dashoffset="0" style="mix-blend-mode: normal"><path d="M289.60606,134.05153c0,-16.68734 13.52709,-30.21515 30.21515,-30.21515c16.68806,0 30.21515,13.52781 30.21515,30.21515c0,16.68734 -13.52709,30.21515 -30.21515,30.21515c-16.68806,0 -30.21515,-13.5278 -30.21515,-30.21515z" fill="#ffffff" fill-rule="evenodd" stroke-width="1"/><g fill="#ffffff" fill-rule="evenodd" stroke-width="1"><path d="M261,209.6788c0,-18.95831 15.36861,-34.32727 34.32727,-34.32727h49.34545c18.95866,0 34.32727,15.36896 34.32727,34.32727v0c0,18.95831 -15.36861,34.32727 -34.32727,34.32727h-49.34545c-18.95866,0 -34.32727,-15.36896 -34.32727,-34.32727z"/><path d="M261.13946,203.60001h117.72109l0.13945,1.19967c0,28.36756 -26.41412,51.36397 -59,51.36397c-32.58588,0 -59,-22.99641 -59,-51.36397z"/></g></g></g></svg>