<svg version="1.1" xmlns="http://www.w3.org/2000/svg" xmlns:xlink="http://www.w3.org/1999/xlink" width="1255.25526" height="681.68168" viewBox="0,0,1255.25526,681.68168"><g transform="translate(307.62763,160.84084)"><g data-paper-data="{&quot;isPaintingLayer&quot;:true}" stroke="none" stroke-linecap="butt" stroke-linejoin="miter" stroke-miterlimit="10" stroke-dasharray="" stroke-dashoffset="0" style="mix-blend-mode: normal"><path d="M-307.62763,520.84084v-681.68168h1255.25526v681.68168z" fill="#000000" fill-rule="nonzero" stroke-width="0"/><g fill="#4f4f4f" fill-rule="evenodd" stroke-width="1"><path d="M43.32394,338.72788v3.13218c0,0.1342 0.10886,0.24299 0.24299,0.24299h4.06528c0.13413,0 0.24299,0.10879 0.24299,0.24299v7.27521c0,0.1342 -0.10886,0.24299 -0.24299,0.24299h-2.55629c-0.13413,0 -0.24299,-0.10879 -0.24299,-0.24299v-5.11744c0,-0.1342 -0.10886,-0.24299 -0.24299,-0.24299h-1.023c-0.13413,0 -0.24299,0.10879 -0.24299,0.24299v5.11744c0,0.1342 -0.10886,0.24299 -0.24299,0.24299h-2.55629c-0.1342,0 -0.24299,-0.10879 -0.24299,-0.24299v-5.11744c0,-0.1342 -0.10879,-0.24299 -0.24299,-0.24299h-2.65835c-0.1342,0 -0.24299,0.10879 -0.24299,0.24299v2.96209c0,0.1342 0.10879,0.24299 0.24299,0.24299h1.88806c0.23045,0 0.33149,0.2897 0.15065,0.43253l-2.11404,1.66936c-0.04289,0.0339 -0.09601,0.05346 -0.15065,0.05346h-2.81629c-0.1342,0 -0.24299,-0.10879 -0.24299,-0.24299v-5.2365c0,-0.07876 0.03781,-0.15126 0.10206,-0.19683l2.87704,-2.04114c0.04109,-0.02914 0.09056,-0.04374 0.14094,-0.04374h2.82358c0.1342,0 0.24299,-0.10879 0.24299,-0.24299v-2.72395c0,-0.11941 0.08619,-0.22173 0.20411,-0.24056l2.55629,-0.40823c0.1475,-0.02358 0.28187,0.09107 0.28187,0.24056zM19.58593,339.08751l16.28297,-0.00486c0.23677,0 0.33402,0.3028 0.14094,0.43982l-2.35217,1.66936c-0.04111,0.02916 -0.09054,0.04617 -0.14094,0.04617l-8.56065,0.00486c-0.1342,0 -0.24299,0.10879 -0.24299,0.24299v8.13541c0,0.1342 -0.10879,0.24299 -0.24299,0.24299h-2.55629c-0.1342,0 -0.24299,-0.10879 -0.24299,-0.24299v-8.13541c0,-0.1342 -0.10879,-0.24299 -0.24299,-0.24299h-1.84189c-0.1342,0 -0.24299,-0.10879 -0.24299,-0.24299v-1.66936c0,-0.1342 0.10879,-0.24299 0.24299,-0.24299zM28.95575,342.08847h4.45892c0.1342,0 0.24299,0.10879 0.24299,0.24299v3.26583c0,0.1342 -0.10879,0.24299 -0.24299,0.24299h-4.53668l1.8103,-1.14693c0.20562,-0.13022 0.11216,-0.44711 -0.13122,-0.44711h-1.43609c-0.1342,0 -0.24299,0.10879 -0.24299,0.24299v2.96209c0,0.1342 0.10879,0.24299 0.24299,0.24299h3.77368c0.23687,0 0.33421,0.30286 0.14094,0.43982l-2.35704,1.66936c-0.04107,0.02909 -0.09061,0.04617 -0.14094,0.04617h-4.45892c-0.1342,0 -0.24299,-0.10879 -0.24299,-0.24299v-5.2365c0,-0.07876 0.03781,-0.15126 0.10206,-0.19683l2.87704,-2.04114c0.04109,-0.02914 0.09056,-0.04374 0.14094,-0.04374z"/><path d="M48.91835,339.06487c-0.13413,0 -0.24299,0.10879 -0.24299,0.24299v1.66936c0,0.1342 0.10886,0.24299 0.24299,0.24299h7.32381c0.0503,0 0.09987,-0.01708 0.14094,-0.04617l2.35704,-1.66936c0.19318,-0.13693 0.09574,-0.43982 -0.14094,-0.43982zM56.36367,347.17599c0,0.1342 0.10886,0.24299 0.24299,0.24299h1.15665v-5.11015c0,-0.1342 0.10886,-0.24299 0.24299,-0.24299h4.71407c0.2357,0 0.33169,0.30163 0.14094,0.43982l-1.9561,1.41665c-0.06293,0.04571 -0.09963,0.11892 -0.09963,0.19683v5.4795c0,0.1342 -0.10886,0.24299 -0.24299,0.24299h-2.55629c-0.13413,0 -0.24299,-0.10879 -0.24299,-0.24299v-2.17965l-1.37291,2.30357c-0.04398,0.07358 -0.12344,0.11907 -0.20897,0.11907h-2.67536c-0.13413,0 -0.24299,-0.10879 -0.24299,-0.24299v-5.11744c0,-0.1342 -0.10886,-0.24299 -0.24299,-0.24299h-1.05945c-0.13413,0 -0.24299,0.10879 -0.24299,0.24299v5.11744c0,0.1342 -0.10886,0.24299 -0.24299,0.24299h-2.56115c-0.13438,0 -0.24299,-0.10874 -0.24299,-0.24299l0.00486,-7.27521c0,-0.13416 0.10886,-0.24299 0.24299,-0.24299h7.20232c0.13413,0 0.24299,0.10879 0.24299,0.24299zM64.65459,342.12416l-2.87704,2.04114c-0.06415,0.04556 -0.10206,0.11807 -0.10206,0.19683v5.2365c0,0.1342 0.10886,0.24299 0.24299,0.24299h4.45892c0.0503,0 0.09987,-0.01708 0.14094,-0.04617l2.35704,-1.66936c0.19318,-0.13695 0.09574,-0.43982 -0.14094,-0.43982h-3.77368c-0.13413,0 -0.24299,-0.10879 -0.24299,-0.24299v-2.96209c0,-0.1342 0.10886,-0.24299 0.24299,-0.24299h1.43609c0.24348,0 0.33703,0.31688 0.13122,0.44711l-1.8103,1.14693h4.53668c0.13413,0 0.24299,-0.10879 0.24299,-0.24299v-3.26583c0,-0.1342 -0.10886,-0.24299 -0.24299,-0.24299h-4.45892c-0.05054,0 -0.09987,0.0146 -0.14094,0.04374z"/></g><text transform="translate(75.96407,346.36919) scale(0.18291,0.18291)" font-size="40" xml:space="preserve" fill="#4f4f4f" fill-rule="nonzero" stroke="none" stroke-width="1" stroke-linecap="butt" stroke-linejoin="miter" stroke-miterlimit="10" stroke-dasharray="" stroke-dashoffset="0" font-family="&quot;MiSans-Heavy&quot;, Sans Serif" font-weight="normal" text-anchor="start" style="mix-blend-mode: normal"><tspan x="0" dy="0">@_KOSHINO_</tspan></text></g></g></svg>