<svg version="1.1" xmlns="http://www.w3.org/2000/svg" xmlns:xlink="http://www.w3.org/1999/xlink" width="61.14307" height="16.46336" viewBox="0,0,61.14307,16.46336"><g transform="translate(-284.55694,-184.50979)"><g stroke="none" stroke-width="0.5" stroke-miterlimit="10"><path d="M293.1592,188.57187c6.82888,4.09733 2.91372,14.20629 -5.32125,12.12126c-4.39057,-1.11166 -3.9197,-6.49819 -1.25199,-9.79192c0.35999,-0.57753 0.85809,-1.06009 1.44809,-1.40145c1.43343,-1.0644 3.19923,-1.54263 5.0802,-0.91564z" fill="#ffafaf"/><path d="M344.26675,186.50123c4.1244,3.83996 -1.57055,9.25604 -5.5225,9.25604c-5.47534,0 -7.36227,-9.85448 -3.58081,-10.38212c0.70108,-0.54251 1.58074,-0.86536 2.5358,-0.86536c0.34989,0 0.68967,0.04333 1.01424,0.12491c2.25674,0.21353 3.50106,-0.04414 5.55326,1.86652z" fill="#ffafaf"/><path d="M307.39655,194.16331c0.5598,-1.12822 1.6509,-1.90888 3.04502,-2.44042c4.78216,-1.8233 13.12968,-0.71513 15.82753,-0.64782c1.31651,0.03285 2.5,0.88471 2.5,2.5c0,5.55742 -12.96863,2.37489 -14.78403,2.58504c-0.74261,0.08597 -4.53074,1.05765 -5.09665,0.2916z" fill="#000000"/></g></g></svg>