<svg version="1.1" xmlns="http://www.w3.org/2000/svg" xmlns:xlink="http://www.w3.org/1999/xlink" width="70.61507" height="26.75" viewBox="0,0,70.61507,26.75"><g transform="translate(-307.54247,-165.67925)"><g stroke-miterlimit="10"><path d="M307.54247,192.42925v-26.75h70.61507v26.75z" fill-opacity="0.00392" fill="#0077ff" stroke="none" stroke-width="0" stroke-linecap="butt"/><text transform="translate(332.45914,184.39375) scale(0.38082,0.38082)" font-size="40" xml:space="preserve" fill="#0077ff" stroke="none" stroke-width="1" stroke-linecap="butt" font-family="&quot;MiSans-Medium&quot;, Sans Serif" font-weight="normal" text-anchor="start"><tspan x="0" dy="0">粘贴</tspan></text><path d="M310.32787,180c0,-5.34177 4.33036,-9.67213 9.67213,-9.67213c5.34177,0 9.67213,4.33036 9.67213,9.67213c0,5.34177 -4.33036,9.67213 -9.67213,9.67213c-5.34177,0 -9.67213,-4.33036 -9.67213,-9.67213z" fill-opacity="0.00392" fill="#ffffff" stroke="#00326b" stroke-width="1.5" stroke-linecap="butt"/><path d="M314.6875,187.64751v-6.64773h2.38636" fill="none" stroke="#00326b" stroke-width="1.5" stroke-linecap="round"/><path d="M322.92614,180.99978h2.38636v6.64773" fill="none" stroke="#00326b" stroke-width="1.5" stroke-linecap="round"/><path d="M320,184.09091v-8.18182" fill="none" stroke="#00326b" stroke-width="1.5" stroke-linecap="round"/><path d="M320,175.90909l-2.5,2.5" fill="none" stroke="#00326b" stroke-width="1.5" stroke-linecap="round"/><path d="M320,175.90909l2.5,2.5" fill="none" stroke="#00326b" stroke-width="1.5" stroke-linecap="round"/><path d="M325.60825,172.10227v5.05682h-1.48892" fill="none" stroke="#00326b" stroke-width="1.5" stroke-linecap="round"/><path d="M316.10965,177.15909h-1.48892v-5.05682" fill="none" stroke="#00326b" stroke-width="1.5" stroke-linecap="round"/><g fill="none" stroke="#0077ff" stroke-width="2.5" stroke-linecap="round"><path d="M330.07501,182.25692l-7.70465,8.34856"/><path d="M322.37036,190.60547l-3.73201,-3.44416"/></g></g></g></svg>