<svg version="1.1" xmlns="http://www.w3.org/2000/svg" xmlns:xlink="http://www.w3.org/1999/xlink" width="402.61185" height="249.85885" viewBox="0,0,402.61185,249.85885"><defs><linearGradient x1="397.84907" y1="182.11239" x2="516.50577" y2="182.11239" gradientTransform="translate(-86.23832,-51.0123) scale(0.21673,0.21673)" gradientUnits="userSpaceOnUse" id="color-1"><stop offset="0" stop-color="#6facff" stop-opacity="0"/><stop offset="1" stop-color="#6facff"/></linearGradient><linearGradient x1="120.9322" y1="167.57556" x2="301.45226" y2="167.57556" gradientUnits="userSpaceOnUse" id="color-2"><stop offset="0" stop-color="#a0a9ff"/><stop offset="1" stop-color="#00b5ff"/></linearGradient><linearGradient x1="120.9322" y1="167.57556" x2="301.45226" y2="167.57556" gradientUnits="userSpaceOnUse" id="color-3"><stop offset="0" stop-color="#00b5ff" stop-opacity="0"/><stop offset="1" stop-color="#00b5ff" stop-opacity="0"/></linearGradient><linearGradient x1="306.48051" y1="169.34079" x2="438.25" y2="169.34079" gradientUnits="userSpaceOnUse" id="color-4"><stop offset="0" stop-color="#00b5ff"/><stop offset="1" stop-color="#00f2ff"/></linearGradient><linearGradient x1="312.15754" y1="210.01549" x2="436.0248" y2="210.01549" gradientTransform="translate(-1138.17646,-777.75005) scale(3.64618,3.64618)" gradientUnits="userSpaceOnUse" id="color-5"><stop offset="0" stop-color="#00b5ff"/><stop offset="1" stop-color="#0079ff"/></linearGradient></defs><g transform="translate(-120.9322,-41.85229)"><g stroke-miterlimit="10"><text transform="translate(397.89759,235.36716) scale(4.61393,4.61393)" font-size="40" xml:space="preserve" fill="url(#color-1)" fill-rule="nonzero" stroke="none" stroke-width="1" font-family="&quot;MiSans-Heavy&quot;, Sans Serif" font-weight="normal" text-anchor="start"><tspan x="0" dy="0">3</tspan></text><path d="M272.65699,133.11708v19.81693c0,0.8491 0.68875,1.53739 1.53739,1.53739h25.72049c0.84864,0 1.53739,0.68829 1.53739,1.53739v46.02938c0,0.8491 -0.68875,1.53739 -1.53739,1.53739h-16.17332c-0.84864,0 -1.53739,-0.68829 -1.53739,-1.53739v-32.37738c0,-0.8491 -0.68875,-1.53739 -1.53739,-1.53739h-6.4724c-0.84864,0 -1.53739,0.68829 -1.53739,1.53739v32.37738c0,0.8491 -0.68875,1.53739 -1.53739,1.53739h-16.17332c-0.8491,0 -1.53739,-0.68829 -1.53739,-1.53739v-32.37738c0,-0.8491 -0.68829,-1.53739 -1.53739,-1.53739h-16.81902c-0.8491,0 -1.53739,0.68829 -1.53739,1.53739v18.74075c0,0.8491 0.68829,1.53739 1.53739,1.53739h11.9455c1.45806,0 2.0973,1.83287 0.95318,2.73655l-13.37527,10.56185c-0.27135,0.21447 -0.60742,0.33823 -0.95318,0.33823h-17.81832c-0.8491,0 -1.53739,-0.68829 -1.53739,-1.53739v-33.1307c0,-0.49827 0.23922,-0.95702 0.6457,-1.24528l18.20267,-12.91406c0.25997,-0.18433 0.57298,-0.27673 0.89168,-0.27673h17.86444c0.8491,0 1.53739,-0.68829 1.53739,-1.53739v-17.23411c0,-0.75547 0.54531,-1.40287 1.29141,-1.52201l16.17332,-2.58281c0.93319,-0.1492 1.78337,0.57621 1.78337,1.52201zM122.4696,135.39241l103.02034,-0.03075c1.49803,0 2.11329,1.91574 0.89168,2.78267l-14.88191,10.56185c-0.26013,0.18449 -0.57283,0.2921 -0.89168,0.2921l-54.16216,0.03075c-0.8491,0 -1.53739,0.68829 -1.53739,1.53739v51.47173c0,0.8491 -0.68829,1.53739 -1.53739,1.53739h-16.17332c-0.8491,0 -1.53739,-0.68829 -1.53739,-1.53739v-51.47173c0,-0.8491 -0.68829,-1.53739 -1.53739,-1.53739h-11.6534c-0.8491,0 -1.53739,-0.68829 -1.53739,-1.53739v-10.56185c0,-0.8491 0.68829,-1.53739 1.53739,-1.53739zM181.75127,154.37915h28.21106c0.8491,0 1.53739,0.68829 1.53739,1.53739v20.66249c0,0.8491 -0.68829,1.53739 -1.53739,1.53739h-28.70302l11.45354,-7.25647c1.30094,-0.82389 0.70966,-2.82879 -0.83019,-2.82879h-9.08596c-0.8491,0 -1.53739,0.68829 -1.53739,1.53739v18.74075c0,0.8491 0.68829,1.53739 1.53739,1.53739h23.87563c1.49865,0 2.11452,1.9162 0.89168,2.78267l-14.91266,10.56185c-0.25982,0.18403 -0.57329,0.2921 -0.89168,0.2921h-28.21106c-0.8491,0 -1.53739,-0.68829 -1.53739,-1.53739v-33.1307c0,-0.49827 0.23922,-0.95702 0.6457,-1.24528l18.20267,-12.91406c0.25997,-0.18433 0.57298,-0.27673 0.89168,-0.27673z" fill="url(#color-2)" fill-rule="evenodd" stroke="url(#color-3)" stroke-width="0"/><path d="M308.04865,135.24921c-0.84864,0 -1.53739,0.68829 -1.53739,1.53739v10.56185c0,0.8491 0.68875,1.53739 1.53739,1.53739h46.33686c0.31823,0 0.63186,-0.10807 0.89168,-0.2921l14.91266,-10.56185c1.22223,-0.86632 0.60574,-2.78267 -0.89168,-2.78267h-61.24952zM355.15422,186.56723c0,0.8491 0.68875,1.53739 1.53739,1.53739h7.31796v-32.33126c0,-0.8491 0.68875,-1.53739 1.53739,-1.53739h29.82532c1.49126,0 2.09853,1.90836 0.89168,2.78267l-12.37597,8.96297c-0.39818,0.28918 -0.63033,0.75239 -0.63033,1.24528v34.66809c0,0.8491 -0.68875,1.53739 -1.53739,1.53739h-16.17332c-0.84864,0 -1.53739,-0.68829 -1.53739,-1.53739v-13.79037l-8.68624,14.57443c-0.27826,0.46552 -0.78099,0.75332 -1.32215,0.75332h-16.92664c-0.84864,0 -1.53739,-0.68829 -1.53739,-1.53739v-32.37738c0,-0.8491 -0.68875,-1.53739 -1.53739,-1.53739h-6.70301c-0.84864,0 -1.53739,0.68829 -1.53739,1.53739v32.37738c0,0.8491 -0.68875,1.53739 -1.53739,1.53739h-16.20406c-0.85018,0 -1.53739,-0.68798 -1.53739,-1.53739l0.03075,-46.02938c0,-0.84879 0.68875,-1.53739 1.53739,-1.53739h45.56817c0.84864,0 1.53739,0.68829 1.53739,1.53739zM407.60987,154.60491l-18.20267,12.91406c-0.40587,0.28826 -0.6457,0.74701 -0.6457,1.24528v33.1307c0,0.8491 0.68875,1.53739 1.53739,1.53739h28.21106c0.31823,0 0.63186,-0.10807 0.89168,-0.2921l14.91266,-10.56185c1.22223,-0.86647 0.60574,-2.78267 -0.89168,-2.78267h-23.87563c-0.84864,0 -1.53739,-0.68829 -1.53739,-1.53739v-18.74075c0,-0.8491 0.68875,-1.53739 1.53739,-1.53739h9.08596c1.54046,0 2.13236,2.0049 0.83019,2.82879l-11.45354,7.25647h28.70302c0.84864,0 1.53739,-0.68829 1.53739,-1.53739v-20.66249c0,-0.8491 -0.68875,-1.53739 -1.53739,-1.53739h-28.21106c-0.31977,0 -0.63186,0.0924 -0.89168,0.27673z" fill="url(#color-4)" fill-rule="evenodd" stroke="none" stroke-width="1"/><text transform="translate(312.15628,213.30573) scale(0.27426,0.27426)" font-size="40" xml:space="preserve" fill="url(#color-5)" fill-rule="nonzero" stroke="none" stroke-width="1" font-family="&quot;MiSans-Light&quot;, Sans Serif" font-weight="normal" text-anchor="start"><tspan x="0" dy="0">Technology create Future</tspan></text></g></g></svg>