<svg version="1.1" xmlns="http://www.w3.org/2000/svg" xmlns:xlink="http://www.w3.org/1999/xlink" width="31" height="341.2174" viewBox="0,0,31,341.2174"><g transform="translate(-289,-9.3913)"><g fill="#ffffff" stroke="none" stroke-width="0" stroke-miterlimit="10"><path d="M289,345.5v-331h31v331z"/><path d="M309.7826,14.5c0,-2.82145 2.28724,-5.1087 5.1087,-5.1087c2.82146,0 5.1087,2.28724 5.1087,5.1087c0,2.82146 -2.28724,5.1087 -5.1087,5.1087c-2.82146,0 -5.1087,-2.28724 -5.1087,-5.1087z"/><path d="M309.7826,345.5c0,-2.82146 2.28724,-5.1087 5.1087,-5.1087c2.82146,0 5.1087,2.28724 5.1087,5.1087c0,2.82146 -2.28724,5.1087 -5.1087,5.1087c-2.82146,0 -5.1087,-2.28724 -5.1087,-5.1087z"/><path d="M289,14.5c0,-2.82145 2.28724,-5.1087 5.1087,-5.1087c2.82146,0 5.1087,2.28724 5.1087,5.1087c0,2.82146 -2.28724,5.1087 -5.1087,5.1087c-2.82146,0 -5.1087,-2.28724 -5.1087,-5.1087z"/><path d="M289,345.5c0,-2.82146 2.28724,-5.1087 5.1087,-5.1087c2.82146,0 5.1087,2.28724 5.1087,5.1087c0,2.82146 -2.28724,5.1087 -5.1087,5.1087c-2.82146,0 -5.1087,-2.28724 -5.1087,-5.1087z"/><path d="M294.10869,350.6087v-341.21739h20.7826v341.21739z"/></g></g></svg>