<svg version="1.1" xmlns="http://www.w3.org/2000/svg" xmlns:xlink="http://www.w3.org/1999/xlink" width="157.45132" height="49.75228" viewBox="0,0,157.45132,49.75228"><g transform="translate(-241.27434,-155.12386)"><g data-paper-data="{&quot;isPaintingLayer&quot;:true}" stroke="none" stroke-width="1" stroke-linecap="butt" stroke-linejoin="miter" stroke-miterlimit="10" stroke-dasharray="" stroke-dashoffset="0" style="mix-blend-mode: normal"><path d="M241.27434,192.5844c0,-6.78973 5.50201,-12.29174 12.29174,-12.29174c6.78973,0 12.29174,5.50201 12.29174,12.29174c0,6.78973 -5.50201,12.29174 -12.29174,12.29174c-6.78973,0 -12.29174,-5.50201 -12.29174,-12.29174z" fill="#536880" fill-rule="evenodd"/><path d="M373.55686,192.5844c0,-6.78973 5.63078,-12.29174 12.5844,-12.29174c6.94776,0 12.5844,5.50201 12.5844,12.29174c0,6.78973 -5.63664,12.29174 -12.5844,12.29174c-6.95362,0 -12.5844,-5.50201 -12.5844,-12.29174z" fill="#536880" fill-rule="evenodd"/><path d="M373.55686,167.70826c0,-6.94776 5.63078,-12.5844 12.5844,-12.5844c6.94776,0 12.5844,5.63664 12.5844,12.5844c0,6.94776 -5.63664,12.5844 -12.5844,12.5844c-6.95362,0 -12.5844,-5.63664 -12.5844,-12.5844z" fill="#536880" fill-rule="evenodd"/><path d="M241.27434,167.70826c0,-6.94776 5.50201,-12.5844 12.29174,-12.5844c6.78973,0 12.29174,5.63664 12.29174,12.5844c0,6.94776 -5.50201,12.5844 -12.29174,12.5844c-6.78973,0 -12.29174,-5.63664 -12.29174,-12.5844z" fill="#536880" fill-rule="evenodd"/><path d="M253.56607,204.87614v-49.75228h132.86783v49.75228z" fill="#536880" fill-rule="evenodd"/><path d="M241.27434,192.5844v-25.16881h157.45131v25.16881z" fill="#536880" fill-rule="evenodd"/><text transform="translate(267.577,184.30992) scale(0.35916,0.35916)" font-size="40" xml:space="preserve" fill="#ffffff" fill-rule="nonzero" stroke="none" stroke-width="1" stroke-linecap="butt" stroke-linejoin="miter" stroke-miterlimit="10" stroke-dasharray="" stroke-dashoffset="0" font-family="&quot;MiSans-Heavy&quot;, Sans Serif" font-weight="normal" text-anchor="start" style="mix-blend-mode: normal"><tspan x="0" dy="0">导入 角色（旧）</tspan></text></g></g></svg>