<svg version="1.1" xmlns="http://www.w3.org/2000/svg" xmlns:xlink="http://www.w3.org/1999/xlink" width="31.54004" height="40.45654" viewBox="0,0,31.54004,40.45654"><defs><radialGradient cx="168.02002" cy="77.21045" r="0.00125" gradientUnits="userSpaceOnUse" id="color-1"><stop offset="0" stop-color="#000000" stop-opacity="0.37255"/><stop offset="1" stop-color="#ffffff"/></radialGradient></defs><g transform="translate(-304.5,-154.42089)"><g stroke="none" stroke-width="0" stroke-miterlimit="10"><path d="M304.5,187.12744c0,-4.28021 3.46979,-7.75 7.75,-7.75c4.28021,0 7.75,3.46979 7.75,7.75c0,4.28021 -3.46979,7.75 -7.75,7.75c-4.28021,0 -7.75,-3.46979 -7.75,-7.75z" fill-opacity="0.00392" fill="#ffffff"/><path d="M304.5,187.12744v-15.5h31v15.5z" fill-opacity="0.00392" fill="#ffffff"/><path d="M312.25,194.87744v-29.75486h15.5v29.75486z" fill-opacity="0.00392" fill="#ffffff"/><path d="M304.5,172.87258c0,-4.28021 3.46979,-7.75 7.75,-7.75c4.28021,0 7.75,3.46979 7.75,7.75c0,4.28021 -3.46979,7.75 -7.75,7.75c-4.28021,0 -7.75,-3.46979 -7.75,-7.75z" fill-opacity="0.00392" fill="#ffffff"/><path d="M320,187.12744c0,-4.28021 3.46979,-7.75 7.75,-7.75c4.28021,0 7.75,3.46979 7.75,7.75c0,4.28021 -3.46979,7.75 -7.75,7.75c-4.28021,0 -7.75,-3.46979 -7.75,-7.75z" fill-opacity="0.00392" fill="#ffffff"/><path d="M320,172.87258c0,-4.28021 3.46979,-7.75 7.75,-7.75c4.28021,0 7.75,3.46979 7.75,7.75c0,4.28021 -3.46979,7.75 -7.75,7.75c-4.28021,0 -7.75,-3.46979 -7.75,-7.75z" fill-opacity="0.00392" fill="#ffffff"/><path d="M336.04004,154.42089v0v0v0z" fill="url(#color-1)"/></g></g></svg>