<svg version="1.1" xmlns="http://www.w3.org/2000/svg" xmlns:xlink="http://www.w3.org/1999/xlink" width="95.26678" height="88.86364" viewBox="0,0,95.26678,88.86364"><g transform="translate(-272.36661,-140.06948)"><g data-paper-data="{&quot;isPaintingLayer&quot;:true}" fill-rule="nonzero" stroke-linejoin="miter" stroke-miterlimit="10" stroke-dasharray="" stroke-dashoffset="0" style="mix-blend-mode: normal"><path d="M272.83072,214.54068v-69.08127h94.33858v69.08127z" fill="#ffffff" stroke="none" stroke-width="0" stroke-linecap="butt"/><path d="M356.95192,145.4594c0,-2.97676 2.28724,-5.38991 5.1087,-5.38991c2.82146,0 5.1087,2.41314 5.1087,5.38991c0,2.97677 -2.28724,5.38991 -5.1087,5.38991c-2.82146,0 -5.1087,-2.41314 -5.1087,-5.38991z" fill="#ffffff" stroke="none" stroke-width="0" stroke-linecap="butt"/><path d="M356.95192,214.54068c0,-2.97677 2.28724,-5.38991 5.1087,-5.38991c2.82146,0 5.1087,2.41314 5.1087,5.38991c0,2.97677 -2.28724,5.38991 -5.1087,5.38991c-2.82146,0 -5.1087,-2.41314 -5.1087,-5.38991z" fill="#ffffff" stroke="none" stroke-width="0" stroke-linecap="butt"/><path d="M272.83072,145.4594c0,-2.97676 2.28724,-5.38991 5.1087,-5.38991c2.82146,0 5.1087,2.41314 5.1087,5.38991c0,2.97677 -2.28724,5.38991 -5.1087,5.38991c-2.82146,0 -5.1087,-2.41314 -5.1087,-5.38991z" fill="#ffffff" stroke="none" stroke-width="0" stroke-linecap="butt"/><path d="M272.83072,214.54068c0,-2.97677 2.28724,-5.38991 5.1087,-5.38991c2.82146,0 5.1087,2.41314 5.1087,5.38991c0,2.97677 -2.28724,5.38991 -5.1087,5.38991c-2.82146,0 -5.1087,-2.41314 -5.1087,-5.38991z" fill="#ffffff" stroke="none" stroke-width="0" stroke-linecap="butt"/><path d="M277.93942,219.93059v-79.86109h84.12119v79.86109z" fill="#ffffff" stroke="none" stroke-width="0" stroke-linecap="butt"/><path d="M274.86661,226.43312h90.26678" fill="none" stroke="#00b4ff" stroke-width="5" stroke-linecap="round"/></g></g></svg>