<svg version="1.1" xmlns="http://www.w3.org/2000/svg" xmlns:xlink="http://www.w3.org/1999/xlink" width="45.82689" height="13.43202" viewBox="0,0,45.82689,13.43202"><defs><linearGradient x1="336.11843" y1="183.39751" x2="342.91346" y2="183.39751" gradientUnits="userSpaceOnUse" id="color-1"><stop offset="0" stop-color="#0084ff"/><stop offset="1" stop-color="#0081ff"/></linearGradient><linearGradient x1="336.11843" y1="176.6815" x2="342.91346" y2="176.6815" gradientUnits="userSpaceOnUse" id="color-2"><stop offset="0" stop-color="#0085ff"/><stop offset="1" stop-color="#0081ff"/></linearGradient><linearGradient x1="300.40506" y1="180" x2="339.59496" y2="180" gradientUnits="userSpaceOnUse" id="color-3"><stop offset="0" stop-color="#00b5ff"/><stop offset="1" stop-color="#0081ff"/></linearGradient><linearGradient x1="297.08655" y1="180" x2="342.91346" y2="180" gradientUnits="userSpaceOnUse" id="color-4"><stop offset="0" stop-color="#00b5ff"/><stop offset="1" stop-color="#0081ff"/></linearGradient></defs><g transform="translate(-297.08655,-173.28399)"><g data-paper-data="{&quot;isPaintingLayer&quot;:true}" stroke-width="1" stroke-linecap="butt" stroke-linejoin="miter" stroke-miterlimit="10" stroke-dasharray="" stroke-dashoffset="0" style="mix-blend-mode: normal"><path d="M297.08656,183.39751c0,-1.83308 1.48542,-3.3185 3.3185,-3.3185c1.83308,0 3.3185,1.48542 3.3185,3.3185c0,1.83308 -1.48542,3.3185 -3.3185,3.3185c-1.83308,0 -3.3185,-1.48542 -3.3185,-3.3185z" fill="#00b2ff" fill-rule="evenodd" stroke="none"/><path d="M336.11843,183.39751c0,-1.83308 1.52019,-3.3185 3.39751,-3.3185c1.87574,0 3.39751,1.48542 3.39751,3.3185c0,1.83308 -1.52177,3.3185 -3.39751,3.3185c-1.87732,0 -3.39751,-1.48542 -3.39751,-3.3185z" fill="url(#color-1)" fill-rule="evenodd" stroke="none"/><path d="M336.11843,176.6815c0,-1.87574 1.52019,-3.39751 3.39751,-3.39751c1.87574,0 3.39751,1.52177 3.39751,3.39751c0,1.87574 -1.52177,3.39751 -3.39751,3.39751c-1.87732,0 -3.39751,-1.52177 -3.39751,-3.39751z" fill="url(#color-2)" fill-rule="evenodd" stroke="none"/><path d="M297.08656,176.6815c0,-1.87574 1.48542,-3.39751 3.3185,-3.39751c1.83308,0 3.3185,1.52177 3.3185,3.39751c0,1.87574 -1.48542,3.39751 -3.3185,3.39751c-1.83308,0 -3.3185,-1.52177 -3.3185,-3.39751z" fill="#00b3ff" fill-rule="evenodd" stroke="none"/><path d="M300.40506,186.71601v-13.43202h39.1899v13.43202z" fill="url(#color-3)" fill-rule="evenodd" stroke="none"/><path d="M297.08655,183.39751v-6.79502h45.82689v6.79502z" fill="url(#color-4)" fill-rule="evenodd" stroke="none"/><text transform="translate(310.99109,181.76165) scale(0.14022,0.14022)" font-size="40" xml:space="preserve" fill="#ffffff" fill-rule="nonzero" stroke="none" stroke-width="1" stroke-linecap="butt" stroke-linejoin="miter" stroke-miterlimit="10" stroke-dasharray="" stroke-dashoffset="0" font-family="&quot;MiSans-Medium&quot;, Sans Serif" font-weight="normal" text-anchor="start" style="mix-blend-mode: normal"><tspan x="0" dy="0">自定义大小</tspan></text><path d="M303.72356,182.99568v-5.83334h5.83333v5.83334z" fill="none" fill-rule="nonzero" stroke="#ffffff"/><path d="M305.92053,182.84416v-3.25757h3.63636v3.25757z" fill="none" fill-rule="nonzero" stroke="#ffffff"/></g></g></svg>